<svg xmlns="http://www.w3.org/2000/svg" xmlns:xlink="http://www.w3.org/1999/xlink" xmlns:lucid="lucid" width="1920.43" height="662"><g transform="translate(704.2165551578992 -266.24999999999955)" lucid:page-tab-id="e~~FuTP-7xSO"><path d="M-39.24 621.27l-.08 1-.24 1-.4.93-.52.87-.67.78-.77.66-.87.54-.93.4-1 .23-1 .08h-62.5v-1h62.47l.88-.07.84-.2.8-.33.73-.45.65-.56.55-.66.46-.73.33-.8.2-.84.06-.87V575.1h1zm52.1-113.52H-33.7l-.88.07-.84.2-.8.33-.73.45-.66.56-.56.66-.44.73-.33.8-.2.84-.07.87v5.83h-1v-5.87l.08-1 .23-1 .4-.93.53-.87.66-.78.78-.66.87-.54.95-.4 1-.23 1-.08h46.62z" stroke="#3a414a" stroke-width=".05" fill="#3a414a"/><path d="M-108.23 627.75h-.54l.03-.5-.02-.5h.53z" fill="#3a414a"/><path d="M-108.2 627.77h-.6l.03-.5-.02-.54h.6zm-.53-1v.5l-.02.46h.5v-.96z" stroke="#3a414a" stroke-width=".05" fill="#3a414a"/><path d="M27.64 507.25l-14.27 4.63v-9.26z" fill="#fff"/><path d="M29.26 507.25l-16.4 5.32v-10.64zm-15.4 3.95l12.16-3.95-12.15-3.95z" stroke="#3a414a" stroke-width=".05" fill="#3a414a"/><use xlink:href="#a" transform="matrix(1,0,0,1,-52.70614814788679,519.0964343833882) translate(0 37.333333333333314)"/><path d="M250.76 501.27l-.08 1-.24 1-.4.93-.52.87-.67.78-.77.66-.87.54-.93.4-1 .23-1 .08h-52.5v-1h52.47l.88-.07.84-.2.8-.33.73-.45.65-.56.56-.66.46-.73.33-.8.2-.84.06-.87v-5.98h1zm42.1-73.52H256.3l-.88.07-.84.2-.8.33-.73.45-.66.56-.56.66-.44.73-.33.8-.2.84-.07.87v5.98h-1v-6.02l.08-1 .23-1 .4-.93.53-.87.66-.78.78-.66.87-.54.95-.4 1-.23 1-.08h36.62z" stroke="#3a414a" stroke-width=".05" fill="#3a414a"/><path d="M191.77 507.75h-.54l.03-.5-.02-.5h.53z" fill="#3a414a"/><path d="M191.8 507.77h-.6l.03-.5-.02-.54h.6zm-.53-1v.5l-.02.46h.5v-.96z" stroke="#3a414a" stroke-width=".05" fill="#3a414a"/><path d="M307.64 427.25l-14.27 4.63v-9.26z" fill="#fff"/><path d="M309.26 427.25l-16.4 5.32v-10.64zm-15.4 3.95l12.16-3.95-12.15-3.95z" stroke="#3a414a" stroke-width=".05" fill="#3a414a"/><use xlink:href="#b" transform="matrix(1,0,0,1,237.2938518521132,439.24999999999955) translate(0 37.333333333333314)"/><path d="M293.37 586.75v1H264.7v-1zm-47.85-79.92l1 .24.94.4.87.52.77.65.67.78.53.87.4.94.23 1 .08 1v26.45h-1v-26.43l-.06-.88-.2-.85-.33-.8-.44-.73-.56-.66-.66-.56-.74-.45-.8-.33-.83-.2-.88-.07h-52.74v-1h52.77z" stroke="#3a414a" stroke-width=".05" fill="#3a414a"/><path d="M191.77 507.75h-.54l.03-.5-.02-.5h.53z" fill="#3a414a"/><path d="M191.8 507.77h-.6l.03-.5-.02-.54h.6zm-.53-1v.5l-.02.46h.5v-.96z" stroke="#3a414a" stroke-width=".05" fill="#3a414a"/><path d="M308.14 587.25l-14.27 4.63v-9.26z" fill="#fff"/><path d="M309.76 587.25l-16.4 5.32v-10.64zm-15.4 3.95l12.16-3.95-12.15-3.95z" stroke="#3a414a" stroke-width=".05" fill="#3a414a"/><use xlink:href="#c" transform="matrix(1,0,0,1,236.3125263005538,539.6903900637938) translate(0 37.333333333333314)"/><path d="M-39.24 781.23l.07.88.2.85.33.8.45.73.57.66.66.56.73.45.8.33.84.2.88.07h46.6v1h-46.64l-1-.08-1-.24-.94-.4-.86-.52-.78-.65-.66-.78-.54-.87-.4-.94-.23-1-.07-1v-2.65h1zm-5.5-154.4l1 .24.95.4.88.52.77.65.67.78.53.87.4.94.23 1 .08 1v89.37h-1v-89.33l-.07-.88-.2-.85-.34-.8-.45-.73-.55-.66-.66-.56-.75-.45-.8-.33-.83-.2-.88-.07h-62.48v-1h62.52z" stroke="#3a414a" stroke-width=".05" fill="#3a414a"/><path d="M-108.23 627.75h-.54l.03-.5-.02-.5h.53z" fill="#3a414a"/><path d="M-108.2 627.77h-.6l.03-.5-.02-.54h.6zm-.53-1v.5l-.02.46h.5v-.96z" stroke="#3a414a" stroke-width=".05" fill="#3a414a"/><path d="M27.64 787.25l-14.27 4.63v-9.26z" fill="#fff"/><path d="M29.26 787.25l-16.4 5.32v-10.64zm-15.4 3.95l12.16-3.95-12.15-3.95z" stroke="#3a414a" stroke-width=".05" fill="#3a414a"/><use xlink:href="#d" transform="matrix(1,0,0,1,-53.937629629368274,722.6071174084493) translate(0 37.333333333333314)"/><path d="M270.38 781.27l-.08 1-.24 1-.38.93-.54.87-.66.78-.78.66-.87.54-.94.4-1 .23-1 .08H211v-1h52.86l.88-.07.84-.2.8-.33.73-.45.67-.56.56-.66.45-.73.33-.8.2-.84.08-.87v-5.98h1zm42.5-73.52H275.9l-.88.07-.84.2-.8.33-.73.45-.66.56-.57.66-.45.73-.33.8-.2.84-.07.87v5.98h-1v-6.02l.08-1 .24-1 .4-.93.52-.87.66-.78.78-.66.87-.54.94-.4 1-.23 1-.08h37z" stroke="#3a414a" stroke-width=".05" fill="#3a414a"/><path d="M211.02 787.75h-.5v-1h.5z" stroke="#3a414a" stroke-width=".05" fill="#3a414a"/><path d="M327.64 707.25l-14.27 4.63v-9.26z" fill="#fff"/><path d="M329.26 707.25l-16.4 5.32v-10.64zm-15.4 3.95l12.16-3.95-12.15-3.95z" stroke="#3a414a" stroke-width=".05" fill="#3a414a"/><use xlink:href="#e" transform="matrix(1,0,0,1,256.9186179572301,719.2499999999995) translate(0 37.333333333333314)"/><path d="M270.38 861.23l.07.88.2.85.33.8.45.73.56.66.65.56.74.45.78.33.84.2.88.07h36.97v1h-37l-1-.08-1-.24-.94-.4-.87-.52-.78-.65-.66-.78-.53-.87-.4-.94-.24-1-.08-1v-6h1zm-5.48-74.4l1 .24.93.4.87.52.78.65.66.78.54.87.38.94.24 1 .08 1v6h-1v-5.97l-.07-.88-.2-.85-.32-.8-.45-.73-.56-.66-.66-.56-.72-.45-.8-.33-.84-.2-.88-.07H211v-1h52.9z" stroke="#3a414a" stroke-width=".05" fill="#3a414a"/><path d="M211.02 787.75h-.5v-1h.5z" stroke="#3a414a" stroke-width=".05" fill="#3a414a"/><path d="M327.64 867.25l-14.27 4.63v-9.26z" fill="#fff"/><path d="M329.26 867.25l-16.4 5.32v-10.64zm-15.4 3.95l12.16-3.95-12.15-3.95z" stroke="#3a414a" stroke-width=".05" fill="#3a414a"/><use xlink:href="#f" transform="matrix(1,0,0,1,262.1686179572301,799.2499999999995) translate(0 37.333333333333314)"/><path d="M526.06 427.75h-54.3v-1h54.3zm66.8 0h-38.4v-1h38.4z" stroke="#3a414a" stroke-width=".05" fill="#3a414a"/><path d="M471.77 427.75h-.54l.03-.5-.02-.5h.53z" fill="#3a414a"/><path d="M471.8 427.77h-.6l.03-.5-.02-.54h.6zm-.53-1v.5l-.02.46h.5v-.96z" stroke="#3a414a" stroke-width=".05" fill="#3a414a"/><path d="M607.64 427.25l-14.27 4.63v-9.26z" fill="#fff"/><path d="M609.26 427.25l-16.4 5.32v-10.64zm-15.4 3.95l12.16-3.95-12.15-3.95z" stroke="#3a414a" stroke-width=".05" fill="#3a414a"/><use xlink:href="#g" transform="matrix(1,0,0,1,526.0623703706318,399.24999999999955) translate(0 37.333333333333314)"/><path d="M816.06 327.75h-17.78l-.88.07-.84.2-.8.33-.73.45-.66.56-.56.66-.44.73-.33.8-.2.84-.07.87v88l-.08 1-.24 1-.4.93-.52.87-.66.78-.78.66-.87.54-.93.4-1 .23-1 .08h-14.5v-1h14.47l.88-.07.84-.2.8-.33.73-.45.64-.56.57-.66.46-.73.33-.8.2-.84.06-.87v-88l.08-1 .23-1 .4-.93.53-.87.66-.78.78-.66.87-.54.95-.4 1-.23 1-.08h17.8zm156.8 0h-128.4v-1h128.4z" stroke="#3a414a" stroke-width=".05" fill="#3a414a"/><path d="M771.77 427.75h-.54l.03-.5-.02-.5h.53z" fill="#3a414a"/><path d="M771.8 427.77h-.6l.03-.5-.02-.54h.6zm-.53-1v.5l-.02.46h.5v-.96z" stroke="#3a414a" stroke-width=".05" fill="#3a414a"/><path d="M987.64 327.25l-14.27 4.63v-9.26z" fill="#fff"/><path d="M989.26 327.25l-16.4 5.32v-10.64zm-15.4 3.95l12.16-3.95-12.15-3.95z" stroke="#3a414a" stroke-width=".05" fill="#3a414a"/><use xlink:href="#h" transform="matrix(1,0,0,1,816.0623703706318,299.24999999999955) translate(0 37.333333333333314)"/><path d="M792.3 521.23l.06.88.2.85.33.8.44.73.56.66.66.56.73.45.8.33.83.2.88.07h36.24v1h-36.27l-1-.08-1-.24-.93-.4-.87-.52-.78-.65-.67-.78-.53-.87-.4-.94-.23-1-.08-1v-93.5h1zm180.57 5.52v1H847v-1zM792.3 427.76h-1v-.5h1z" stroke="#3a414a" stroke-width=".05" fill="#3a414a"/><path d="M987.64 527.25l-14.27 4.63v-9.26z" fill="#fff"/><path d="M989.26 527.25l-16.4 5.32v-10.64zm-15.4 3.95l12.16-3.95-12.15-3.95z" stroke="#3a414a" stroke-width=".05" fill="#3a414a"/><use xlink:href="#i" transform="matrix(1,0,0,1,834.0411032400264,499.24999999999955) translate(0 37.333333333333314)"/><path d="M-149.74 587.25c22.1 0 40 17.9 40 40s-17.9 40-40 40h-80c-22.1 0-40-17.9-40-40s17.9-40 40-40z" stroke="#3a414a" stroke-width="2" fill="#fff"/><use xlink:href="#j" transform="matrix(1,0,0,1,-264.74318518492385,592.2499999999995) translate(70.37037037037037 41.97916666666666)"/><path d="M150.26 467.25c22.1 0 40 17.9 40 40s-17.9 40-40 40h-80c-22.1 0-40-17.9-40-40s17.9-40 40-40z" stroke="#3a414a" stroke-width="2" fill="#fff"/><use xlink:href="#k" transform="matrix(1,0,0,1,35.256814815076154,472.24999999999955) translate(61.111111111111114 41.97916666666666)"/><path d="M150.26 747.25c22.1 0 40 17.9 40 40s-17.9 40-40 40h-80c-22.1 0-40-17.9-40-40s17.9-40 40-40z" stroke="#3a414a" stroke-width="2" fill="#fff"/><use xlink:href="#l" transform="matrix(1,0,0,1,35.256814815076154,752.2499999999995) translate(60.23148148148149 41.97916666666666)"/><path d="M430.26 547.25c22.1 0 40 17.9 40 40s-17.9 40-40 40h-80c-22.1 0-40-17.9-40-40s17.9-40 40-40z" stroke="#3a414a" stroke-width="2" fill="#fff"/><use xlink:href="#m" transform="matrix(1,0,0,1,315.25681481507615,552.2499999999995) translate(46.3425925925926 41.97916666666666)"/><path d="M450.26 827.25c22.1 0 40 17.9 40 40s-17.9 40-40 40h-80c-22.1 0-40-17.9-40-40s17.9-40 40-40z" stroke="#3a414a" stroke-width="2" fill="#fc9432"/><use xlink:href="#n" transform="matrix(1,0,0,1,335.25681481507615,832.2499999999995) translate(50.0925925925926 41.97916666666666)"/><path d="M329.16 867.25h-.2.2" stroke="#3a414a" stroke-linejoin="round" fill="none"/><path d="M329.26 867.24v.5h-.52v-1h.55z" stroke="#3a414a" stroke-width=".05" fill="#3a414a"/><path d="M329.26 867.24v.5h-.12v-1h.15z" stroke="#3a414a" stroke-width=".05" fill="#3a414a"/><path d="M430.26 387.25c22.1 0 40 17.9 40 40s-17.9 40-40 40h-80c-22.1 0-40-17.9-40-40s17.9-40 40-40z" stroke="#3a414a" stroke-width="2" fill="#fff"/><use xlink:href="#o" transform="matrix(1,0,0,1,315.25681481507615,392.24999999999955) translate(47.22222222222223 41.97916666666666)"/><path d="M730.26 387.25c22.1 0 40 17.9 40 40s-17.9 40-40 40h-80c-22.1 0-40-17.9-40-40s17.9-40 40-40z" stroke="#3a414a" stroke-width="2" fill="#fff"/><use xlink:href="#p" transform="matrix(1,0,0,1,615.2568148150762,392.24999999999955) translate(32.45370370370372 41.97916666666666)"/><path d="M1110.26 287.25c22.1 0 40 17.9 40 40s-17.9 40-40 40h-80c-22.1 0-40-17.9-40-40s17.9-40 40-40z" stroke="#3a414a" stroke-width="2" fill="#fff"/><use xlink:href="#q" transform="matrix(1,0,0,1,995.2568148150762,292.24999999999955) translate(17.685185185185205 41.97916666666666)"/><path d="M1110.26 487.25c22.1 0 40 17.9 40 40s-17.9 40-40 40h-80c-22.1 0-40-17.9-40-40s17.9-40 40-40z" stroke="#3a414a" stroke-width="2" fill="#fc9432"/><use xlink:href="#r" transform="matrix(1,0,0,1,995.2568148150762,492.24999999999955) translate(23.194444444444464 41.97916666666666)"/><path d="M450.26 667.25c22.1 0 40 17.9 40 40s-17.9 40-40 40h-80c-22.1 0-40-17.9-40-40s17.9-40 40-40z" stroke="#3a414a" stroke-width="2" fill="#fc9432"/><use xlink:href="#s" transform="matrix(1,0,0,1,335.25681481507615,672.2499999999995) translate(46.3425925925926 41.97916666666666)"/><path d="M830.26 667.25c22.1 0 40 17.9 40 40s-17.9 40-40 40h-80c-22.1 0-40-17.9-40-40s17.9-40 40-40z" stroke="#3a414a" stroke-width="2" fill="#fcfcca"/><use xlink:href="#t" transform="matrix(1,0,0,1,715.2568148150762,672.2499999999995) translate(37.08333333333335 41.97916666666666)"/><path d="M627.26 707.75h-135.5v-1h135.5zm65.6 0h-52.64v-1h52.65z" stroke="#3a414a" stroke-width=".05" fill="#3a414a"/><path d="M491.77 707.75h-.54l.03-.5-.02-.5h.53z" fill="#3a414a"/><path d="M491.8 707.77h-.6l.03-.5-.02-.54h.6zm-.53-1v.5l-.02.46h.5v-.96z" stroke="#3a414a" stroke-width=".05" fill="#3a414a"/><path d="M707.64 707.25l-14.27 4.63v-9.26z" fill="#fff"/><path d="M709.26 707.25l-16.4 5.32v-10.64zm-15.4 3.95l12.16-3.95-12.15-3.95z" stroke="#3a414a" stroke-width=".05" fill="#3a414a"/><use xlink:href="#i" transform="matrix(1,0,0,1,627.2607702365793,679.2499999999995) translate(0 37.333333333333314)"/><path d="M873.26 707.2l12.1-.25 13.84-.87 13.4-1.4 12.8-1.9 12.12-2.3 11.34-2.66 10.56-2.94 9.78-3.18 9.02-3.35 8.3-3.5 7.65-3.6 7.02-3.65 6.45-3.73 5.93-3.76 5.46-3.8 5.03-3.8 4.64-3.84 4.3-3.85 3.93-3.85 3.65-3.9 3.37-3.9 3.12-3.92 2.88-3.96 2.65-4 2.45-4.04 2.25-4.1 2.07-4.15 1.88-4.24 1.7-4.3 1.54-4.42 1.36-4.52 1.2-4.64 1-4.8.84-4.93.65-5.13.04-.54" stroke="#e81313" stroke-width="4" stroke-linejoin="round" fill="none"/><path d="M873.35 709.2l-2.22.05.13-2-.07-2 2.07-.04z" stroke="#e81313" stroke-width=".05" fill="#e81313"/><path d="M1070.03 572.17l6.88 13.33-15.23-.88z" stroke="#e81313" stroke-width="4" fill="#e81313"/><path d="M691.9 481.56l-.26 6.25-1.08 12.88-1.6 12.65-2.1 12.37-2.54 12.05-3 11.68-3.4 11.26-3.77 10.82-4.1 10.37-4.4 9.88-4.67 9.4-4.9 8.93-5.12 8.45-5.3 7.97-5.44 7.5-5.6 7.06-5.7 6.63-5.85 6.22-5.93 5.8-6.03 5.44-6.1 5.07-6.22 4.7-6.3 4.4-6.4 4.04-6.47 3.75-6.57 3.44-6.68 3.14-6.8 2.86-6.9 2.57-7.06 2.3-7.2 2-7.36 1.72-7.52 1.44-7.73 1.13-7.94.83-8.17.52-6.4.13-.08-4 6.3-.12 8-.5 7.77-.82 7.55-1.12 7.36-1.4 7.2-1.7 7.03-1.95 6.9-2.25 6.75-2.5 6.64-2.8 6.53-3.08 6.43-3.36 6.34-3.65 6.24-3.96 6.16-4.3 6.08-4.6 6-4.97 5.9-5.3 5.82-5.7 5.7-6.1 5.62-6.5 5.5-6.93 5.34-7.37 5.2-7.83 5.03-8.3 4.83-8.77 4.6-9.25 4.33-9.74 4.04-10.2 3.7-10.68 3.37-11.1 2.95-11.52 2.53-11.9 2.06-12.2 1.6-12.48 1.05-12.7.26-6.17z" stroke="#e81313" stroke-width=".05" fill="#e81313"/><path d="M493.35 709.2l-2.22.05.13-2-.07-2 2.07-.04z" fill="#e81313"/><path d="M493.38 709.23l-2.27.05.13-2.02-.07-2.03 2.13-.05zm-2.17-3.95l.08 1.98-.12 1.97 2.17-.05-.08-3.95z" stroke="#e81313" stroke-width=".05" fill="#e81313"/><path d="M697.4 485.3l-15.25-.43 8-12.7z" fill="#e81313"/><path d="M700.86 487.4l-22.27-.63 11.66-18.52zm-15.15-4.43l8.26.23-3.93-7.1z" stroke="#e81313" stroke-width=".05" fill="#e81313"/><path d="M1153.26 527.2l1.9-.1 1.87-.2 1.82-.28 1.78-.34 1.75-.4 1.73-.5 1.7-.54 1.7-.63 1.66-.7 1.66-.77 1.65-.87 1.66-.95 1.65-1.04 1.66-1.16 1.67-1.26 1.7-1.4 1.68-1.5 1.7-1.7 1.73-1.82 1.75-2.02 1.77-2.23 1.78-2.45 1.8-2.7 1.8-3 1.82-3.3 1.8-3.65 1.8-4.04 1.77-4.46 1.7-4.92 1.63-5.4 1.5-5.87 1.36-6.38 1.14-6.84.92-7.25.63-7.56.32-7.77v-7.85l-.33-7.78-.64-7.57-.92-7.25-1.15-6.84-1.37-6.37-1.5-5.88-1.63-5.4-1.7-4.9-1.78-4.46-1.8-4.03-1.8-3.66-1.82-3.3-1.8-3-1.8-2.7-1.8-2.45-1.75-2.22-1.74-2.02-1.72-1.84-1.7-1.67-1.7-1.52-1.67-1.4-1.66-1.26-1.66-1.16-1.66-1.05-1.65-.97-1.65-.86-1.66-.78-1.67-.7-1.7-.64-1.5-.5" stroke="#e81313" stroke-width="4" stroke-linejoin="round" fill="none"/><path d="M1153.35 529.2l-2.22.05.13-2-.07-2 2.07-.04z" stroke="#e81313" stroke-width=".05" fill="#e81313"/><path d="M1155.13 327.9l14-5.4-2.53 15.07z" stroke="#e81313" stroke-width="4" fill="#e81313"/><path d="M791.6 761.62l-.06.73-.63 4.98-.78 4.68-.94 4.43-1.07 4.18-1.2 4-1.3 3.8-1.46 3.64-1.56 3.5-1.68 3.4-1.8 3.3-1.94 3.18-2.07 3.1-2.22 3.05-2.36 2.98-2.53 2.93-2.72 2.88-2.9 2.85-3.15 2.84-3.38 2.8-3.68 2.78-4 2.78-4.36 2.77-4.78 2.77-5.3 2.76-5.9 2.77-6.6 2.77-7.45 2.77-8.5 2.77-9.83 2.74-11.52 2.7-13.77 2.63-16.9 2.48-21.68 2.27-30.16 1.85-108.12.82-.03-4 108.02-.82 29.97-1.84 21.5-2.24 16.74-2.46 13.6-2.6 11.37-2.64 9.66-2.7 8.36-2.7 7.3-2.72 6.44-2.7 5.74-2.7 5.15-2.7 4.64-2.67 4.23-2.68 3.85-2.68 3.54-2.7 3.26-2.7 3-2.7 2.8-2.74 2.6-2.76 2.42-2.8 2.26-2.85 2.1-2.9 1.98-2.98 1.85-3.04 1.72-3.14 1.6-3.25 1.5-3.36 1.38-3.5 1.27-3.64 1.16-3.82 1.03-4.03.9-4.24.75-4.5.6-4.83.07-.64z" stroke="#e81313" stroke-width=".05" fill="#e81313"/><path d="M493.33 869.24h-2.2l.13-1.98-.07-2 2.1-.02z" fill="#e81313"/><path d="M493.35 869.26l-2.24.02.13-2.02-.07-2.03 2.16-.02zm-2.14-4l.08 2-.12 1.97 2.14-.02-.03-3.94z" stroke="#e81313" stroke-width=".05" fill="#e81313"/><path d="M796.93 765.5l-15.24-.87 8.34-12.46z" fill="#e81313"/><path d="M800.32 767.7l-22.25-1.27 12.2-18.18zm-15.02-4.87l8.25.47-3.73-7.2z" stroke="#e81313" stroke-width=".05" fill="#e81313"/><path d="M-683.72 309.75a6 6 0 0 1 6-6h255.95a6 6 0 0 1 6 6v571.5a6 6 0 0 1-6 6h-255.95a6 6 0 0 1-6-6z" stroke="#3a414a" fill="#fff"/><use xlink:href="#u" transform="matrix(1,0,0,1,-671.7165551578992,315.75000001718877) translate(84.96296296296296 17.77777777777778)"/><path d="M-509.74 467.25c22.1 0 40 17.9 40 40s-17.9 40-40 40h-80c-22.1 0-40-17.9-40-40s17.9-40 40-40z" stroke="#3a414a" stroke-width="2" fill="#fff"/><use xlink:href="#v" transform="matrix(1,0,0,1,-624.7431851849238,472.24999999999955) translate(19.592592592592617 41.02083333333333)"/><path d="M-592.45 409.25h-35.3v-4h35.3zm127.53 0H-489v-4h24.08z" stroke="#e81313" stroke-width=".05" fill="#e81313"/><path d="M-627.7 409.25h-2.04v-4h2.05z" stroke="#e81313" stroke-width=".05" fill="#e81313"/><path d="M-455.63 407.25l-12.9 7.64v-15.3z" fill="#e81313"/><path d="M-451.7 407.25l-18.84 11.14v-22.3zm-14.84 4.13l7-4.13-7-4.13z" stroke="#e81313" stroke-width=".05" fill="#e81313"/><use xlink:href="#w" transform="matrix(1,0,0,1,-592.4483886161852,396.58333333333286) translate(0 14.222222222222223)"/><path d="M-509.74 607.25c22.1 0 40 17.9 40 40s-17.9 40-40 40h-80c-22.1 0-40-17.9-40-40s17.9-40 40-40z" stroke="#3a414a" stroke-width="2" fill="#fcfcca"/><use xlink:href="#x" transform="matrix(1,0,0,1,-624.7431851849238,612.2499999999995) translate(-4.2777777777777 39)"/><path d="M-509.74 747.25c22.1 0 40 17.9 40 40s-17.9 40-40 40h-80c-22.1 0-40-17.9-40-40s17.9-40 40-40z" stroke="#3a414a" stroke-width="2" fill="#fc9432"/><use xlink:href="#y" transform="matrix(1,0,0,1,-624.7431851849238,752.2499999999995) translate(2.3333333333333997 40.062499999999986)"/><use xlink:href="#z" transform="matrix(1,0,0,1,-624.7431851849238,752.2499999999995) translate(42.27777777777781 40.062499999999986)"/><defs><path fill="#333" d="M133-34C117-15 103 5 69 4 32 3 11-16 11-54c-1-60 55-63 116-61 1-26-3-47-28-47-18 1-26 9-28 27l-52-2c7-38 36-58 82-57s74 22 75 68l1 82c-1 14 12 18 25 15v27c-30 8-71 5-69-32zm-48 3c29 0 43-24 42-57-32 0-66-3-65 30 0 17 8 27 23 27" id="A"/><use transform="matrix(0.12962962962962957,0,0,0.12962962962962957,0,0)" xlink:href="#A" id="a"/><path fill="#333" d="M190-63c-7 42-38 67-86 67-59 0-84-38-90-98-12-110 154-137 174-36l-49 2c-2-19-15-32-35-32-30 0-35 28-38 64-6 74 65 87 74 30" id="B"/><use transform="matrix(0.12962962962962957,0,0,0.12962962962962957,0,0)" xlink:href="#B" id="b"/><path fill="#333" d="M88-194c31-1 46 15 58 34l-1-101h50l1 261h-48c-2-10 0-23-3-31C134-8 116 4 84 4 32 4 16-41 15-95c0-56 19-97 73-99zm17 164c33 0 40-30 41-66 1-37-9-64-41-64s-38 30-39 65c0 43 13 65 39 65" id="C"/><use transform="matrix(0.12962962962962957,0,0,0.12962962962962957,0,0)" xlink:href="#C" id="c"/><path fill="#333" d="M135-194c52 0 70 43 70 98 0 56-19 99-73 100-30 1-46-15-58-35L72 0H24l1-261h50v104c11-23 29-37 60-37zM114-30c31 0 40-27 40-66 0-37-7-63-39-63s-41 28-41 65c0 36 8 64 40 64" id="D"/><use transform="matrix(0.12962962962962957,0,0,0.12962962962962957,0,0)" xlink:href="#D" id="d"/><path fill="#333" d="M185-48c-13 30-37 53-82 52C43 2 14-33 14-96s30-98 90-98c62 0 83 45 84 108H66c0 31 8 55 39 56 18 0 30-7 34-22zm-45-69c5-46-57-63-70-21-2 6-4 13-4 21h74" id="E"/><use transform="matrix(0.12962962962962957,0,0,0.12962962962962957,0,0)" xlink:href="#E" id="e"/><path fill="#333" d="M121-226c-27-7-43 5-38 36h38v33H83V0H34v-157H6v-33h28c-9-59 32-81 87-68v32" id="F"/><use transform="matrix(0.12962962962962957,0,0,0.12962962962962957,0,0)" xlink:href="#F" id="f"/><path fill="#333" d="M195-6C206 82 75 100 31 46c-4-6-6-13-8-21l49-6c3 16 16 24 34 25 40 0 42-37 40-79-11 22-30 35-61 35-53 0-70-43-70-97 0-56 18-96 73-97 30 0 46 14 59 34l2-30h47zm-90-29c32 0 41-27 41-63 0-35-9-62-40-62-32 0-39 29-40 63 0 36 9 62 39 62" id="G"/><use transform="matrix(0.12962962962962957,0,0,0.12962962962962957,0,0)" xlink:href="#G" id="g"/><path fill="#333" d="M114-157C55-157 80-60 75 0H25v-261h50l-1 109c12-26 28-41 61-42 86-1 58 113 63 194h-50c-7-57 23-157-34-157" id="H"/><use transform="matrix(0.12962962962962957,0,0,0.12962962962962957,0,0)" xlink:href="#H" id="h"/><path fill="#333" d="M25-224v-37h50v37H25zM25 0v-190h50V0H25" id="I"/><use transform="matrix(0.12962962962962957,0,0,0.12962962962962957,0,0)" xlink:href="#I" id="i"/><path fill="#3a414a" d="M4 7l51-268h42L46 7H4" id="J"/><use transform="matrix(0.09259259259259256,0,0,0.09259259259259256,0,0)" xlink:href="#J" id="j"/><path fill="#3a414a" d="M133-34C117-15 103 5 69 4 32 3 11-16 11-54c-1-60 55-63 116-61 1-26-3-47-28-47-18 1-26 9-28 27l-52-2c7-38 36-58 82-57s74 22 75 68l1 82c-1 14 12 18 25 15v27c-30 8-71 5-69-32zm-48 3c29 0 43-24 42-57-32 0-66-3-65 30 0 17 8 27 23 27" id="K"/><g id="k"><use transform="matrix(0.09259259259259256,0,0,0.09259259259259256,0,0)" xlink:href="#J"/><use transform="matrix(0.09259259259259256,0,0,0.09259259259259256,9.259259259259256,0)" xlink:href="#K"/></g><path fill="#3a414a" d="M135-194c52 0 70 43 70 98 0 56-19 99-73 100-30 1-46-15-58-35L72 0H24l1-261h50v104c11-23 29-37 60-37zM114-30c31 0 40-27 40-66 0-37-7-63-39-63s-41 28-41 65c0 36 8 64 40 64" id="L"/><g id="l"><use transform="matrix(0.09259259259259256,0,0,0.09259259259259256,0,0)" xlink:href="#J"/><use transform="matrix(0.09259259259259256,0,0,0.09259259259259256,9.259259259259256,0)" xlink:href="#L"/></g><path fill="#3a414a" d="M88-194c31-1 46 15 58 34l-1-101h50l1 261h-48c-2-10 0-23-3-31C134-8 116 4 84 4 32 4 16-41 15-95c0-56 19-97 73-99zm17 164c33 0 40-30 41-66 1-37-9-64-41-64s-38 30-39 65c0 43 13 65 39 65" id="M"/><g id="m"><use transform="matrix(0.09259259259259256,0,0,0.09259259259259256,0,0)" xlink:href="#J"/><use transform="matrix(0.09259259259259256,0,0,0.09259259259259256,9.259259259259256,0)" xlink:href="#K"/><use transform="matrix(0.09259259259259256,0,0,0.09259259259259256,27.777777777777768,0)" xlink:href="#J"/><use transform="matrix(0.09259259259259256,0,0,0.09259259259259256,37.037037037037024,0)" xlink:href="#M"/></g><path fill="#3a414a" d="M121-226c-27-7-43 5-38 36h38v33H83V0H34v-157H6v-33h28c-9-59 32-81 87-68v32" id="N"/><g id="n"><use transform="matrix(0.09259259259259256,0,0,0.09259259259259256,0,0)" xlink:href="#J"/><use transform="matrix(0.09259259259259256,0,0,0.09259259259259256,9.259259259259256,0)" xlink:href="#L"/><use transform="matrix(0.09259259259259256,0,0,0.09259259259259256,29.537037037037027,0)" xlink:href="#J"/><use transform="matrix(0.09259259259259256,0,0,0.09259259259259256,38.79629629629628,0)" xlink:href="#N"/></g><path fill="#3a414a" d="M190-63c-7 42-38 67-86 67-59 0-84-38-90-98-12-110 154-137 174-36l-49 2c-2-19-15-32-35-32-30 0-35 28-38 64-6 74 65 87 74 30" id="O"/><g id="o"><use transform="matrix(0.09259259259259256,0,0,0.09259259259259256,0,0)" xlink:href="#J"/><use transform="matrix(0.09259259259259256,0,0,0.09259259259259256,9.259259259259256,0)" xlink:href="#K"/><use transform="matrix(0.09259259259259256,0,0,0.09259259259259256,27.777777777777768,0)" xlink:href="#J"/><use transform="matrix(0.09259259259259256,0,0,0.09259259259259256,37.037037037037024,0)" xlink:href="#O"/></g><path fill="#3a414a" d="M195-6C206 82 75 100 31 46c-4-6-6-13-8-21l49-6c3 16 16 24 34 25 40 0 42-37 40-79-11 22-30 35-61 35-53 0-70-43-70-97 0-56 18-96 73-97 30 0 46 14 59 34l2-30h47zm-90-29c32 0 41-27 41-63 0-35-9-62-40-62-32 0-39 29-40 63 0 36 9 62 39 62" id="P"/><g id="p"><use transform="matrix(0.09259259259259256,0,0,0.09259259259259256,0,0)" xlink:href="#J"/><use transform="matrix(0.09259259259259256,0,0,0.09259259259259256,9.259259259259256,0)" xlink:href="#K"/><use transform="matrix(0.09259259259259256,0,0,0.09259259259259256,27.777777777777768,0)" xlink:href="#J"/><use transform="matrix(0.09259259259259256,0,0,0.09259259259259256,37.037037037037024,0)" xlink:href="#O"/><use transform="matrix(0.09259259259259256,0,0,0.09259259259259256,55.555555555555536,0)" xlink:href="#J"/><use transform="matrix(0.09259259259259256,0,0,0.09259259259259256,64.8148148148148,0)" xlink:href="#P"/></g><path fill="#3a414a" d="M114-157C55-157 80-60 75 0H25v-261h50l-1 109c12-26 28-41 61-42 86-1 58 113 63 194h-50c-7-57 23-157-34-157" id="Q"/><g id="q"><use transform="matrix(0.09259259259259256,0,0,0.09259259259259256,0,0)" xlink:href="#J"/><use transform="matrix(0.09259259259259256,0,0,0.09259259259259256,9.259259259259256,0)" xlink:href="#K"/><use transform="matrix(0.09259259259259256,0,0,0.09259259259259256,27.777777777777768,0)" xlink:href="#J"/><use transform="matrix(0.09259259259259256,0,0,0.09259259259259256,37.037037037037024,0)" xlink:href="#O"/><use transform="matrix(0.09259259259259256,0,0,0.09259259259259256,55.555555555555536,0)" xlink:href="#J"/><use transform="matrix(0.09259259259259256,0,0,0.09259259259259256,64.8148148148148,0)" xlink:href="#P"/><use transform="matrix(0.09259259259259256,0,0,0.09259259259259256,85.09259259259257,0)" xlink:href="#J"/><use transform="matrix(0.09259259259259256,0,0,0.09259259259259256,94.35185185185182,0)" xlink:href="#Q"/></g><path fill="#3a414a" d="M25-224v-37h50v37H25zM25 0v-190h50V0H25" id="R"/><g id="r"><use transform="matrix(0.09259259259259256,0,0,0.09259259259259256,0,0)" xlink:href="#J"/><use transform="matrix(0.09259259259259256,0,0,0.09259259259259256,9.259259259259256,0)" xlink:href="#K"/><use transform="matrix(0.09259259259259256,0,0,0.09259259259259256,27.777777777777768,0)" xlink:href="#J"/><use transform="matrix(0.09259259259259256,0,0,0.09259259259259256,37.037037037037024,0)" xlink:href="#O"/><use transform="matrix(0.09259259259259256,0,0,0.09259259259259256,55.555555555555536,0)" xlink:href="#J"/><use transform="matrix(0.09259259259259256,0,0,0.09259259259259256,64.8148148148148,0)" xlink:href="#P"/><use transform="matrix(0.09259259259259256,0,0,0.09259259259259256,85.09259259259257,0)" xlink:href="#J"/><use transform="matrix(0.09259259259259256,0,0,0.09259259259259256,94.35185185185182,0)" xlink:href="#R"/></g><path fill="#3a414a" d="M185-48c-13 30-37 53-82 52C43 2 14-33 14-96s30-98 90-98c62 0 83 45 84 108H66c0 31 8 55 39 56 18 0 30-7 34-22zm-45-69c5-46-57-63-70-21-2 6-4 13-4 21h74" id="S"/><g id="s"><use transform="matrix(0.09259259259259256,0,0,0.09259259259259256,0,0)" xlink:href="#J"/><use transform="matrix(0.09259259259259256,0,0,0.09259259259259256,9.259259259259256,0)" xlink:href="#L"/><use transform="matrix(0.09259259259259256,0,0,0.09259259259259256,29.537037037037027,0)" xlink:href="#J"/><use transform="matrix(0.09259259259259256,0,0,0.09259259259259256,38.79629629629628,0)" xlink:href="#S"/></g><g id="t"><use transform="matrix(0.09259259259259256,0,0,0.09259259259259256,0,0)" xlink:href="#J"/><use transform="matrix(0.09259259259259256,0,0,0.09259259259259256,9.259259259259256,0)" xlink:href="#L"/><use transform="matrix(0.09259259259259256,0,0,0.09259259259259256,29.537037037037027,0)" xlink:href="#J"/><use transform="matrix(0.09259259259259256,0,0,0.09259259259259256,38.79629629629628,0)" xlink:href="#S"/><use transform="matrix(0.09259259259259256,0,0,0.09259259259259256,57.314814814814795,0)" xlink:href="#J"/><use transform="matrix(0.09259259259259256,0,0,0.09259259259259256,66.57407407407405,0)" xlink:href="#R"/></g><path fill="#3a414a" d="M30 0v-248h33v221h125V0H30" id="T"/><path fill="#3a414a" d="M100-194c63 0 86 42 84 106H49c0 40 14 67 53 68 26 1 43-12 49-29l28 8c-11 28-37 45-77 45C44 4 14-33 15-96c1-61 26-98 85-98zm52 81c6-60-76-77-97-28-3 7-6 17-6 28h103" id="U"/><path fill="#3a414a" d="M177-190C167-65 218 103 67 71c-23-6-38-20-44-43l32-5c15 47 100 32 89-28v-30C133-14 115 1 83 1 29 1 15-40 15-95c0-56 16-97 71-98 29-1 48 16 59 35 1-10 0-23 2-32h30zM94-22c36 0 50-32 50-73 0-42-14-75-50-75-39 0-46 34-46 75s6 73 46 73" id="V"/><path fill="#3a414a" d="M117-194c89-4 53 116 60 194h-32v-121c0-31-8-49-39-48C34-167 62-67 57 0H25l-1-190h30c1 10-1 24 2 32 11-22 29-35 61-36" id="W"/><path fill="#3a414a" d="M85-194c31 0 48 13 60 33l-1-100h32l1 261h-30c-2-10 0-23-3-31C134-8 116 4 85 4 32 4 16-35 15-94c0-66 23-100 70-100zm9 24c-40 0-46 34-46 75 0 40 6 74 45 74 42 0 51-32 51-76 0-42-9-74-50-73" id="X"/><g id="u"><use transform="matrix(0.06172839506172839,0,0,0.06172839506172839,0,0)" xlink:href="#T"/><use transform="matrix(0.06172839506172839,0,0,0.06172839506172839,12.345679012345679,0)" xlink:href="#U"/><use transform="matrix(0.06172839506172839,0,0,0.06172839506172839,24.691358024691358,0)" xlink:href="#V"/><use transform="matrix(0.06172839506172839,0,0,0.06172839506172839,37.03703703703704,0)" xlink:href="#U"/><use transform="matrix(0.06172839506172839,0,0,0.06172839506172839,49.382716049382715,0)" xlink:href="#W"/><use transform="matrix(0.06172839506172839,0,0,0.06172839506172839,61.72839506172839,0)" xlink:href="#X"/></g><path fill="#3a414a" d="M220-157c-53 9-28 100-34 157h-49v-107c1-27-5-49-29-50C55-147 81-57 75 0H25l-1-190h47c2 12-1 28 3 38 10-53 101-56 108 0 13-22 24-43 59-42 82 1 51 116 57 194h-49v-107c-1-25-5-48-29-50" id="Y"/><path fill="#3a414a" d="M115-3C79 11 28 4 28-45v-112H4v-33h27l15-45h31v45h36v33H77v99c-1 23 16 31 38 25v30" id="Z"/><path fill="#3a414a" d="M24 0v-248h52V0H24" id="aa"/><path fill="#3a414a" d="M135-194c87-1 58 113 63 194h-50c-7-57 23-157-34-157-59 0-34 97-39 157H25l-1-190h47c2 12-1 28 3 38 12-26 28-41 61-42" id="ab"/><path fill="#3a414a" d="M110-194c64 0 96 36 96 99 0 64-35 99-97 99-61 0-95-36-95-99 0-62 34-99 96-99zm-1 164c35 0 45-28 45-65 0-40-10-65-43-65-34 0-45 26-45 65 0 36 10 65 43 65" id="ac"/><g id="v"><use transform="matrix(0.07407407407407404,0,0,0.07407407407407404,0,0)" xlink:href="#Y"/><use transform="matrix(0.07407407407407404,0,0,0.07407407407407404,23.703703703703695,0)" xlink:href="#S"/><use transform="matrix(0.07407407407407404,0,0,0.07407407407407404,38.518518518518505,0)" xlink:href="#Z"/><use transform="matrix(0.07407407407407404,0,0,0.07407407407407404,47.333333333333314,0)" xlink:href="#K"/><use transform="matrix(0.07407407407407404,0,0,0.07407407407407404,62.148148148148124,0)" xlink:href="#aa"/><use transform="matrix(0.07407407407407404,0,0,0.07407407407407404,69.55555555555553,0)" xlink:href="#ab"/><use transform="matrix(0.07407407407407404,0,0,0.07407407407407404,85.77777777777774,0)" xlink:href="#N"/><use transform="matrix(0.07407407407407404,0,0,0.07407407407407404,94.59259259259255,0)" xlink:href="#ac"/></g><path fill="#333" d="M135-194c53 0 70 44 70 98 0 56-19 98-73 100-31 1-45-17-59-34 3 33 2 69 2 105H25l-1-265h48c2 10 0 23 3 31 11-24 29-35 60-35zM114-30c33 0 39-31 40-66 0-38-9-64-40-64-56 0-55 130 0 130" id="ad"/><path fill="#333" d="M135-194c87-1 58 113 63 194h-50c-7-57 23-157-34-157-59 0-34 97-39 157H25l-1-190h47c2 12-1 28 3 38 12-26 28-41 61-42" id="ae"/><path fill="#333" d="M123 10C108 53 80 86 19 72V37c35 8 53-11 59-39L3-190h52l48 148c12-52 28-100 44-148h51" id="af"/><g id="w"><use transform="matrix(0.04938271604938272,0,0,0.04938271604938272,0,0)" xlink:href="#C"/><use transform="matrix(0.04938271604938272,0,0,0.04938271604938272,10.814814814814815,0)" xlink:href="#E"/><use transform="matrix(0.04938271604938272,0,0,0.04938271604938272,20.69135802469136,0)" xlink:href="#ad"/><use transform="matrix(0.04938271604938272,0,0,0.04938271604938272,31.506172839506174,0)" xlink:href="#E"/><use transform="matrix(0.04938271604938272,0,0,0.04938271604938272,41.38271604938272,0)" xlink:href="#ae"/><use transform="matrix(0.04938271604938272,0,0,0.04938271604938272,52.19753086419754,0)" xlink:href="#C"/><use transform="matrix(0.04938271604938272,0,0,0.04938271604938272,63.01234567901235,0)" xlink:href="#E"/><use transform="matrix(0.04938271604938272,0,0,0.04938271604938272,72.8888888888889,0)" xlink:href="#ae"/><use transform="matrix(0.04938271604938272,0,0,0.04938271604938272,83.70370370370371,0)" xlink:href="#B"/><use transform="matrix(0.04938271604938272,0,0,0.04938271604938272,93.58024691358025,0)" xlink:href="#af"/></g><path fill="#3a414a" d="M14-72v-43h91v43H14" id="ag"/><path fill="#3a414a" d="M135-150c-39-12-60 13-60 57V0H25l-1-190h47c2 13-1 29 3 40 6-28 27-53 61-41v41" id="ah"/><path fill="#3a414a" d="M25 0v-261h50V0H25" id="ai"/><path fill="#3a414a" d="M12 0v-35l95-120H19v-35h142v35L67-36h103V0H12" id="aj"/><g id="x"><use transform="matrix(0.055555555555555504,0,0,0.055555555555555504,0,0)" xlink:href="#ab"/><use transform="matrix(0.055555555555555504,0,0,0.055555555555555504,12.166666666666655,0)" xlink:href="#ac"/><use transform="matrix(0.055555555555555504,0,0,0.055555555555555504,24.33333333333331,0)" xlink:href="#ab"/><use transform="matrix(0.055555555555555504,0,0,0.055555555555555504,36.499999999999964,0)" xlink:href="#ag"/><use transform="matrix(0.055555555555555504,0,0,0.055555555555555504,43.11111111111107,0)" xlink:href="#Y"/><use transform="matrix(0.055555555555555504,0,0,0.055555555555555504,60.88888888888883,0)" xlink:href="#K"/><use transform="matrix(0.055555555555555504,0,0,0.055555555555555504,71.99999999999993,0)" xlink:href="#Z"/><use transform="matrix(0.055555555555555504,0,0,0.055555555555555504,78.61111111111103,0)" xlink:href="#S"/><use transform="matrix(0.055555555555555504,0,0,0.055555555555555504,89.72222222222213,0)" xlink:href="#ah"/><use transform="matrix(0.055555555555555504,0,0,0.055555555555555504,97.4999999999999,0)" xlink:href="#R"/><use transform="matrix(0.055555555555555504,0,0,0.055555555555555504,103.05555555555546,0)" xlink:href="#K"/><use transform="matrix(0.055555555555555504,0,0,0.055555555555555504,114.16666666666656,0)" xlink:href="#ai"/><use transform="matrix(0.055555555555555504,0,0,0.055555555555555504,119.72222222222211,0)" xlink:href="#R"/><use transform="matrix(0.055555555555555504,0,0,0.055555555555555504,125.27777777777766,0)" xlink:href="#aj"/><use transform="matrix(0.055555555555555504,0,0,0.055555555555555504,135.27777777777766,0)" xlink:href="#S"/><use transform="matrix(0.055555555555555504,0,0,0.055555555555555504,146.38888888888874,0)" xlink:href="#M"/></g><path fill="#3a414a" d="M137-138c1-29-70-34-71-4 15 46 118 7 119 86 1 83-164 76-172 9l43-7c4 19 20 25 44 25 33 8 57-30 24-41C81-84 22-81 20-136c-2-80 154-74 161-7" id="ak"/><g id="y"><use transform="matrix(0.055555555555555504,0,0,0.055555555555555504,0,0)" xlink:href="#Q"/><use transform="matrix(0.055555555555555504,0,0,0.055555555555555504,12.166666666666655,0)" xlink:href="#K"/><use transform="matrix(0.055555555555555504,0,0,0.055555555555555504,23.277777777777757,0)" xlink:href="#ak"/></g><path fill="#3a414a" d="M144 0l-44-69L55 0H2l70-98-66-92h53l41 62 40-62h54l-67 91 71 99h-54" id="al"/><path fill="#3a414a" d="M135-194c53 0 70 44 70 98 0 56-19 98-73 100-31 1-45-17-59-34 3 33 2 69 2 105H25l-1-265h48c2 10 0 23 3 31 11-24 29-35 60-35zM114-30c33 0 39-31 40-66 0-38-9-64-40-64-56 0-55 130 0 130" id="am"/><g id="z"><use transform="matrix(0.055555555555555504,0,0,0.055555555555555504,0,0)" xlink:href="#S"/><use transform="matrix(0.055555555555555504,0,0,0.055555555555555504,11.1111111111111,0)" xlink:href="#al"/><use transform="matrix(0.055555555555555504,0,0,0.055555555555555504,22.2222222222222,0)" xlink:href="#am"/><use transform="matrix(0.055555555555555504,0,0,0.055555555555555504,34.38888888888886,0)" xlink:href="#ah"/><use transform="matrix(0.055555555555555504,0,0,0.055555555555555504,42.16666666666663,0)" xlink:href="#S"/><use transform="matrix(0.055555555555555504,0,0,0.055555555555555504,53.27777777777773,0)" xlink:href="#ak"/><use transform="matrix(0.055555555555555504,0,0,0.055555555555555504,64.38888888888883,0)" xlink:href="#ak"/><use transform="matrix(0.055555555555555504,0,0,0.055555555555555504,75.49999999999993,0)" xlink:href="#R"/><use transform="matrix(0.055555555555555504,0,0,0.055555555555555504,81.05555555555549,0)" xlink:href="#ac"/><use transform="matrix(0.055555555555555504,0,0,0.055555555555555504,93.22222222222214,0)" xlink:href="#ab"/></g></defs></g></svg>