<svg xmlns="http://www.w3.org/2000/svg" xmlns:xlink="http://www.w3.org/1999/xlink" xmlns:lucid="lucid" width="3190.56" height="1084"><g transform="translate(683.685127042447 -78)" lucid:page-tab-id="CyzczEyW~6JQ"><path d="M-1000 0h3500v1500h-3500z" fill="#fff"/><path d="M-663.18 871.75a6 6 0 0 1 6-6H-6a6 6 0 0 1 6 6V1074a6 6 0 0 1-6 6h-651.18a6 6 0 0 1-6-6z" stroke="#3a414a" fill="#fff"/><use xlink:href="#a" transform="matrix(1,0,0,1,-658.185127042447,870.7518382563029) translate(0 107.46527777777777)"/><path d="M-663.18 533.18a6 6 0 0 1 6-6H-6a6 6 0 0 1 6 6v326.57a6 6 0 0 1-6 6h-651.18a6 6 0 0 1-6-6z" stroke="#3a414a" fill="#fff"/><use xlink:href="#b" transform="matrix(1,0,0,1,-658.185127042447,532.185214992414) translate(0 166.85590277777777)"/><path d="M-663.18 373.2a6 6 0 0 1 6-6H-6a6 6 0 0 1 6 6v266.65a6 6 0 0 1-6 6h-651.18a6 6 0 0 1-6-6z" stroke="#3a414a" fill="#fff"/><use xlink:href="#c" transform="matrix(1,0,0,1,-658.185127042447,372.185214992414) translate(0 139.66840277777777)"/><path d="M-663.18 233.2a6 6 0 0 1 6-6H-6a6 6 0 0 1 6 6v148a6 6 0 0 1-6 6h-651.18a6 6 0 0 1-6-6z" stroke="#3a414a" fill="#fff"/><use xlink:href="#d" transform="matrix(1,0,0,1,-658.185127042447,232.185214992414) translate(0 78.71527777777777)"/><path d="M-323.2 227.2c22.1 0 40 17.9 40 40 0 22.08-17.9 40-40 40h-80c-22.08 0-40-17.92-40-40 0-22.1 17.92-40 40-40z" stroke="#3a414a" fill="#fff"/><use xlink:href="#e" transform="matrix(1,0,0,1,-438.185127042447,232.185214992414) translate(-5.933170572916694 39.222330729166664)"/><path d="M-323.2 427.2c22.1 0 40 17.9 40 40 0 22.08-17.9 40-40 40h-80c-22.08 0-40-17.92-40-40 0-22.1 17.92-40 40-40z" stroke="#3a414a" fill="#fff"/><use xlink:href="#f" transform="matrix(1,0,0,1,-438.185127042447,432.185214992414) translate(-1.1723958333333542 39.222330729166664)"/><path d="M-323.2 667.18c22.1 0 40 17.9 40 40s-17.9 40-40 40h-80c-22.08 0-40-17.9-40-40s17.92-40 40-40z" stroke="#3a414a" fill="#fff"/><use xlink:href="#g" transform="matrix(1,0,0,1,-438.185127042447,672.185214992414) translate(-1.1723958333333542 39.222330729166664)"/><path d="M-323.2 920c22.1 0 40 17.9 40 40s-17.9 40-40 40h-80c-22.08 0-40-17.9-40-40s17.92-40 40-40z" stroke="#3a414a" fill="#fff"/><use xlink:href="#h" transform="matrix(1,0,0,1,-438.185127042447,925) translate(13.109928385416666 39.459309895833336)"/><path d="M-362.7 210.3h-1v-22.66h1zm0-84.07h-1V87.68h1z" stroke="#3a414a" stroke-width=".05" fill="#3a414a"/><path d="M-363.2 225.07l-4.62-14.27h9.27z" fill="#3a414a"/><path d="M-363.2 226.7l-5.3-16.4h10.64zm-3.93-15.4l3.94 12.15 3.96-12.15zM-362.7 87.7h-1v-.52h1z" stroke="#3a414a" stroke-width=".05" fill="#3a414a"/><use xlink:href="#i" transform="matrix(1,0,0,1,-406.032099698697,126.2297028396362) translate(0 13.209309895833334)"/><use xlink:href="#j" transform="matrix(1,0,0,1,-406.032099698697,126.2297028396362) translate(0 34.92784288194445)"/><use xlink:href="#k" transform="matrix(1,0,0,1,-406.032099698697,126.2297028396362) translate(19.043098958333335 34.92784288194445)"/><use xlink:href="#j" transform="matrix(1,0,0,1,-406.032099698697,126.2297028396362) translate(0 56.646375868055564)"/><use xlink:href="#l" transform="matrix(1,0,0,1,-406.032099698697,126.2297028396362) translate(19.043098958333335 56.646375868055564)"/><path d="M-363.2 308.2v111.6" stroke="#3a414a" fill="none"/><path d="M-362.7 308.2h-1v-.5h1z" stroke="#3a414a" stroke-width=".05" fill="#3a414a"/><path d="M-363.2 425.7l-7.62-12.9h15.27z" stroke="#3a414a" fill="#3a414a"/><path d="M-567 357a6 6 0 0 1 6-6h407.43a6 6 0 0 1 6 6v15.97a6 6 0 0 1-6 6H-561a6 6 0 0 1-6-6z" fill="#fff" fill-opacity="0"/><use xlink:href="#m" transform="matrix(1,0,0,1,-562,356) translate(0 13.209309895833334)"/><use xlink:href="#n" transform="matrix(1,0,0,1,-562,356) translate(28.564648437500004 13.209309895833334)"/><path d="M-363.2 508.2v151.6" stroke="#3a414a" fill="none"/><path d="M-362.7 508.2h-1v-.5h1z" stroke="#3a414a" stroke-width=".05" fill="#3a414a"/><path d="M-363.2 665.7l-7.62-12.9h15.27z" stroke="#3a414a" fill="#3a414a"/><path d="M-363.2 748.18v164.45" stroke="#3a414a" fill="none"/><path d="M-362.7 748.2h-1v-.52h1z" stroke="#3a414a" stroke-width=".05" fill="#3a414a"/><path d="M-363.2 918.52l-7.62-12.9h15.27z" stroke="#3a414a" fill="#3a414a"/><path d="M-363.2 1001v132.13" stroke="#3a414a" fill="none"/><path d="M-362.7 1001h-1v-.5h1z" stroke="#3a414a" stroke-width=".05" fill="#3a414a"/><path d="M-363.2 1139.02l-7.62-12.9h15.27z" stroke="#3a414a" fill="#3a414a"/><path d="M160 864.57a6 6 0 0 1 6-6h651.18a6 6 0 0 1 6 6v202.25a6 6 0 0 1-6 6H166a6 6 0 0 1-6-6z" stroke="#3a414a" fill="#fff"/><use xlink:href="#a" transform="matrix(1,0,0,1,165,863.5666232638889) translate(0 107.46527777777777)"/><path d="M160 526a6 6 0 0 1 6-6h651.18a6 6 0 0 1 6 6v326.57a6 6 0 0 1-6 6H166a6 6 0 0 1-6-6z" stroke="#3a414a" fill="#fff"/><use xlink:href="#b" transform="matrix(1,0,0,1,165,525) translate(0 166.85590277777777)"/><path d="M160 366a6 6 0 0 1 6-6h651.18a6 6 0 0 1 6 6v266.66a6 6 0 0 1-6 6H166a6 6 0 0 1-6-6z" stroke="#3a414a" fill="#fff"/><use xlink:href="#c" transform="matrix(1,0,0,1,165,365) translate(0 139.66840277777777)"/><path d="M160 226a6 6 0 0 1 6-6h651.18a6 6 0 0 1 6 6v148a6 6 0 0 1-6 6H166a6 6 0 0 1-6-6z" stroke="#3a414a" fill="#fff"/><use xlink:href="#d" transform="matrix(1,0,0,1,165,225) translate(0 78.71527777777777)"/><path d="M500 220c22.1 0 40 17.9 40 40s-17.9 40-40 40h-80c-22.1 0-40-17.9-40-40s17.9-40 40-40z" stroke="#3a414a" fill="#fff"/><use xlink:href="#e" transform="matrix(1,0,0,1,385,225) translate(-5.933170572916694 39.222330729166664)"/><path d="M500 420c22.1 0 40 17.9 40 40s-17.9 40-40 40h-80c-22.1 0-40-17.9-40-40s17.9-40 40-40z" stroke="#3a414a" fill="#fff"/><use xlink:href="#f" transform="matrix(1,0,0,1,385,425) translate(-1.1723958333333542 39.222330729166664)"/><path d="M500 660c22.1 0 40 17.9 40 40s-17.9 40-40 40h-80c-22.1 0-40-17.9-40-40s17.9-40 40-40z" stroke="#3a414a" fill="#fff"/><use xlink:href="#g" transform="matrix(1,0,0,1,385,665) translate(-1.1723958333333542 39.222330729166664)"/><path d="M500 912.82c22.1 0 40 17.9 40 40s-17.9 40-40 40h-80c-22.1 0-40-17.9-40-40s17.9-40 40-40z" stroke="#3a414a" fill="#fff"/><use xlink:href="#h" transform="matrix(1,0,0,1,385,917.814785007586) translate(13.109928385416666 39.459309895833336)"/><path d="M460.5 203.12h-1v-22.66h1zm0-84.08h-1V80.5h1z" stroke="#3a414a" stroke-width=".05" fill="#3a414a"/><path d="M460 217.88l-4.63-14.26h9.26z" fill="#3a414a"/><path d="M460 219.5l-5.32-16.38h10.64zm-3.95-15.38l3.95 12.14 3.95-12.14zM460.5 80.5h-1V80h1z" stroke="#3a414a" stroke-width=".05" fill="#3a414a"/><use xlink:href="#i" transform="matrix(1,0,0,1,417.15302734375,119.04448784722221) translate(0 13.209309895833334)"/><use xlink:href="#j" transform="matrix(1,0,0,1,417.15302734375,119.04448784722221) translate(0 34.92784288194445)"/><use xlink:href="#k" transform="matrix(1,0,0,1,417.15302734375,119.04448784722221) translate(19.043098958333335 34.92784288194445)"/><use xlink:href="#j" transform="matrix(1,0,0,1,417.15302734375,119.04448784722221) translate(0 56.646375868055564)"/><use xlink:href="#l" transform="matrix(1,0,0,1,417.15302734375,119.04448784722221) translate(19.043098958333335 56.646375868055564)"/><path d="M460 301v111.63" stroke="#3a414a" fill="none"/><path d="M460.5 301h-1v-.5h1z" stroke="#3a414a" stroke-width=".05" fill="#3a414a"/><path d="M460 418.52l-7.64-12.9h15.28z" stroke="#3a414a" fill="#3a414a"/><path d="M256.2 349.8a6 6 0 0 1 6-6h407.4a6 6 0 0 1 6 6v16a6 6 0 0 1-6 6H262.2a6 6 0 0 1-6-6z" fill="#fff" fill-opacity="0"/><use xlink:href="#m" transform="matrix(1,0,0,1,261.185127042447,348.81478500758595) translate(0 13.209309895833334)"/><use xlink:href="#n" transform="matrix(1,0,0,1,261.185127042447,348.81478500758595) translate(28.564648437500004 13.209309895833334)"/><path d="M460 501v151.63" stroke="#3a414a" fill="none"/><path d="M460.5 501h-1v-.5h1z" stroke="#3a414a" stroke-width=".05" fill="#3a414a"/><path d="M460 658.52l-7.64-12.9h15.28z" stroke="#3a414a" fill="#3a414a"/><path d="M272.2 529.82a6 6 0 0 1 6-6h378.85a6 6 0 0 1 6 6v102.84a6 6 0 0 1-6 6H278.2a6 6 0 0 1-6-6z" fill="#fff" fill-opacity="0"/><use xlink:href="#o" transform="matrix(1,0,0,1,277.185127042447,528.814785007586) translate(0 13.209309895833334)"/><use xlink:href="#p" transform="matrix(1,0,0,1,277.185127042447,528.814785007586) translate(0 34.92784288194445)"/><use xlink:href="#q" transform="matrix(1,0,0,1,277.185127042447,528.814785007586) translate(38.08619791666667 34.92784288194445)"/><use xlink:href="#p" transform="matrix(1,0,0,1,277.185127042447,528.814785007586) translate(0 56.646375868055564)"/><use xlink:href="#r" transform="matrix(1,0,0,1,277.185127042447,528.814785007586) translate(38.08619791666667 56.646375868055564)"/><use xlink:href="#p" transform="matrix(1,0,0,1,277.185127042447,528.814785007586) translate(0 78.36490885416667)"/><use xlink:href="#s" transform="matrix(1,0,0,1,277.185127042447,528.814785007586) translate(38.08619791666667 78.36490885416667)"/><use xlink:href="#t" transform="matrix(1,0,0,1,277.185127042447,528.814785007586) translate(0 100.08344184027779)"/><use xlink:href="#u" transform="matrix(1,0,0,1,277.185127042447,528.814785007586) translate(19.043098958333335 100.08344184027779)"/><path d="M460 741v164.44" stroke="#3a414a" fill="none"/><path d="M460.5 741h-1v-.5h1z" stroke="#3a414a" stroke-width=".05" fill="#3a414a"/><path d="M460 911.33l-7.64-12.9h15.28z" stroke="#3a414a" fill="#3a414a"/><path d="M460 993.82v132.12" stroke="#3a414a" fill="none"/><path d="M460.5 993.83h-1v-.5h1z" stroke="#3a414a" stroke-width=".05" fill="#3a414a"/><path d="M460 1131.83l-7.64-12.9h15.28z" stroke="#3a414a" fill="#3a414a"/><path d="M1000 871.75a6 6 0 0 1 6-6h651.18a6 6 0 0 1 6 6V1074a6 6 0 0 1-6 6H1006a6 6 0 0 1-6-6z" stroke="#3a414a" fill="#fff"/><use xlink:href="#a" transform="matrix(1,0,0,1,1004.9999999999999,870.751838256303) translate(0 107.46527777777777)"/><path d="M1000 533.18a6 6 0 0 1 6-6h651.18a6 6 0 0 1 6 6v326.57a6 6 0 0 1-6 6H1006a6 6 0 0 1-6-6z" stroke="#3a414a" fill="#fff"/><use xlink:href="#b" transform="matrix(1,0,0,1,1004.9999999999999,532.1852149924141) translate(0 166.85590277777777)"/><path d="M1000 373.2a6 6 0 0 1 6-6h651.18a6 6 0 0 1 6 6v266.65a6 6 0 0 1-6 6H1006a6 6 0 0 1-6-6z" stroke="#3a414a" fill="#fff"/><use xlink:href="#c" transform="matrix(1,0,0,1,1004.9999999999999,372.18521499241405) translate(0 139.66840277777777)"/><path d="M1000 233.2a6 6 0 0 1 6-6h651.18a6 6 0 0 1 6 6v148a6 6 0 0 1-6 6H1006a6 6 0 0 1-6-6z" stroke="#3a414a" fill="#fff"/><use xlink:href="#d" transform="matrix(1,0,0,1,1004.9999999999999,232.18521499241405) translate(0 78.71527777777777)"/><path d="M1340 227.2c22.1 0 40 17.9 40 40 0 22.08-17.9 40-40 40h-80c-22.1 0-40-17.92-40-40 0-22.1 17.9-40 40-40z" stroke="#3a414a" fill="#fff"/><use xlink:href="#e" transform="matrix(1,0,0,1,1225,232.18521499241405) translate(-5.933170572916694 39.222330729166664)"/><path d="M1340 427.2c22.1 0 40 17.9 40 40 0 22.08-17.9 40-40 40h-80c-22.1 0-40-17.92-40-40 0-22.1 17.9-40 40-40z" stroke="#3a414a" fill="#fff"/><use xlink:href="#f" transform="matrix(1,0,0,1,1225,432.18521499241405) translate(-1.1723958333333542 39.222330729166664)"/><path d="M1340 667.18c22.1 0 40 17.9 40 40s-17.9 40-40 40h-80c-22.1 0-40-17.9-40-40s17.9-40 40-40z" stroke="#3a414a" fill="#fff"/><use xlink:href="#g" transform="matrix(1,0,0,1,1225,672.1852149924141) translate(-1.1723958333333542 39.222330729166664)"/><path d="M1340 920c22.1 0 40 17.9 40 40s-17.9 40-40 40h-80c-22.1 0-40-17.9-40-40s17.9-40 40-40z" stroke="#3a414a" fill="#fff"/><use xlink:href="#h" transform="matrix(1,0,0,1,1225,925) translate(13.109928385416666 39.459309895833336)"/><path d="M1300.5 210.3h-1v-22.66h1zm0-84.07h-1V87.7h1z" stroke="#3a414a" stroke-width=".05" fill="#3a414a"/><path d="M1300 225.07l-4.63-14.27h9.27z" fill="#3a414a"/><path d="M1300 226.7l-5.32-16.4h10.64zm-3.95-15.4l3.95 12.15 3.95-12.15zM1300.5 87.7h-1v-.5h1z" stroke="#3a414a" stroke-width=".05" fill="#3a414a"/><use xlink:href="#i" transform="matrix(1,0,0,1,1257.15302734375,126.22970283963623) translate(0 13.209309895833334)"/><use xlink:href="#j" transform="matrix(1,0,0,1,1257.15302734375,126.22970283963623) translate(0 34.92784288194445)"/><use xlink:href="#k" transform="matrix(1,0,0,1,1257.15302734375,126.22970283963623) translate(19.043098958333335 34.92784288194445)"/><use xlink:href="#j" transform="matrix(1,0,0,1,1257.15302734375,126.22970283963623) translate(0 56.646375868055564)"/><use xlink:href="#l" transform="matrix(1,0,0,1,1257.15302734375,126.22970283963623) translate(19.043098958333335 56.646375868055564)"/><path d="M1300 308.2v111.6" stroke="#3a414a" fill="none"/><path d="M1300.5 308.2h-1v-.5h1z" stroke="#3a414a" stroke-width=".05" fill="#3a414a"/><path d="M1300 425.7l-7.64-12.9h15.28z" stroke="#3a414a" fill="#3a414a"/><path d="M1096.18 357a6 6 0 0 1 6-6h407.43a6 6 0 0 1 6 6v15.97a6 6 0 0 1-6 6h-407.4a6 6 0 0 1-6.02-6z" fill="#fff" fill-opacity="0"/><use xlink:href="#m" transform="matrix(1,0,0,1,1101.1851270424472,356.00000000000006) translate(0 13.209309895833334)"/><use xlink:href="#n" transform="matrix(1,0,0,1,1101.1851270424472,356.00000000000006) translate(28.564648437500004 13.209309895833334)"/><path d="M1300 508.2v151.6" stroke="#3a414a" fill="none"/><path d="M1300.5 508.2h-1v-.5h1z" stroke="#3a414a" stroke-width=".05" fill="#3a414a"/><path d="M1300 665.7l-7.64-12.9h15.28z" stroke="#3a414a" fill="#3a414a"/><path d="M1112.18 537a6 6 0 0 1 6-6h378.87a6 6 0 0 1 6 6v102.85a6 6 0 0 1-6 6h-378.87a6 6 0 0 1-6-6z" fill="#fff" fill-opacity="0"/><use xlink:href="#o" transform="matrix(1,0,0,1,1117.1851270424472,536) translate(0 13.209309895833334)"/><use xlink:href="#p" transform="matrix(1,0,0,1,1117.1851270424472,536) translate(0 34.92784288194445)"/><use xlink:href="#q" transform="matrix(1,0,0,1,1117.1851270424472,536) translate(38.08619791666667 34.92784288194445)"/><use xlink:href="#p" transform="matrix(1,0,0,1,1117.1851270424472,536) translate(0 56.646375868055564)"/><use xlink:href="#r" transform="matrix(1,0,0,1,1117.1851270424472,536) translate(38.08619791666667 56.646375868055564)"/><use xlink:href="#p" transform="matrix(1,0,0,1,1117.1851270424472,536) translate(0 78.36490885416667)"/><use xlink:href="#s" transform="matrix(1,0,0,1,1117.1851270424472,536) translate(38.08619791666667 78.36490885416667)"/><use xlink:href="#t" transform="matrix(1,0,0,1,1117.1851270424472,536) translate(0 100.08344184027779)"/><use xlink:href="#u" transform="matrix(1,0,0,1,1117.1851270424472,536) translate(19.043098958333335 100.08344184027779)"/><path d="M1300.5 912.63h-1v-100.1h1zm0-118.08h-1v-46.37h1z" stroke="#3a414a" stroke-width=".05" fill="#3a414a"/><path d="M1300.5 748.2h-1v-.52h1z" fill="#3a414a"/><path d="M1300.53 748.22h-1.06v-.56h1.06zm-1-.5v.45h.94v-.46z" stroke="#3a414a" stroke-width=".05" fill="#3a414a"/><path d="M1300 918.52l-7.64-12.9h15.28z" fill="#3a414a"/><path d="M1300 919.5l-8.5-14.4h17zm-6.76-13.4l6.76 11.44 6.76-11.43z" stroke="#3a414a" stroke-width=".05" fill="#3a414a"/><use xlink:href="#v" transform="matrix(1,0,0,1,1109.5690104166667,794.5534950779794) translate(0 13.209309895833334)"/><path d="M1300 1001v132.13" stroke="#3a414a" fill="none"/><path d="M1300.5 1001h-1v-.5h1z" stroke="#3a414a" stroke-width=".05" fill="#3a414a"/><path d="M1300 1139.02l-7.64-12.9h15.28z" stroke="#3a414a" fill="#3a414a"/><path d="M1823.18 864.57a6 6 0 0 1 6-6h651.2a6 6 0 0 1 6 6v202.25a6 6 0 0 1-6 6h-651.2a6 6 0 0 1-6-6z" stroke="#3a414a" fill="#fff"/><use xlink:href="#a" transform="matrix(1,0,0,1,1828.1851270424472,863.5666232638889) translate(0 107.46527777777777)"/><path d="M1823.18 526a6 6 0 0 1 6-6h651.2a6 6 0 0 1 6 6v326.57a6 6 0 0 1-6 6h-651.2a6 6 0 0 1-6-6z" stroke="#3a414a" fill="#fff"/><use xlink:href="#b" transform="matrix(1,0,0,1,1828.1851270424472,525.0000000000001) translate(0 166.85590277777777)"/><path d="M1823.18 366a6 6 0 0 1 6-6h651.2a6 6 0 0 1 6 6v266.66a6 6 0 0 1-6 6h-651.2a6 6 0 0 1-6-6z" stroke="#3a414a" fill="#fff"/><use xlink:href="#c" transform="matrix(1,0,0,1,1828.1851270424472,365.00000000000006) translate(0 139.66840277777777)"/><path d="M1823.18 226a6 6 0 0 1 6-6h651.2a6 6 0 0 1 6 6v148a6 6 0 0 1-6 6h-651.2a6 6 0 0 1-6-6z" stroke="#3a414a" fill="#fff"/><use xlink:href="#d" transform="matrix(1,0,0,1,1828.1851270424472,225.00000000000006) translate(0 78.71527777777777)"/><path d="M2163.2 220c22.08 0 40 17.9 40 40s-17.92 40-40 40h-80c-22.1 0-40-17.9-40-40-.02-22.1 17.9-40 39.98-40z" stroke="#3a414a" fill="#fff"/><use xlink:href="#e" transform="matrix(1,0,0,1,2048.185127042447,225.00000000000006) translate(-5.933170572916694 39.222330729166664)"/><path d="M2163.2 420c22.08 0 40 17.9 40 40s-17.92 40-40 40h-80c-22.1 0-40-17.9-40-40-.02-22.1 17.9-40 39.98-40z" stroke="#3a414a" fill="#fff"/><use xlink:href="#f" transform="matrix(1,0,0,1,2048.185127042447,425.00000000000006) translate(-1.1723958333333542 39.222330729166664)"/><path d="M2163.2 660c22.08 0 40 17.9 40 40s-17.92 40-40 40h-80c-22.1 0-40-17.9-40-40-.02-22.1 17.9-40 39.98-40z" stroke="#3a414a" fill="#fff"/><g><use xlink:href="#g" transform="matrix(1,0,0,1,2048.185127042447,665) translate(-1.1723958333333542 39.222330729166664)"/></g><path d="M2163.2 912.82c22.08 0 40 17.9 40 40s-17.92 40-40 40h-80c-22.1 0-40-17.9-40-40-.02-22.1 17.9-40 39.98-40z" stroke="#3a414a" fill="#fff"/><g><use xlink:href="#h" transform="matrix(1,0,0,1,2048.185127042447,917.8147850075861) translate(13.109928385416666 39.459309895833336)"/></g><path d="M2123.7 203.12h-1v-22.66h1zm0-84.08h-1V80.5h1z" stroke="#3a414a" stroke-width=".05" fill="#3a414a"/><path d="M2123.2 217.88l-4.65-14.26h9.27z" fill="#3a414a"/><path d="M2123.2 219.5l-5.34-16.38h10.65zm-3.96-15.38l3.95 12.14 3.93-12.14zM2123.7 80.5h-1V80h1z" stroke="#3a414a" stroke-width=".05" fill="#3a414a"/><g><use xlink:href="#i" transform="matrix(1,0,0,1,2080.3381543861974,119.04448784722224) translate(0 13.209309895833334)"/><use xlink:href="#j" transform="matrix(1,0,0,1,2080.3381543861974,119.04448784722224) translate(0 34.92784288194445)"/><use xlink:href="#k" transform="matrix(1,0,0,1,2080.3381543861974,119.04448784722224) translate(19.043098958333335 34.92784288194445)"/><use xlink:href="#j" transform="matrix(1,0,0,1,2080.3381543861974,119.04448784722224) translate(0 56.646375868055564)"/><use xlink:href="#l" transform="matrix(1,0,0,1,2080.3381543861974,119.04448784722224) translate(19.043098958333335 56.646375868055564)"/></g><path d="M2123.2 301v111.63" stroke="#3a414a" fill="none"/><path d="M2123.7 301h-1v-.5h1z" stroke="#3a414a" stroke-width=".05" fill="#3a414a"/><path d="M2123.2 418.52l-7.65-12.9h15.27z" stroke="#3a414a" fill="#3a414a"/><path d="M1919.37 349.8a6 6 0 0 1 6-6h407.43a6 6 0 0 1 6 6v16a6 6 0 0 1-6 6h-407.43a6 6 0 0 1-6-6z" fill="#fff" fill-opacity="0"/><g><use xlink:href="#m" transform="matrix(1,0,0,1,1924.3702540848942,348.81478500758595) translate(0 13.209309895833334)"/><use xlink:href="#n" transform="matrix(1,0,0,1,1924.3702540848942,348.81478500758595) translate(28.564648437500004 13.209309895833334)"/></g><path d="M2123.2 501v151.63" stroke="#3a414a" fill="none"/><path d="M2123.7 501h-1v-.5h1z" stroke="#3a414a" stroke-width=".05" fill="#3a414a"/><path d="M2123.2 658.52l-7.65-12.9h15.27z" stroke="#3a414a" fill="#3a414a"/><path d="M1935.37 529.82a6 6 0 0 1 6-6h378.86a6 6 0 0 1 6 6v102.84a6 6 0 0 1-6 6h-378.86a6 6 0 0 1-6-6z" fill="#fff" fill-opacity="0"/><g><use xlink:href="#o" transform="matrix(1,0,0,1,1940.3702540848942,528.814785007586) translate(0 13.209309895833334)"/><use xlink:href="#p" transform="matrix(1,0,0,1,1940.3702540848942,528.814785007586) translate(0 34.92784288194445)"/><use xlink:href="#q" transform="matrix(1,0,0,1,1940.3702540848942,528.814785007586) translate(38.08619791666667 34.92784288194445)"/><use xlink:href="#p" transform="matrix(1,0,0,1,1940.3702540848942,528.814785007586) translate(0 56.646375868055564)"/><use xlink:href="#r" transform="matrix(1,0,0,1,1940.3702540848942,528.814785007586) translate(38.08619791666667 56.646375868055564)"/><use xlink:href="#p" transform="matrix(1,0,0,1,1940.3702540848942,528.814785007586) translate(0 78.36490885416667)"/><use xlink:href="#s" transform="matrix(1,0,0,1,1940.3702540848942,528.814785007586) translate(38.08619791666667 78.36490885416667)"/><use xlink:href="#t" transform="matrix(1,0,0,1,1940.3702540848942,528.814785007586) translate(0 100.08344184027779)"/><use xlink:href="#u" transform="matrix(1,0,0,1,1940.3702540848942,528.814785007586) translate(19.043098958333335 100.08344184027779)"/></g><path d="M2123.7 905.44h-1v-100.1h1zm0-118.07h-1V741h1z" stroke="#3a414a" stroke-width=".05" fill="#3a414a"/><path d="M2123.7 741h-1v-.5h1z" fill="#3a414a"/><path d="M2123.7 741.04h-1.04v-.56h1.05zm-1-.5v.45h.96v-.48z" stroke="#3a414a" stroke-width=".05" fill="#3a414a"/><path d="M2123.2 911.33l-7.65-12.9h15.27z" fill="#3a414a"/><path d="M2123.2 912.32l-8.53-14.4h17.03zm-6.77-13.4l6.76 11.43 6.74-11.43z" stroke="#3a414a" stroke-width=".05" fill="#3a414a"/><g><use xlink:href="#v" transform="matrix(1,0,0,1,1932.754137459114,787.3682800855653) translate(0 13.209309895833334)"/></g><path d="M2123.7 1125.94h-1v-69.56h1zm0-87.54h-1v-44.6l1 .02z" stroke="#3a414a" stroke-width=".05" fill="#3a414a"/><path d="M2123.7 993.83h-1v-.5h1z" fill="#3a414a"/><path d="M2123.7 993.85h-1.04v-.56h1.05zm-1-.5v.45h.96v-.46z" stroke="#3a414a" stroke-width=".05" fill="#3a414a"/><path d="M2123.2 1131.83l-7.65-12.9h15.27z" fill="#3a414a"/><path d="M2123.2 1132.82l-8.53-14.4h17.03zm-6.77-13.4l6.76 11.43 6.74-11.43z" stroke="#3a414a" stroke-width=".05" fill="#3a414a"/><g><use xlink:href="#w" transform="matrix(1,0,0,1,1956.5580111570305,1038.4054850085734) translate(0 13.209309895833334)"/><use xlink:href="#x" transform="matrix(1,0,0,1,1956.5580111570305,1038.4054850085734) translate(228.51718750000015 13.209309895833334)"/></g><defs><path fill="#3a414a" d="M30-248c87 1 191-15 191 75 0 78-77 80-158 76V0H30v-248zm33 125c57 0 124 11 124-50 0-59-68-47-124-48v98" id="y"/><path fill="#3a414a" d="M24 0v-261h32V0H24" id="z"/><path fill="#3a414a" d="M141-36C126-15 110 5 73 4 37 3 15-17 15-53c-1-64 63-63 125-63 3-35-9-54-41-54-24 1-41 7-42 31l-33-3c5-37 33-52 76-52 45 0 72 20 72 64v82c-1 20 7 32 28 27v20c-31 9-61-2-59-35zM48-53c0 20 12 33 32 33 41-3 63-29 60-74-43 2-92-5-92 41" id="A"/><path fill="#3a414a" d="M117-194c89-4 53 116 60 194h-32v-121c0-31-8-49-39-48C34-167 62-67 57 0H25l-1-190h30c1 10-1 24 2 32 11-22 29-35 61-36" id="B"/><path fill="#3a414a" d="M26 75v-336h71v23H56V52h41v23H26" id="C"/><path fill="#3a414a" d="M126-127c33 6 58 20 58 59 0 88-139 92-164 29-3-8-5-16-6-25l32-3c6 27 21 44 54 44 32 0 52-15 52-46 0-38-36-46-79-43v-28c39 1 72-4 72-42 0-27-17-43-46-43-28 0-47 15-49 41l-32-3c6-42 35-63 81-64 48-1 79 21 79 65 0 36-21 52-52 59" id="D"/><path fill="#3a414a" d="M3 75V52h41v-290H3v-23h71V75H3" id="E"/><g id="a"><use transform="matrix(0.06172839506172839,0,0,0.06172839506172839,0,0)" xlink:href="#y"/><use transform="matrix(0.06172839506172839,0,0,0.06172839506172839,14.814814814814813,0)" xlink:href="#z"/><use transform="matrix(0.06172839506172839,0,0,0.06172839506172839,19.691358024691354,0)" xlink:href="#A"/><use transform="matrix(0.06172839506172839,0,0,0.06172839506172839,32.03703703703703,0)" xlink:href="#B"/><use transform="matrix(0.06172839506172839,0,0,0.06172839506172839,44.38271604938271,0)" xlink:href="#C"/><use transform="matrix(0.06172839506172839,0,0,0.06172839506172839,50.55555555555555,0)" xlink:href="#D"/><use transform="matrix(0.06172839506172839,0,0,0.06172839506172839,62.90123456790123,0)" xlink:href="#E"/></g><path fill="#3a414a" d="M101-251c82-7 93 87 43 132L82-64C71-53 59-42 53-27h129V0H18c2-99 128-94 128-182 0-28-16-43-45-43s-46 15-49 41l-32-3c6-41 34-60 81-64" id="F"/><g id="b"><use transform="matrix(0.06172839506172839,0,0,0.06172839506172839,0,0)" xlink:href="#y"/><use transform="matrix(0.06172839506172839,0,0,0.06172839506172839,14.814814814814813,0)" xlink:href="#z"/><use transform="matrix(0.06172839506172839,0,0,0.06172839506172839,19.691358024691354,0)" xlink:href="#A"/><use transform="matrix(0.06172839506172839,0,0,0.06172839506172839,32.03703703703703,0)" xlink:href="#B"/><use transform="matrix(0.06172839506172839,0,0,0.06172839506172839,44.38271604938271,0)" xlink:href="#C"/><use transform="matrix(0.06172839506172839,0,0,0.06172839506172839,50.55555555555555,0)" xlink:href="#F"/><use transform="matrix(0.06172839506172839,0,0,0.06172839506172839,62.90123456790123,0)" xlink:href="#E"/></g><path fill="#3a414a" d="M27 0v-27h64v-190l-56 39v-29l58-41h29v221h61V0H27" id="G"/><g id="c"><use transform="matrix(0.06172839506172839,0,0,0.06172839506172839,0,0)" xlink:href="#y"/><use transform="matrix(0.06172839506172839,0,0,0.06172839506172839,14.814814814814813,0)" xlink:href="#z"/><use transform="matrix(0.06172839506172839,0,0,0.06172839506172839,19.691358024691354,0)" xlink:href="#A"/><use transform="matrix(0.06172839506172839,0,0,0.06172839506172839,32.03703703703703,0)" xlink:href="#B"/><use transform="matrix(0.06172839506172839,0,0,0.06172839506172839,44.38271604938271,0)" xlink:href="#C"/><use transform="matrix(0.06172839506172839,0,0,0.06172839506172839,50.55555555555555,0)" xlink:href="#G"/><use transform="matrix(0.06172839506172839,0,0,0.06172839506172839,62.90123456790123,0)" xlink:href="#E"/></g><path fill="#3a414a" d="M101-251c68 0 85 55 85 127S166 4 100 4C33 4 14-52 14-124c0-73 17-127 87-127zm-1 229c47 0 54-49 54-102s-4-102-53-102c-51 0-55 48-55 102 0 53 5 102 54 102" id="H"/><g id="d"><use transform="matrix(0.06172839506172839,0,0,0.06172839506172839,0,0)" xlink:href="#y"/><use transform="matrix(0.06172839506172839,0,0,0.06172839506172839,14.814814814814813,0)" xlink:href="#z"/><use transform="matrix(0.06172839506172839,0,0,0.06172839506172839,19.691358024691354,0)" xlink:href="#A"/><use transform="matrix(0.06172839506172839,0,0,0.06172839506172839,32.03703703703703,0)" xlink:href="#B"/><use transform="matrix(0.06172839506172839,0,0,0.06172839506172839,44.38271604938271,0)" xlink:href="#C"/><use transform="matrix(0.06172839506172839,0,0,0.06172839506172839,50.55555555555555,0)" xlink:href="#H"/><use transform="matrix(0.06172839506172839,0,0,0.06172839506172839,62.90123456790123,0)" xlink:href="#E"/></g><path fill="#067d17" d="M736-142h380V0H134v-142h422v-1200H267v-142h469v1342" id="I"/><path fill="#067d17" d="M528 20c-247 0-343-132-343-381v-721h180v686c-4 177 45 284 224 277 194-8 279-136 279-336v-627h181c3 360-6 732 6 1082H885c-4-54-7-126-8-185h-3C809-64 714 20 528 20" id="J"/><path fill="#067d17" d="M914 0L548-499l-132 98V0H236v-1484h180v927l475-525h211L663-617 1125 0H914" id="K"/><path fill="#067d17" d="M617-1102c355 0 481 238 477 599H322c5 222 84 388 301 388 144 0 244-59 284-166l158 45C1002-72 854 20 623 20c-342 0-490-220-490-568 0-346 151-554 484-554zm291 461c-18-192-90-328-289-328-194 0-287 128-295 328h584" id="L"/><path fill="#067d17" d="M622-1349c296 4 497 117 497 404 0 282-193 424-485 431H353V0H162v-1349h460zm-15 684c195-3 320-88 320-277 0-184-129-255-328-254H353v531h254" id="M"/><path fill="#067d17" d="M839-1102c70 0 148 7 206 17v167c-112-18-268-36-363 15-129 69-208 203-208 395V0H294c-10-367 32-789-52-1082h171c21 75 41 161 48 250h5c67-152 152-270 373-270" id="N"/><path fill="#067d17" d="M873-819c-18-114-119-146-250-146-163 0-245 50-245 151 0 151 170 148 294 185 182 54 388 94 388 320 0 240-189 325-439 329-245 4-410-69-454-268l159-31c24 133 136 168 295 165 144-2 270-31 270-171 0-164-195-160-331-202-167-52-350-87-350-299 0-218 173-315 413-313 220 2 373 77 412 260" id="O"/><path fill="#067d17" d="M615-1102c343 0 484 203 482 560-1 347-147 562-488 562-336 0-475-219-479-562-4-349 156-560 485-560zm-8 989c240 0 301-180 301-429 0-245-55-427-290-427-236 0-299 181-299 427 0 243 61 429 288 429" id="P"/><path fill="#067d17" d="M706-1102c241 0 344 136 343 381V0H868v-695c1-168-57-273-220-268-190 6-283 138-283 336V0H185c-3-360 6-732-6-1082h170c4 54 7 126 8 185h3c63-121 164-204 346-205" id="Q"/><path fill="#067d17" d="M473-1349c438-1 655 221 652 661C1122-268 945-8 532 0H162v-1349h311zm42 1193c308-4 416-205 418-532 2-330-131-509-459-505H353v1037h162" id="R"/><path fill="#067d17" d="M682 16c-209 0-323-80-324-285v-671H190v-142h170l58-282h120v282h432v142H538v652c2 114 60 155 182 155 106 0 209-16 297-34v137C921-4 806 16 682 16" id="S"/><path fill="#067d17" d="M1000-272c3 95 12 159 101 161 21 0 41-3 59-7V-6c-44 10-86 16-139 16-141 2-191-84-197-217h-6C748-76 648 20 446 20c-207 0-318-120-318-322 0-266 194-348 454-354l236-4c12-191-40-305-222-305-140 0-220 47-232 172l-188-17c33-204 181-292 423-292 255 0 401 118 401 364v466zm-683-27c0 109 63 184 175 182 166-3 259-96 306-217 24-65 20-120 20-200-232 7-501-28-501 235" id="T"/><path fill="#067d17" d="M745-142h380V0H143v-142h422v-798H246v-142h499v940zM545-1292v-192h200v192H545" id="U"/><g id="e"><use transform="matrix(0.0077473958333333336,0,0,0.0077473958333333336,0,0)" xlink:href="#I"/><use transform="matrix(0.0077473958333333336,0,0,0.0077473958333333336,9.521549479166667,0)" xlink:href="#J"/><use transform="matrix(0.0077473958333333336,0,0,0.0077473958333333336,19.043098958333335,0)" xlink:href="#K"/><use transform="matrix(0.0077473958333333336,0,0,0.0077473958333333336,28.564648437500004,0)" xlink:href="#L"/><use transform="matrix(0.0077473958333333336,0,0,0.0077473958333333336,38.08619791666667,0)" xlink:href="#M"/><use transform="matrix(0.0077473958333333336,0,0,0.0077473958333333336,47.607747395833336,0)" xlink:href="#L"/><use transform="matrix(0.0077473958333333336,0,0,0.0077473958333333336,57.129296875,0)" xlink:href="#N"/><use transform="matrix(0.0077473958333333336,0,0,0.0077473958333333336,66.65084635416667,0)" xlink:href="#O"/><use transform="matrix(0.0077473958333333336,0,0,0.0077473958333333336,76.17239583333334,0)" xlink:href="#P"/><use transform="matrix(0.0077473958333333336,0,0,0.0077473958333333336,85.6939453125,0)" xlink:href="#Q"/><use transform="matrix(0.0077473958333333336,0,0,0.0077473958333333336,95.21549479166667,0)" xlink:href="#R"/><use transform="matrix(0.0077473958333333336,0,0,0.0077473958333333336,104.73704427083334,0)" xlink:href="#L"/><use transform="matrix(0.0077473958333333336,0,0,0.0077473958333333336,114.25859375,0)" xlink:href="#S"/><use transform="matrix(0.0077473958333333336,0,0,0.0077473958333333336,123.78014322916667,0)" xlink:href="#T"/><use transform="matrix(0.0077473958333333336,0,0,0.0077473958333333336,133.30169270833335,0)" xlink:href="#U"/><use transform="matrix(0.0077473958333333336,0,0,0.0077473958333333336,142.82324218750003,0)" xlink:href="#I"/><use transform="matrix(0.0077473958333333336,0,0,0.0077473958333333336,152.3447916666667,0)" xlink:href="#O"/></g><path fill="#067d17" d="M875 0v-623H353V0H162v-1349h191v566h522v-566h191V0H875" id="V"/><path fill="#067d17" d="M904-1102c199 0 220 177 220 381V0H956v-686c-3-114 0-215-60-264-70-33-125-4-158 71-26 56-39 140-39 252V0H531v-686c-3-114-1-215-61-264-78-41-136 24-157 84-24 69-39 159-39 259V0H105c-3-360 6-732-6-1082h149c6 50 3 123 8 175 36-100 83-195 216-195 135 0 166 79 196 196 42-105 93-196 236-196" id="W"/><path fill="#067d17" d="M1018 0H814c-67-224-138-444-200-673C552-442 476-224 407 0H204L21-1082h178c43 310 105 601 126 933 54-225 128-425 193-638h193c63 212 134 415 185 638 22-336 90-622 136-933h176" id="X"/><path fill="#067d17" d="M865-914c-3-187-2-380-2-570h180v1261c0 76 1 155 6 223H877c-8-49-9-116-10-174h-5C801-44 708 26 530 26c-135 0-234-46-297-139s-95-232-95-419c0-377 131-566 392-566 176 0 271 63 335 184zm-286-51c-222 0-255 197-255 427 0 229 31 425 253 425 237 0 286-195 286-441 0-238-52-411-284-411" id="Y"/><path fill="#067d17" d="M604-135c236 0 291-142 291-376v-838h190v859c5 340-142 510-480 510-326 0-463-164-463-492v-877h191v851c-3 222 46 363 271 363" id="Z"/><path fill="#067d17" d="M1121-976c0 225-142 341-344 379L1177 0H957L591-575H353V0H162v-1349h482c281 3 477 100 477 373zM633-726c181-1 296-73 296-247 0-149-101-223-304-223H353v470h280" id="aa"/><path fill="#067d17" d="M237 0v-1349h191v1193h672V0H237" id="ab"/><g id="f"><use transform="matrix(0.0077473958333333336,0,0,0.0077473958333333336,0,0)" xlink:href="#I"/><use transform="matrix(0.0077473958333333336,0,0,0.0077473958333333336,9.521549479166667,0)" xlink:href="#J"/><use transform="matrix(0.0077473958333333336,0,0,0.0077473958333333336,19.043098958333335,0)" xlink:href="#K"/><use transform="matrix(0.0077473958333333336,0,0,0.0077473958333333336,28.564648437500004,0)" xlink:href="#L"/><use transform="matrix(0.0077473958333333336,0,0,0.0077473958333333336,38.08619791666667,0)" xlink:href="#V"/><use transform="matrix(0.0077473958333333336,0,0,0.0077473958333333336,47.607747395833336,0)" xlink:href="#P"/><use transform="matrix(0.0077473958333333336,0,0,0.0077473958333333336,57.129296875,0)" xlink:href="#W"/><use transform="matrix(0.0077473958333333336,0,0,0.0077473958333333336,66.65084635416667,0)" xlink:href="#L"/><use transform="matrix(0.0077473958333333336,0,0,0.0077473958333333336,76.17239583333334,0)" xlink:href="#X"/><use transform="matrix(0.0077473958333333336,0,0,0.0077473958333333336,85.6939453125,0)" xlink:href="#P"/><use transform="matrix(0.0077473958333333336,0,0,0.0077473958333333336,95.21549479166667,0)" xlink:href="#N"/><use transform="matrix(0.0077473958333333336,0,0,0.0077473958333333336,104.73704427083334,0)" xlink:href="#I"/><use transform="matrix(0.0077473958333333336,0,0,0.0077473958333333336,114.25859375,0)" xlink:href="#Y"/><use transform="matrix(0.0077473958333333336,0,0,0.0077473958333333336,123.78014322916667,0)" xlink:href="#Z"/><use transform="matrix(0.0077473958333333336,0,0,0.0077473958333333336,133.30169270833335,0)" xlink:href="#aa"/><use transform="matrix(0.0077473958333333336,0,0,0.0077473958333333336,142.82324218750003,0)" xlink:href="#ab"/></g><path fill="#067d17" d="M648-963c-190 6-283 138-283 336V0H185v-1484h181c-2 197 6 404-9 587h3c62-120 159-205 339-205 242 0 351 135 350 381V0H868v-695c1-168-57-273-220-268" id="ac"/><g id="g"><use transform="matrix(0.0077473958333333336,0,0,0.0077473958333333336,0,0)" xlink:href="#ac"/><use transform="matrix(0.0077473958333333336,0,0,0.0077473958333333336,9.521549479166667,0)" xlink:href="#P"/><use transform="matrix(0.0077473958333333336,0,0,0.0077473958333333336,19.043098958333335,0)" xlink:href="#W"/><use transform="matrix(0.0077473958333333336,0,0,0.0077473958333333336,28.564648437500004,0)" xlink:href="#L"/><use transform="matrix(0.0077473958333333336,0,0,0.0077473958333333336,38.08619791666667,0)" xlink:href="#X"/><use transform="matrix(0.0077473958333333336,0,0,0.0077473958333333336,47.607747395833336,0)" xlink:href="#P"/><use transform="matrix(0.0077473958333333336,0,0,0.0077473958333333336,57.129296875,0)" xlink:href="#N"/><use transform="matrix(0.0077473958333333336,0,0,0.0077473958333333336,66.65084635416667,0)" xlink:href="#I"/><use transform="matrix(0.0077473958333333336,0,0,0.0077473958333333336,76.17239583333334,0)" xlink:href="#Y"/><use transform="matrix(0.0077473958333333336,0,0,0.0077473958333333336,85.6939453125,0)" xlink:href="#R"/><use transform="matrix(0.0077473958333333336,0,0,0.0077473958333333336,95.21549479166667,0)" xlink:href="#L"/><use transform="matrix(0.0077473958333333336,0,0,0.0077473958333333336,104.73704427083334,0)" xlink:href="#S"/><use transform="matrix(0.0077473958333333336,0,0,0.0077473958333333336,114.25859375,0)" xlink:href="#T"/><use transform="matrix(0.0077473958333333336,0,0,0.0077473958333333336,123.78014322916667,0)" xlink:href="#U"/><use transform="matrix(0.0077473958333333336,0,0,0.0077473958333333336,133.30169270833335,0)" xlink:href="#I"/><use transform="matrix(0.0077473958333333336,0,0,0.0077473958333333336,142.82324218750003,0)" xlink:href="#O"/></g><path fill="#067d17" d="M912-211c-10-84-18-177-18-274v-864h172V0H836L316-1130c7 79 16 167 16 254V0H162v-1349h222" id="ad"/><g id="h"><use transform="matrix(0.0077473958333333336,0,0,0.0077473958333333336,0,0)" xlink:href="#ac"/><use transform="matrix(0.0077473958333333336,0,0,0.0077473958333333336,9.521549479166667,0)" xlink:href="#P"/><use transform="matrix(0.0077473958333333336,0,0,0.0077473958333333336,19.043098958333335,0)" xlink:href="#W"/><use transform="matrix(0.0077473958333333336,0,0,0.0077473958333333336,28.564648437500004,0)" xlink:href="#L"/><use transform="matrix(0.0077473958333333336,0,0,0.0077473958333333336,38.08619791666667,0)" xlink:href="#X"/><use transform="matrix(0.0077473958333333336,0,0,0.0077473958333333336,47.607747395833336,0)" xlink:href="#P"/><use transform="matrix(0.0077473958333333336,0,0,0.0077473958333333336,57.129296875,0)" xlink:href="#N"/><use transform="matrix(0.0077473958333333336,0,0,0.0077473958333333336,66.65084635416667,0)" xlink:href="#I"/><use transform="matrix(0.0077473958333333336,0,0,0.0077473958333333336,76.17239583333334,0)" xlink:href="#Y"/><use transform="matrix(0.0077473958333333336,0,0,0.0077473958333333336,85.6939453125,0)" xlink:href="#ad"/><use transform="matrix(0.0077473958333333336,0,0,0.0077473958333333336,95.21549479166667,0)" xlink:href="#T"/><use transform="matrix(0.0077473958333333336,0,0,0.0077473958333333336,104.73704427083334,0)" xlink:href="#W"/><use transform="matrix(0.0077473958333333336,0,0,0.0077473958333333336,114.25859375,0)" xlink:href="#L"/></g><path fill="#bcbec4" d="M410 425v-1909h547v139H590V286h367v139H410" id="ae"/><path fill="#6aab73" d="M908-845H766l-40-639h224zm-449 0H318l-41-639h224" id="af"/><path fill="#6aab73" d="M736-142h380V0H134v-142h422v-1200H267v-142h469v1342" id="ag"/><path fill="#6aab73" d="M528 20c-247 0-343-132-343-381v-721h180v686c-4 177 45 284 224 277 194-8 279-136 279-336v-627h181c3 360-6 732 6 1082H885c-4-54-7-126-8-185h-3C809-64 714 20 528 20" id="ah"/><path fill="#6aab73" d="M914 0L548-499l-132 98V0H236v-1484h180v927l475-525h211L663-617 1125 0H914" id="ai"/><path fill="#6aab73" d="M617-1102c355 0 481 238 477 599H322c5 222 84 388 301 388 144 0 244-59 284-166l158 45C1002-72 854 20 623 20c-342 0-490-220-490-568 0-346 151-554 484-554zm291 461c-18-192-90-328-289-328-194 0-287 128-295 328h584" id="aj"/><path fill="#bcbec4" d="M259 363l169-662h265L382 363H259" id="ak"/><g id="i"><use transform="matrix(0.0077473958333333336,0,0,0.0077473958333333336,0,0)" xlink:href="#ae"/><use transform="matrix(0.0077473958333333336,0,0,0.0077473958333333336,9.521549479166667,0)" xlink:href="#af"/><use transform="matrix(0.0077473958333333336,0,0,0.0077473958333333336,19.043098958333335,0)" xlink:href="#ag"/><use transform="matrix(0.0077473958333333336,0,0,0.0077473958333333336,28.564648437500004,0)" xlink:href="#ah"/><use transform="matrix(0.0077473958333333336,0,0,0.0077473958333333336,38.08619791666667,0)" xlink:href="#ai"/><use transform="matrix(0.0077473958333333336,0,0,0.0077473958333333336,47.607747395833336,0)" xlink:href="#aj"/><use transform="matrix(0.0077473958333333336,0,0,0.0077473958333333336,57.129296875,0)" xlink:href="#af"/><use transform="matrix(0.0077473958333333336,0,0,0.0077473958333333336,66.65084635416667,0)" xlink:href="#ak"/></g><path fill="#6aab73" d="M648-963c-190 6-283 138-283 336V0H185v-1484h181c-2 197 6 404-9 587h3c62-120 159-205 339-205 242 0 351 135 350 381V0H868v-695c1-168-57-273-220-268" id="al"/><path fill="#6aab73" d="M1000-272c3 95 12 159 101 161 21 0 41-3 59-7V-6c-44 10-86 16-139 16-141 2-191-84-197-217h-6C748-76 648 20 446 20c-207 0-318-120-318-322 0-266 194-348 454-354l236-4c12-191-40-305-222-305-140 0-220 47-232 172l-188-17c33-204 181-292 423-292 255 0 401 118 401 364v466zm-683-27c0 109 63 184 175 182 166-3 259-96 306-217 24-65 20-120 20-200-232 7-501-28-501 235" id="am"/><path fill="#6aab73" d="M706-1102c241 0 344 136 343 381V0H868v-695c1-168-57-273-220-268-190 6-283 138-283 336V0H185c-3-360 6-732-6-1082h170c4 54 7 126 8 185h3c63-121 164-204 346-205" id="an"/><g id="k"><use transform="matrix(0.0077473958333333336,0,0,0.0077473958333333336,0,0)" xlink:href="#af"/><use transform="matrix(0.0077473958333333336,0,0,0.0077473958333333336,9.521549479166667,0)" xlink:href="#al"/><use transform="matrix(0.0077473958333333336,0,0,0.0077473958333333336,19.043098958333335,0)" xlink:href="#am"/><use transform="matrix(0.0077473958333333336,0,0,0.0077473958333333336,28.564648437500004,0)" xlink:href="#an"/><use transform="matrix(0.0077473958333333336,0,0,0.0077473958333333336,38.08619791666667,0)" xlink:href="#af"/><use transform="matrix(0.0077473958333333336,0,0,0.0077473958333333336,47.607747395833336,0)" xlink:href="#ak"/></g><path fill="#6aab73" d="M745-142h380V0H143v-142h422v-798H246v-142h499v940zM545-1292v-192h200v192H545" id="ao"/><path fill="#bcbec4" d="M270 425V286h367v-1631H270v-139h547V425H270" id="ap"/><g id="l"><use transform="matrix(0.0077473958333333336,0,0,0.0077473958333333336,0,0)" xlink:href="#af"/><use transform="matrix(0.0077473958333333336,0,0,0.0077473958333333336,9.521549479166667,0)" xlink:href="#ag"/><use transform="matrix(0.0077473958333333336,0,0,0.0077473958333333336,19.043098958333335,0)" xlink:href="#aj"/><use transform="matrix(0.0077473958333333336,0,0,0.0077473958333333336,28.564648437500004,0)" xlink:href="#ao"/><use transform="matrix(0.0077473958333333336,0,0,0.0077473958333333336,38.08619791666667,0)" xlink:href="#am"/><use transform="matrix(0.0077473958333333336,0,0,0.0077473958333333336,47.607747395833336,0)" xlink:href="#af"/><use transform="matrix(0.0077473958333333336,0,0,0.0077473958333333336,57.129296875,0)" xlink:href="#ap"/></g><path fill="#6aab73" d="M410 425v-1909h547v139H590V286h367v139H410" id="aq"/><path fill="#6aab73" d="M677 91c1 136 41 195 171 195h213v139H796c-186-8-294-116-294-303v-351c-3-164-120-222-275-232v-137c155-10 275-69 275-231v-352c6-189 106-303 294-303h265v139H848c-126-3-171 67-171 195v346c-5 158-108 234-231 274 128 36 231 115 231 274V91" id="ar"/><path fill="#6aab73" d="M496 0v-299h235V0H496" id="as"/><path fill="#6aab73" d="M865-914c-3-187-2-380-2-570h180v1261c0 76 1 155 6 223H877c-8-49-9-116-10-174h-5C801-44 708 26 530 26c-135 0-234-46-297-139s-95-232-95-419c0-377 131-566 392-566 176 0 271 63 335 184zm-286-51c-222 0-255 197-255 427 0 229 31 425 253 425 237 0 286-195 286-441 0-238-52-411-284-411" id="at"/><path fill="#6aab73" d="M682 16c-209 0-323-80-324-285v-671H190v-142h170l58-282h120v282h432v142H538v652c2 114 60 155 182 155 106 0 209-16 297-34v137C921-4 806 16 682 16" id="au"/><path fill="#6aab73" d="M873-819c-18-114-119-146-250-146-163 0-245 50-245 151 0 151 170 148 294 185 182 54 388 94 388 320 0 240-189 325-439 329-245 4-410-69-454-268l159-31c24 133 136 168 295 165 144-2 270-31 270-171 0-164-195-160-331-202-167-52-350-87-350-299 0-218 173-315 413-313 220 2 373 77 412 260" id="av"/><path fill="#6aab73" d="M726 122c-7 187-108 303-294 303H167V286h213c129-2 172-59 172-195v-347c5-160 106-236 230-276-125-36-230-116-230-272v-346c2-128-45-195-172-195H167v-139h265c187 7 294 114 294 303v352c4 162 120 221 275 231v137c-155 10-275 68-275 232v351" id="aw"/><g id="n"><use transform="matrix(0.0077473958333333336,0,0,0.0077473958333333336,0,0)" xlink:href="#aq"/><use transform="matrix(0.0077473958333333336,0,0,0.0077473958333333336,9.521549479166667,0)" xlink:href="#ar"/><use transform="matrix(0.0077473958333333336,0,0,0.0077473958333333336,19.043098958333335,0)" xlink:href="#as"/><use transform="matrix(0.0077473958333333336,0,0,0.0077473958333333336,28.564648437500004,0)" xlink:href="#as"/><use transform="matrix(0.0077473958333333336,0,0,0.0077473958333333336,38.08619791666667,0)" xlink:href="#as"/><use transform="matrix(0.0077473958333333336,0,0,0.0077473958333333336,47.607747395833336,0)" xlink:href="#at"/><use transform="matrix(0.0077473958333333336,0,0,0.0077473958333333336,57.129296875,0)" xlink:href="#aj"/><use transform="matrix(0.0077473958333333336,0,0,0.0077473958333333336,66.65084635416667,0)" xlink:href="#au"/><use transform="matrix(0.0077473958333333336,0,0,0.0077473958333333336,76.17239583333334,0)" xlink:href="#am"/><use transform="matrix(0.0077473958333333336,0,0,0.0077473958333333336,85.6939453125,0)" xlink:href="#ao"/><use transform="matrix(0.0077473958333333336,0,0,0.0077473958333333336,95.21549479166667,0)" xlink:href="#ag"/><use transform="matrix(0.0077473958333333336,0,0,0.0077473958333333336,104.73704427083334,0)" xlink:href="#av"/><use transform="matrix(0.0077473958333333336,0,0,0.0077473958333333336,114.25859375,0)" xlink:href="#aw"/><use transform="matrix(0.0077473958333333336,0,0,0.0077473958333333336,123.78014322916667,0)" xlink:href="#ak"/><use transform="matrix(0.0077473958333333336,0,0,0.0077473958333333336,133.30169270833335,0)" xlink:href="#ar"/><use transform="matrix(0.0077473958333333336,0,0,0.0077473958333333336,142.82324218750003,0)" xlink:href="#as"/><use transform="matrix(0.0077473958333333336,0,0,0.0077473958333333336,152.3447916666667,0)" xlink:href="#as"/><use transform="matrix(0.0077473958333333336,0,0,0.0077473958333333336,161.8663411458334,0)" xlink:href="#as"/><use transform="matrix(0.0077473958333333336,0,0,0.0077473958333333336,171.38789062500007,0)" xlink:href="#at"/><use transform="matrix(0.0077473958333333336,0,0,0.0077473958333333336,180.90944010416675,0)" xlink:href="#aj"/><use transform="matrix(0.0077473958333333336,0,0,0.0077473958333333336,190.43098958333343,0)" xlink:href="#au"/><use transform="matrix(0.0077473958333333336,0,0,0.0077473958333333336,199.9525390625001,0)" xlink:href="#am"/><use transform="matrix(0.0077473958333333336,0,0,0.0077473958333333336,209.4740885416668,0)" xlink:href="#ao"/><use transform="matrix(0.0077473958333333336,0,0,0.0077473958333333336,218.99563802083347,0)" xlink:href="#ag"/><use transform="matrix(0.0077473958333333336,0,0,0.0077473958333333336,228.51718750000015,0)" xlink:href="#av"/><use transform="matrix(0.0077473958333333336,0,0,0.0077473958333333336,238.03873697916683,0)" xlink:href="#aw"/><use transform="matrix(0.0077473958333333336,0,0,0.0077473958333333336,247.5602864583335,0)" xlink:href="#ak"/><use transform="matrix(0.0077473958333333336,0,0,0.0077473958333333336,257.08183593750016,0)" xlink:href="#ar"/><use transform="matrix(0.0077473958333333336,0,0,0.0077473958333333336,266.6033854166668,0)" xlink:href="#as"/><use transform="matrix(0.0077473958333333336,0,0,0.0077473958333333336,276.12493489583346,0)" xlink:href="#as"/><use transform="matrix(0.0077473958333333336,0,0,0.0077473958333333336,285.6464843750001,0)" xlink:href="#as"/><use transform="matrix(0.0077473958333333336,0,0,0.0077473958333333336,295.16803385416677,0)" xlink:href="#at"/><use transform="matrix(0.0077473958333333336,0,0,0.0077473958333333336,304.6895833333334,0)" xlink:href="#aj"/><use transform="matrix(0.0077473958333333336,0,0,0.0077473958333333336,314.21113281250007,0)" xlink:href="#au"/><use transform="matrix(0.0077473958333333336,0,0,0.0077473958333333336,323.7326822916667,0)" xlink:href="#am"/><use transform="matrix(0.0077473958333333336,0,0,0.0077473958333333336,333.25423177083337,0)" xlink:href="#ao"/><use transform="matrix(0.0077473958333333336,0,0,0.0077473958333333336,342.77578125,0)" xlink:href="#ag"/><use transform="matrix(0.0077473958333333336,0,0,0.0077473958333333336,352.2973307291667,0)" xlink:href="#av"/><use transform="matrix(0.0077473958333333336,0,0,0.0077473958333333336,361.8188802083333,0)" xlink:href="#aw"/><use transform="matrix(0.0077473958333333336,0,0,0.0077473958333333336,371.3404296875,0)" xlink:href="#ap"/></g><use transform="matrix(0.0077473958333333336,0,0,0.0077473958333333336,0,0)" xlink:href="#ae" id="o"/><path fill="#6aab73" d="M698-1104c312 3 392 244 392 558 0 315-82 566-392 566-169 0-277-65-331-184h-5c8 188 2 394 4 589H185V-858c0-76-1-156-6-224h175c6 52 9 120 10 178h4c58-122 150-202 330-200zm-49 991c225 0 255-203 255-433 0-225-32-419-253-419-236 0-285 192-285 441 0 237 53 411 283 411" id="ax"/><path fill="#6aab73" d="M496 0v-299h235V0H496zm0-783v-299h235v299H496" id="ay"/><path fill="#6aab73" d="M114 20l821-1504h178L296 20H114" id="az"/><path fill="#6aab73" d="M1018 0H814c-67-224-138-444-200-673C552-442 476-224 407 0H204L21-1082h178c43 310 105 601 126 933 54-225 128-425 193-638h193c63 212 134 415 185 638 22-336 90-622 136-933h176" id="aA"/><path fill="#6aab73" d="M715 0H502L69-1082h202c94 253 197 500 285 758 19 57 36 126 52 183 96-335 234-626 350-941h201" id="aB"/><path fill="#6aab73" d="M148-1120c216-7 379-89 463-229h166v1204h353V0H157v-145h439v-1021c-79 124-254 184-448 194v-148" id="aC"/><g id="q"><use transform="matrix(0.0077473958333333336,0,0,0.0077473958333333336,0,0)" xlink:href="#af"/><use transform="matrix(0.0077473958333333336,0,0,0.0077473958333333336,9.521549479166667,0)" xlink:href="#al"/><use transform="matrix(0.0077473958333333336,0,0,0.0077473958333333336,19.043098958333335,0)" xlink:href="#au"/><use transform="matrix(0.0077473958333333336,0,0,0.0077473958333333336,28.564648437500004,0)" xlink:href="#au"/><use transform="matrix(0.0077473958333333336,0,0,0.0077473958333333336,38.08619791666667,0)" xlink:href="#ax"/><use transform="matrix(0.0077473958333333336,0,0,0.0077473958333333336,47.607747395833336,0)" xlink:href="#av"/><use transform="matrix(0.0077473958333333336,0,0,0.0077473958333333336,57.129296875,0)" xlink:href="#ay"/><use transform="matrix(0.0077473958333333336,0,0,0.0077473958333333336,66.65084635416667,0)" xlink:href="#az"/><use transform="matrix(0.0077473958333333336,0,0,0.0077473958333333336,76.17239583333334,0)" xlink:href="#az"/><use transform="matrix(0.0077473958333333336,0,0,0.0077473958333333336,85.6939453125,0)" xlink:href="#av"/><use transform="matrix(0.0077473958333333336,0,0,0.0077473958333333336,95.21549479166667,0)" xlink:href="#aA"/><use transform="matrix(0.0077473958333333336,0,0,0.0077473958333333336,104.73704427083334,0)" xlink:href="#am"/><use transform="matrix(0.0077473958333333336,0,0,0.0077473958333333336,114.25859375,0)" xlink:href="#ax"/><use transform="matrix(0.0077473958333333336,0,0,0.0077473958333333336,123.78014322916667,0)" xlink:href="#ao"/><use transform="matrix(0.0077473958333333336,0,0,0.0077473958333333336,133.30169270833335,0)" xlink:href="#as"/><use transform="matrix(0.0077473958333333336,0,0,0.0077473958333333336,142.82324218750003,0)" xlink:href="#at"/><use transform="matrix(0.0077473958333333336,0,0,0.0077473958333333336,152.3447916666667,0)" xlink:href="#aj"/><use transform="matrix(0.0077473958333333336,0,0,0.0077473958333333336,161.8663411458334,0)" xlink:href="#aB"/><use transform="matrix(0.0077473958333333336,0,0,0.0077473958333333336,171.38789062500007,0)" xlink:href="#az"/><use transform="matrix(0.0077473958333333336,0,0,0.0077473958333333336,180.90944010416675,0)" xlink:href="#am"/><use transform="matrix(0.0077473958333333336,0,0,0.0077473958333333336,190.43098958333343,0)" xlink:href="#ax"/><use transform="matrix(0.0077473958333333336,0,0,0.0077473958333333336,199.9525390625001,0)" xlink:href="#ao"/><use transform="matrix(0.0077473958333333336,0,0,0.0077473958333333336,209.4740885416668,0)" xlink:href="#az"/><use transform="matrix(0.0077473958333333336,0,0,0.0077473958333333336,218.99563802083347,0)" xlink:href="#ax"/><use transform="matrix(0.0077473958333333336,0,0,0.0077473958333333336,228.51718750000015,0)" xlink:href="#ag"/><use transform="matrix(0.0077473958333333336,0,0,0.0077473958333333336,238.03873697916683,0)" xlink:href="#am"/><use transform="matrix(0.0077473958333333336,0,0,0.0077473958333333336,247.5602864583335,0)" xlink:href="#an"/><use transform="matrix(0.0077473958333333336,0,0,0.0077473958333333336,257.08183593750016,0)" xlink:href="#aj"/><use transform="matrix(0.0077473958333333336,0,0,0.0077473958333333336,266.6033854166668,0)" xlink:href="#au"/><use transform="matrix(0.0077473958333333336,0,0,0.0077473958333333336,276.12493489583346,0)" xlink:href="#av"/><use transform="matrix(0.0077473958333333336,0,0,0.0077473958333333336,285.6464843750001,0)" xlink:href="#az"/><use transform="matrix(0.0077473958333333336,0,0,0.0077473958333333336,295.16803385416677,0)" xlink:href="#aC"/><use transform="matrix(0.0077473958333333336,0,0,0.0077473958333333336,304.6895833333334,0)" xlink:href="#az"/><use transform="matrix(0.0077473958333333336,0,0,0.0077473958333333336,314.21113281250007,0)" xlink:href="#af"/><use transform="matrix(0.0077473958333333336,0,0,0.0077473958333333336,323.7326822916667,0)" xlink:href="#ak"/></g><path fill="#6aab73" d="M611-1370c266 0 451 106 451 368 0 147-77 243-154 327-132 144-316 255-451 395-42 44-75 87-96 134h723V0H144v-117c124-264 387-411 582-603 73-72 151-147 151-271 0-161-104-231-266-231-163 0-249 90-268 238l-184-17c35-233 185-369 452-369" id="aD"/><g id="r"><use transform="matrix(0.0077473958333333336,0,0,0.0077473958333333336,0,0)" xlink:href="#af"/><use transform="matrix(0.0077473958333333336,0,0,0.0077473958333333336,9.521549479166667,0)" xlink:href="#al"/><use transform="matrix(0.0077473958333333336,0,0,0.0077473958333333336,19.043098958333335,0)" xlink:href="#au"/><use transform="matrix(0.0077473958333333336,0,0,0.0077473958333333336,28.564648437500004,0)" xlink:href="#au"/><use transform="matrix(0.0077473958333333336,0,0,0.0077473958333333336,38.08619791666667,0)" xlink:href="#ax"/><use transform="matrix(0.0077473958333333336,0,0,0.0077473958333333336,47.607747395833336,0)" xlink:href="#av"/><use transform="matrix(0.0077473958333333336,0,0,0.0077473958333333336,57.129296875,0)" xlink:href="#ay"/><use transform="matrix(0.0077473958333333336,0,0,0.0077473958333333336,66.65084635416667,0)" xlink:href="#az"/><use transform="matrix(0.0077473958333333336,0,0,0.0077473958333333336,76.17239583333334,0)" xlink:href="#az"/><use transform="matrix(0.0077473958333333336,0,0,0.0077473958333333336,85.6939453125,0)" xlink:href="#av"/><use transform="matrix(0.0077473958333333336,0,0,0.0077473958333333336,95.21549479166667,0)" xlink:href="#aA"/><use transform="matrix(0.0077473958333333336,0,0,0.0077473958333333336,104.73704427083334,0)" xlink:href="#am"/><use transform="matrix(0.0077473958333333336,0,0,0.0077473958333333336,114.25859375,0)" xlink:href="#ax"/><use transform="matrix(0.0077473958333333336,0,0,0.0077473958333333336,123.78014322916667,0)" xlink:href="#ao"/><use transform="matrix(0.0077473958333333336,0,0,0.0077473958333333336,133.30169270833335,0)" xlink:href="#as"/><use transform="matrix(0.0077473958333333336,0,0,0.0077473958333333336,142.82324218750003,0)" xlink:href="#at"/><use transform="matrix(0.0077473958333333336,0,0,0.0077473958333333336,152.3447916666667,0)" xlink:href="#aj"/><use transform="matrix(0.0077473958333333336,0,0,0.0077473958333333336,161.8663411458334,0)" xlink:href="#aB"/><use transform="matrix(0.0077473958333333336,0,0,0.0077473958333333336,171.38789062500007,0)" xlink:href="#az"/><use transform="matrix(0.0077473958333333336,0,0,0.0077473958333333336,180.90944010416675,0)" xlink:href="#am"/><use transform="matrix(0.0077473958333333336,0,0,0.0077473958333333336,190.43098958333343,0)" xlink:href="#ax"/><use transform="matrix(0.0077473958333333336,0,0,0.0077473958333333336,199.9525390625001,0)" xlink:href="#ao"/><use transform="matrix(0.0077473958333333336,0,0,0.0077473958333333336,209.4740885416668,0)" xlink:href="#az"/><use transform="matrix(0.0077473958333333336,0,0,0.0077473958333333336,218.99563802083347,0)" xlink:href="#ax"/><use transform="matrix(0.0077473958333333336,0,0,0.0077473958333333336,228.51718750000015,0)" xlink:href="#ag"/><use transform="matrix(0.0077473958333333336,0,0,0.0077473958333333336,238.03873697916683,0)" xlink:href="#am"/><use transform="matrix(0.0077473958333333336,0,0,0.0077473958333333336,247.5602864583335,0)" xlink:href="#an"/><use transform="matrix(0.0077473958333333336,0,0,0.0077473958333333336,257.08183593750016,0)" xlink:href="#aj"/><use transform="matrix(0.0077473958333333336,0,0,0.0077473958333333336,266.6033854166668,0)" xlink:href="#au"/><use transform="matrix(0.0077473958333333336,0,0,0.0077473958333333336,276.12493489583346,0)" xlink:href="#av"/><use transform="matrix(0.0077473958333333336,0,0,0.0077473958333333336,285.6464843750001,0)" xlink:href="#az"/><use transform="matrix(0.0077473958333333336,0,0,0.0077473958333333336,295.16803385416677,0)" xlink:href="#aD"/><use transform="matrix(0.0077473958333333336,0,0,0.0077473958333333336,304.6895833333334,0)" xlink:href="#aD"/><use transform="matrix(0.0077473958333333336,0,0,0.0077473958333333336,314.21113281250007,0)" xlink:href="#az"/><use transform="matrix(0.0077473958333333336,0,0,0.0077473958333333336,323.7326822916667,0)" xlink:href="#af"/><use transform="matrix(0.0077473958333333336,0,0,0.0077473958333333336,333.25423177083337,0)" xlink:href="#ak"/></g><g id="s"><use transform="matrix(0.0077473958333333336,0,0,0.0077473958333333336,0,0)" xlink:href="#af"/><use transform="matrix(0.0077473958333333336,0,0,0.0077473958333333336,9.521549479166667,0)" xlink:href="#al"/><use transform="matrix(0.0077473958333333336,0,0,0.0077473958333333336,19.043098958333335,0)" xlink:href="#au"/><use transform="matrix(0.0077473958333333336,0,0,0.0077473958333333336,28.564648437500004,0)" xlink:href="#au"/><use transform="matrix(0.0077473958333333336,0,0,0.0077473958333333336,38.08619791666667,0)" xlink:href="#ax"/><use transform="matrix(0.0077473958333333336,0,0,0.0077473958333333336,47.607747395833336,0)" xlink:href="#av"/><use transform="matrix(0.0077473958333333336,0,0,0.0077473958333333336,57.129296875,0)" xlink:href="#ay"/><use transform="matrix(0.0077473958333333336,0,0,0.0077473958333333336,66.65084635416667,0)" xlink:href="#az"/><use transform="matrix(0.0077473958333333336,0,0,0.0077473958333333336,76.17239583333334,0)" xlink:href="#az"/><use transform="matrix(0.0077473958333333336,0,0,0.0077473958333333336,85.6939453125,0)" xlink:href="#av"/><use transform="matrix(0.0077473958333333336,0,0,0.0077473958333333336,95.21549479166667,0)" xlink:href="#aA"/><use transform="matrix(0.0077473958333333336,0,0,0.0077473958333333336,104.73704427083334,0)" xlink:href="#am"/><use transform="matrix(0.0077473958333333336,0,0,0.0077473958333333336,114.25859375,0)" xlink:href="#ax"/><use transform="matrix(0.0077473958333333336,0,0,0.0077473958333333336,123.78014322916667,0)" xlink:href="#ao"/><use transform="matrix(0.0077473958333333336,0,0,0.0077473958333333336,133.30169270833335,0)" xlink:href="#as"/><use transform="matrix(0.0077473958333333336,0,0,0.0077473958333333336,142.82324218750003,0)" xlink:href="#at"/><use transform="matrix(0.0077473958333333336,0,0,0.0077473958333333336,152.3447916666667,0)" xlink:href="#aj"/><use transform="matrix(0.0077473958333333336,0,0,0.0077473958333333336,161.8663411458334,0)" xlink:href="#aB"/><use transform="matrix(0.0077473958333333336,0,0,0.0077473958333333336,171.38789062500007,0)" xlink:href="#az"/><use transform="matrix(0.0077473958333333336,0,0,0.0077473958333333336,180.90944010416675,0)" xlink:href="#am"/><use transform="matrix(0.0077473958333333336,0,0,0.0077473958333333336,190.43098958333343,0)" xlink:href="#ax"/><use transform="matrix(0.0077473958333333336,0,0,0.0077473958333333336,199.9525390625001,0)" xlink:href="#ao"/><use transform="matrix(0.0077473958333333336,0,0,0.0077473958333333336,209.4740885416668,0)" xlink:href="#az"/><use transform="matrix(0.0077473958333333336,0,0,0.0077473958333333336,218.99563802083347,0)" xlink:href="#ax"/><use transform="matrix(0.0077473958333333336,0,0,0.0077473958333333336,228.51718750000015,0)" xlink:href="#ag"/><use transform="matrix(0.0077473958333333336,0,0,0.0077473958333333336,238.03873697916683,0)" xlink:href="#am"/><use transform="matrix(0.0077473958333333336,0,0,0.0077473958333333336,247.5602864583335,0)" xlink:href="#an"/><use transform="matrix(0.0077473958333333336,0,0,0.0077473958333333336,257.08183593750016,0)" xlink:href="#aj"/><use transform="matrix(0.0077473958333333336,0,0,0.0077473958333333336,266.6033854166668,0)" xlink:href="#au"/><use transform="matrix(0.0077473958333333336,0,0,0.0077473958333333336,276.12493489583346,0)" xlink:href="#av"/><use transform="matrix(0.0077473958333333336,0,0,0.0077473958333333336,285.6464843750001,0)" xlink:href="#az"/><use transform="matrix(0.0077473958333333336,0,0,0.0077473958333333336,295.16803385416677,0)" xlink:href="#aD"/><use transform="matrix(0.0077473958333333336,0,0,0.0077473958333333336,304.6895833333334,0)" xlink:href="#az"/><use transform="matrix(0.0077473958333333336,0,0,0.0077473958333333336,314.21113281250007,0)" xlink:href="#af"/></g><use transform="matrix(0.0077473958333333336,0,0,0.0077473958333333336,0,0)" xlink:href="#ap" id="u"/><g id="v"><use transform="matrix(0.0077473958333333336,0,0,0.0077473958333333336,0,0)" xlink:href="#aq"/><use transform="matrix(0.0077473958333333336,0,0,0.0077473958333333336,9.521549479166667,0)" xlink:href="#ar"/><use transform="matrix(0.0077473958333333336,0,0,0.0077473958333333336,19.043098958333335,0)" xlink:href="#as"/><use transform="matrix(0.0077473958333333336,0,0,0.0077473958333333336,28.564648437500004,0)" xlink:href="#as"/><use transform="matrix(0.0077473958333333336,0,0,0.0077473958333333336,38.08619791666667,0)" xlink:href="#as"/><use transform="matrix(0.0077473958333333336,0,0,0.0077473958333333336,47.607747395833336,0)" xlink:href="#at"/><use transform="matrix(0.0077473958333333336,0,0,0.0077473958333333336,57.129296875,0)" xlink:href="#aj"/><use transform="matrix(0.0077473958333333336,0,0,0.0077473958333333336,66.65084635416667,0)" xlink:href="#au"/><use transform="matrix(0.0077473958333333336,0,0,0.0077473958333333336,76.17239583333334,0)" xlink:href="#am"/><use transform="matrix(0.0077473958333333336,0,0,0.0077473958333333336,85.6939453125,0)" xlink:href="#ao"/><use transform="matrix(0.0077473958333333336,0,0,0.0077473958333333336,95.21549479166667,0)" xlink:href="#ag"/><use transform="matrix(0.0077473958333333336,0,0,0.0077473958333333336,104.73704427083334,0)" xlink:href="#av"/><use transform="matrix(0.0077473958333333336,0,0,0.0077473958333333336,114.25859375,0)" xlink:href="#aw"/><use transform="matrix(0.0077473958333333336,0,0,0.0077473958333333336,123.78014322916667,0)" xlink:href="#ak"/><use transform="matrix(0.0077473958333333336,0,0,0.0077473958333333336,133.30169270833335,0)" xlink:href="#ar"/><use transform="matrix(0.0077473958333333336,0,0,0.0077473958333333336,142.82324218750003,0)" xlink:href="#as"/><use transform="matrix(0.0077473958333333336,0,0,0.0077473958333333336,152.3447916666667,0)" xlink:href="#as"/><use transform="matrix(0.0077473958333333336,0,0,0.0077473958333333336,161.8663411458334,0)" xlink:href="#as"/><use transform="matrix(0.0077473958333333336,0,0,0.0077473958333333336,171.38789062500007,0)" xlink:href="#at"/><use transform="matrix(0.0077473958333333336,0,0,0.0077473958333333336,180.90944010416675,0)" xlink:href="#aj"/><use transform="matrix(0.0077473958333333336,0,0,0.0077473958333333336,190.43098958333343,0)" xlink:href="#au"/><use transform="matrix(0.0077473958333333336,0,0,0.0077473958333333336,199.9525390625001,0)" xlink:href="#am"/><use transform="matrix(0.0077473958333333336,0,0,0.0077473958333333336,209.4740885416668,0)" xlink:href="#ao"/><use transform="matrix(0.0077473958333333336,0,0,0.0077473958333333336,218.99563802083347,0)" xlink:href="#ag"/><use transform="matrix(0.0077473958333333336,0,0,0.0077473958333333336,228.51718750000015,0)" xlink:href="#av"/><use transform="matrix(0.0077473958333333336,0,0,0.0077473958333333336,238.03873697916683,0)" xlink:href="#aw"/><use transform="matrix(0.0077473958333333336,0,0,0.0077473958333333336,247.5602864583335,0)" xlink:href="#ak"/><use transform="matrix(0.0077473958333333336,0,0,0.0077473958333333336,257.08183593750016,0)" xlink:href="#ar"/><use transform="matrix(0.0077473958333333336,0,0,0.0077473958333333336,266.6033854166668,0)" xlink:href="#as"/><use transform="matrix(0.0077473958333333336,0,0,0.0077473958333333336,276.12493489583346,0)" xlink:href="#as"/><use transform="matrix(0.0077473958333333336,0,0,0.0077473958333333336,285.6464843750001,0)" xlink:href="#as"/><use transform="matrix(0.0077473958333333336,0,0,0.0077473958333333336,295.16803385416677,0)" xlink:href="#at"/><use transform="matrix(0.0077473958333333336,0,0,0.0077473958333333336,304.6895833333334,0)" xlink:href="#aj"/><use transform="matrix(0.0077473958333333336,0,0,0.0077473958333333336,314.21113281250007,0)" xlink:href="#au"/><use transform="matrix(0.0077473958333333336,0,0,0.0077473958333333336,323.7326822916667,0)" xlink:href="#am"/><use transform="matrix(0.0077473958333333336,0,0,0.0077473958333333336,333.25423177083337,0)" xlink:href="#ao"/><use transform="matrix(0.0077473958333333336,0,0,0.0077473958333333336,342.77578125,0)" xlink:href="#ag"/><use transform="matrix(0.0077473958333333336,0,0,0.0077473958333333336,352.2973307291667,0)" xlink:href="#av"/><use transform="matrix(0.0077473958333333336,0,0,0.0077473958333333336,361.8188802083333,0)" xlink:href="#aw"/><use transform="matrix(0.0077473958333333336,0,0,0.0077473958333333336,371.3404296875,0)" xlink:href="#ap"/></g><path fill="#6aab73" d="M709-1193V0H519v-1193H76v-156h1076v156H709" id="aE"/><path fill="#6aab73" d="M615-1102c343 0 484 203 482 560-1 347-147 562-488 562-336 0-475-219-479-562-4-349 156-560 485-560zm-8 989c240 0 301-180 301-429 0-245-55-427-290-427-236 0-299 181-299 427 0 243 61 429 288 429" id="aF"/><path fill="#6aab73" d="M650-1214c-281 0-336 244-336 533 0 295 60 546 347 546 188 0 263-142 322-282l159 65C1058-155 935 20 659 20c-401 0-546-295-546-701 0-407 135-689 536-689 264 0 391 146 466 335l-168 65c-47-129-127-244-297-244" id="aG"/><path fill="#6aab73" d="M839-1102c70 0 148 7 206 17v167c-112-18-268-36-363 15-129 69-208 203-208 395V0H294c-10-367 32-789-52-1082h171c21 75 41 161 48 250h5c67-152 152-270 373-270" id="aH"/><g id="w"><use transform="matrix(0.0077473958333333336,0,0,0.0077473958333333336,0,0)" xlink:href="#aq"/><use transform="matrix(0.0077473958333333336,0,0,0.0077473958333333336,9.521549479166667,0)" xlink:href="#af"/><use transform="matrix(0.0077473958333333336,0,0,0.0077473958333333336,19.043098958333335,0)" xlink:href="#aE"/><use transform="matrix(0.0077473958333333336,0,0,0.0077473958333333336,28.564648437500004,0)" xlink:href="#am"/><use transform="matrix(0.0077473958333333336,0,0,0.0077473958333333336,38.08619791666667,0)" xlink:href="#au"/><use transform="matrix(0.0077473958333333336,0,0,0.0077473958333333336,47.607747395833336,0)" xlink:href="#aF"/><use transform="matrix(0.0077473958333333336,0,0,0.0077473958333333336,57.129296875,0)" xlink:href="#aF"/><use transform="matrix(0.0077473958333333336,0,0,0.0077473958333333336,66.65084635416667,0)" xlink:href="#ao"/><use transform="matrix(0.0077473958333333336,0,0,0.0077473958333333336,76.17239583333334,0)" xlink:href="#an"/><use transform="matrix(0.0077473958333333336,0,0,0.0077473958333333336,85.6939453125,0)" xlink:href="#aj"/><use transform="matrix(0.0077473958333333336,0,0,0.0077473958333333336,95.21549479166667,0)" xlink:href="#af"/><use transform="matrix(0.0077473958333333336,0,0,0.0077473958333333336,104.73704427083334,0)" xlink:href="#ak"/><use transform="matrix(0.0077473958333333336,0,0,0.0077473958333333336,114.25859375,0)" xlink:href="#af"/><use transform="matrix(0.0077473958333333336,0,0,0.0077473958333333336,123.78014322916667,0)" xlink:href="#aG"/><use transform="matrix(0.0077473958333333336,0,0,0.0077473958333333336,133.30169270833335,0)" xlink:href="#aF"/><use transform="matrix(0.0077473958333333336,0,0,0.0077473958333333336,142.82324218750003,0)" xlink:href="#aH"/><use transform="matrix(0.0077473958333333336,0,0,0.0077473958333333336,152.3447916666667,0)" xlink:href="#aj"/><use transform="matrix(0.0077473958333333336,0,0,0.0077473958333333336,161.8663411458334,0)" xlink:href="#ag"/><use transform="matrix(0.0077473958333333336,0,0,0.0077473958333333336,171.38789062500007,0)" xlink:href="#ag"/><use transform="matrix(0.0077473958333333336,0,0,0.0077473958333333336,180.90944010416675,0)" xlink:href="#ao"/><use transform="matrix(0.0077473958333333336,0,0,0.0077473958333333336,190.43098958333343,0)" xlink:href="#am"/><use transform="matrix(0.0077473958333333336,0,0,0.0077473958333333336,199.9525390625001,0)" xlink:href="#af"/><use transform="matrix(0.0077473958333333336,0,0,0.0077473958333333336,209.4740885416668,0)" xlink:href="#ak"/></g><path fill="#bcbec4" d="M908-845H766l-40-639h224zm-449 0H318l-41-639h224" id="aI"/><path fill="#6aab73" d="M1034 0L896-382H333L196 0H0l510-1349h217L1228 0h-194zM847-531c-77-225-157-447-231-674-69 231-154 451-232 674h463" id="aJ"/><path fill="#6aab73" d="M270 425V286h367v-1631H270v-139h547V425H270" id="aK"/><g id="x"><use transform="matrix(0.0077473958333333336,0,0,0.0077473958333333336,0,0)" xlink:href="#aI"/><use transform="matrix(0.0077473958333333336,0,0,0.0077473958333333336,9.521549479166667,0)" xlink:href="#aJ"/><use transform="matrix(0.0077473958333333336,0,0,0.0077473958333333336,19.043098958333335,0)" xlink:href="#ag"/><use transform="matrix(0.0077473958333333336,0,0,0.0077473958333333336,28.564648437500004,0)" xlink:href="#at"/><use transform="matrix(0.0077473958333333336,0,0,0.0077473958333333336,38.08619791666667,0)" xlink:href="#aj"/><use transform="matrix(0.0077473958333333336,0,0,0.0077473958333333336,47.607747395833336,0)" xlink:href="#aH"/><use transform="matrix(0.0077473958333333336,0,0,0.0077473958333333336,57.129296875,0)" xlink:href="#am"/><use transform="matrix(0.0077473958333333336,0,0,0.0077473958333333336,66.65084635416667,0)" xlink:href="#am"/><use transform="matrix(0.0077473958333333336,0,0,0.0077473958333333336,76.17239583333334,0)" xlink:href="#an"/><use transform="matrix(0.0077473958333333336,0,0,0.0077473958333333336,85.6939453125,0)" xlink:href="#af"/><use transform="matrix(0.0077473958333333336,0,0,0.0077473958333333336,95.21549479166667,0)" xlink:href="#aK"/></g></defs></g></svg>