<svg xmlns="http://www.w3.org/2000/svg" xmlns:xlink="http://www.w3.org/1999/xlink" xmlns:lucid="lucid" width="2037.04" height="1424"><g transform="translate(364.42643229165674 -498)" lucid:page-tab-id="19YKX~xldJZl"><path d="M-500 500h2500v1500H-500z" fill="#fff"/><path d="M-120.84 720C-98.3 720-80 738.3-80 760.84c0 22.56-18.3 40.84-40.84 40.84h-158.32c-22.55 0-40.84-18.28-40.84-40.84 0-22.55 18.3-40.84 40.84-40.84z" stroke="#3a414a" fill="#fff"/><use xlink:href="#a" transform="matrix(1,0,0,1,-315,725) translate(0.061295572916648666 41.25944010416667)"/><path d="M-120.84 1016.1c22.55 0 40.84 18.3 40.84 40.85s-18.3 40.84-40.84 40.84h-158.32c-22.55 0-40.84-18.3-40.84-40.85 0-22.56 18.3-40.85 40.84-40.85z" stroke="#3a414a" fill="#fff"/><use xlink:href="#b" transform="matrix(1,0,0,1,-315,1021.1052631578948) translate(6.822395833333317 41.25944010416667)"/><path d="M-120.84 1312.2c22.55 0 40.84 18.3 40.84 40.85 0 22.56-18.3 40.85-40.84 40.85h-158.32c-22.55 0-40.84-18.3-40.84-40.85s18.3-40.84 40.84-40.84z" stroke="#3a414a" fill="#fff"/><use xlink:href="#c" transform="matrix(1,0,0,1,-315,1317.2105263157896) translate(6.822395833333317 41.25944010416667)"/><path d="M-120.84 1608.32c22.55 0 40.84 18.28 40.84 40.84 0 22.55-18.3 40.84-40.84 40.84h-158.32c-22.55 0-40.84-18.3-40.84-40.84 0-22.56 18.3-40.84 40.84-40.84z" stroke="#3a414a" fill="#fff"/><use xlink:href="#d" transform="matrix(1,0,0,1,-315,1613.3157894736842) translate(27.105696614583323 41.25944010416667)"/><path d="M40 680h450.87v53.5H40zM490.87 680h318.26v53.5H490.87zM809.13 680h177v53.5h-177zM986.13 680h208v53.5h-208zM1194.13 680h240.7v53.5h-240.7z" fill="#f2f3f5"/><path d="M40 733.5h450.87v61.15H40zM490.87 733.5h318.26v61.15H490.87zM809.13 733.5h177v61.15h-177zM986.13 733.5h208v61.15h-208zM1194.13 733.5h240.7v61.15h-240.7zM40 794.65h450.87v53.5H40zM490.87 794.65h318.26v53.5H490.87zM809.13 794.65h177v53.5h-177zM986.13 794.65h208v53.5h-208zM1194.13 794.65h240.7v53.5h-240.7z" fill="#fff"/><path d="M40 680v53.5M490.87 680v53.5M809.13 680v53.5M986.13 680v53.5M1194.13 680v53.5M1434.83 680v53.5M40 733.5v61.15M490.87 733.5v61.15M809.13 733.5v61.15M986.13 733.5v61.15M1194.13 733.5v61.15M1434.83 733.5v61.15M40 794.65v53.5M490.87 794.65v53.5M809.13 794.65v53.5M986.13 794.65v53.5M1194.13 794.65v53.5M1434.83 794.65v53.5M40 680h450.87M490.87 680h318.26M809.13 680h177M986.13 680h208M1194.13 680h240.7M40 733.5h450.87M490.87 733.5h318.26M809.13 733.5h177M986.13 733.5h208M1194.13 733.5h240.7M40 794.65h450.87M40 848.16h450.87M490.87 794.65h318.26M490.87 848.16h318.26M809.13 794.65h177M809.13 848.16h177M986.13 794.65h208M986.13 848.16h208M1194.13 794.65h240.7M1194.13 848.16h240.7" stroke="#3a414a" fill="none"/><use xlink:href="#e" transform="matrix(1,0,0,1,45,685.0000000000001) translate(161.30246913580245 26.444444444444443)"/><use xlink:href="#f" transform="matrix(1,0,0,1,495.87174479166646,685.0000000000001) translate(132.92592592592592 26.444444444444443)"/><use xlink:href="#g" transform="matrix(1,0,0,1,814.1333297540409,685.0000000000001) translate(61.925925925925924 26.444444444444443)"/><use xlink:href="#h" transform="matrix(1,0,0,1,991.1333297540409,685.0000000000001) translate(80.48148148148148 26.444444444444443)"/><use xlink:href="#i" transform="matrix(1,0,0,1,1199.133329754041,685.0000000000001) translate(100.0679012345679 26.444444444444443)"/><use xlink:href="#j" transform="matrix(1,0,0,1,45,738.5057471264369) translate(0.06412760416677088 32.33333333333333)"/><use xlink:href="#k" transform="matrix(1,0,0,1,495.87174479166646,738.5057471264369) translate(92.88997395833331 30.666666666666668)"/><use xlink:href="#l" transform="matrix(1,0,0,1,814.1333297540409,738.5057471264369) translate(55.32098765432099 30.444444444444443)"/><use xlink:href="#k" transform="matrix(1,0,0,1,991.1333297540409,738.5057471264369) translate(37.389973958333314 30.666666666666668)"/><use xlink:href="#m" transform="matrix(1,0,0,1,1199.133329754041,738.5057471264369) translate(17.444444444444457 30.444444444444443)"/><use xlink:href="#n" transform="matrix(1,0,0,1,1199.133329754041,738.5057471264369) translate(117.38271604938272 30.444444444444443)"/><use xlink:href="#o" transform="matrix(1,0,0,1,1199.133329754041,738.5057471264369) translate(187.62962962962962 30.444444444444443)"/><use xlink:href="#p" transform="matrix(1,0,0,1,45,799.6551724137933) translate(0.06412760416677088 28.333333333333332)"/><use xlink:href="#k" transform="matrix(1,0,0,1,495.87174479166646,799.6551724137933) translate(92.88997395833331 26.666666666666668)"/><use xlink:href="#q" transform="matrix(1,0,0,1,814.1333297540409,799.6551724137933) translate(57.141975308641975 26.444444444444443)"/><use xlink:href="#k" transform="matrix(1,0,0,1,991.1333297540409,799.6551724137933) translate(37.389973958333314 26.666666666666668)"/><use xlink:href="#m" transform="matrix(1,0,0,1,1199.133329754041,799.6551724137933) translate(17.444444444444457 26.444444444444443)"/><use xlink:href="#n" transform="matrix(1,0,0,1,1199.133329754041,799.6551724137933) translate(117.38271604938272 26.444444444444443)"/><use xlink:href="#o" transform="matrix(1,0,0,1,1199.133329754041,799.6551724137933) translate(187.62962962962962 26.444444444444443)"/><path d="M40 960h450.87v55.42H40zM490.87 960h172v55.42h-172zM662.87 960h257v55.42h-257z" fill="#f2f3f5"/><path d="M919.87 960h232v55.42h-232zM1151.87 960h500.24v55.42h-500.23z" fill="#f2f3f5"/><path d="M40 1015.42h450.87v55.4H40zM490.87 1015.42h172v55.4h-172zM662.87 1015.42h257v55.4h-257z" fill="#fff"/><path d="M919.87 1015.42h232v55.4h-232zM1151.87 1015.42h500.24v55.4h-500.23zM40 1070.83h450.87v55.42H40zM490.87 1070.83h172v55.42h-172zM662.87 1070.83h257v55.42h-257z" fill="#fff"/><path d="M919.87 1070.83h232v55.42h-232zM1151.87 1070.83h500.24v55.42h-500.23z" fill="#fff"/><path d="M40 960v55.42M490.87 960v55.42M662.87 960v55.42M919.87 960v55.42M1151.87 960v55.42M1652.1 960v55.42M40 1015.42v55.4M490.87 1015.42v55.4M662.87 1015.42v55.4M919.87 1015.42v55.4M1151.87 1015.42v55.4M1652.1 1015.42v55.4M40 1070.83v55.42M490.87 1070.83v55.42M662.87 1070.83v55.42M919.87 1070.83v55.42M1151.87 1070.83v55.42M1652.1 1070.83v55.42M40 960h450.87M490.87 960h172M662.87 960h257M919.87 960h232M1151.87 960h500.24M40 1015.42h450.87M490.87 1015.42h172M662.87 1015.42h257M919.87 1015.42h232M1151.87 1015.42h500.24M40 1070.83h450.87M40 1126.25h450.87M490.87 1070.83h172M490.87 1126.25h172M662.87 1070.83h257M662.87 1126.25h257M919.87 1070.83h232M919.87 1126.25h232M1151.87 1070.83h500.24M1151.87 1126.25h500.24" stroke="#3a414a" fill="none"/><use xlink:href="#e" transform="matrix(1,0,0,1,45,965) translate(161.30246913580245 27.444444444444443)"/><use xlink:href="#f" transform="matrix(1,0,0,1,495.87174479166646,965) translate(59.425925925925924 27.444444444444443)"/><use xlink:href="#g" transform="matrix(1,0,0,1,667.8717447916665,965) translate(101.92592592592592 27.444444444444443)"/><use xlink:href="#h" transform="matrix(1,0,0,1,924.8717447916665,965) translate(92.48148148148148 27.444444444444443)"/><use xlink:href="#i" transform="matrix(1,0,0,1,1156.8717447916665,965) translate(230.0679012345679 27.444444444444443)"/><use xlink:href="#j" transform="matrix(1,0,0,1,45,1020.4166666666666) translate(0.06412760416677088 29.333333333333332)"/><use xlink:href="#k" transform="matrix(1,0,0,1,495.87174479166646,1020.4166666666666) translate(19.389973958333314 27.666666666666668)"/><use xlink:href="#m" transform="matrix(1,0,0,1,667.8717447916665,1020.4166666666666) translate(25.444444444444457 27.444444444444443)"/><use xlink:href="#n" transform="matrix(1,0,0,1,667.8717447916665,1020.4166666666666) translate(125.38271604938272 27.444444444444443)"/><use xlink:href="#o" transform="matrix(1,0,0,1,667.8717447916665,1020.4166666666666) translate(195.62962962962962 27.444444444444443)"/><use xlink:href="#k" transform="matrix(1,0,0,1,924.8717447916665,1020.4166666666666) translate(49.389973958333314 27.666666666666668)"/><use xlink:href="#r" transform="matrix(1,0,0,1,1156.8717447916665,1020.4166666666666) translate(7.807986111111006 29.587782118055557)"/><use xlink:href="#p" transform="matrix(1,0,0,1,45,1075.8333333333333) translate(0.06412760416677088 29.333333333333332)"/><use xlink:href="#k" transform="matrix(1,0,0,1,495.87174479166646,1075.8333333333333) translate(19.389973958333314 27.666666666666668)"/><use xlink:href="#m" transform="matrix(1,0,0,1,667.8717447916665,1075.8333333333333) translate(25.444444444444457 27.444444444444443)"/><use xlink:href="#n" transform="matrix(1,0,0,1,667.8717447916665,1075.8333333333333) translate(125.38271604938272 27.444444444444443)"/><use xlink:href="#o" transform="matrix(1,0,0,1,667.8717447916665,1075.8333333333333) translate(195.62962962962962 27.444444444444443)"/><use xlink:href="#k" transform="matrix(1,0,0,1,924.8717447916665,1075.8333333333333) translate(49.389973958333314 27.666666666666668)"/><use xlink:href="#s" transform="matrix(1,0,0,1,1156.8717447916665,1075.8333333333333) translate(0.38011067708322344 29.587782118055557)"/><path d="M40 1242.26h349.76v54.85H40zM389.76 1242.26h291.27v54.85H389.77zM681.03 1242.26h139.15v54.85H681.03zM820.18 1242.26h291.26v54.85H820.18zM1111.44 1242.26H1360v54.85h-248.56z" fill="#f2f3f5"/><path d="M40 1297.1h349.76v54.86H40zM389.76 1297.1h291.27v54.86H389.77zM681.03 1297.1h139.15v54.86H681.03zM820.18 1297.1h291.26v54.86H820.18zM1111.44 1297.1H1360v54.86h-248.56zM40 1351.96h349.76v54.86H40zM389.76 1351.96h291.27v54.86H389.77zM681.03 1351.96h139.15v54.86H681.03zM820.18 1351.96h291.26v54.86H820.18zM1111.44 1351.96H1360v54.86h-248.56z" fill="#fff"/><path d="M40 1242.26v54.85M389.76 1242.26v54.85M681.03 1242.26v54.85M820.18 1242.26v54.85M1111.44 1242.26v54.85M1360 1242.26v54.85M40 1297.1v54.86M389.76 1297.1v54.86M681.03 1297.1v54.86M820.18 1297.1v54.86M1111.44 1297.1v54.86M1360 1297.1v54.86M40 1351.96v54.86M389.76 1351.96v54.86M681.03 1351.96v54.86M820.18 1351.96v54.86M1111.44 1351.96v54.86M1360 1351.96v54.86M40 1242.26h349.76M389.76 1242.26h291.27M681.03 1242.26h139.15M820.18 1242.26h291.26M1111.44 1242.26H1360M40 1297.1h349.76M389.76 1297.1h291.27M681.03 1297.1h139.15M820.18 1297.1h291.26M1111.44 1297.1H1360M40 1351.96h349.76M40 1406.82h349.76M389.76 1351.96h291.27M389.76 1406.82h291.27M681.03 1351.96h139.15M681.03 1406.82h139.15M820.18 1351.96h291.26M820.18 1406.82h291.26M1111.44 1351.96H1360M1111.44 1406.82H1360" stroke="#3a414a" fill="none"/><use xlink:href="#e" transform="matrix(1,0,0,1,45,1247.2597481482794) translate(110.80246913580245 26.944444444444443)"/><use xlink:href="#f" transform="matrix(1,0,0,1,394.76466240542493,1247.2597481482794) translate(119.42592592592592 26.944444444444443)"/><use xlink:href="#g" transform="matrix(1,0,0,1,686.0259905830159,1247.2597481482794) translate(43.425925925925924 26.944444444444443)"/><use xlink:href="#h" transform="matrix(1,0,0,1,825.1786497682389,1247.2597481482794) translate(122.48148148148148 26.944444444444443)"/><use xlink:href="#i" transform="matrix(1,0,0,1,1116.43997794583,1247.2597481482794) translate(104.0679012345679 26.944444444444443)"/><use xlink:href="#t" transform="matrix(1,0,0,1,45,1302.1114777778762) translate(7.573567708333314 27.166666666666668)"/><use xlink:href="#k" transform="matrix(1,0,0,1,394.76466240542493,1302.1114777778762) translate(79.38997395833331 27.166666666666668)"/><use xlink:href="#k" transform="matrix(1,0,0,1,686.0259905830159,1302.1114777778762) translate(3.3899739583333144 27.166666666666668)"/><use xlink:href="#u" transform="matrix(1,0,0,1,825.1786497682389,1302.1114777778762) translate(6.578125000000028 27.166666666666668)"/><use xlink:href="#v" transform="matrix(1,0,0,1,1116.43997794583,1302.1114777778762) translate(7.956790123456813 26.944444444444443)"/><use xlink:href="#w" transform="matrix(1,0,0,1,45,1356.963207407473) translate(7.573567708333314 27.166666666666668)"/><use xlink:href="#k" transform="matrix(1,0,0,1,394.76466240542493,1356.963207407473) translate(79.38997395833331 27.166666666666668)"/><use xlink:href="#k" transform="matrix(1,0,0,1,686.0259905830159,1356.963207407473) translate(3.3899739583333144 27.166666666666668)"/><use xlink:href="#x" transform="matrix(1,0,0,1,825.1786497682389,1356.963207407473) translate(6.578125000000028 27.166666666666668)"/><use xlink:href="#y" transform="matrix(1,0,0,1,1116.43997794583,1356.963207407473) translate(5.5185185185185475 26.944444444444443)"/><path d="M40 1522.26h355.38v54.85H40zM395.38 1522.26h295.94v54.85H395.38zM691.32 1522.26H938.7v54.85H691.32zM938.7 1522.26h182v54.85h-182zM1120.7 1522.26h239v54.85h-239z" fill="#f2f3f5"/><path d="M40 1577.1h355.38v54.86H40zM395.38 1577.1h295.94v54.86H395.38zM691.32 1577.1H938.7v54.86H691.32zM938.7 1577.1h182v54.86h-182zM1120.7 1577.1h239v54.86h-239zM40 1631.96h355.38v54.86H40zM395.38 1631.96h295.94v54.86H395.38zM691.32 1631.96H938.7v54.86H691.32zM938.7 1631.96h182v54.86h-182zM1120.7 1631.96h239v54.86h-239z" fill="#fff"/><path d="M40 1522.26v54.85M395.38 1522.26v54.85M691.32 1522.26v54.85M938.7 1522.26v54.85M1120.7 1522.26v54.85M1359.7 1522.26v54.85M40 1577.1v54.86M395.38 1577.1v54.86M691.32 1577.1v54.86M938.7 1577.1v54.86M1120.7 1577.1v54.86M1359.7 1577.1v54.86M40 1631.96v54.86M395.38 1631.96v54.86M691.32 1631.96v54.86M938.7 1631.96v54.86M1120.7 1631.96v54.86M1359.7 1631.96v54.86M40 1522.26h355.38M395.38 1522.26h295.94M691.32 1522.26H938.7M938.7 1522.26h182M1120.7 1522.26h239M40 1577.1h355.38M395.38 1577.1h295.94M691.32 1577.1H938.7M938.7 1577.1h182M1120.7 1577.1h239M40 1631.96h355.38M40 1686.82h355.38M395.38 1631.96h295.94M395.38 1686.82h295.94M691.32 1631.96H938.7M691.32 1686.82H938.7M938.7 1631.96h182M938.7 1686.82h182M1120.7 1631.96h239M1120.7 1686.82h239" stroke="#3a414a" fill="none"/><use xlink:href="#e" transform="matrix(1,0,0,1,45,1527.2597481482794) translate(113.80246913580245 26.944444444444443)"/><use xlink:href="#f" transform="matrix(1,0,0,1,400.3832218692352,1527.2597481482794) translate(121.42592592592592 26.944444444444443)"/><use xlink:href="#g" transform="matrix(1,0,0,1,696.3233219977137,1527.2597481482794) translate(97.42592592592592 26.944444444444443)"/><use xlink:href="#h" transform="matrix(1,0,0,1,943.7006377895037,1527.2597481482794) translate(67.48148148148148 26.944444444444443)"/><use xlink:href="#i" transform="matrix(1,0,0,1,1125.7006377895038,1527.2597481482794) translate(99.0679012345679 26.944444444444443)"/><use xlink:href="#t" transform="matrix(1,0,0,1,45,1582.1114777778762) translate(10.573567708333314 27.166666666666668)"/><use xlink:href="#k" transform="matrix(1,0,0,1,400.3832218692352,1582.1114777778762) translate(81.38997395833331 27.166666666666668)"/><use xlink:href="#v" transform="matrix(1,0,0,1,696.3233219977137,1582.1114777778762) translate(7.456790123456813 26.944444444444443)"/><use xlink:href="#k" transform="matrix(1,0,0,1,943.7006377895037,1582.1114777778762) translate(24.389973958333314 27.166666666666668)"/><use xlink:href="#z" transform="matrix(1,0,0,1,1125.7006377895038,1582.1114777778762) translate(46.88899739583333 28.496419270833336)"/><use xlink:href="#A" transform="matrix(1,0,0,1,45,1636.963207407473) translate(10.573567708333314 27.166666666666668)"/><use xlink:href="#k" transform="matrix(1,0,0,1,400.3832218692352,1636.963207407473) translate(81.38997395833331 27.166666666666668)"/><use xlink:href="#v" transform="matrix(1,0,0,1,696.3233219977137,1636.963207407473) translate(7.456790123456813 26.944444444444443)"/><use xlink:href="#k" transform="matrix(1,0,0,1,943.7006377895037,1636.963207407473) translate(24.389973958333314 27.166666666666668)"/><use xlink:href="#B" transform="matrix(1,0,0,1,1125.7006377895038,1636.963207407473) translate(46.88899739583333 28.496419270833336)"/><path d="M-199.5 999.22h-1v-20.04h1zm0-41.37h-1v-40.53h1zm0-57.38h-1V869.4h1zm0-52.4h-1v-45.4h1z" stroke="#3a414a" stroke-width=".05" fill="#3a414a"/><path d="M-199.5 802.7h-1v-.52h1z" fill="#3a414a"/><path d="M-199.47 802.72h-1.06v-.56h1.06zm-1-.5v.45h.94v-.46z" stroke="#3a414a" stroke-width=".05" fill="#3a414a"/><path d="M-200 1014l-4.63-14.28h9.26z" fill="#3a414a"/><path d="M-200 1015.6l-5.32-16.38h10.64zm-3.95-15.38l3.95 12.15 3.95-12.15z" stroke="#3a414a" stroke-width=".05" fill="#3a414a"/><use xlink:href="#t" transform="matrix(1,0,0,1,-362.42643229165674,900.4728620789474) translate(0 13.088541666666668)"/><use xlink:href="#C" transform="matrix(1,0,0,1,-213.75308641974314,848.0695204837651) translate(0 14.222222222222223)"/><use xlink:href="#D" transform="matrix(1,0,0,1,-218.74074074073079,957.8467143658644) translate(0 14.222222222222223)"/><path d="M-199.5 1295.33h-1v-22.1h1zm0-43.44h-1v-38.48h1zm0-55.32h-1v-25.3h1zm0-46.62h-1v-51.17h1z" stroke="#3a414a" stroke-width=".05" fill="#3a414a"/><path d="M-199.5 1098.8h-1v-.5h1z" fill="#3a414a"/><path d="M-199.47 1098.83h-1.06v-.57h1.06zm-1-.52v.48h.94v-.47z" stroke="#3a414a" stroke-width=".05" fill="#3a414a"/><path d="M-200 1310.1l-4.63-14.27h9.26z" fill="#3a414a"/><path d="M-200 1311.7l-5.32-16.37h10.64zm-3.95-15.37l3.95 12.14 3.95-12.14z" stroke="#3a414a" stroke-width=".05" fill="#3a414a"/><use xlink:href="#t" transform="matrix(1,0,0,1,-362.42643229165674,1196.5781252368422) translate(0 13.088541666666668)"/><use xlink:href="#C" transform="matrix(1,0,0,1,-213.75308641974314,1149.956803659538) translate(0 14.222222222222223)"/><use xlink:href="#D" transform="matrix(1,0,0,1,-218.74074074073079,1251.892769407202) translate(0 14.222222222222223)"/><path d="M-199.5 1591.43h-1v-24.16h1zm0-45.5h-1v-36.4h1zm0-53.25h-1v-45h1zm0-66.32h-1v-31.46h1z" stroke="#3a414a" stroke-width=".05" fill="#3a414a"/><path d="M-199.5 1394.9h-1v-.5h1z" fill="#3a414a"/><path d="M-199.47 1394.93h-1.06v-.56h1.06zm-1-.5v.45h.94v-.46z" stroke="#3a414a" stroke-width=".05" fill="#3a414a"/><path d="M-200 1606.2l-4.63-14.27h9.26z" fill="#3a414a"/><path d="M-200 1607.82l-5.32-16.4h10.64zm-3.95-15.4l3.95 12.16 3.95-12.15z" stroke="#3a414a" stroke-width=".05" fill="#3a414a"/><use xlink:href="#t" transform="matrix(1,0,0,1,-362.42643229165674,1492.683388394737) translate(0 13.088541666666668)"/><use xlink:href="#C" transform="matrix(1,0,0,1,-213.75308641974314,1426.3600953983953) translate(0 14.222222222222223)"/><use xlink:href="#D" transform="matrix(1,0,0,1,-218.74074074073079,1545.9388244485394) translate(0 14.222222222222223)"/><path d="M-199.5 703.12h-1v-70.7h1zm0-116.04h-1V500.5h1z" stroke="#3a414a" stroke-width=".05" fill="#3a414a"/><path d="M-200 717.88l-4.63-14.26h9.26z" fill="#3a414a"/><path d="M-200 719.5l-5.32-16.38h10.64zm-3.95-15.38l3.95 12.14 3.95-12.14zM-199.5 500.5h-1v-.5h1z" stroke="#3a414a" stroke-width=".05" fill="#3a414a"/><g><use xlink:href="#E" transform="matrix(1,0,0,1,-306.4074074073974,587.0833333333334) translate(0 30.222222222222214)"/></g><path d="M-199.5 1883.62h-1v-65.7h1zm0-111.04h-1V1691h1z" stroke="#3a414a" stroke-width=".05" fill="#3a414a"/><path d="M-199.5 1691h-1v-.5h1z" fill="#3a414a"/><path d="M-199.47 1691.04h-1.06v-.57h1.06zm-1-.5v.45h.94v-.47z" stroke="#3a414a" stroke-width=".05" fill="#3a414a"/><path d="M-200 1898.38l-4.63-14.27 9.26.02z" fill="#3a414a"/><path d="M-200 1900l-5.32-16.38h10.64zm-3.95-15.38l3.95 12.14 3.95-12.14z" stroke="#3a414a" stroke-width=".05" fill="#3a414a"/><g><use xlink:href="#F" transform="matrix(1,0,0,1,-335.1080246913481,1772.5833335701752) translate(0 30.222222222222218)"/></g><defs><path fill="#067d17" d="M736-142h380V0H134v-142h422v-1200H267v-142h469v1342" id="G"/><path fill="#067d17" d="M528 20c-247 0-343-132-343-381v-721h180v686c-4 177 45 284 224 277 194-8 279-136 279-336v-627h181c3 360-6 732 6 1082H885c-4-54-7-126-8-185h-3C809-64 714 20 528 20" id="H"/><path fill="#067d17" d="M914 0L548-499l-132 98V0H236v-1484h180v927l475-525h211L663-617 1125 0H914" id="I"/><path fill="#067d17" d="M617-1102c355 0 481 238 477 599H322c5 222 84 388 301 388 144 0 244-59 284-166l158 45C1002-72 854 20 623 20c-342 0-490-220-490-568 0-346 151-554 484-554zm291 461c-18-192-90-328-289-328-194 0-287 128-295 328h584" id="J"/><path fill="#067d17" d="M622-1349c296 4 497 117 497 404 0 282-193 424-485 431H353V0H162v-1349h460zm-15 684c195-3 320-88 320-277 0-184-129-255-328-254H353v531h254" id="K"/><path fill="#067d17" d="M839-1102c70 0 148 7 206 17v167c-112-18-268-36-363 15-129 69-208 203-208 395V0H294c-10-367 32-789-52-1082h171c21 75 41 161 48 250h5c67-152 152-270 373-270" id="L"/><path fill="#067d17" d="M873-819c-18-114-119-146-250-146-163 0-245 50-245 151 0 151 170 148 294 185 182 54 388 94 388 320 0 240-189 325-439 329-245 4-410-69-454-268l159-31c24 133 136 168 295 165 144-2 270-31 270-171 0-164-195-160-331-202-167-52-350-87-350-299 0-218 173-315 413-313 220 2 373 77 412 260" id="M"/><path fill="#067d17" d="M615-1102c343 0 484 203 482 560-1 347-147 562-488 562-336 0-475-219-479-562-4-349 156-560 485-560zm-8 989c240 0 301-180 301-429 0-245-55-427-290-427-236 0-299 181-299 427 0 243 61 429 288 429" id="N"/><path fill="#067d17" d="M706-1102c241 0 344 136 343 381V0H868v-695c1-168-57-273-220-268-190 6-283 138-283 336V0H185c-3-360 6-732-6-1082h170c4 54 7 126 8 185h3c63-121 164-204 346-205" id="O"/><path fill="#067d17" d="M473-1349c438-1 655 221 652 661C1122-268 945-8 532 0H162v-1349h311zm42 1193c308-4 416-205 418-532 2-330-131-509-459-505H353v1037h162" id="P"/><path fill="#067d17" d="M682 16c-209 0-323-80-324-285v-671H190v-142h170l58-282h120v282h432v142H538v652c2 114 60 155 182 155 106 0 209-16 297-34v137C921-4 806 16 682 16" id="Q"/><path fill="#067d17" d="M1000-272c3 95 12 159 101 161 21 0 41-3 59-7V-6c-44 10-86 16-139 16-141 2-191-84-197-217h-6C748-76 648 20 446 20c-207 0-318-120-318-322 0-266 194-348 454-354l236-4c12-191-40-305-222-305-140 0-220 47-232 172l-188-17c33-204 181-292 423-292 255 0 401 118 401 364v466zm-683-27c0 109 63 184 175 182 166-3 259-96 306-217 24-65 20-120 20-200-232 7-501-28-501 235" id="R"/><path fill="#067d17" d="M745-142h380V0H143v-142h422v-798H246v-142h499v940zM545-1292v-192h200v192H545" id="S"/><g id="a"><use transform="matrix(0.011002604166666667,0,0,0.011002604166666667,0,0)" xlink:href="#G"/><use transform="matrix(0.011002604166666667,0,0,0.011002604166666667,13.522200520833334,0)" xlink:href="#H"/><use transform="matrix(0.011002604166666667,0,0,0.011002604166666667,27.044401041666667,0)" xlink:href="#I"/><use transform="matrix(0.011002604166666667,0,0,0.011002604166666667,40.5666015625,0)" xlink:href="#J"/><use transform="matrix(0.011002604166666667,0,0,0.011002604166666667,54.088802083333334,0)" xlink:href="#K"/><use transform="matrix(0.011002604166666667,0,0,0.011002604166666667,67.61100260416667,0)" xlink:href="#J"/><use transform="matrix(0.011002604166666667,0,0,0.011002604166666667,81.13320312500001,0)" xlink:href="#L"/><use transform="matrix(0.011002604166666667,0,0,0.011002604166666667,94.65540364583335,0)" xlink:href="#M"/><use transform="matrix(0.011002604166666667,0,0,0.011002604166666667,108.17760416666667,0)" xlink:href="#N"/><use transform="matrix(0.011002604166666667,0,0,0.011002604166666667,121.69980468750003,0)" xlink:href="#O"/><use transform="matrix(0.011002604166666667,0,0,0.011002604166666667,135.22200520833334,0)" xlink:href="#P"/><use transform="matrix(0.011002604166666667,0,0,0.011002604166666667,148.74420572916668,0)" xlink:href="#J"/><use transform="matrix(0.011002604166666667,0,0,0.011002604166666667,162.26640625000002,0)" xlink:href="#Q"/><use transform="matrix(0.011002604166666667,0,0,0.011002604166666667,175.78860677083335,0)" xlink:href="#R"/><use transform="matrix(0.011002604166666667,0,0,0.011002604166666667,189.3108072916667,0)" xlink:href="#S"/><use transform="matrix(0.011002604166666667,0,0,0.011002604166666667,202.83300781250003,0)" xlink:href="#G"/><use transform="matrix(0.011002604166666667,0,0,0.011002604166666667,216.35520833333334,0)" xlink:href="#M"/></g><path fill="#067d17" d="M875 0v-623H353V0H162v-1349h191v566h522v-566h191V0H875" id="T"/><path fill="#067d17" d="M904-1102c199 0 220 177 220 381V0H956v-686c-3-114 0-215-60-264-70-33-125-4-158 71-26 56-39 140-39 252V0H531v-686c-3-114-1-215-61-264-78-41-136 24-157 84-24 69-39 159-39 259V0H105c-3-360 6-732-6-1082h149c6 50 3 123 8 175 36-100 83-195 216-195 135 0 166 79 196 196 42-105 93-196 236-196" id="U"/><path fill="#067d17" d="M1018 0H814c-67-224-138-444-200-673C552-442 476-224 407 0H204L21-1082h178c43 310 105 601 126 933 54-225 128-425 193-638h193c63 212 134 415 185 638 22-336 90-622 136-933h176" id="V"/><path fill="#067d17" d="M865-914c-3-187-2-380-2-570h180v1261c0 76 1 155 6 223H877c-8-49-9-116-10-174h-5C801-44 708 26 530 26c-135 0-234-46-297-139s-95-232-95-419c0-377 131-566 392-566 176 0 271 63 335 184zm-286-51c-222 0-255 197-255 427 0 229 31 425 253 425 237 0 286-195 286-441 0-238-52-411-284-411" id="W"/><path fill="#067d17" d="M604-135c236 0 291-142 291-376v-838h190v859c5 340-142 510-480 510-326 0-463-164-463-492v-877h191v851c-3 222 46 363 271 363" id="X"/><path fill="#067d17" d="M1121-976c0 225-142 341-344 379L1177 0H957L591-575H353V0H162v-1349h482c281 3 477 100 477 373zM633-726c181-1 296-73 296-247 0-149-101-223-304-223H353v470h280" id="Y"/><path fill="#067d17" d="M237 0v-1349h191v1193h672V0H237" id="Z"/><g id="b"><use transform="matrix(0.011002604166666667,0,0,0.011002604166666667,0,0)" xlink:href="#G"/><use transform="matrix(0.011002604166666667,0,0,0.011002604166666667,13.522200520833334,0)" xlink:href="#H"/><use transform="matrix(0.011002604166666667,0,0,0.011002604166666667,27.044401041666667,0)" xlink:href="#I"/><use transform="matrix(0.011002604166666667,0,0,0.011002604166666667,40.5666015625,0)" xlink:href="#J"/><use transform="matrix(0.011002604166666667,0,0,0.011002604166666667,54.088802083333334,0)" xlink:href="#T"/><use transform="matrix(0.011002604166666667,0,0,0.011002604166666667,67.61100260416667,0)" xlink:href="#N"/><use transform="matrix(0.011002604166666667,0,0,0.011002604166666667,81.13320312500001,0)" xlink:href="#U"/><use transform="matrix(0.011002604166666667,0,0,0.011002604166666667,94.65540364583335,0)" xlink:href="#J"/><use transform="matrix(0.011002604166666667,0,0,0.011002604166666667,108.17760416666667,0)" xlink:href="#V"/><use transform="matrix(0.011002604166666667,0,0,0.011002604166666667,121.69980468750003,0)" xlink:href="#N"/><use transform="matrix(0.011002604166666667,0,0,0.011002604166666667,135.22200520833334,0)" xlink:href="#L"/><use transform="matrix(0.011002604166666667,0,0,0.011002604166666667,148.74420572916668,0)" xlink:href="#G"/><use transform="matrix(0.011002604166666667,0,0,0.011002604166666667,162.26640625000002,0)" xlink:href="#W"/><use transform="matrix(0.011002604166666667,0,0,0.011002604166666667,175.78860677083335,0)" xlink:href="#X"/><use transform="matrix(0.011002604166666667,0,0,0.011002604166666667,189.3108072916667,0)" xlink:href="#Y"/><use transform="matrix(0.011002604166666667,0,0,0.011002604166666667,202.83300781250003,0)" xlink:href="#Z"/></g><path fill="#067d17" d="M648-963c-190 6-283 138-283 336V0H185v-1484h181c-2 197 6 404-9 587h3c62-120 159-205 339-205 242 0 351 135 350 381V0H868v-695c1-168-57-273-220-268" id="aa"/><g id="c"><use transform="matrix(0.011002604166666667,0,0,0.011002604166666667,0,0)" xlink:href="#aa"/><use transform="matrix(0.011002604166666667,0,0,0.011002604166666667,13.522200520833334,0)" xlink:href="#N"/><use transform="matrix(0.011002604166666667,0,0,0.011002604166666667,27.044401041666667,0)" xlink:href="#U"/><use transform="matrix(0.011002604166666667,0,0,0.011002604166666667,40.5666015625,0)" xlink:href="#J"/><use transform="matrix(0.011002604166666667,0,0,0.011002604166666667,54.088802083333334,0)" xlink:href="#V"/><use transform="matrix(0.011002604166666667,0,0,0.011002604166666667,67.61100260416667,0)" xlink:href="#N"/><use transform="matrix(0.011002604166666667,0,0,0.011002604166666667,81.13320312500001,0)" xlink:href="#L"/><use transform="matrix(0.011002604166666667,0,0,0.011002604166666667,94.65540364583335,0)" xlink:href="#G"/><use transform="matrix(0.011002604166666667,0,0,0.011002604166666667,108.17760416666667,0)" xlink:href="#W"/><use transform="matrix(0.011002604166666667,0,0,0.011002604166666667,121.69980468750003,0)" xlink:href="#P"/><use transform="matrix(0.011002604166666667,0,0,0.011002604166666667,135.22200520833334,0)" xlink:href="#J"/><use transform="matrix(0.011002604166666667,0,0,0.011002604166666667,148.74420572916668,0)" xlink:href="#Q"/><use transform="matrix(0.011002604166666667,0,0,0.011002604166666667,162.26640625000002,0)" xlink:href="#R"/><use transform="matrix(0.011002604166666667,0,0,0.011002604166666667,175.78860677083335,0)" xlink:href="#S"/><use transform="matrix(0.011002604166666667,0,0,0.011002604166666667,189.3108072916667,0)" xlink:href="#G"/><use transform="matrix(0.011002604166666667,0,0,0.011002604166666667,202.83300781250003,0)" xlink:href="#M"/></g><path fill="#067d17" d="M912-211c-10-84-18-177-18-274v-864h172V0H836L316-1130c7 79 16 167 16 254V0H162v-1349h222" id="ab"/><g id="d"><use transform="matrix(0.011002604166666667,0,0,0.011002604166666667,0,0)" xlink:href="#aa"/><use transform="matrix(0.011002604166666667,0,0,0.011002604166666667,13.522200520833334,0)" xlink:href="#N"/><use transform="matrix(0.011002604166666667,0,0,0.011002604166666667,27.044401041666667,0)" xlink:href="#U"/><use transform="matrix(0.011002604166666667,0,0,0.011002604166666667,40.5666015625,0)" xlink:href="#J"/><use transform="matrix(0.011002604166666667,0,0,0.011002604166666667,54.088802083333334,0)" xlink:href="#V"/><use transform="matrix(0.011002604166666667,0,0,0.011002604166666667,67.61100260416667,0)" xlink:href="#N"/><use transform="matrix(0.011002604166666667,0,0,0.011002604166666667,81.13320312500001,0)" xlink:href="#L"/><use transform="matrix(0.011002604166666667,0,0,0.011002604166666667,94.65540364583335,0)" xlink:href="#G"/><use transform="matrix(0.011002604166666667,0,0,0.011002604166666667,108.17760416666667,0)" xlink:href="#W"/><use transform="matrix(0.011002604166666667,0,0,0.011002604166666667,121.69980468750003,0)" xlink:href="#ab"/><use transform="matrix(0.011002604166666667,0,0,0.011002604166666667,135.22200520833334,0)" xlink:href="#R"/><use transform="matrix(0.011002604166666667,0,0,0.011002604166666667,148.74420572916668,0)" xlink:href="#U"/><use transform="matrix(0.011002604166666667,0,0,0.011002604166666667,162.26640625000002,0)" xlink:href="#J"/></g><path d="M24-231v-30h32v30H24zM24 0v-190h32V0H24" id="ac"/><path d="M117-194c89-4 53 116 60 194h-32v-121c0-31-8-49-39-48C34-167 62-67 57 0H25l-1-190h30c1 10-1 24 2 32 11-22 29-35 61-36" id="ad"/><path d="M108 0H70L1-190h34L89-25l56-165h34" id="ae"/><path d="M100-194c62-1 85 37 85 99 1 63-27 99-86 99S16-35 15-95c0-66 28-99 85-99zM99-20c44 1 53-31 53-75 0-43-8-75-51-75s-53 32-53 75 10 74 51 75" id="af"/><path d="M96-169c-40 0-48 33-48 73s9 75 48 75c24 0 41-14 43-38l32 2c-6 37-31 61-74 61-59 0-76-41-82-99-10-93 101-131 147-64 4 7 5 14 7 22l-32 3c-4-21-16-35-41-35" id="ag"/><path d="M141-36C126-15 110 5 73 4 37 3 15-17 15-53c-1-64 63-63 125-63 3-35-9-54-41-54-24 1-41 7-42 31l-33-3c5-37 33-52 76-52 45 0 72 20 72 64v82c-1 20 7 32 28 27v20c-31 9-61-2-59-35zM48-53c0 20 12 33 32 33 41-3 63-29 60-74-43 2-92-5-92 41" id="ah"/><path d="M59-47c-2 24 18 29 38 22v24C64 9 27 4 27-40v-127H5v-23h24l9-43h21v43h35v23H59v120" id="ai"/><path d="M33 0v-248h34V0H33" id="aj"/><path d="M85-194c31 0 48 13 60 33l-1-100h32l1 261h-30c-2-10 0-23-3-31C134-8 116 4 85 4 32 4 16-35 15-94c0-66 23-100 70-100zm9 24c-40 0-46 34-46 75 0 40 6 74 45 74 42 0 51-32 51-76 0-42-9-74-50-73" id="ak"/><g id="e"><use transform="matrix(0.06172839506172839,0,0,0.06172839506172839,0,0)" xlink:href="#ac"/><use transform="matrix(0.06172839506172839,0,0,0.06172839506172839,4.876543209876543,0)" xlink:href="#ad"/><use transform="matrix(0.06172839506172839,0,0,0.06172839506172839,17.22222222222222,0)" xlink:href="#ae"/><use transform="matrix(0.06172839506172839,0,0,0.06172839506172839,28.333333333333332,0)" xlink:href="#af"/><use transform="matrix(0.06172839506172839,0,0,0.06172839506172839,40.67901234567901,0)" xlink:href="#ag"/><use transform="matrix(0.06172839506172839,0,0,0.06172839506172839,51.79012345679013,0)" xlink:href="#ah"/><use transform="matrix(0.06172839506172839,0,0,0.06172839506172839,64.13580246913581,0)" xlink:href="#ai"/><use transform="matrix(0.06172839506172839,0,0,0.06172839506172839,70.30864197530865,0)" xlink:href="#ac"/><use transform="matrix(0.06172839506172839,0,0,0.06172839506172839,75.18518518518519,0)" xlink:href="#af"/><use transform="matrix(0.06172839506172839,0,0,0.06172839506172839,87.53086419753087,0)" xlink:href="#ad"/><use transform="matrix(0.06172839506172839,0,0,0.06172839506172839,99.87654320987656,0)" xlink:href="#aj"/><use transform="matrix(0.06172839506172839,0,0,0.06172839506172839,106.0493827160494,0)" xlink:href="#ak"/></g><path d="M135-143c-3-34-86-38-87 0 15 53 115 12 119 90S17 21 10-45l28-5c4 36 97 45 98 0-10-56-113-15-118-90-4-57 82-63 122-42 12 7 21 19 24 35" id="al"/><path d="M114-163C36-179 61-72 57 0H25l-1-190h30c1 12-1 29 2 39 6-27 23-49 58-41v29" id="am"/><g id="f"><use transform="matrix(0.06172839506172839,0,0,0.06172839506172839,0,0)" xlink:href="#al"/><use transform="matrix(0.06172839506172839,0,0,0.06172839506172839,11.11111111111111,0)" xlink:href="#ai"/><use transform="matrix(0.06172839506172839,0,0,0.06172839506172839,17.28395061728395,0)" xlink:href="#ah"/><use transform="matrix(0.06172839506172839,0,0,0.06172839506172839,29.629629629629626,0)" xlink:href="#am"/><use transform="matrix(0.06172839506172839,0,0,0.06172839506172839,36.9753086419753,0)" xlink:href="#ai"/></g><path d="M177-190C167-65 218 103 67 71c-23-6-38-20-44-43l32-5c15 47 100 32 89-28v-30C133-14 115 1 83 1 29 1 15-40 15-95c0-56 16-97 71-98 29-1 48 16 59 35 1-10 0-23 2-32h30zM94-22c36 0 50-32 50-73 0-42-14-75-50-75-39 0-46 34-46 75s6 73 46 73" id="an"/><g id="g"><use transform="matrix(0.06172839506172839,0,0,0.06172839506172839,0,0)" xlink:href="#ah"/><use transform="matrix(0.06172839506172839,0,0,0.06172839506172839,12.345679012345679,0)" xlink:href="#am"/><use transform="matrix(0.06172839506172839,0,0,0.06172839506172839,19.691358024691358,0)" xlink:href="#an"/><use transform="matrix(0.06172839506172839,0,0,0.06172839506172839,32.03703703703704,0)" xlink:href="#al"/></g><path d="M100-194c63 0 86 42 84 106H49c0 40 14 67 53 68 26 1 43-12 49-29l28 8c-11 28-37 45-77 45C44 4 14-33 15-96c1-61 26-98 85-98zm52 81c6-60-76-77-97-28-3 7-6 17-6 28h103" id="ao"/><g id="h"><use transform="matrix(0.06172839506172839,0,0,0.06172839506172839,0,0)" xlink:href="#ao"/><use transform="matrix(0.06172839506172839,0,0,0.06172839506172839,12.345679012345679,0)" xlink:href="#ad"/><use transform="matrix(0.06172839506172839,0,0,0.06172839506172839,24.691358024691358,0)" xlink:href="#ak"/></g><path d="M84 4C-5 8 30-112 23-190h32v120c0 31 7 50 39 49 72-2 45-101 50-169h31l1 190h-30c-1-10 1-25-2-33-11 22-28 36-60 37" id="ap"/><g id="i"><use transform="matrix(0.06172839506172839,0,0,0.06172839506172839,0,0)" xlink:href="#af"/><use transform="matrix(0.06172839506172839,0,0,0.06172839506172839,12.345679012345679,0)" xlink:href="#ap"/><use transform="matrix(0.06172839506172839,0,0,0.06172839506172839,24.691358024691358,0)" xlink:href="#ai"/></g><path fill="#df3079" d="M541-1438c242 0 424 152 420 391-4 206-110 362-212 492-61 77-183 214-362 412h594V0H205v-119c197-219 325-366 383-441 97-126 195-282 198-480 2-161-107-254-272-254-66 0-155 20-266 61l-23-141c101-43 206-64 316-64" id="aq"/><path fill="#df3079" d="M612-1438c149 0 259 67 344 192 155 228 156 840 4 1076C877-41 766 27 612 27c-149 0-259-67-344-192-156-228-157-840-4-1075 83-128 195-198 348-198zm0 1321c99 0 167-50 220-141 90-155 90-740 0-894-53-90-121-140-220-140-97 0-165 50-218 143-91 159-90 733 0 891 52 92 120 141 218 141zM460-705c0-83 66-150 148-150s150 69 150 150c0 82-69 158-150 158-80 0-148-76-148-158" id="ar"/><path fill="#df3079" d="M956-1083c0 148-127 296-254 319v6c151 38 281 170 285 346 6 246-239 439-487 439-112 0-212-25-301-74l32-135c93 43 184 65 275 65 164 0 313-120 309-284-5-191-180-292-397-277v-135c192 7 366-89 366-268-1-144-117-215-270-213-73 0-154 20-244 59l-22-141c91-41 182-62 274-62 230 0 434 137 434 355" id="as"/><path fill="#df3079" d="M901-487H307v-152h594v152" id="at"/><path fill="#df3079" d="M1018 0H276v-143h299v-1096l-282 141v-164l305-157h141v1276h279V0" id="au"/><path fill="#df3079" d="M1067-432c0 248-147 459-389 459-151 0-267-71-358-207-178-265-169-782 6-1043 95-141 217-215 376-215 110 0 205 16 285 49l-26 146c-212-78-403-83-508 105-59 105-91 238-91 403 88-71 184-107 287-107 233 0 418 175 418 410zm-174 14c0-165-86-281-248-280-102 0-195 35-278 104 0 121 28 230 85 329s128 148 214 148c158-2 227-131 227-301" id="av"/><path fill="#df3079" d="M1036-1294L477 0H309l551-1268H199v-143h837v117" id="aw"/><path fill="#df3079" d="M1073-326H899V0H735v-326H121v-125l557-960h221v942h174v143zM735-469v-780L287-469h448" id="ax"/><path fill="#df3079" d="M1014-1081c-2 152-126 276-258 307 171 47 298 178 303 379 6 252-199 422-445 422-253 0-455-168-450-420 3-201 139-334 311-381-137-31-258-150-258-307 0-192 180-357 393-357 210 0 405 166 404 357zm-404-215c-159 0-287 169-206 326 37 71 119 113 206 128 126-26 230-85 236-231 5-126-110-223-236-223zm4 1179c157 0 275-119 275-284 0-66-18-125-55-177s-111-94-224-124c-183 53-274 154-274 301 0 162 126 284 278 284" id="ay"/><path fill="#df3079" d="M827-432c0-176-103-292-268-293-57 0-114 11-170 33l-98-45v-674h645v143H434v426c313-85 565 119 565 410 0 249-214 459-464 459-123 0-227-21-310-62l33-139c91 38 184 57 281 57 178 0 288-128 288-315" id="az"/><path fill="#00a67d" d="M901-487H307v-152h594v152" id="aA"/><path fill="#00a67d" d="M1055 0H879L600-408 311 0H145l371-522-371-520h179l280 405 285-405h166L686-528" id="aB"/><path fill="#00a67d" d="M612-1438c149 0 259 67 344 192 155 228 156 840 4 1076C877-41 766 27 612 27c-149 0-259-67-344-192-156-228-157-840-4-1075 83-128 195-198 348-198zm0 1321c99 0 167-50 220-141 90-155 90-740 0-894-53-90-121-140-220-140-97 0-165 50-218 143-91 159-90 733 0 891 52 92 120 141 218 141zM460-705c0-83 66-150 148-150s150 69 150 150c0 82-69 158-150 158-80 0-148-76-148-158" id="aC"/><path fill="#00a67d" d="M1065-1042L670 0c-57 153-115 259-170 321-98 111-236 107-383 56l26-125c111 35 209 39 274-41 36-43 72-114 109-213L135-1042h170l295 831 295-831h170" id="aD"/><path fill="#00a67d" d="M1065-1042L670 0H528L135-1042h170l295 829 295-829h170" id="aE"/><g id="j"><use transform="matrix(0.012369791666666666,0,0,0.012369791666666666,0,0)" xlink:href="#aq"/><use transform="matrix(0.012369791666666666,0,0,0.012369791666666666,15.202473958333332,0)" xlink:href="#ar"/><use transform="matrix(0.012369791666666666,0,0,0.012369791666666666,30.404947916666664,0)" xlink:href="#aq"/><use transform="matrix(0.012369791666666666,0,0,0.012369791666666666,45.607421875,0)" xlink:href="#as"/><use transform="matrix(0.012369791666666666,0,0,0.012369791666666666,60.80989583333333,0)" xlink:href="#at"/><use transform="matrix(0.012369791666666666,0,0,0.012369791666666666,76.01236979166666,0)" xlink:href="#au"/><use transform="matrix(0.012369791666666666,0,0,0.012369791666666666,91.21484374999999,0)" xlink:href="#au"/><use transform="matrix(0.012369791666666666,0,0,0.012369791666666666,106.4173177083333,0)" xlink:href="#at"/><use transform="matrix(0.012369791666666666,0,0,0.012369791666666666,121.61979166666664,0)" xlink:href="#ar"/><use transform="matrix(0.012369791666666666,0,0,0.012369791666666666,136.82226562499997,0)" xlink:href="#aq"/><use transform="matrix(0.012369791666666666,0,0,0.012369791666666666,152.02473958333331,0)" xlink:href="#at"/><use transform="matrix(0.012369791666666666,0,0,0.012369791666666666,167.22721354166666,0)" xlink:href="#au"/><use transform="matrix(0.012369791666666666,0,0,0.012369791666666666,182.4296875,0)" xlink:href="#av"/><use transform="matrix(0.012369791666666666,0,0,0.012369791666666666,197.63216145833334,0)" xlink:href="#av"/><use transform="matrix(0.012369791666666666,0,0,0.012369791666666666,212.8346354166667,0)" xlink:href="#aw"/><use transform="matrix(0.012369791666666666,0,0,0.012369791666666666,228.03710937500003,0)" xlink:href="#ax"/><use transform="matrix(0.012369791666666666,0,0,0.012369791666666666,243.23958333333337,0)" xlink:href="#au"/><use transform="matrix(0.012369791666666666,0,0,0.012369791666666666,258.4420572916667,0)" xlink:href="#av"/><use transform="matrix(0.012369791666666666,0,0,0.012369791666666666,273.64453125,0)" xlink:href="#ax"/><use transform="matrix(0.012369791666666666,0,0,0.012369791666666666,288.8470052083333,0)" xlink:href="#aw"/><use transform="matrix(0.012369791666666666,0,0,0.012369791666666666,304.04947916666663,0)" xlink:href="#ay"/><use transform="matrix(0.012369791666666666,0,0,0.012369791666666666,319.25195312499994,0)" xlink:href="#av"/><use transform="matrix(0.012369791666666666,0,0,0.012369791666666666,334.45442708333326,0)" xlink:href="#az"/><use transform="matrix(0.012369791666666666,0,0,0.012369791666666666,349.6569010416666,0)" xlink:href="#as"/><use transform="matrix(0.012369791666666666,0,0,0.012369791666666666,364.8593749999999,0)" xlink:href="#aA"/><use transform="matrix(0.012369791666666666,0,0,0.012369791666666666,380.0618489583332,0)" xlink:href="#aB"/><use transform="matrix(0.012369791666666666,0,0,0.012369791666666666,395.2643229166665,0)" xlink:href="#aC"/><use transform="matrix(0.012369791666666666,0,0,0.012369791666666666,410.4667968749998,0)" xlink:href="#aD"/><use transform="matrix(0.012369791666666666,0,0,0.012369791666666666,425.66927083333314,0)" xlink:href="#aE"/></g><path d="M975-215L227-664v-120l748-445v144L375-719l600 357v147" id="aF"/><path d="M592-311c-2 114 51 200 156 200 85 0 170-19 253-57l27 121C923 1 820 25 719 25c-186 0-279-98-279-295v-637H240v-135h200v-285h152v285h354v135H592v596" id="aG"/><path d="M578-1329c0-54 51-107 104-107 57 0 106 50 106 107 0 59-47 108-106 108-53 0-104-54-104-108zM758 0H602v-907H295v-135h463V0" id="aH"/><path d="M686-885c46-86 118-182 225-182 126 0 189 113 189 338V0H944v-684c6-255-92-321-196-162-38 57-56 88-56 94V0H537v-684c6-254-92-321-195-162-38 57-57 88-57 94V0H129v-1042h150v157c46-86 117-182 225-182 99 0 163 89 182 182" id="aI"/><path d="M627-1067c255 1 431 226 422 502v49H334c-8 217 149 407 354 407 95 0 192-17 293-51l27 125C916 6 809 27 686 27c-314 0-516-228-516-551 0-303 173-543 457-543zm252 424c8-145-114-289-246-289-166 0-282 128-289 289h535" id="aJ"/><path d="M233-774c0-203 206-293 431-293 84 0 177 14 280 43l-35 131c-87-29-170-43-247-43-138-1-275 41-275 156 0 30 9 58 34 78 98 81 345 103 453 176 76 51 130 115 130 231 0 215-214 322-443 322-128 0-234-19-317-58l30-135c87 41 181 62 281 62 144 0 293-52 293-177 0-36-13-69-40-97-28-49-299-119-369-144-108-39-206-109-206-252" id="aK"/><path d="M612-932c-94 1-239 48-305 86l-41-112c142-73 274-109 396-109 237 0 356 126 356 377 0 231-19 498 26 690H889c-13-42-19-98-19-168C781-38 661 27 508 27c-204 0-368-226-262-431 92-179 357-192 616-210 12-205-66-321-250-318zm-59 809c139-4 242-91 309-186v-189c-233 28-302 11-426 97-40 28-57 71-57 122-2 94 78 159 174 156" id="aL"/><path d="M686 27c-142 0-259-82-315-177v562H215v-1454h156v135c60-87 186-160 327-160 262 0 385 253 385 535 0 283-133 559-397 559zm234-551c0-208-79-408-269-408-110 0-203 60-280 180v433c47 96 147 206 274 206 186 0 275-209 275-411" id="aM"/><path d="M1014-664L266-215v-147l600-357-600-366v-144l748 445v120" id="aN"/><g id="k"><use transform="matrix(0.009114583333333334,0,0,0.009114583333333334,0,0)" xlink:href="#aF"/><use transform="matrix(0.009114583333333334,0,0,0.009114583333333334,11.201822916666668,0)" xlink:href="#aG"/><use transform="matrix(0.009114583333333334,0,0,0.009114583333333334,22.403645833333336,0)" xlink:href="#aH"/><use transform="matrix(0.009114583333333334,0,0,0.009114583333333334,33.60546875,0)" xlink:href="#aI"/><use transform="matrix(0.009114583333333334,0,0,0.009114583333333334,44.80729166666667,0)" xlink:href="#aJ"/><use transform="matrix(0.009114583333333334,0,0,0.009114583333333334,56.00911458333334,0)" xlink:href="#aK"/><use transform="matrix(0.009114583333333334,0,0,0.009114583333333334,67.21093750000001,0)" xlink:href="#aG"/><use transform="matrix(0.009114583333333334,0,0,0.009114583333333334,78.41276041666669,0)" xlink:href="#aL"/><use transform="matrix(0.009114583333333334,0,0,0.009114583333333334,89.61458333333336,0)" xlink:href="#aI"/><use transform="matrix(0.009114583333333334,0,0,0.009114583333333334,100.81640625000003,0)" xlink:href="#aM"/><use transform="matrix(0.009114583333333334,0,0,0.009114583333333334,112.01822916666671,0)" xlink:href="#aN"/></g><path d="M109-170H84l-4-78h32zm-65 0H19l-4-78h33" id="aO"/><path d="M24 0v-261h32V0H24" id="aP"/><path d="M143 0L79-87 56-68V0H24v-261h32v163l83-92h37l-77 82L181 0h-38" id="aQ"/><g id="l"><use transform="matrix(0.06172839506172839,0,0,0.06172839506172839,0,0)" xlink:href="#aO"/><use transform="matrix(0.06172839506172839,0,0,0.06172839506172839,7.8395061728395055,0)" xlink:href="#aP"/><use transform="matrix(0.06172839506172839,0,0,0.06172839506172839,12.716049382716047,0)" xlink:href="#ap"/><use transform="matrix(0.06172839506172839,0,0,0.06172839506172839,25.061728395061728,0)" xlink:href="#aQ"/><use transform="matrix(0.06172839506172839,0,0,0.06172839506172839,36.172839506172835,0)" xlink:href="#ao"/><use transform="matrix(0.06172839506172839,0,0,0.06172839506172839,48.51851851851851,0)" xlink:href="#aO"/></g><path d="M39-94c74 12-11 154 75 146v23c-44 4-70-10-70-52C44-23 55-84 6-82v-22c81 4-7-162 84-157h24v23c-82-15-2 131-75 144" id="aR"/><path d="M33 0v-38h34V0H33" id="aS"/><path d="M115-194c55 1 70 41 70 98S169 2 115 4C84 4 66-9 55-30l1 105H24l-1-265h31l2 30c10-21 28-34 59-34zm-8 174c40 0 45-34 45-75s-6-73-45-74c-42 0-51 32-51 76 0 43 10 73 51 73" id="aT"/><g id="m"><use transform="matrix(0.06172839506172839,0,0,0.06172839506172839,0,0)" xlink:href="#aR"/><use transform="matrix(0.06172839506172839,0,0,0.06172839506172839,7.4074074074074066,0)" xlink:href="#aS"/><use transform="matrix(0.06172839506172839,0,0,0.06172839506172839,13.580246913580247,0)" xlink:href="#aS"/><use transform="matrix(0.06172839506172839,0,0,0.06172839506172839,19.753086419753085,0)" xlink:href="#aS"/><use transform="matrix(0.06172839506172839,0,0,0.06172839506172839,25.925925925925924,0)" xlink:href="#aT"/><use transform="matrix(0.06172839506172839,0,0,0.06172839506172839,38.2716049382716,0)" xlink:href="#ao"/><use transform="matrix(0.06172839506172839,0,0,0.06172839506172839,50.61728395061728,0)" xlink:href="#am"/><use transform="matrix(0.06172839506172839,0,0,0.06172839506172839,57.962962962962955,0)" xlink:href="#al"/><use transform="matrix(0.06172839506172839,0,0,0.06172839506172839,69.07407407407406,0)" xlink:href="#af"/><use transform="matrix(0.06172839506172839,0,0,0.06172839506172839,81.41975308641975,0)" xlink:href="#ad"/></g><g id="n"><use transform="matrix(0.06172839506172839,0,0,0.06172839506172839,0,0)" xlink:href="#ak"/><use transform="matrix(0.06172839506172839,0,0,0.06172839506172839,12.345679012345679,0)" xlink:href="#ao"/><use transform="matrix(0.06172839506172839,0,0,0.06172839506172839,24.691358024691358,0)" xlink:href="#ai"/><use transform="matrix(0.06172839506172839,0,0,0.06172839506172839,30.864197530864196,0)" xlink:href="#ah"/><use transform="matrix(0.06172839506172839,0,0,0.06172839506172839,43.20987654320987,0)" xlink:href="#ac"/><use transform="matrix(0.06172839506172839,0,0,0.06172839506172839,48.08641975308642,0)" xlink:href="#aP"/><use transform="matrix(0.06172839506172839,0,0,0.06172839506172839,52.96296296296296,0)" xlink:href="#al"/></g><path d="M76-40C78 24 84 88 6 75V52C86 64 9-79 80-94c-40-6-34-59-34-106 1-29-11-41-40-38v-23c44-4 70 10 70 52 0 47-12 108 38 105v22c-26 1-39 14-38 42" id="aU"/><g id="o"><use transform="matrix(0.06172839506172839,0,0,0.06172839506172839,0,0)" xlink:href="#aS"/><use transform="matrix(0.06172839506172839,0,0,0.06172839506172839,6.172839506172839,0)" xlink:href="#aS"/><use transform="matrix(0.06172839506172839,0,0,0.06172839506172839,12.345679012345679,0)" xlink:href="#aS"/><use transform="matrix(0.06172839506172839,0,0,0.06172839506172839,18.51851851851852,0)" xlink:href="#aU"/></g><path fill="#df3079" d="M178-981c0-245 168-459 410-459 147 0 262 67 345 202s124 306 124 513-48 385-145 531S685 25 522 25C413 25 318 8 238-25l26-145c218 80 407 80 520-110 65-108 99-240 99-398-81 71-177 107-287 107-233 0-418-175-418-410zm422 266c108 0 204-39 279-104 0-127-26-237-77-333s-119-144-202-144c-158-1-248 136-248 301 0 155 97 280 248 280" id="aV"/><path fill="#00a67d" d="M233-774c0-203 206-293 431-293 84 0 177 14 280 43l-35 131c-87-29-170-43-247-43-138-1-275 41-275 156 0 30 9 58 34 78 98 81 345 103 453 176 76 51 130 115 130 231 0 215-214 322-443 322-128 0-234-19-317-58l30-135c87 41 181 62 281 62 144 0 293-52 293-177 0-36-13-69-40-97-28-49-299-119-369-144-108-39-206-109-206-252" id="aW"/><path fill="#00a67d" d="M956-1083c0 148-127 296-254 319v6c151 38 281 170 285 346 6 246-239 439-487 439-112 0-212-25-301-74l32-135c93 43 184 65 275 65 164 0 313-120 309-284-5-191-180-292-397-277v-135c192 7 366-89 366-268-1-144-117-215-270-213-73 0-154 20-244 59l-22-141c91-41 182-62 274-62 230 0 434 137 434 355" id="aX"/><path fill="#00a67d" d="M541-1438c242 0 424 152 420 391-4 206-110 362-212 492-61 77-183 214-362 412h594V0H205v-119c197-219 325-366 383-441 97-126 195-282 198-480 2-161-107-254-272-254-66 0-155 20-266 61l-23-141c101-43 206-64 316-64" id="aY"/><path fill="#00a67d" d="M793-909c-150 0-257 142-312 235V0H326v-1042h155v211c120-239 312-290 553-183l-63 150c-69-30-128-45-178-45" id="aZ"/><g id="p"><use transform="matrix(0.012369791666666666,0,0,0.012369791666666666,0,0)" xlink:href="#aq"/><use transform="matrix(0.012369791666666666,0,0,0.012369791666666666,15.202473958333332,0)" xlink:href="#ar"/><use transform="matrix(0.012369791666666666,0,0,0.012369791666666666,30.404947916666664,0)" xlink:href="#aq"/><use transform="matrix(0.012369791666666666,0,0,0.012369791666666666,45.607421875,0)" xlink:href="#as"/><use transform="matrix(0.012369791666666666,0,0,0.012369791666666666,60.80989583333333,0)" xlink:href="#at"/><use transform="matrix(0.012369791666666666,0,0,0.012369791666666666,76.01236979166666,0)" xlink:href="#au"/><use transform="matrix(0.012369791666666666,0,0,0.012369791666666666,91.21484374999999,0)" xlink:href="#au"/><use transform="matrix(0.012369791666666666,0,0,0.012369791666666666,106.4173177083333,0)" xlink:href="#at"/><use transform="matrix(0.012369791666666666,0,0,0.012369791666666666,121.61979166666664,0)" xlink:href="#ar"/><use transform="matrix(0.012369791666666666,0,0,0.012369791666666666,136.82226562499997,0)" xlink:href="#aq"/><use transform="matrix(0.012369791666666666,0,0,0.012369791666666666,152.02473958333331,0)" xlink:href="#at"/><use transform="matrix(0.012369791666666666,0,0,0.012369791666666666,167.22721354166666,0)" xlink:href="#au"/><use transform="matrix(0.012369791666666666,0,0,0.012369791666666666,182.4296875,0)" xlink:href="#av"/><use transform="matrix(0.012369791666666666,0,0,0.012369791666666666,197.63216145833334,0)" xlink:href="#av"/><use transform="matrix(0.012369791666666666,0,0,0.012369791666666666,212.8346354166667,0)" xlink:href="#aw"/><use transform="matrix(0.012369791666666666,0,0,0.012369791666666666,228.03710937500003,0)" xlink:href="#ax"/><use transform="matrix(0.012369791666666666,0,0,0.012369791666666666,243.23958333333337,0)" xlink:href="#au"/><use transform="matrix(0.012369791666666666,0,0,0.012369791666666666,258.4420572916667,0)" xlink:href="#av"/><use transform="matrix(0.012369791666666666,0,0,0.012369791666666666,273.64453125,0)" xlink:href="#ax"/><use transform="matrix(0.012369791666666666,0,0,0.012369791666666666,288.8470052083333,0)" xlink:href="#aw"/><use transform="matrix(0.012369791666666666,0,0,0.012369791666666666,304.04947916666663,0)" xlink:href="#aV"/><use transform="matrix(0.012369791666666666,0,0,0.012369791666666666,319.25195312499994,0)" xlink:href="#ar"/><use transform="matrix(0.012369791666666666,0,0,0.012369791666666666,334.45442708333326,0)" xlink:href="#ax"/><use transform="matrix(0.012369791666666666,0,0,0.012369791666666666,349.6569010416666,0)" xlink:href="#as"/><use transform="matrix(0.012369791666666666,0,0,0.012369791666666666,364.8593749999999,0)" xlink:href="#aA"/><use transform="matrix(0.012369791666666666,0,0,0.012369791666666666,380.0618489583332,0)" xlink:href="#aW"/><use transform="matrix(0.012369791666666666,0,0,0.012369791666666666,395.2643229166665,0)" xlink:href="#aX"/><use transform="matrix(0.012369791666666666,0,0,0.012369791666666666,410.4667968749998,0)" xlink:href="#aY"/><use transform="matrix(0.012369791666666666,0,0,0.012369791666666666,425.66927083333314,0)" xlink:href="#aZ"/></g><path d="M106-169C34-169 62-67 57 0H25v-261h32l-1 103c12-21 28-36 61-36 89 0 53 116 60 194h-32v-121c2-32-8-49-39-48" id="ba"/><g id="q"><use transform="matrix(0.06172839506172839,0,0,0.06172839506172839,0,0)" xlink:href="#aO"/><use transform="matrix(0.06172839506172839,0,0,0.06172839506172839,7.8395061728395055,0)" xlink:href="#ba"/><use transform="matrix(0.06172839506172839,0,0,0.06172839506172839,20.185185185185183,0)" xlink:href="#ah"/><use transform="matrix(0.06172839506172839,0,0,0.06172839506172839,32.53086419753086,0)" xlink:href="#ad"/><use transform="matrix(0.06172839506172839,0,0,0.06172839506172839,44.87654320987654,0)" xlink:href="#aO"/></g><path d="M648-963c-190 6-283 138-283 336V0H185v-1484h181c-2 197 6 404-9 587h3c62-120 159-205 339-205 242 0 351 135 350 381V0H868v-695c1-168-57-273-220-268" id="bb"/><path d="M682 16c-209 0-323-80-324-285v-671H190v-142h170l58-282h120v282h432v142H538v652c2 114 60 155 182 155 106 0 209-16 297-34v137C921-4 806 16 682 16" id="bc"/><path d="M698-1104c312 3 392 244 392 558 0 315-82 566-392 566-169 0-277-65-331-184h-5c8 188 2 394 4 589H185V-858c0-76-1-156-6-224h175c6 52 9 120 10 178h4c58-122 150-202 330-200zm-49 991c225 0 255-203 255-433 0-225-32-419-253-419-236 0-285 192-285 441 0 237 53 411 283 411" id="bd"/><path d="M873-819c-18-114-119-146-250-146-163 0-245 50-245 151 0 151 170 148 294 185 182 54 388 94 388 320 0 240-189 325-439 329-245 4-410-69-454-268l159-31c24 133 136 168 295 165 144-2 270-31 270-171 0-164-195-160-331-202-167-52-350-87-350-299 0-218 173-315 413-313 220 2 373 77 412 260" id="be"/><path d="M496 0v-299h235V0H496zm0-783v-299h235v299H496" id="bf"/><path d="M114 20l821-1504h178L296 20H114" id="bg"/><path d="M1018 0H814c-67-224-138-444-200-673C552-442 476-224 407 0H204L21-1082h178c43 310 105 601 126 933 54-225 128-425 193-638h193c63 212 134 415 185 638 22-336 90-622 136-933h176" id="bh"/><path d="M1000-272c3 95 12 159 101 161 21 0 41-3 59-7V-6c-44 10-86 16-139 16-141 2-191-84-197-217h-6C748-76 648 20 446 20c-207 0-318-120-318-322 0-266 194-348 454-354l236-4c12-191-40-305-222-305-140 0-220 47-232 172l-188-17c33-204 181-292 423-292 255 0 401 118 401 364v466zm-683-27c0 109 63 184 175 182 166-3 259-96 306-217 24-65 20-120 20-200-232 7-501-28-501 235" id="bi"/><path d="M745-142h380V0H143v-142h422v-798H246v-142h499v940zM545-1292v-192h200v192H545" id="bj"/><path d="M496 0v-299h235V0H496" id="bk"/><path d="M865-914c-3-187-2-380-2-570h180v1261c0 76 1 155 6 223H877c-8-49-9-116-10-174h-5C801-44 708 26 530 26c-135 0-234-46-297-139s-95-232-95-419c0-377 131-566 392-566 176 0 271 63 335 184zm-286-51c-222 0-255 197-255 427 0 229 31 425 253 425 237 0 286-195 286-441 0-238-52-411-284-411" id="bl"/><path d="M617-1102c355 0 481 238 477 599H322c5 222 84 388 301 388 144 0 244-59 284-166l158 45C1002-72 854 20 623 20c-342 0-490-220-490-568 0-346 151-554 484-554zm291 461c-18-192-90-328-289-328-194 0-287 128-295 328h584" id="bm"/><path d="M715 0H502L69-1082h202c94 253 197 500 285 758 19 57 36 126 52 183 96-335 234-626 350-941h201" id="bn"/><path d="M736-142h380V0H134v-142h422v-1200H267v-142h469v1342" id="bo"/><path d="M706-1102c241 0 344 136 343 381V0H868v-695c1-168-57-273-220-268-190 6-283 138-283 336V0H185c-3-360 6-732-6-1082h170c4 54 7 126 8 185h3c63-121 164-204 346-205" id="bp"/><path d="M148-1120c216-7 379-89 463-229h166v1204h353V0H157v-145h439v-1021c-79 124-254 184-448 194v-148" id="bq"/><g id="r"><use transform="matrix(0.012087673611111112,0,0,0.012087673611111112,0,0)" xlink:href="#bb"/><use transform="matrix(0.012087673611111112,0,0,0.012087673611111112,14.855750868055557,0)" xlink:href="#bc"/><use transform="matrix(0.012087673611111112,0,0,0.012087673611111112,29.711501736111114,0)" xlink:href="#bc"/><use transform="matrix(0.012087673611111112,0,0,0.012087673611111112,44.56725260416667,0)" xlink:href="#bd"/><use transform="matrix(0.012087673611111112,0,0,0.012087673611111112,59.42300347222223,0)" xlink:href="#be"/><use transform="matrix(0.012087673611111112,0,0,0.012087673611111112,74.27875434027779,0)" xlink:href="#bf"/><use transform="matrix(0.012087673611111112,0,0,0.012087673611111112,89.13450520833334,0)" xlink:href="#bg"/><use transform="matrix(0.012087673611111112,0,0,0.012087673611111112,103.99025607638889,0)" xlink:href="#bg"/><use transform="matrix(0.012087673611111112,0,0,0.012087673611111112,118.84600694444445,0)" xlink:href="#be"/><use transform="matrix(0.012087673611111112,0,0,0.012087673611111112,133.7017578125,0)" xlink:href="#bh"/><use transform="matrix(0.012087673611111112,0,0,0.012087673611111112,148.55750868055557,0)" xlink:href="#bi"/><use transform="matrix(0.012087673611111112,0,0,0.012087673611111112,163.41325954861114,0)" xlink:href="#bd"/><use transform="matrix(0.012087673611111112,0,0,0.012087673611111112,178.2690104166667,0)" xlink:href="#bj"/><use transform="matrix(0.012087673611111112,0,0,0.012087673611111112,193.12476128472227,0)" xlink:href="#bk"/><use transform="matrix(0.012087673611111112,0,0,0.012087673611111112,207.98051215277783,0)" xlink:href="#bl"/><use transform="matrix(0.012087673611111112,0,0,0.012087673611111112,222.83626302083337,0)" xlink:href="#bm"/><use transform="matrix(0.012087673611111112,0,0,0.012087673611111112,237.692013888889,0)" xlink:href="#bn"/><use transform="matrix(0.012087673611111112,0,0,0.012087673611111112,252.54776475694453,0)" xlink:href="#bg"/><use transform="matrix(0.012087673611111112,0,0,0.012087673611111112,267.40351562500007,0)" xlink:href="#bi"/><use transform="matrix(0.012087673611111112,0,0,0.012087673611111112,282.25926649305563,0)" xlink:href="#bd"/><use transform="matrix(0.012087673611111112,0,0,0.012087673611111112,297.1150173611112,0)" xlink:href="#bj"/><use transform="matrix(0.012087673611111112,0,0,0.012087673611111112,311.97076822916677,0)" xlink:href="#bg"/><use transform="matrix(0.012087673611111112,0,0,0.012087673611111112,326.82651909722233,0)" xlink:href="#bd"/><use transform="matrix(0.012087673611111112,0,0,0.012087673611111112,341.6822699652779,0)" xlink:href="#bo"/><use transform="matrix(0.012087673611111112,0,0,0.012087673611111112,356.53802083333346,0)" xlink:href="#bi"/><use transform="matrix(0.012087673611111112,0,0,0.012087673611111112,371.393771701389,0)" xlink:href="#bp"/><use transform="matrix(0.012087673611111112,0,0,0.012087673611111112,386.2495225694446,0)" xlink:href="#bm"/><use transform="matrix(0.012087673611111112,0,0,0.012087673611111112,401.1052734375002,0)" xlink:href="#bc"/><use transform="matrix(0.012087673611111112,0,0,0.012087673611111112,415.9610243055557,0)" xlink:href="#be"/><use transform="matrix(0.012087673611111112,0,0,0.012087673611111112,430.8167751736113,0)" xlink:href="#bg"/><use transform="matrix(0.012087673611111112,0,0,0.012087673611111112,445.67252604166686,0)" xlink:href="#bq"/><use transform="matrix(0.012087673611111112,0,0,0.012087673611111112,460.5282769097224,0)" xlink:href="#bg"/></g><path d="M611-1370c266 0 451 106 451 368 0 147-77 243-154 327-132 144-316 255-451 395-42 44-75 87-96 134h723V0H144v-117c124-264 387-411 582-603 73-72 151-147 151-271 0-161-104-231-266-231-163 0-249 90-268 238l-184-17c35-233 185-369 452-369" id="br"/><g id="s"><use transform="matrix(0.012087673611111112,0,0,0.012087673611111112,0,0)" xlink:href="#bb"/><use transform="matrix(0.012087673611111112,0,0,0.012087673611111112,14.855750868055557,0)" xlink:href="#bc"/><use transform="matrix(0.012087673611111112,0,0,0.012087673611111112,29.711501736111114,0)" xlink:href="#bc"/><use transform="matrix(0.012087673611111112,0,0,0.012087673611111112,44.56725260416667,0)" xlink:href="#bd"/><use transform="matrix(0.012087673611111112,0,0,0.012087673611111112,59.42300347222223,0)" xlink:href="#be"/><use transform="matrix(0.012087673611111112,0,0,0.012087673611111112,74.27875434027779,0)" xlink:href="#bf"/><use transform="matrix(0.012087673611111112,0,0,0.012087673611111112,89.13450520833334,0)" xlink:href="#bg"/><use transform="matrix(0.012087673611111112,0,0,0.012087673611111112,103.99025607638889,0)" xlink:href="#bg"/><use transform="matrix(0.012087673611111112,0,0,0.012087673611111112,118.84600694444445,0)" xlink:href="#be"/><use transform="matrix(0.012087673611111112,0,0,0.012087673611111112,133.7017578125,0)" xlink:href="#bh"/><use transform="matrix(0.012087673611111112,0,0,0.012087673611111112,148.55750868055557,0)" xlink:href="#bi"/><use transform="matrix(0.012087673611111112,0,0,0.012087673611111112,163.41325954861114,0)" xlink:href="#bd"/><use transform="matrix(0.012087673611111112,0,0,0.012087673611111112,178.2690104166667,0)" xlink:href="#bj"/><use transform="matrix(0.012087673611111112,0,0,0.012087673611111112,193.12476128472227,0)" xlink:href="#bk"/><use transform="matrix(0.012087673611111112,0,0,0.012087673611111112,207.98051215277783,0)" xlink:href="#bl"/><use transform="matrix(0.012087673611111112,0,0,0.012087673611111112,222.83626302083337,0)" xlink:href="#bm"/><use transform="matrix(0.012087673611111112,0,0,0.012087673611111112,237.692013888889,0)" xlink:href="#bn"/><use transform="matrix(0.012087673611111112,0,0,0.012087673611111112,252.54776475694453,0)" xlink:href="#bg"/><use transform="matrix(0.012087673611111112,0,0,0.012087673611111112,267.40351562500007,0)" xlink:href="#bi"/><use transform="matrix(0.012087673611111112,0,0,0.012087673611111112,282.25926649305563,0)" xlink:href="#bd"/><use transform="matrix(0.012087673611111112,0,0,0.012087673611111112,297.1150173611112,0)" xlink:href="#bj"/><use transform="matrix(0.012087673611111112,0,0,0.012087673611111112,311.97076822916677,0)" xlink:href="#bg"/><use transform="matrix(0.012087673611111112,0,0,0.012087673611111112,326.82651909722233,0)" xlink:href="#bd"/><use transform="matrix(0.012087673611111112,0,0,0.012087673611111112,341.6822699652779,0)" xlink:href="#bo"/><use transform="matrix(0.012087673611111112,0,0,0.012087673611111112,356.53802083333346,0)" xlink:href="#bi"/><use transform="matrix(0.012087673611111112,0,0,0.012087673611111112,371.393771701389,0)" xlink:href="#bp"/><use transform="matrix(0.012087673611111112,0,0,0.012087673611111112,386.2495225694446,0)" xlink:href="#bm"/><use transform="matrix(0.012087673611111112,0,0,0.012087673611111112,401.1052734375002,0)" xlink:href="#bc"/><use transform="matrix(0.012087673611111112,0,0,0.012087673611111112,415.9610243055557,0)" xlink:href="#be"/><use transform="matrix(0.012087673611111112,0,0,0.012087673611111112,430.8167751736113,0)" xlink:href="#bg"/><use transform="matrix(0.012087673611111112,0,0,0.012087673611111112,445.67252604166686,0)" xlink:href="#br"/><use transform="matrix(0.012087673611111112,0,0,0.012087673611111112,460.5282769097224,0)" xlink:href="#br"/><use transform="matrix(0.012087673611111112,0,0,0.012087673611111112,475.384027777778,0)" xlink:href="#bg"/></g><g id="t"><use transform="matrix(0.009114583333333334,0,0,0.009114583333333334,0,0)" xlink:href="#aq"/><use transform="matrix(0.009114583333333334,0,0,0.009114583333333334,11.201822916666668,0)" xlink:href="#ar"/><use transform="matrix(0.009114583333333334,0,0,0.009114583333333334,22.403645833333336,0)" xlink:href="#aq"/><use transform="matrix(0.009114583333333334,0,0,0.009114583333333334,33.60546875,0)" xlink:href="#as"/><use transform="matrix(0.009114583333333334,0,0,0.009114583333333334,44.80729166666667,0)" xlink:href="#at"/><use transform="matrix(0.009114583333333334,0,0,0.009114583333333334,56.00911458333334,0)" xlink:href="#au"/><use transform="matrix(0.009114583333333334,0,0,0.009114583333333334,67.21093750000001,0)" xlink:href="#au"/><use transform="matrix(0.009114583333333334,0,0,0.009114583333333334,78.41276041666669,0)" xlink:href="#at"/><use transform="matrix(0.009114583333333334,0,0,0.009114583333333334,89.61458333333336,0)" xlink:href="#ar"/><use transform="matrix(0.009114583333333334,0,0,0.009114583333333334,100.81640625000003,0)" xlink:href="#aq"/><use transform="matrix(0.009114583333333334,0,0,0.009114583333333334,112.01822916666671,0)" xlink:href="#at"/><use transform="matrix(0.009114583333333334,0,0,0.009114583333333334,123.22005208333337,0)" xlink:href="#au"/><use transform="matrix(0.009114583333333334,0,0,0.009114583333333334,134.42187500000003,0)" xlink:href="#av"/><use transform="matrix(0.009114583333333334,0,0,0.009114583333333334,145.62369791666669,0)" xlink:href="#av"/><use transform="matrix(0.009114583333333334,0,0,0.009114583333333334,156.82552083333334,0)" xlink:href="#aw"/><use transform="matrix(0.009114583333333334,0,0,0.009114583333333334,168.02734375,0)" xlink:href="#ax"/><use transform="matrix(0.009114583333333334,0,0,0.009114583333333334,179.22916666666666,0)" xlink:href="#au"/><use transform="matrix(0.009114583333333334,0,0,0.009114583333333334,190.43098958333331,0)" xlink:href="#av"/><use transform="matrix(0.009114583333333334,0,0,0.009114583333333334,201.63281249999997,0)" xlink:href="#ax"/><use transform="matrix(0.009114583333333334,0,0,0.009114583333333334,212.8346354166666,0)" xlink:href="#aw"/><use transform="matrix(0.009114583333333334,0,0,0.009114583333333334,224.0364583333333,0)" xlink:href="#ay"/><use transform="matrix(0.009114583333333334,0,0,0.009114583333333334,235.23828124999994,0)" xlink:href="#av"/><use transform="matrix(0.009114583333333334,0,0,0.009114583333333334,246.44010416666663,0)" xlink:href="#az"/><use transform="matrix(0.009114583333333334,0,0,0.009114583333333334,257.64192708333326,0)" xlink:href="#as"/><use transform="matrix(0.009114583333333334,0,0,0.009114583333333334,268.84374999999994,0)" xlink:href="#aA"/><use transform="matrix(0.009114583333333334,0,0,0.009114583333333334,280.04557291666663,0)" xlink:href="#aB"/><use transform="matrix(0.009114583333333334,0,0,0.009114583333333334,291.2473958333333,0)" xlink:href="#aC"/><use transform="matrix(0.009114583333333334,0,0,0.009114583333333334,302.44921875,0)" xlink:href="#aD"/><use transform="matrix(0.009114583333333334,0,0,0.009114583333333334,313.6510416666667,0)" xlink:href="#aE"/></g><path d="M541-1438c242 0 424 152 420 391-4 206-110 362-212 492-61 77-183 214-362 412h594V0H205v-119c197-219 325-366 383-441 97-126 195-282 198-480 2-161-107-254-272-254-66 0-155 20-266 61l-23-141c101-43 206-64 316-64" id="bs"/><path d="M612-1438c149 0 259 67 344 192 155 228 156 840 4 1076C877-41 766 27 612 27c-149 0-259-67-344-192-156-228-157-840-4-1075 83-128 195-198 348-198zm0 1321c99 0 167-50 220-141 90-155 90-740 0-894-53-90-121-140-220-140-97 0-165 50-218 143-91 159-90 733 0 891 52 92 120 141 218 141zM460-705c0-83 66-150 148-150s150 69 150 150c0 82-69 158-150 158-80 0-148-76-148-158" id="bt"/><path d="M956-1083c0 148-127 296-254 319v6c151 38 281 170 285 346 6 246-239 439-487 439-112 0-212-25-301-74l32-135c93 43 184 65 275 65 164 0 313-120 309-284-5-191-180-292-397-277v-135c192 7 366-89 366-268-1-144-117-215-270-213-73 0-154 20-244 59l-22-141c91-41 182-62 274-62 230 0 434 137 434 355" id="bu"/><path d="M901-487H307v-152h594v152" id="bv"/><path d="M1018 0H276v-143h299v-1096l-282 141v-164l305-157h141v1276h279V0" id="bw"/><path d="M1133-1278H698V0H535v-1278H98v-133h1035v133" id="bx"/><path d="M487-938c0-65 54-119 119-119 66 0 121 54 121 119s-55 119-121 119c-65 0-119-54-119-119zm0 836c0-66 54-119 119-119 66 0 121 53 121 119 0 65-55 118-121 118-65 0-119-53-119-118" id="by"/><path d="M485-104c0-69 55-125 123-125 69 0 125 56 125 125S676 27 608 27c-67 0-123-63-123-131" id="bz"/><path d="M1040-1294L369-143h659V0H182v-115l668-1153H211v-143h829v117" id="bA"/><g id="u"><use transform="matrix(0.009114583333333334,0,0,0.009114583333333334,0,0)" xlink:href="#bs"/><use transform="matrix(0.009114583333333334,0,0,0.009114583333333334,11.201822916666668,0)" xlink:href="#bt"/><use transform="matrix(0.009114583333333334,0,0,0.009114583333333334,22.403645833333336,0)" xlink:href="#bs"/><use transform="matrix(0.009114583333333334,0,0,0.009114583333333334,33.60546875,0)" xlink:href="#bu"/><use transform="matrix(0.009114583333333334,0,0,0.009114583333333334,44.80729166666667,0)" xlink:href="#bv"/><use transform="matrix(0.009114583333333334,0,0,0.009114583333333334,56.00911458333334,0)" xlink:href="#bw"/><use transform="matrix(0.009114583333333334,0,0,0.009114583333333334,67.21093750000001,0)" xlink:href="#bw"/><use transform="matrix(0.009114583333333334,0,0,0.009114583333333334,78.41276041666669,0)" xlink:href="#bv"/><use transform="matrix(0.009114583333333334,0,0,0.009114583333333334,89.61458333333336,0)" xlink:href="#bt"/><use transform="matrix(0.009114583333333334,0,0,0.009114583333333334,100.81640625000003,0)" xlink:href="#bs"/><use transform="matrix(0.009114583333333334,0,0,0.009114583333333334,112.01822916666671,0)" xlink:href="#bx"/><use transform="matrix(0.009114583333333334,0,0,0.009114583333333334,123.22005208333337,0)" xlink:href="#bw"/><use transform="matrix(0.009114583333333334,0,0,0.009114583333333334,134.42187500000003,0)" xlink:href="#bs"/><use transform="matrix(0.009114583333333334,0,0,0.009114583333333334,145.62369791666669,0)" xlink:href="#by"/><use transform="matrix(0.009114583333333334,0,0,0.009114583333333334,156.82552083333334,0)" xlink:href="#bt"/><use transform="matrix(0.009114583333333334,0,0,0.009114583333333334,168.02734375,0)" xlink:href="#bt"/><use transform="matrix(0.009114583333333334,0,0,0.009114583333333334,179.22916666666666,0)" xlink:href="#by"/><use transform="matrix(0.009114583333333334,0,0,0.009114583333333334,190.43098958333331,0)" xlink:href="#bt"/><use transform="matrix(0.009114583333333334,0,0,0.009114583333333334,201.63281249999997,0)" xlink:href="#bw"/><use transform="matrix(0.009114583333333334,0,0,0.009114583333333334,212.8346354166666,0)" xlink:href="#bz"/><use transform="matrix(0.009114583333333334,0,0,0.009114583333333334,224.0364583333333,0)" xlink:href="#bw"/><use transform="matrix(0.009114583333333334,0,0,0.009114583333333334,235.23828124999994,0)" xlink:href="#bs"/><use transform="matrix(0.009114583333333334,0,0,0.009114583333333334,246.44010416666663,0)" xlink:href="#bu"/><use transform="matrix(0.009114583333333334,0,0,0.009114583333333334,257.64192708333326,0)" xlink:href="#bA"/></g><path d="M210-169c-67 3-38 105-44 169h-31v-121c0-29-5-50-35-48C34-165 62-65 56 0H25l-1-190h30c1 10-1 24 2 32 10-44 99-50 107 0 11-21 27-35 58-36 85-2 47 119 55 194h-31v-121c0-29-5-49-35-48" id="bB"/><path d="M206 0h-36l-40-164L89 0H53L-1-190h32L70-26l43-164h34l41 164 42-164h31" id="bC"/><path d="M30-248c118-7 216 8 213 122C240-48 200 0 122 0H30v-248zM63-27c89 8 146-16 146-99s-60-101-146-95v194" id="bD"/><g id="v"><use transform="matrix(0.06172839506172839,0,0,0.06172839506172839,0,0)" xlink:href="#aR"/><use transform="matrix(0.06172839506172839,0,0,0.06172839506172839,7.4074074074074066,0)" xlink:href="#aS"/><use transform="matrix(0.06172839506172839,0,0,0.06172839506172839,13.580246913580247,0)" xlink:href="#aS"/><use transform="matrix(0.06172839506172839,0,0,0.06172839506172839,19.753086419753085,0)" xlink:href="#aS"/><use transform="matrix(0.06172839506172839,0,0,0.06172839506172839,25.925925925925924,0)" xlink:href="#ba"/><use transform="matrix(0.06172839506172839,0,0,0.06172839506172839,38.2716049382716,0)" xlink:href="#af"/><use transform="matrix(0.06172839506172839,0,0,0.06172839506172839,50.61728395061728,0)" xlink:href="#bB"/><use transform="matrix(0.06172839506172839,0,0,0.06172839506172839,69.07407407407406,0)" xlink:href="#ao"/><use transform="matrix(0.06172839506172839,0,0,0.06172839506172839,81.41975308641975,0)" xlink:href="#bC"/><use transform="matrix(0.06172839506172839,0,0,0.06172839506172839,97.4074074074074,0)" xlink:href="#af"/><use transform="matrix(0.06172839506172839,0,0,0.06172839506172839,109.75308641975309,0)" xlink:href="#am"/><use transform="matrix(0.06172839506172839,0,0,0.06172839506172839,117.09876543209877,0)" xlink:href="#ak"/><use transform="matrix(0.06172839506172839,0,0,0.06172839506172839,129.44444444444446,0)" xlink:href="#bD"/><use transform="matrix(0.06172839506172839,0,0,0.06172839506172839,145.4320987654321,0)" xlink:href="#ao"/><use transform="matrix(0.06172839506172839,0,0,0.06172839506172839,157.77777777777777,0)" xlink:href="#ai"/><use transform="matrix(0.06172839506172839,0,0,0.06172839506172839,163.9506172839506,0)" xlink:href="#ah"/><use transform="matrix(0.06172839506172839,0,0,0.06172839506172839,176.29629629629628,0)" xlink:href="#ac"/><use transform="matrix(0.06172839506172839,0,0,0.06172839506172839,181.1728395061728,0)" xlink:href="#aP"/><use transform="matrix(0.06172839506172839,0,0,0.06172839506172839,186.04938271604934,0)" xlink:href="#al"/><use transform="matrix(0.06172839506172839,0,0,0.06172839506172839,197.16049382716045,0)" xlink:href="#aS"/><use transform="matrix(0.06172839506172839,0,0,0.06172839506172839,203.3333333333333,0)" xlink:href="#aS"/><use transform="matrix(0.06172839506172839,0,0,0.06172839506172839,209.50617283950612,0)" xlink:href="#aS"/><use transform="matrix(0.06172839506172839,0,0,0.06172839506172839,215.67901234567896,0)" xlink:href="#aU"/></g><g id="w"><use transform="matrix(0.009114583333333334,0,0,0.009114583333333334,0,0)" xlink:href="#aq"/><use transform="matrix(0.009114583333333334,0,0,0.009114583333333334,11.201822916666668,0)" xlink:href="#ar"/><use transform="matrix(0.009114583333333334,0,0,0.009114583333333334,22.403645833333336,0)" xlink:href="#aq"/><use transform="matrix(0.009114583333333334,0,0,0.009114583333333334,33.60546875,0)" xlink:href="#as"/><use transform="matrix(0.009114583333333334,0,0,0.009114583333333334,44.80729166666667,0)" xlink:href="#at"/><use transform="matrix(0.009114583333333334,0,0,0.009114583333333334,56.00911458333334,0)" xlink:href="#au"/><use transform="matrix(0.009114583333333334,0,0,0.009114583333333334,67.21093750000001,0)" xlink:href="#au"/><use transform="matrix(0.009114583333333334,0,0,0.009114583333333334,78.41276041666669,0)" xlink:href="#at"/><use transform="matrix(0.009114583333333334,0,0,0.009114583333333334,89.61458333333336,0)" xlink:href="#ar"/><use transform="matrix(0.009114583333333334,0,0,0.009114583333333334,100.81640625000003,0)" xlink:href="#aq"/><use transform="matrix(0.009114583333333334,0,0,0.009114583333333334,112.01822916666671,0)" xlink:href="#at"/><use transform="matrix(0.009114583333333334,0,0,0.009114583333333334,123.22005208333337,0)" xlink:href="#au"/><use transform="matrix(0.009114583333333334,0,0,0.009114583333333334,134.42187500000003,0)" xlink:href="#av"/><use transform="matrix(0.009114583333333334,0,0,0.009114583333333334,145.62369791666669,0)" xlink:href="#av"/><use transform="matrix(0.009114583333333334,0,0,0.009114583333333334,156.82552083333334,0)" xlink:href="#aw"/><use transform="matrix(0.009114583333333334,0,0,0.009114583333333334,168.02734375,0)" xlink:href="#ax"/><use transform="matrix(0.009114583333333334,0,0,0.009114583333333334,179.22916666666666,0)" xlink:href="#au"/><use transform="matrix(0.009114583333333334,0,0,0.009114583333333334,190.43098958333331,0)" xlink:href="#av"/><use transform="matrix(0.009114583333333334,0,0,0.009114583333333334,201.63281249999997,0)" xlink:href="#ax"/><use transform="matrix(0.009114583333333334,0,0,0.009114583333333334,212.8346354166666,0)" xlink:href="#aw"/><use transform="matrix(0.009114583333333334,0,0,0.009114583333333334,224.0364583333333,0)" xlink:href="#aV"/><use transform="matrix(0.009114583333333334,0,0,0.009114583333333334,235.23828124999994,0)" xlink:href="#ar"/><use transform="matrix(0.009114583333333334,0,0,0.009114583333333334,246.44010416666663,0)" xlink:href="#ax"/><use transform="matrix(0.009114583333333334,0,0,0.009114583333333334,257.64192708333326,0)" xlink:href="#as"/><use transform="matrix(0.009114583333333334,0,0,0.009114583333333334,268.84374999999994,0)" xlink:href="#aA"/><use transform="matrix(0.009114583333333334,0,0,0.009114583333333334,280.04557291666663,0)" xlink:href="#aW"/><use transform="matrix(0.009114583333333334,0,0,0.009114583333333334,291.2473958333333,0)" xlink:href="#aX"/><use transform="matrix(0.009114583333333334,0,0,0.009114583333333334,302.44921875,0)" xlink:href="#aY"/><use transform="matrix(0.009114583333333334,0,0,0.009114583333333334,313.6510416666667,0)" xlink:href="#aZ"/></g><path d="M827-432c0-176-103-292-268-293-57 0-114 11-170 33l-98-45v-674h645v143H434v426c313-85 565 119 565 410 0 249-214 459-464 459-123 0-227-21-310-62l33-139c91 38 184 57 281 57 178 0 288-128 288-315" id="bE"/><path d="M1067-432c0 248-147 459-389 459-151 0-267-71-358-207-178-265-169-782 6-1043 95-141 217-215 376-215 110 0 205 16 285 49l-26 146c-212-78-403-83-508 105-59 105-91 238-91 403 88-71 184-107 287-107 233 0 418 175 418 410zm-174 14c0-165-86-281-248-280-102 0-195 35-278 104 0 121 28 230 85 329s128 148 214 148c158-2 227-131 227-301" id="bF"/><path d="M1036-1294L477 0H309l551-1268H199v-143h837v117" id="bG"/><g id="x"><use transform="matrix(0.009114583333333334,0,0,0.009114583333333334,0,0)" xlink:href="#bs"/><use transform="matrix(0.009114583333333334,0,0,0.009114583333333334,11.201822916666668,0)" xlink:href="#bt"/><use transform="matrix(0.009114583333333334,0,0,0.009114583333333334,22.403645833333336,0)" xlink:href="#bs"/><use transform="matrix(0.009114583333333334,0,0,0.009114583333333334,33.60546875,0)" xlink:href="#bu"/><use transform="matrix(0.009114583333333334,0,0,0.009114583333333334,44.80729166666667,0)" xlink:href="#bv"/><use transform="matrix(0.009114583333333334,0,0,0.009114583333333334,56.00911458333334,0)" xlink:href="#bw"/><use transform="matrix(0.009114583333333334,0,0,0.009114583333333334,67.21093750000001,0)" xlink:href="#bw"/><use transform="matrix(0.009114583333333334,0,0,0.009114583333333334,78.41276041666669,0)" xlink:href="#bv"/><use transform="matrix(0.009114583333333334,0,0,0.009114583333333334,89.61458333333336,0)" xlink:href="#bt"/><use transform="matrix(0.009114583333333334,0,0,0.009114583333333334,100.81640625000003,0)" xlink:href="#bs"/><use transform="matrix(0.009114583333333334,0,0,0.009114583333333334,112.01822916666671,0)" xlink:href="#bx"/><use transform="matrix(0.009114583333333334,0,0,0.009114583333333334,123.22005208333337,0)" xlink:href="#bw"/><use transform="matrix(0.009114583333333334,0,0,0.009114583333333334,134.42187500000003,0)" xlink:href="#bs"/><use transform="matrix(0.009114583333333334,0,0,0.009114583333333334,145.62369791666669,0)" xlink:href="#by"/><use transform="matrix(0.009114583333333334,0,0,0.009114583333333334,156.82552083333334,0)" xlink:href="#bt"/><use transform="matrix(0.009114583333333334,0,0,0.009114583333333334,168.02734375,0)" xlink:href="#bt"/><use transform="matrix(0.009114583333333334,0,0,0.009114583333333334,179.22916666666666,0)" xlink:href="#by"/><use transform="matrix(0.009114583333333334,0,0,0.009114583333333334,190.43098958333331,0)" xlink:href="#bt"/><use transform="matrix(0.009114583333333334,0,0,0.009114583333333334,201.63281249999997,0)" xlink:href="#bw"/><use transform="matrix(0.009114583333333334,0,0,0.009114583333333334,212.8346354166666,0)" xlink:href="#bz"/><use transform="matrix(0.009114583333333334,0,0,0.009114583333333334,224.0364583333333,0)" xlink:href="#bE"/><use transform="matrix(0.009114583333333334,0,0,0.009114583333333334,235.23828124999994,0)" xlink:href="#bF"/><use transform="matrix(0.009114583333333334,0,0,0.009114583333333334,246.44010416666663,0)" xlink:href="#bG"/><use transform="matrix(0.009114583333333334,0,0,0.009114583333333334,257.64192708333326,0)" xlink:href="#bA"/></g><g id="y"><use transform="matrix(0.06172839506172839,0,0,0.06172839506172839,0,0)" xlink:href="#aR"/><use transform="matrix(0.06172839506172839,0,0,0.06172839506172839,7.4074074074074066,0)" xlink:href="#aS"/><use transform="matrix(0.06172839506172839,0,0,0.06172839506172839,13.580246913580247,0)" xlink:href="#aS"/><use transform="matrix(0.06172839506172839,0,0,0.06172839506172839,19.753086419753085,0)" xlink:href="#aS"/><use transform="matrix(0.06172839506172839,0,0,0.06172839506172839,25.925925925925924,0)" xlink:href="#ba"/><use transform="matrix(0.06172839506172839,0,0,0.06172839506172839,38.2716049382716,0)" xlink:href="#af"/><use transform="matrix(0.06172839506172839,0,0,0.06172839506172839,50.61728395061728,0)" xlink:href="#bB"/><use transform="matrix(0.06172839506172839,0,0,0.06172839506172839,69.07407407407406,0)" xlink:href="#ao"/><use transform="matrix(0.06172839506172839,0,0,0.06172839506172839,81.41975308641975,0)" xlink:href="#bC"/><use transform="matrix(0.06172839506172839,0,0,0.06172839506172839,97.4074074074074,0)" xlink:href="#af"/><use transform="matrix(0.06172839506172839,0,0,0.06172839506172839,109.75308641975309,0)" xlink:href="#am"/><use transform="matrix(0.06172839506172839,0,0,0.06172839506172839,117.09876543209877,0)" xlink:href="#aP"/><use transform="matrix(0.06172839506172839,0,0,0.06172839506172839,121.97530864197532,0)" xlink:href="#ak"/><use transform="matrix(0.06172839506172839,0,0,0.06172839506172839,134.320987654321,0)" xlink:href="#bD"/><use transform="matrix(0.06172839506172839,0,0,0.06172839506172839,150.30864197530863,0)" xlink:href="#ao"/><use transform="matrix(0.06172839506172839,0,0,0.06172839506172839,162.6543209876543,0)" xlink:href="#ai"/><use transform="matrix(0.06172839506172839,0,0,0.06172839506172839,168.82716049382714,0)" xlink:href="#ah"/><use transform="matrix(0.06172839506172839,0,0,0.06172839506172839,181.1728395061728,0)" xlink:href="#ac"/><use transform="matrix(0.06172839506172839,0,0,0.06172839506172839,186.04938271604934,0)" xlink:href="#aP"/><use transform="matrix(0.06172839506172839,0,0,0.06172839506172839,190.92592592592587,0)" xlink:href="#al"/><use transform="matrix(0.06172839506172839,0,0,0.06172839506172839,202.03703703703698,0)" xlink:href="#aS"/><use transform="matrix(0.06172839506172839,0,0,0.06172839506172839,208.20987654320982,0)" xlink:href="#aS"/><use transform="matrix(0.06172839506172839,0,0,0.06172839506172839,214.38271604938265,0)" xlink:href="#aS"/><use transform="matrix(0.06172839506172839,0,0,0.06172839506172839,220.5555555555555,0)" xlink:href="#aU"/></g><path d="M908-845H766l-40-639h224zm-449 0H318l-41-639h224" id="bH"/><path d="M709-1193V0H519v-1193H76v-156h1076v156H709" id="bI"/><path d="M615-1102c343 0 484 203 482 560-1 347-147 562-488 562-336 0-475-219-479-562-4-349 156-560 485-560zm-8 989c240 0 301-180 301-429 0-245-55-427-290-427-236 0-299 181-299 427 0 243 61 429 288 429" id="bJ"/><g id="z"><use transform="matrix(0.011002604166666667,0,0,0.011002604166666667,0,0)" xlink:href="#bH"/><use transform="matrix(0.011002604166666667,0,0,0.011002604166666667,13.522200520833334,0)" xlink:href="#bI"/><use transform="matrix(0.011002604166666667,0,0,0.011002604166666667,27.044401041666667,0)" xlink:href="#bi"/><use transform="matrix(0.011002604166666667,0,0,0.011002604166666667,40.5666015625,0)" xlink:href="#bc"/><use transform="matrix(0.011002604166666667,0,0,0.011002604166666667,54.088802083333334,0)" xlink:href="#bJ"/><use transform="matrix(0.011002604166666667,0,0,0.011002604166666667,67.61100260416667,0)" xlink:href="#bJ"/><use transform="matrix(0.011002604166666667,0,0,0.011002604166666667,81.13320312500001,0)" xlink:href="#bj"/><use transform="matrix(0.011002604166666667,0,0,0.011002604166666667,94.65540364583335,0)" xlink:href="#bp"/><use transform="matrix(0.011002604166666667,0,0,0.011002604166666667,108.17760416666667,0)" xlink:href="#bm"/><use transform="matrix(0.011002604166666667,0,0,0.011002604166666667,121.69980468750003,0)" xlink:href="#bH"/></g><g id="A"><use transform="matrix(0.009114583333333334,0,0,0.009114583333333334,0,0)" xlink:href="#aq"/><use transform="matrix(0.009114583333333334,0,0,0.009114583333333334,11.201822916666668,0)" xlink:href="#ar"/><use transform="matrix(0.009114583333333334,0,0,0.009114583333333334,22.403645833333336,0)" xlink:href="#aq"/><use transform="matrix(0.009114583333333334,0,0,0.009114583333333334,33.60546875,0)" xlink:href="#as"/><use transform="matrix(0.009114583333333334,0,0,0.009114583333333334,44.80729166666667,0)" xlink:href="#at"/><use transform="matrix(0.009114583333333334,0,0,0.009114583333333334,56.00911458333334,0)" xlink:href="#au"/><use transform="matrix(0.009114583333333334,0,0,0.009114583333333334,67.21093750000001,0)" xlink:href="#au"/><use transform="matrix(0.009114583333333334,0,0,0.009114583333333334,78.41276041666669,0)" xlink:href="#at"/><use transform="matrix(0.009114583333333334,0,0,0.009114583333333334,89.61458333333336,0)" xlink:href="#ar"/><use transform="matrix(0.009114583333333334,0,0,0.009114583333333334,100.81640625000003,0)" xlink:href="#aq"/><use transform="matrix(0.009114583333333334,0,0,0.009114583333333334,112.01822916666671,0)" xlink:href="#at"/><use transform="matrix(0.009114583333333334,0,0,0.009114583333333334,123.22005208333337,0)" xlink:href="#au"/><use transform="matrix(0.009114583333333334,0,0,0.009114583333333334,134.42187500000003,0)" xlink:href="#av"/><use transform="matrix(0.009114583333333334,0,0,0.009114583333333334,145.62369791666669,0)" xlink:href="#av"/><use transform="matrix(0.009114583333333334,0,0,0.009114583333333334,156.82552083333334,0)" xlink:href="#aw"/><use transform="matrix(0.009114583333333334,0,0,0.009114583333333334,168.02734375,0)" xlink:href="#ax"/><use transform="matrix(0.009114583333333334,0,0,0.009114583333333334,179.22916666666666,0)" xlink:href="#au"/><use transform="matrix(0.009114583333333334,0,0,0.009114583333333334,190.43098958333331,0)" xlink:href="#av"/><use transform="matrix(0.009114583333333334,0,0,0.009114583333333334,201.63281249999997,0)" xlink:href="#ax"/><use transform="matrix(0.009114583333333334,0,0,0.009114583333333334,212.8346354166666,0)" xlink:href="#aw"/><use transform="matrix(0.009114583333333334,0,0,0.009114583333333334,224.0364583333333,0)" xlink:href="#aV"/><use transform="matrix(0.009114583333333334,0,0,0.009114583333333334,235.23828124999994,0)" xlink:href="#ar"/><use transform="matrix(0.009114583333333334,0,0,0.009114583333333334,246.44010416666663,0)" xlink:href="#ax"/><use transform="matrix(0.009114583333333334,0,0,0.009114583333333334,257.64192708333326,0)" xlink:href="#as"/><use transform="matrix(0.009114583333333334,0,0,0.009114583333333334,268.84374999999994,0)" xlink:href="#aA"/><use transform="matrix(0.009114583333333334,0,0,0.009114583333333334,280.04557291666663,0)" xlink:href="#aB"/><use transform="matrix(0.009114583333333334,0,0,0.009114583333333334,291.2473958333333,0)" xlink:href="#aC"/><use transform="matrix(0.009114583333333334,0,0,0.009114583333333334,302.44921875,0)" xlink:href="#aD"/><use transform="matrix(0.009114583333333334,0,0,0.009114583333333334,313.6510416666667,0)" xlink:href="#aE"/></g><path d="M650-1214c-281 0-336 244-336 533 0 295 60 546 347 546 188 0 263-142 322-282l159 65C1058-155 935 20 659 20c-401 0-546-295-546-701 0-407 135-689 536-689 264 0 391 146 466 335l-168 65c-47-129-127-244-297-244" id="bK"/><path d="M839-1102c70 0 148 7 206 17v167c-112-18-268-36-363 15-129 69-208 203-208 395V0H294c-10-367 32-789-52-1082h171c21 75 41 161 48 250h5c67-152 152-270 373-270" id="bL"/><g id="B"><use transform="matrix(0.011002604166666667,0,0,0.011002604166666667,0,0)" xlink:href="#bH"/><use transform="matrix(0.011002604166666667,0,0,0.011002604166666667,13.522200520833334,0)" xlink:href="#bK"/><use transform="matrix(0.011002604166666667,0,0,0.011002604166666667,27.044401041666667,0)" xlink:href="#bJ"/><use transform="matrix(0.011002604166666667,0,0,0.011002604166666667,40.5666015625,0)" xlink:href="#bL"/><use transform="matrix(0.011002604166666667,0,0,0.011002604166666667,54.088802083333334,0)" xlink:href="#bm"/><use transform="matrix(0.011002604166666667,0,0,0.011002604166666667,67.61100260416667,0)" xlink:href="#bo"/><use transform="matrix(0.011002604166666667,0,0,0.011002604166666667,81.13320312500001,0)" xlink:href="#bo"/><use transform="matrix(0.011002604166666667,0,0,0.011002604166666667,94.65540364583335,0)" xlink:href="#bj"/><use transform="matrix(0.011002604166666667,0,0,0.011002604166666667,108.17760416666667,0)" xlink:href="#bi"/><use transform="matrix(0.011002604166666667,0,0,0.011002604166666667,121.69980468750003,0)" xlink:href="#bH"/></g><path fill="#333" d="M110-194c64 0 96 36 96 99 0 64-35 99-97 99-61 0-95-36-95-99 0-62 34-99 96-99zm-1 164c35 0 45-28 45-65 0-40-10-65-43-65-34 0-45 26-45 65 0 36 10 65 43 65" id="bM"/><path fill="#333" d="M85 4C-2 5 27-109 22-190h50c7 57-23 150 33 157 60-5 35-97 40-157h50l1 190h-47c-2-12 1-28-3-38-12 25-28 42-61 42" id="bN"/><path fill="#333" d="M115-3C79 11 28 4 28-45v-112H4v-33h27l15-45h31v45h36v33H77v99c-1 23 16 31 38 25v30" id="bO"/><g id="C"><use transform="matrix(0.04938271604938272,0,0,0.04938271604938272,0,0)" xlink:href="#bM"/><use transform="matrix(0.04938271604938272,0,0,0.04938271604938272,10.814814814814815,0)" xlink:href="#bN"/><use transform="matrix(0.04938271604938272,0,0,0.04938271604938272,21.62962962962963,0)" xlink:href="#bO"/></g><path fill="#333" d="M133-34C117-15 103 5 69 4 32 3 11-16 11-54c-1-60 55-63 116-61 1-26-3-47-28-47-18 1-26 9-28 27l-52-2c7-38 36-58 82-57s74 22 75 68l1 82c-1 14 12 18 25 15v27c-30 8-71 5-69-32zm-48 3c29 0 43-24 42-57-32 0-66-3-65 30 0 17 8 27 23 27" id="bP"/><path fill="#333" d="M135-150c-39-12-60 13-60 57V0H25l-1-190h47c2 13-1 29 3 40 6-28 27-53 61-41v41" id="bQ"/><path fill="#333" d="M195-6C206 82 75 100 31 46c-4-6-6-13-8-21l49-6c3 16 16 24 34 25 40 0 42-37 40-79-11 22-30 35-61 35-53 0-70-43-70-97 0-56 18-96 73-97 30 0 46 14 59 34l2-30h47zm-90-29c32 0 41-27 41-63 0-35-9-62-40-62-32 0-39 29-40 63 0 36 9 62 39 62" id="bR"/><path fill="#333" d="M137-138c1-29-70-34-71-4 15 46 118 7 119 86 1 83-164 76-172 9l43-7c4 19 20 25 44 25 33 8 57-30 24-41C81-84 22-81 20-136c-2-80 154-74 161-7" id="bS"/><g id="D"><use transform="matrix(0.04938271604938272,0,0,0.04938271604938272,0,0)" xlink:href="#bP"/><use transform="matrix(0.04938271604938272,0,0,0.04938271604938272,9.876543209876544,0)" xlink:href="#bQ"/><use transform="matrix(0.04938271604938272,0,0,0.04938271604938272,16.790123456790127,0)" xlink:href="#bR"/><use transform="matrix(0.04938271604938272,0,0,0.04938271604938272,27.604938271604947,0)" xlink:href="#bS"/></g><path fill="#333" d="M15-148v-39h180v39H15zm0 97v-39h180v39H15" id="bT"/><path fill="#333" d="M142-158h-39l-4-90h48zm-75 0H28l-4-90h48" id="bU"/><path fill="#333" d="M25 0v-261h50V0H25" id="bV"/><path fill="#333" d="M147 0L96-86 75-71V0H25v-261h50v150l67-79h53l-66 74L201 0h-54" id="bW"/><path fill="#333" d="M185-48c-13 30-37 53-82 52C43 2 14-33 14-96s30-98 90-98c62 0 83 45 84 108H66c0 31 8 55 39 56 18 0 30-7 34-22zm-45-69c5-46-57-63-70-21-2 6-4 13-4 21h74" id="bX"/><g id="E"><use transform="matrix(0.10493827160493824,0,0,0.10493827160493824,0,0)" xlink:href="#bP"/><use transform="matrix(0.10493827160493824,0,0,0.10493827160493824,20.987654320987648,0)" xlink:href="#bQ"/><use transform="matrix(0.10493827160493824,0,0,0.10493827160493824,35.679012345679,0)" xlink:href="#bR"/><use transform="matrix(0.10493827160493824,0,0,0.10493827160493824,58.66049382716047,0)" xlink:href="#bS"/><use transform="matrix(0.10493827160493824,0,0,0.10493827160493824,79.64814814814812,0)" xlink:href="#bT"/><use transform="matrix(0.10493827160493824,0,0,0.10493827160493824,101.68518518518516,0)" xlink:href="#bU"/><use transform="matrix(0.10493827160493824,0,0,0.10493827160493824,119.52469135802465,0)" xlink:href="#bV"/><use transform="matrix(0.10493827160493824,0,0,0.10493827160493824,130.01851851851848,0)" xlink:href="#bN"/><use transform="matrix(0.10493827160493824,0,0,0.10493827160493824,152.99999999999994,0)" xlink:href="#bW"/><use transform="matrix(0.10493827160493824,0,0,0.10493827160493824,173.9876543209876,0)" xlink:href="#bX"/><use transform="matrix(0.10493827160493824,0,0,0.10493827160493824,194.97530864197523,0)" xlink:href="#bU"/></g><path fill="#333" d="M136-208V0H84v-208H4v-40h212v40h-80" id="bY"/><path fill="#333" d="M25-224v-37h50v37H25zM25 0v-190h50V0H25" id="bZ"/><path fill="#333" d="M135-194c87-1 58 113 63 194h-50c-7-57 23-157-34-157-59 0-34 97-39 157H25l-1-190h47c2 12-1 28 3 38 12-26 28-41 61-42" id="ca"/><g id="F"><use transform="matrix(0.10493827160493825,0,0,0.10493827160493825,0,0)" xlink:href="#bM"/><use transform="matrix(0.10493827160493825,0,0,0.10493827160493825,22.981481481481477,0)" xlink:href="#bN"/><use transform="matrix(0.10493827160493825,0,0,0.10493827160493825,45.962962962962955,0)" xlink:href="#bO"/><use transform="matrix(0.10493827160493825,0,0,0.10493827160493825,58.450617283950606,0)" xlink:href="#bT"/><use transform="matrix(0.10493827160493825,0,0,0.10493827160493825,80.48765432098764,0)" xlink:href="#bU"/><use transform="matrix(0.10493827160493825,0,0,0.10493827160493825,98.32716049382715,0)" xlink:href="#bY"/><use transform="matrix(0.10493827160493825,0,0,0.10493827160493825,118.4753086419753,0)" xlink:href="#bP"/><use transform="matrix(0.10493827160493825,0,0,0.10493827160493825,139.46296296296296,0)" xlink:href="#bO"/><use transform="matrix(0.10493827160493825,0,0,0.10493827160493825,151.9506172839506,0)" xlink:href="#bM"/><use transform="matrix(0.10493827160493825,0,0,0.10493827160493825,174.93209876543207,0)" xlink:href="#bM"/><use transform="matrix(0.10493827160493825,0,0,0.10493827160493825,197.91358024691354,0)" xlink:href="#bZ"/><use transform="matrix(0.10493827160493825,0,0,0.10493827160493825,208.40740740740736,0)" xlink:href="#ca"/><use transform="matrix(0.10493827160493825,0,0,0.10493827160493825,231.38888888888886,0)" xlink:href="#bX"/><use transform="matrix(0.10493827160493825,0,0,0.10493827160493825,252.3765432098765,0)" xlink:href="#bU"/></g></defs></g></svg>