<svg xmlns="http://www.w3.org/2000/svg" xmlns:xlink="http://www.w3.org/1999/xlink" xmlns:lucid="lucid" width="925.94" height="884"><g transform="translate(-322.0668294270833 -338)" lucid:page-tab-id="0_0"><path d="M0 0h1500v1500H0z" fill="#fff"/><path d="M1166.18 415l3.58.5 2.94.52 2.7.77 3.7 1.34 2.95 1.37 4.1 2.38 2.68 2.05 2.95 2.7 2.43 2.65 2.18 2.8 1.92 2.98 1.92 3.9 1.28 3.67.9 2.72.5 2.03 2.06.35 3.46.67 3.2 1.1 4.1 2.13 3.06 2.3 2.3 2.2 2.7 3.24 1.53 2.8 1.3 2.98 1.02 3.83.38 3.48-.13 3.83-.25 2.37-.9 3.14-1.15 2.8-1.28 2.56-1.93 2.64-1.92 2.3-2.7 2.3-3.2 2.12-2.93 1.36-2.95 1-3.2.78-2.94.34h-73.1l-4.47-.68-4.74-1.36-5-2.46-3.7-2.64-3.84-3.82-2.3-2.98-1.8-2.98-1.66-3.73-1.15-4.17-.64-3.57-.13-3.22.13-3.65.5-2.56 1.16-4.5 1.78-4.17 2.7-4.33 2.94-3.4 3.96-3.23 3.97-2.38 3.84-1.62 3.58-.93 3.2-.5 1.15-.1 1.92-3.73 3.2-4.33 3.07-3.23 3.58-3.05 3.2-2.13 3.46-1.78 3.07-1.36 3.97-1.27 3.7-.68 4.1-.42zm-7.04 11.3l-3.46.7-2.7.92-2.55 1.02-2.7 1.53-2.16 1.44-2.43 2.06-2.44 2.46-1.53 2.3-1.15 1.78-1.4 2.9-1.04 3.4h-5.24l-3.84.58-3.33 1.1-3.07 1.63-2.95 2.13-2.7 2.8-2.03 3.15-1.67 4-.64 2.88-.24 2.98.12 2.8.52 2.8 1.15 3 1.53 2.88 1.92 2.38 2.18 2.12 2.7 1.87 2.3 1.27 2.55.93 2.56.6 2.55.34h71.94l1.9-.18 1.8-.42 2.7-1.1 2.3-1.36 2.04-1.8 1.66-2.12 1.54-2.88.77-2.38.26-2.22.13-2.2-.26-1.53-.4-2.3-1-2.3-.78-1.44-1.15-1.6-1.9-2.05-2.44-1.7-2.3-1.2-2.44-.75-2.43-.25h-8.72l-.12-3.75-.26-2.8-.64-3.3-1.02-3.07-1.54-3.32-1.4-2.3-1.42-2.02-2.43-2.56-2.3-1.87-2.18-1.6-2.3-1.37-2.18-.93-2.44-.94-3.07-.84-4.24-.6h-2.68z" stroke="#000" stroke-opacity="0" stroke-width=".01" fill="#5c85de"/><use xlink:href="#a" transform="matrix(1,0,0,1,1100,505) translate(20.26543209876543 17.77777777777778)"/><use xlink:href="#b" transform="matrix(1,0,0,1,1100,505) translate(7.858024691358025 44.44444444444444)"/><use xlink:href="#c" transform="matrix(1,0,0,1,1100,505) translate(84.3395061728395 44.44444444444444)"/><path d="M1166.18 800l3.58.5 2.94.52 2.7.76 3.7 1.37 2.95 1.36 4.1 2.38 2.68 2.04 2.95 2.73 2.43 2.63 2.18 2.8 1.92 2.98 1.92 3.9 1.28 3.66.9 2.73.5 2.03 2.06.35 3.46.67 3.2 1.1 4.1 2.13 3.06 2.3 2.3 2.2 2.7 3.24 1.53 2.8 1.3 2.98 1.02 3.83.38 3.48-.13 3.82-.25 2.38-.9 3.15-1.15 2.82-1.28 2.54-1.93 2.64-1.92 2.3-2.7 2.3-3.2 2.12-2.93 1.36-2.95 1-3.2.78-2.94.34h-73.1l-4.47-.68-4.74-1.36-5-2.47-3.7-2.64-3.84-3.83-2.3-2.97-1.8-2.97-1.66-3.75-1.15-4.17-.64-3.57-.13-3.22.13-3.65.5-2.56 1.16-4.5 1.78-4.16 2.7-4.33 2.94-3.4 3.96-3.23 3.97-2.38 3.84-1.62 3.58-.93 3.2-.5 1.15-.1 1.92-3.73 3.2-4.33 3.07-3.23 3.58-3.05 3.2-2.13 3.46-1.78 3.07-1.36 3.97-1.27 3.7-.68 4.1-.42zm-7.04 11.3l-3.46.7-2.7.92-2.55 1.02-2.7 1.53-2.16 1.44-2.43 2.06-2.44 2.46-1.53 2.3-1.15 1.78-1.4 2.9-1.04 3.4h-5.24l-3.84.6-3.33 1.1-3.07 1.6-2.95 2.13-2.7 2.8-2.03 3.15-1.67 4-.64 2.9-.24 2.96.12 2.8.52 2.8 1.15 3 1.53 2.88 1.92 2.38 2.18 2.12 2.7 1.87 2.3 1.26 2.55.94 2.56.6 2.55.33h71.94l1.9-.16 1.8-.43 2.7-1.1 2.3-1.37 2.04-1.78 1.66-2.13 1.54-2.9.77-2.38.26-2.2.13-2.23-.26-1.52-.4-2.3-1-2.3-.78-1.44-1.15-1.6-1.9-2.05-2.44-1.7-2.3-1.2-2.44-.75-2.43-.25h-8.72l-.12-3.75-.26-2.8-.64-3.32-1.02-3.05-1.54-3.32-1.4-2.28-1.42-2.05-2.43-2.54-2.3-1.88-2.18-1.6-2.3-1.37-2.18-.93-2.44-.94-3.07-.84-4.24-.6h-2.68z" stroke="#000" stroke-opacity="0" stroke-width=".01" fill="#5c85de"/><use xlink:href="#a" transform="matrix(1,0,0,1,1100,890) translate(20.26543209876543 17.77777777777778)"/><use xlink:href="#d" transform="matrix(1,0,0,1,1100,890) translate(8.753086419753089 44.44444444444444)"/><use xlink:href="#c" transform="matrix(1,0,0,1,1100,890) translate(83.44444444444444 44.44444444444444)"/><path d="M464 420c22.1 0 40 17.9 40 40s-17.9 40-40 40h-80c-22.1 0-40-17.9-40-40s17.9-40 40-40z" stroke="#3a414a" fill="#fff"/><use xlink:href="#e" transform="matrix(1,0,0,1,349,425) translate(-5.933170572916694 39.222330729166664)"/><path d="M577.75 460.5H505v-1h72.75zm507.73-2.5h-56.87v-1h56.88z" stroke="#3a414a" stroke-width=".05" fill="#3a414a"/><path d="M505 460.5h-.53l.03-.5-.02-.5h.53z" fill="#3a414a"/><path d="M505.04 460.52h-.6l.04-.5-.02-.54h.58zm-.53-1l.03.5-.03.46h.5v-.96z" stroke="#3a414a" stroke-width=".05" fill="#3a414a"/><path d="M1100.25 457.5l-14.27 4.63v-9.26z" fill="#3a414a"/><path d="M1101.87 457.5l-16.4 5.32v-10.64zm-15.4 3.95l12.16-3.95-12.15-3.95z" stroke="#3a414a" stroke-width=".05" fill="#3a414a"/><use xlink:href="#f" transform="matrix(1,0,0,1,577.7533641736941,448.0833333333333) translate(0 14.222222222222223)"/><use xlink:href="#g" transform="matrix(1,0,0,1,577.7533641736941,448.0833333333333) translate(41.4320987654321 14.222222222222223)"/><path d="M464 620c22.1 0 40 17.9 40 40s-17.9 40-40 40h-80c-22.1 0-40-17.9-40-40s17.9-40 40-40z" stroke="#3a414a" fill="#fff"/><use xlink:href="#h" transform="matrix(1,0,0,1,349,625) translate(-1.1723958333333542 39.222330729166664)"/><path d="M464 820c22.1 0 40 17.9 40 40s-17.9 40-40 40h-80c-22.1 0-40-17.9-40-40s17.9-40 40-40z" stroke="#3a414a" fill="#fff"/><use xlink:href="#i" transform="matrix(1,0,0,1,349,825) translate(-1.1723958333333542 39.222330729166664)"/><path d="M619.7 860.5H505v-1h114.7zm464.65 0h-98.82v-1h98.82z" stroke="#3a414a" stroke-width=".05" fill="#3a414a"/><path d="M505 860.5h-.53l.03-.5-.02-.5h.53z" fill="#3a414a"/><path d="M505.04 860.52h-.6l.04-.5-.02-.54h.58zm-.53-1l.03.5-.03.46h.5v-.96z" stroke="#3a414a" stroke-width=".05" fill="#3a414a"/><path d="M1099.12 860l-14.27 4.63v-9.26z" fill="#3a414a"/><path d="M1100.74 860l-16.4 5.32v-10.64zm-15.4 3.95l12.16-3.95-12.15-3.95z" stroke="#3a414a" stroke-width=".05" fill="#3a414a"/><use xlink:href="#j" transform="matrix(1,0,0,1,619.7082558511406,849.7543402777778) translate(0 15.059353298611114)"/><use xlink:href="#k" transform="matrix(1,0,0,1,619.7082558511406,849.7543402777778) translate(42.086848958333334 15.059353298611114)"/><path d="M424 501v102.12" stroke="#3a414a" fill="none"/><path d="M424.5 501h-1v-.5h1z" stroke="#3a414a" stroke-width=".05" fill="#3a414a"/><path d="M424 617.88l-4.63-14.26h9.26z" stroke="#3a414a" fill="#3a414a"/><path d="M464 1040c22.1 0 40 17.9 40 40s-17.9 40-40 40h-80c-22.1 0-40-17.9-40-40s17.9-40 40-40z" stroke="#3a414a" fill="#fff"/><use xlink:href="#l" transform="matrix(1,0,0,1,349,1045) translate(13.109928385416666 39.459309895833336)"/><path d="M424 901v122.12" stroke="#3a414a" fill="none"/><path d="M424.5 901h-1v-.5h1z" stroke="#3a414a" stroke-width=".05" fill="#3a414a"/><path d="M424 1037.88l-4.63-14.26h9.26z" stroke="#3a414a" fill="#3a414a"/><path d="M424 701v102.12" stroke="#3a414a" fill="none"/><path d="M424.5 701h-1v-.5h1z" stroke="#3a414a" stroke-width=".05" fill="#3a414a"/><path d="M424 817.88l-4.63-14.26h9.26z" stroke="#3a414a" fill="#3a414a"/><path d="M424.5 403.12h-1v-12.7h1zm0-34.04h-1V340.5h1z" stroke="#3a414a" stroke-width=".05" fill="#3a414a"/><path d="M424 417.88l-4.63-14.26h9.26z" fill="#3a414a"/><path d="M424 419.5l-5.32-16.38h10.64zm-3.95-15.38l3.95 12.14 3.95-12.14zM424.5 340.5h-1v-.5h1z" stroke="#3a414a" stroke-width=".05" fill="#3a414a"/><use xlink:href="#m" transform="matrix(1,0,0,1,397.85185185185185,369.0833333333333) translate(0 14.222222222222223)"/><path d="M424.5 1193.13h-1V1160h1zm0-54.46h-1V1121h1z" stroke="#3a414a" stroke-width=".05" fill="#3a414a"/><path d="M424.5 1121h-1v-.5h1z" fill="#3a414a"/><path d="M424.52 1121.04h-1.04v-.57h1.04zm-1-.5v.45h.96v-.47z" stroke="#3a414a" stroke-width=".05" fill="#3a414a"/><path d="M424 1199.02l-7.64-12.9h15.28z" fill="#3a414a"/><path d="M424 1200l-8.5-14.4h17zm-6.76-13.4l6.76 11.44 6.76-11.43z" stroke="#3a414a" stroke-width=".05" fill="#3a414a"/><g><use xlink:href="#n" transform="matrix(1,0,0,1,379.358024691358,1138.6666666666665) translate(0 14.222222222222223)"/></g><defs><path fill="#3a414a" d="M185-189c-5-48-123-54-124 2 14 75 158 14 163 119 3 78-121 87-175 55-17-10-28-26-33-46l33-7c5 56 141 63 141-1 0-78-155-14-162-118-5-82 145-84 179-34 5 7 8 16 11 25" id="o"/><path fill="#3a414a" d="M59-47c-2 24 18 29 38 22v24C64 9 27 4 27-40v-127H5v-23h24l9-43h21v43h35v23H59v120" id="p"/><path fill="#3a414a" d="M141-36C126-15 110 5 73 4 37 3 15-17 15-53c-1-64 63-63 125-63 3-35-9-54-41-54-24 1-41 7-42 31l-33-3c5-37 33-52 76-52 45 0 72 20 72 64v82c-1 20 7 32 28 27v20c-31 9-61-2-59-35zM48-53c0 20 12 33 32 33 41-3 63-29 60-74-43 2-92-5-92 41" id="q"/><path fill="#3a414a" d="M114-163C36-179 61-72 57 0H25l-1-190h30c1 12-1 29 2 39 6-27 23-49 58-41v29" id="r"/><path fill="#3a414a" d="M206 0h-36l-40-164L89 0H53L-1-190h32L70-26l43-164h34l41 164 42-164h31" id="s"/><path fill="#3a414a" d="M135-143c-3-34-86-38-87 0 15 53 115 12 119 90S17 21 10-45l28-5c4 36 97 45 98 0-10-56-113-15-118-90-4-57 82-63 122-42 12 7 21 19 24 35" id="t"/><g id="a"><use transform="matrix(0.06172839506172839,0,0,0.06172839506172839,0,0)" xlink:href="#o"/><use transform="matrix(0.06172839506172839,0,0,0.06172839506172839,14.814814814814813,0)" xlink:href="#p"/><use transform="matrix(0.06172839506172839,0,0,0.06172839506172839,20.98765432098765,0)" xlink:href="#q"/><use transform="matrix(0.06172839506172839,0,0,0.06172839506172839,33.33333333333333,0)" xlink:href="#r"/><use transform="matrix(0.06172839506172839,0,0,0.06172839506172839,40.679012345679006,0)" xlink:href="#s"/><use transform="matrix(0.06172839506172839,0,0,0.06172839506172839,56.66666666666666,0)" xlink:href="#q"/><use transform="matrix(0.06172839506172839,0,0,0.06172839506172839,69.01234567901234,0)" xlink:href="#r"/><use transform="matrix(0.06172839506172839,0,0,0.06172839506172839,76.35802469135803,0)" xlink:href="#t"/></g><path fill="#3a414a" d="M100-194c63 0 86 42 84 106H49c0 40 14 67 53 68 26 1 43-12 49-29l28 8c-11 28-37 45-77 45C44 4 14-33 15-96c1-61 26-98 85-98zm52 81c6-60-76-77-97-28-3 7-6 17-6 28h103" id="u"/><path fill="#3a414a" d="M96-169c-40 0-48 33-48 73s9 75 48 75c24 0 41-14 43-38l32 2c-6 37-31 61-74 61-59 0-76-41-82-99-10-93 101-131 147-64 4 7 5 14 7 22l-32 3c-4-21-16-35-41-35" id="v"/><path fill="#3a414a" d="M106-169C34-169 62-67 57 0H25v-261h32l-1 103c12-21 28-36 61-36 89 0 53 116 60 194h-32v-121c2-32-8-49-39-48" id="w"/><g id="b"><use transform="matrix(0.06172839506172839,0,0,0.06172839506172839,0,0)" xlink:href="#o"/><use transform="matrix(0.06172839506172839,0,0,0.06172839506172839,14.814814814814813,0)" xlink:href="#u"/><use transform="matrix(0.06172839506172839,0,0,0.06172839506172839,27.160493827160494,0)" xlink:href="#q"/><use transform="matrix(0.06172839506172839,0,0,0.06172839506172839,39.50617283950617,0)" xlink:href="#r"/><use transform="matrix(0.06172839506172839,0,0,0.06172839506172839,46.85185185185185,0)" xlink:href="#v"/><use transform="matrix(0.06172839506172839,0,0,0.06172839506172839,57.96296296296296,0)" xlink:href="#w"/></g><path fill="#3a414a" d="M205 0l-28-72H64L36 0H1l101-248h38L239 0h-34zm-38-99l-47-123c-12 45-31 82-46 123h93" id="x"/><path fill="#3a414a" d="M30-248c87 1 191-15 191 75 0 78-77 80-158 76V0H30v-248zm33 125c57 0 124 11 124-50 0-59-68-47-124-48v98" id="y"/><path fill="#3a414a" d="M33 0v-248h34V0H33" id="z"/><g id="c"><use transform="matrix(0.06172839506172839,0,0,0.06172839506172839,0,0)" xlink:href="#x"/><use transform="matrix(0.06172839506172839,0,0,0.06172839506172839,14.814814814814813,0)" xlink:href="#y"/><use transform="matrix(0.06172839506172839,0,0,0.06172839506172839,29.629629629629626,0)" xlink:href="#z"/></g><path fill="#3a414a" d="M266 0h-40l-56-210L115 0H75L2-248h35L96-30l15-64 43-154h32l59 218 59-218h35" id="A"/><path fill="#3a414a" d="M100-194c62-1 85 37 85 99 1 63-27 99-86 99S16-35 15-95c0-66 28-99 85-99zM99-20c44 1 53-31 53-75 0-43-8-75-51-75s-53 32-53 75 10 74 51 75" id="B"/><path fill="#3a414a" d="M24 0v-261h32V0H24" id="C"/><path fill="#3a414a" d="M85-194c31 0 48 13 60 33l-1-100h32l1 261h-30c-2-10 0-23-3-31C134-8 116 4 85 4 32 4 16-35 15-94c0-66 23-100 70-100zm9 24c-40 0-46 34-46 75 0 40 6 74 45 74 42 0 51-32 51-76 0-42-9-74-50-73" id="D"/><g id="d"><use transform="matrix(0.06172839506172839,0,0,0.06172839506172839,0,0)" xlink:href="#A"/><use transform="matrix(0.06172839506172839,0,0,0.06172839506172839,20.493827160493826,0)" xlink:href="#B"/><use transform="matrix(0.06172839506172839,0,0,0.06172839506172839,32.839506172839506,0)" xlink:href="#r"/><use transform="matrix(0.06172839506172839,0,0,0.06172839506172839,40.18518518518518,0)" xlink:href="#C"/><use transform="matrix(0.06172839506172839,0,0,0.06172839506172839,45.06172839506173,0)" xlink:href="#D"/><use transform="matrix(0.06172839506172839,0,0,0.06172839506172839,57.407407407407405,0)" xlink:href="#t"/></g><path fill="#067d17" d="M736-142h380V0H134v-142h422v-1200H267v-142h469v1342" id="E"/><path fill="#067d17" d="M528 20c-247 0-343-132-343-381v-721h180v686c-4 177 45 284 224 277 194-8 279-136 279-336v-627h181c3 360-6 732 6 1082H885c-4-54-7-126-8-185h-3C809-64 714 20 528 20" id="F"/><path fill="#067d17" d="M914 0L548-499l-132 98V0H236v-1484h180v927l475-525h211L663-617 1125 0H914" id="G"/><path fill="#067d17" d="M617-1102c355 0 481 238 477 599H322c5 222 84 388 301 388 144 0 244-59 284-166l158 45C1002-72 854 20 623 20c-342 0-490-220-490-568 0-346 151-554 484-554zm291 461c-18-192-90-328-289-328-194 0-287 128-295 328h584" id="H"/><path fill="#067d17" d="M622-1349c296 4 497 117 497 404 0 282-193 424-485 431H353V0H162v-1349h460zm-15 684c195-3 320-88 320-277 0-184-129-255-328-254H353v531h254" id="I"/><path fill="#067d17" d="M839-1102c70 0 148 7 206 17v167c-112-18-268-36-363 15-129 69-208 203-208 395V0H294c-10-367 32-789-52-1082h171c21 75 41 161 48 250h5c67-152 152-270 373-270" id="J"/><path fill="#067d17" d="M873-819c-18-114-119-146-250-146-163 0-245 50-245 151 0 151 170 148 294 185 182 54 388 94 388 320 0 240-189 325-439 329-245 4-410-69-454-268l159-31c24 133 136 168 295 165 144-2 270-31 270-171 0-164-195-160-331-202-167-52-350-87-350-299 0-218 173-315 413-313 220 2 373 77 412 260" id="K"/><path fill="#067d17" d="M615-1102c343 0 484 203 482 560-1 347-147 562-488 562-336 0-475-219-479-562-4-349 156-560 485-560zm-8 989c240 0 301-180 301-429 0-245-55-427-290-427-236 0-299 181-299 427 0 243 61 429 288 429" id="L"/><path fill="#067d17" d="M706-1102c241 0 344 136 343 381V0H868v-695c1-168-57-273-220-268-190 6-283 138-283 336V0H185c-3-360 6-732-6-1082h170c4 54 7 126 8 185h3c63-121 164-204 346-205" id="M"/><path fill="#067d17" d="M473-1349c438-1 655 221 652 661C1122-268 945-8 532 0H162v-1349h311zm42 1193c308-4 416-205 418-532 2-330-131-509-459-505H353v1037h162" id="N"/><path fill="#067d17" d="M682 16c-209 0-323-80-324-285v-671H190v-142h170l58-282h120v282h432v142H538v652c2 114 60 155 182 155 106 0 209-16 297-34v137C921-4 806 16 682 16" id="O"/><path fill="#067d17" d="M1000-272c3 95 12 159 101 161 21 0 41-3 59-7V-6c-44 10-86 16-139 16-141 2-191-84-197-217h-6C748-76 648 20 446 20c-207 0-318-120-318-322 0-266 194-348 454-354l236-4c12-191-40-305-222-305-140 0-220 47-232 172l-188-17c33-204 181-292 423-292 255 0 401 118 401 364v466zm-683-27c0 109 63 184 175 182 166-3 259-96 306-217 24-65 20-120 20-200-232 7-501-28-501 235" id="P"/><path fill="#067d17" d="M745-142h380V0H143v-142h422v-798H246v-142h499v940zM545-1292v-192h200v192H545" id="Q"/><g id="e"><use transform="matrix(0.0077473958333333336,0,0,0.0077473958333333336,0,0)" xlink:href="#E"/><use transform="matrix(0.0077473958333333336,0,0,0.0077473958333333336,9.521549479166667,0)" xlink:href="#F"/><use transform="matrix(0.0077473958333333336,0,0,0.0077473958333333336,19.043098958333335,0)" xlink:href="#G"/><use transform="matrix(0.0077473958333333336,0,0,0.0077473958333333336,28.564648437500004,0)" xlink:href="#H"/><use transform="matrix(0.0077473958333333336,0,0,0.0077473958333333336,38.08619791666667,0)" xlink:href="#I"/><use transform="matrix(0.0077473958333333336,0,0,0.0077473958333333336,47.607747395833336,0)" xlink:href="#H"/><use transform="matrix(0.0077473958333333336,0,0,0.0077473958333333336,57.129296875,0)" xlink:href="#J"/><use transform="matrix(0.0077473958333333336,0,0,0.0077473958333333336,66.65084635416667,0)" xlink:href="#K"/><use transform="matrix(0.0077473958333333336,0,0,0.0077473958333333336,76.17239583333334,0)" xlink:href="#L"/><use transform="matrix(0.0077473958333333336,0,0,0.0077473958333333336,85.6939453125,0)" xlink:href="#M"/><use transform="matrix(0.0077473958333333336,0,0,0.0077473958333333336,95.21549479166667,0)" xlink:href="#N"/><use transform="matrix(0.0077473958333333336,0,0,0.0077473958333333336,104.73704427083334,0)" xlink:href="#H"/><use transform="matrix(0.0077473958333333336,0,0,0.0077473958333333336,114.25859375,0)" xlink:href="#O"/><use transform="matrix(0.0077473958333333336,0,0,0.0077473958333333336,123.78014322916667,0)" xlink:href="#P"/><use transform="matrix(0.0077473958333333336,0,0,0.0077473958333333336,133.30169270833335,0)" xlink:href="#Q"/><use transform="matrix(0.0077473958333333336,0,0,0.0077473958333333336,142.82324218750003,0)" xlink:href="#E"/><use transform="matrix(0.0077473958333333336,0,0,0.0077473958333333336,152.3447916666667,0)" xlink:href="#K"/></g><path fill="#333" d="M67-125c0 54 23 88 75 88 28 0 53-7 68-21v-34h-60v-39h108v91C232-14 192 4 140 4 58 4 20-42 15-125 8-236 126-280 215-234c19 10 29 26 37 47l-47 15c-11-23-29-39-63-39-53 1-75 33-75 86" id="R"/><path fill="#333" d="M24 0v-248h195v40H76v63h132v40H76v65h150V0H24" id="S"/><path fill="#333" d="M136-208V0H84v-208H4v-40h212v40h-80" id="T"/><g id="f"><use transform="matrix(0.04938271604938272,0,0,0.04938271604938272,0,0)" xlink:href="#R"/><use transform="matrix(0.04938271604938272,0,0,0.04938271604938272,13.827160493827162,0)" xlink:href="#S"/><use transform="matrix(0.04938271604938272,0,0,0.04938271604938272,25.679012345679016,0)" xlink:href="#T"/></g><path fill="#067d17" d="M648-963c-190 6-283 138-283 336V0H185v-1484h181c-2 197 6 404-9 587h3c62-120 159-205 339-205 242 0 351 135 350 381V0H868v-695c1-168-57-273-220-268" id="U"/><path fill="#067d17" d="M698-1104c312 3 392 244 392 558 0 315-82 566-392 566-169 0-277-65-331-184h-5c8 188 2 394 4 589H185V-858c0-76-1-156-6-224h175c6 52 9 120 10 178h4c58-122 150-202 330-200zm-49 991c225 0 255-203 255-433 0-225-32-419-253-419-236 0-285 192-285 441 0 237 53 411 283 411" id="V"/><path fill="#067d17" d="M496 0v-299h235V0H496zm0-783v-299h235v299H496" id="W"/><path fill="#067d17" d="M114 20l821-1504h178L296 20H114" id="X"/><path fill="#067d17" d="M1018 0H814c-67-224-138-444-200-673C552-442 476-224 407 0H204L21-1082h178c43 310 105 601 126 933 54-225 128-425 193-638h193c63 212 134 415 185 638 22-336 90-622 136-933h176" id="Y"/><path fill="#067d17" d="M496 0v-299h235V0H496" id="Z"/><path fill="#067d17" d="M865-914c-3-187-2-380-2-570h180v1261c0 76 1 155 6 223H877c-8-49-9-116-10-174h-5C801-44 708 26 530 26c-135 0-234-46-297-139s-95-232-95-419c0-377 131-566 392-566 176 0 271 63 335 184zm-286-51c-222 0-255 197-255 427 0 229 31 425 253 425 237 0 286-195 286-441 0-238-52-411-284-411" id="aa"/><path fill="#067d17" d="M715 0H502L69-1082h202c94 253 197 500 285 758 19 57 36 126 52 183 96-335 234-626 350-941h201" id="ab"/><path fill="#067d17" d="M594-1370c273 0 479 100 479 368 0 320-313 334-421 548-13 28-20 60-21 97H456c9-310 312-328 416-543 13-27 19-59 19-94 0-165-127-226-295-226-189 0-295 102-318 272L94-960c39-259 205-410 500-410zM448 0v-201h195V0H448" id="ac"/><path fill="#067d17" d="M631 20c-350 0-501-215-501-562 0-355 162-560 502-560 250 0 399 118 446 323l-192 14c-23-124-109-196-262-196-242 0-305 171-305 415 1 245 61 427 304 427 151 0 248-77 267-215l190 12C1039-107 883 20 631 20" id="ad"/><path fill="#067d17" d="M116-856v-148h995v148H116zm0 512v-148h995v148H116" id="ae"/><path fill="#067d17" d="M677 91c1 136 41 195 171 195h213v139H796c-186-8-294-116-294-303v-351c-3-164-120-222-275-232v-137c155-10 275-69 275-231v-352c6-189 106-303 294-303h265v139H848c-126-3-171 67-171 195v346c-5 158-108 234-231 274 128 36 231 115 231 274V91" id="af"/><path fill="#067d17" d="M904-1102c199 0 220 177 220 381V0H956v-686c-3-114 0-215-60-264-70-33-125-4-158 71-26 56-39 140-39 252V0H531v-686c-3-114-1-215-61-264-78-41-136 24-157 84-24 69-39 159-39 259V0H105c-3-360 6-732-6-1082h149c6 50 3 123 8 175 36-100 83-195 216-195 135 0 166 79 196 196 42-105 93-196 236-196" id="ag"/><path fill="#067d17" d="M726 122c-7 187-108 303-294 303H167V286h213c129-2 172-59 172-195v-347c5-160 106-236 230-276-125-36-230-116-230-272v-346c2-128-45-195-172-195H167v-139h265c187 7 294 114 294 303v352c4 162 120 221 275 231v137c-155 10-275 68-275 232v351" id="ah"/><g id="g"><use transform="matrix(0.0077473958333333336,0,0,0.0077473958333333336,0,0)" xlink:href="#U"/><use transform="matrix(0.0077473958333333336,0,0,0.0077473958333333336,9.521549479166667,0)" xlink:href="#O"/><use transform="matrix(0.0077473958333333336,0,0,0.0077473958333333336,19.043098958333335,0)" xlink:href="#O"/><use transform="matrix(0.0077473958333333336,0,0,0.0077473958333333336,28.564648437500004,0)" xlink:href="#V"/><use transform="matrix(0.0077473958333333336,0,0,0.0077473958333333336,38.08619791666667,0)" xlink:href="#K"/><use transform="matrix(0.0077473958333333336,0,0,0.0077473958333333336,47.607747395833336,0)" xlink:href="#W"/><use transform="matrix(0.0077473958333333336,0,0,0.0077473958333333336,57.129296875,0)" xlink:href="#X"/><use transform="matrix(0.0077473958333333336,0,0,0.0077473958333333336,66.65084635416667,0)" xlink:href="#X"/><use transform="matrix(0.0077473958333333336,0,0,0.0077473958333333336,76.17239583333334,0)" xlink:href="#K"/><use transform="matrix(0.0077473958333333336,0,0,0.0077473958333333336,85.6939453125,0)" xlink:href="#Y"/><use transform="matrix(0.0077473958333333336,0,0,0.0077473958333333336,95.21549479166667,0)" xlink:href="#P"/><use transform="matrix(0.0077473958333333336,0,0,0.0077473958333333336,104.73704427083334,0)" xlink:href="#V"/><use transform="matrix(0.0077473958333333336,0,0,0.0077473958333333336,114.25859375,0)" xlink:href="#Q"/><use transform="matrix(0.0077473958333333336,0,0,0.0077473958333333336,123.78014322916667,0)" xlink:href="#Z"/><use transform="matrix(0.0077473958333333336,0,0,0.0077473958333333336,133.30169270833335,0)" xlink:href="#aa"/><use transform="matrix(0.0077473958333333336,0,0,0.0077473958333333336,142.82324218750003,0)" xlink:href="#H"/><use transform="matrix(0.0077473958333333336,0,0,0.0077473958333333336,152.3447916666667,0)" xlink:href="#ab"/><use transform="matrix(0.0077473958333333336,0,0,0.0077473958333333336,161.8663411458334,0)" xlink:href="#X"/><use transform="matrix(0.0077473958333333336,0,0,0.0077473958333333336,171.38789062500007,0)" xlink:href="#P"/><use transform="matrix(0.0077473958333333336,0,0,0.0077473958333333336,180.90944010416675,0)" xlink:href="#V"/><use transform="matrix(0.0077473958333333336,0,0,0.0077473958333333336,190.43098958333343,0)" xlink:href="#Q"/><use transform="matrix(0.0077473958333333336,0,0,0.0077473958333333336,199.9525390625001,0)" xlink:href="#X"/><use transform="matrix(0.0077473958333333336,0,0,0.0077473958333333336,209.4740885416668,0)" xlink:href="#V"/><use transform="matrix(0.0077473958333333336,0,0,0.0077473958333333336,218.99563802083347,0)" xlink:href="#H"/><use transform="matrix(0.0077473958333333336,0,0,0.0077473958333333336,228.51718750000015,0)" xlink:href="#L"/><use transform="matrix(0.0077473958333333336,0,0,0.0077473958333333336,238.03873697916683,0)" xlink:href="#V"/><use transform="matrix(0.0077473958333333336,0,0,0.0077473958333333336,247.5602864583335,0)" xlink:href="#E"/><use transform="matrix(0.0077473958333333336,0,0,0.0077473958333333336,257.08183593750016,0)" xlink:href="#H"/><use transform="matrix(0.0077473958333333336,0,0,0.0077473958333333336,266.6033854166668,0)" xlink:href="#X"/><use transform="matrix(0.0077473958333333336,0,0,0.0077473958333333336,276.12493489583346,0)" xlink:href="#ac"/><use transform="matrix(0.0077473958333333336,0,0,0.0077473958333333336,285.6464843750001,0)" xlink:href="#K"/><use transform="matrix(0.0077473958333333336,0,0,0.0077473958333333336,295.16803385416677,0)" xlink:href="#H"/><use transform="matrix(0.0077473958333333336,0,0,0.0077473958333333336,304.6895833333334,0)" xlink:href="#P"/><use transform="matrix(0.0077473958333333336,0,0,0.0077473958333333336,314.21113281250007,0)" xlink:href="#J"/><use transform="matrix(0.0077473958333333336,0,0,0.0077473958333333336,323.7326822916667,0)" xlink:href="#ad"/><use transform="matrix(0.0077473958333333336,0,0,0.0077473958333333336,333.25423177083337,0)" xlink:href="#U"/><use transform="matrix(0.0077473958333333336,0,0,0.0077473958333333336,342.77578125,0)" xlink:href="#ae"/><use transform="matrix(0.0077473958333333336,0,0,0.0077473958333333336,352.2973307291667,0)" xlink:href="#af"/><use transform="matrix(0.0077473958333333336,0,0,0.0077473958333333336,361.8188802083333,0)" xlink:href="#M"/><use transform="matrix(0.0077473958333333336,0,0,0.0077473958333333336,371.3404296875,0)" xlink:href="#P"/><use transform="matrix(0.0077473958333333336,0,0,0.0077473958333333336,380.86197916666663,0)" xlink:href="#ag"/><use transform="matrix(0.0077473958333333336,0,0,0.0077473958333333336,390.3835286458333,0)" xlink:href="#H"/><use transform="matrix(0.0077473958333333336,0,0,0.0077473958333333336,399.90507812499993,0)" xlink:href="#ah"/></g><path fill="#067d17" d="M875 0v-623H353V0H162v-1349h191v566h522v-566h191V0H875" id="ai"/><path fill="#067d17" d="M604-135c236 0 291-142 291-376v-838h190v859c5 340-142 510-480 510-326 0-463-164-463-492v-877h191v851c-3 222 46 363 271 363" id="aj"/><path fill="#067d17" d="M1121-976c0 225-142 341-344 379L1177 0H957L591-575H353V0H162v-1349h482c281 3 477 100 477 373zM633-726c181-1 296-73 296-247 0-149-101-223-304-223H353v470h280" id="ak"/><path fill="#067d17" d="M237 0v-1349h191v1193h672V0H237" id="al"/><g id="h"><use transform="matrix(0.0077473958333333336,0,0,0.0077473958333333336,0,0)" xlink:href="#E"/><use transform="matrix(0.0077473958333333336,0,0,0.0077473958333333336,9.521549479166667,0)" xlink:href="#F"/><use transform="matrix(0.0077473958333333336,0,0,0.0077473958333333336,19.043098958333335,0)" xlink:href="#G"/><use transform="matrix(0.0077473958333333336,0,0,0.0077473958333333336,28.564648437500004,0)" xlink:href="#H"/><use transform="matrix(0.0077473958333333336,0,0,0.0077473958333333336,38.08619791666667,0)" xlink:href="#ai"/><use transform="matrix(0.0077473958333333336,0,0,0.0077473958333333336,47.607747395833336,0)" xlink:href="#L"/><use transform="matrix(0.0077473958333333336,0,0,0.0077473958333333336,57.129296875,0)" xlink:href="#ag"/><use transform="matrix(0.0077473958333333336,0,0,0.0077473958333333336,66.65084635416667,0)" xlink:href="#H"/><use transform="matrix(0.0077473958333333336,0,0,0.0077473958333333336,76.17239583333334,0)" xlink:href="#Y"/><use transform="matrix(0.0077473958333333336,0,0,0.0077473958333333336,85.6939453125,0)" xlink:href="#L"/><use transform="matrix(0.0077473958333333336,0,0,0.0077473958333333336,95.21549479166667,0)" xlink:href="#J"/><use transform="matrix(0.0077473958333333336,0,0,0.0077473958333333336,104.73704427083334,0)" xlink:href="#E"/><use transform="matrix(0.0077473958333333336,0,0,0.0077473958333333336,114.25859375,0)" xlink:href="#aa"/><use transform="matrix(0.0077473958333333336,0,0,0.0077473958333333336,123.78014322916667,0)" xlink:href="#aj"/><use transform="matrix(0.0077473958333333336,0,0,0.0077473958333333336,133.30169270833335,0)" xlink:href="#ak"/><use transform="matrix(0.0077473958333333336,0,0,0.0077473958333333336,142.82324218750003,0)" xlink:href="#al"/></g><g id="i"><use transform="matrix(0.0077473958333333336,0,0,0.0077473958333333336,0,0)" xlink:href="#U"/><use transform="matrix(0.0077473958333333336,0,0,0.0077473958333333336,9.521549479166667,0)" xlink:href="#L"/><use transform="matrix(0.0077473958333333336,0,0,0.0077473958333333336,19.043098958333335,0)" xlink:href="#ag"/><use transform="matrix(0.0077473958333333336,0,0,0.0077473958333333336,28.564648437500004,0)" xlink:href="#H"/><use transform="matrix(0.0077473958333333336,0,0,0.0077473958333333336,38.08619791666667,0)" xlink:href="#Y"/><use transform="matrix(0.0077473958333333336,0,0,0.0077473958333333336,47.607747395833336,0)" xlink:href="#L"/><use transform="matrix(0.0077473958333333336,0,0,0.0077473958333333336,57.129296875,0)" xlink:href="#J"/><use transform="matrix(0.0077473958333333336,0,0,0.0077473958333333336,66.65084635416667,0)" xlink:href="#E"/><use transform="matrix(0.0077473958333333336,0,0,0.0077473958333333336,76.17239583333334,0)" xlink:href="#aa"/><use transform="matrix(0.0077473958333333336,0,0,0.0077473958333333336,85.6939453125,0)" xlink:href="#N"/><use transform="matrix(0.0077473958333333336,0,0,0.0077473958333333336,95.21549479166667,0)" xlink:href="#H"/><use transform="matrix(0.0077473958333333336,0,0,0.0077473958333333336,104.73704427083334,0)" xlink:href="#O"/><use transform="matrix(0.0077473958333333336,0,0,0.0077473958333333336,114.25859375,0)" xlink:href="#P"/><use transform="matrix(0.0077473958333333336,0,0,0.0077473958333333336,123.78014322916667,0)" xlink:href="#Q"/><use transform="matrix(0.0077473958333333336,0,0,0.0077473958333333336,133.30169270833335,0)" xlink:href="#E"/><use transform="matrix(0.0077473958333333336,0,0,0.0077473958333333336,142.82324218750003,0)" xlink:href="#K"/></g><path d="M650-216c90 0 157-35 208-74v-235H584v-218h544v558C1004-84 858 20 635 20 235 20 80-276 80-681c0-416 146-689 558-689 277 0 398 160 462 375l-274 54c-31-108-73-197-185-197-231 0-262 217-262 457 0 149 22 263 67 344s113 121 204 121" id="am"/><path d="M137 0v-1349h968v228H432v324h612v228H432v341h714V0H137" id="an"/><path d="M762-1121V0H467v-1121H61v-228h1107v228H762" id="ao"/><g id="j"><use transform="matrix(0.00883246527777778,0,0,0.00883246527777778,0,0)" xlink:href="#am"/><use transform="matrix(0.00883246527777778,0,0,0.00883246527777778,10.85509982638889,0)" xlink:href="#an"/><use transform="matrix(0.00883246527777778,0,0,0.00883246527777778,21.71019965277778,0)" xlink:href="#ao"/></g><g id="k"><use transform="matrix(0.0077473958333333336,0,0,0.0077473958333333336,0,0)" xlink:href="#U"/><use transform="matrix(0.0077473958333333336,0,0,0.0077473958333333336,9.521549479166667,0)" xlink:href="#O"/><use transform="matrix(0.0077473958333333336,0,0,0.0077473958333333336,19.043098958333335,0)" xlink:href="#O"/><use transform="matrix(0.0077473958333333336,0,0,0.0077473958333333336,28.564648437500004,0)" xlink:href="#V"/><use transform="matrix(0.0077473958333333336,0,0,0.0077473958333333336,38.08619791666667,0)" xlink:href="#K"/><use transform="matrix(0.0077473958333333336,0,0,0.0077473958333333336,47.607747395833336,0)" xlink:href="#W"/><use transform="matrix(0.0077473958333333336,0,0,0.0077473958333333336,57.129296875,0)" xlink:href="#X"/><use transform="matrix(0.0077473958333333336,0,0,0.0077473958333333336,66.65084635416667,0)" xlink:href="#X"/><use transform="matrix(0.0077473958333333336,0,0,0.0077473958333333336,76.17239583333334,0)" xlink:href="#K"/><use transform="matrix(0.0077473958333333336,0,0,0.0077473958333333336,85.6939453125,0)" xlink:href="#Y"/><use transform="matrix(0.0077473958333333336,0,0,0.0077473958333333336,95.21549479166667,0)" xlink:href="#P"/><use transform="matrix(0.0077473958333333336,0,0,0.0077473958333333336,104.73704427083334,0)" xlink:href="#V"/><use transform="matrix(0.0077473958333333336,0,0,0.0077473958333333336,114.25859375,0)" xlink:href="#Q"/><use transform="matrix(0.0077473958333333336,0,0,0.0077473958333333336,123.78014322916667,0)" xlink:href="#Z"/><use transform="matrix(0.0077473958333333336,0,0,0.0077473958333333336,133.30169270833335,0)" xlink:href="#aa"/><use transform="matrix(0.0077473958333333336,0,0,0.0077473958333333336,142.82324218750003,0)" xlink:href="#H"/><use transform="matrix(0.0077473958333333336,0,0,0.0077473958333333336,152.3447916666667,0)" xlink:href="#ab"/><use transform="matrix(0.0077473958333333336,0,0,0.0077473958333333336,161.8663411458334,0)" xlink:href="#X"/><use transform="matrix(0.0077473958333333336,0,0,0.0077473958333333336,171.38789062500007,0)" xlink:href="#P"/><use transform="matrix(0.0077473958333333336,0,0,0.0077473958333333336,180.90944010416675,0)" xlink:href="#V"/><use transform="matrix(0.0077473958333333336,0,0,0.0077473958333333336,190.43098958333343,0)" xlink:href="#Q"/><use transform="matrix(0.0077473958333333336,0,0,0.0077473958333333336,199.9525390625001,0)" xlink:href="#X"/><use transform="matrix(0.0077473958333333336,0,0,0.0077473958333333336,209.4740885416668,0)" xlink:href="#V"/><use transform="matrix(0.0077473958333333336,0,0,0.0077473958333333336,218.99563802083347,0)" xlink:href="#E"/><use transform="matrix(0.0077473958333333336,0,0,0.0077473958333333336,228.51718750000015,0)" xlink:href="#P"/><use transform="matrix(0.0077473958333333336,0,0,0.0077473958333333336,238.03873697916683,0)" xlink:href="#M"/><use transform="matrix(0.0077473958333333336,0,0,0.0077473958333333336,247.5602864583335,0)" xlink:href="#H"/><use transform="matrix(0.0077473958333333336,0,0,0.0077473958333333336,257.08183593750016,0)" xlink:href="#O"/><use transform="matrix(0.0077473958333333336,0,0,0.0077473958333333336,266.6033854166668,0)" xlink:href="#K"/><use transform="matrix(0.0077473958333333336,0,0,0.0077473958333333336,276.12493489583346,0)" xlink:href="#X"/><use transform="matrix(0.0077473958333333336,0,0,0.0077473958333333336,285.6464843750001,0)" xlink:href="#af"/><use transform="matrix(0.0077473958333333336,0,0,0.0077473958333333336,295.16803385416677,0)" xlink:href="#Q"/><use transform="matrix(0.0077473958333333336,0,0,0.0077473958333333336,304.6895833333334,0)" xlink:href="#aa"/><use transform="matrix(0.0077473958333333336,0,0,0.0077473958333333336,314.21113281250007,0)" xlink:href="#ah"/></g><path fill="#067d17" d="M912-211c-10-84-18-177-18-274v-864h172V0H836L316-1130c7 79 16 167 16 254V0H162v-1349h222" id="ap"/><g id="l"><use transform="matrix(0.0077473958333333336,0,0,0.0077473958333333336,0,0)" xlink:href="#U"/><use transform="matrix(0.0077473958333333336,0,0,0.0077473958333333336,9.521549479166667,0)" xlink:href="#L"/><use transform="matrix(0.0077473958333333336,0,0,0.0077473958333333336,19.043098958333335,0)" xlink:href="#ag"/><use transform="matrix(0.0077473958333333336,0,0,0.0077473958333333336,28.564648437500004,0)" xlink:href="#H"/><use transform="matrix(0.0077473958333333336,0,0,0.0077473958333333336,38.08619791666667,0)" xlink:href="#Y"/><use transform="matrix(0.0077473958333333336,0,0,0.0077473958333333336,47.607747395833336,0)" xlink:href="#L"/><use transform="matrix(0.0077473958333333336,0,0,0.0077473958333333336,57.129296875,0)" xlink:href="#J"/><use transform="matrix(0.0077473958333333336,0,0,0.0077473958333333336,66.65084635416667,0)" xlink:href="#E"/><use transform="matrix(0.0077473958333333336,0,0,0.0077473958333333336,76.17239583333334,0)" xlink:href="#aa"/><use transform="matrix(0.0077473958333333336,0,0,0.0077473958333333336,85.6939453125,0)" xlink:href="#ap"/><use transform="matrix(0.0077473958333333336,0,0,0.0077473958333333336,95.21549479166667,0)" xlink:href="#P"/><use transform="matrix(0.0077473958333333336,0,0,0.0077473958333333336,104.73704427083334,0)" xlink:href="#ag"/><use transform="matrix(0.0077473958333333336,0,0,0.0077473958333333336,114.25859375,0)" xlink:href="#H"/></g><path fill="#333" d="M142-158h-39l-4-90h48zm-75 0H28l-4-90h48" id="aq"/><path fill="#333" d="M25 0v-261h50V0H25" id="ar"/><path fill="#333" d="M85 4C-2 5 27-109 22-190h50c7 57-23 150 33 157 60-5 35-97 40-157h50l1 190h-47c-2-12 1-28-3-38-12 25-28 42-61 42" id="as"/><path fill="#333" d="M147 0L96-86 75-71V0H25v-261h50v150l67-79h53l-66 74L201 0h-54" id="at"/><path fill="#333" d="M185-48c-13 30-37 53-82 52C43 2 14-33 14-96s30-98 90-98c62 0 83 45 84 108H66c0 31 8 55 39 56 18 0 30-7 34-22zm-45-69c5-46-57-63-70-21-2 6-4 13-4 21h74" id="au"/><g id="m"><use transform="matrix(0.04938271604938272,0,0,0.04938271604938272,0,0)" xlink:href="#aq"/><use transform="matrix(0.04938271604938272,0,0,0.04938271604938272,8.395061728395062,0)" xlink:href="#ar"/><use transform="matrix(0.04938271604938272,0,0,0.04938271604938272,13.333333333333334,0)" xlink:href="#as"/><use transform="matrix(0.04938271604938272,0,0,0.04938271604938272,24.14814814814815,0)" xlink:href="#at"/><use transform="matrix(0.04938271604938272,0,0,0.04938271604938272,34.0246913580247,0)" xlink:href="#au"/><use transform="matrix(0.04938271604938272,0,0,0.04938271604938272,43.90123456790124,0)" xlink:href="#aq"/></g><path fill="#333" d="M133-34C117-15 103 5 69 4 32 3 11-16 11-54c-1-60 55-63 116-61 1-26-3-47-28-47-18 1-26 9-28 27l-52-2c7-38 36-58 82-57s74 22 75 68l1 82c-1 14 12 18 25 15v27c-30 8-71 5-69-32zm-48 3c29 0 43-24 42-57-32 0-66-3-65 30 0 17 8 27 23 27" id="av"/><path fill="#333" d="M115-3C79 11 28 4 28-45v-112H4v-33h27l15-45h31v45h36v33H77v99c-1 23 16 31 38 25v30" id="aw"/><path fill="#333" d="M110-194c64 0 96 36 96 99 0 64-35 99-97 99-61 0-95-36-95-99 0-62 34-99 96-99zm-1 164c35 0 45-28 45-65 0-40-10-65-43-65-34 0-45 26-45 65 0 36 10 65 43 65" id="ax"/><path fill="#333" d="M25-224v-37h50v37H25zM25 0v-190h50V0H25" id="ay"/><path fill="#333" d="M135-194c87-1 58 113 63 194h-50c-7-57 23-157-34-157-59 0-34 97-39 157H25l-1-190h47c2 12-1 28 3 38 12-26 28-41 61-42" id="az"/><g id="n"><use transform="matrix(0.04938271604938272,0,0,0.04938271604938272,0,0)" xlink:href="#aq"/><use transform="matrix(0.04938271604938272,0,0,0.04938271604938272,8.395061728395062,0)" xlink:href="#T"/><use transform="matrix(0.04938271604938272,0,0,0.04938271604938272,17.876543209876544,0)" xlink:href="#av"/><use transform="matrix(0.04938271604938272,0,0,0.04938271604938272,27.75308641975309,0)" xlink:href="#aw"/><use transform="matrix(0.04938271604938272,0,0,0.04938271604938272,33.62962962962963,0)" xlink:href="#ax"/><use transform="matrix(0.04938271604938272,0,0,0.04938271604938272,44.44444444444445,0)" xlink:href="#ax"/><use transform="matrix(0.04938271604938272,0,0,0.04938271604938272,55.25925925925927,0)" xlink:href="#ay"/><use transform="matrix(0.04938271604938272,0,0,0.04938271604938272,60.19753086419754,0)" xlink:href="#az"/><use transform="matrix(0.04938271604938272,0,0,0.04938271604938272,71.01234567901236,0)" xlink:href="#au"/><use transform="matrix(0.04938271604938272,0,0,0.04938271604938272,80.8888888888889,0)" xlink:href="#aq"/></g></defs></g></svg>