<svg xmlns="http://www.w3.org/2000/svg" xmlns:xlink="http://www.w3.org/1999/xlink" xmlns:lucid="lucid" width="561" height="824"><g transform="translate(-379.5 -278)" lucid:page-tab-id="y6zcEW2jIhrs"><path d="M0 0h1000v1500H0z" fill="#fff"/><path d="M600 500c22.1 0 40 17.9 40 40s-17.9 40-40 40H460c-22.1 0-40-17.9-40-40s17.9-40 40-40z" stroke="#3a414a" fill="#fff"/><use xlink:href="#a" transform="matrix(1,0,0,1,425,505) translate(92.65932098765433 26.52777777777778)"/><use xlink:href="#b" transform="matrix(1,0,0,1,425,505) translate(98.83216049382716 26.52777777777778)"/><use xlink:href="#c" transform="matrix(1,0,0,1,425,505) translate(13.955617283950653 53.19444444444445)"/><path d="M880 500c22.1 0 40 17.9 40 40s-17.9 40-40 40H740c-22.1 0-40-17.9-40-40s17.9-40 40-40z" stroke="#3a414a" fill="#fff"/><use xlink:href="#d" transform="matrix(1,0,0,1,705,505) translate(96.36302469135804 26.52777777777778)"/><use xlink:href="#e" transform="matrix(1,0,0,1,705,505) translate(11.856851851851852 53.19444444444445)"/><path d="M620 680c22.1 0 40 17.9 40 40s-17.9 40-40 40H440c-22.1 0-40-17.9-40-40s17.9-40 40-40z" stroke="#3a414a" fill="#fff"/><use xlink:href="#f" transform="matrix(1,0,0,1,405,685) translate(115.74574074074074 26.52777777777778)"/><use xlink:href="#g" transform="matrix(1,0,0,1,405,685) translate(35.43709876543212 53.19444444444445)"/><path d="M530.5 672.63h-1v-31.96h1zm0-53.3h-1V581h1z" stroke="#3a414a" stroke-width=".05" fill="#3a414a"/><path d="M530.5 581h-1v-.5h1z" fill="#3a414a"/><path d="M530.52 581.04h-1.04v-.56h1.04zm-1-.5v.45h.96v-.48z" stroke="#3a414a" stroke-width=".05" fill="#3a414a"/><path d="M530 678.52l-7.64-12.9h15.28z" fill="#3a414a"/><path d="M530 679.5l-8.5-14.4h17zm-6.76-13.4l6.76 11.44 6.76-11.43z" stroke="#3a414a" stroke-width=".05" fill="#3a414a"/><use xlink:href="#h" transform="matrix(1,0,0,1,517.1851851851852,619.3333333333334) translate(0 14.222222222222223)"/><path d="M800 860c22.1 0 40 17.9 40 40s-17.9 40-40 40H620c-22.1 0-40-17.9-40-40s17.9-40 40-40z" stroke="#3a414a" fill="#fff"/><use xlink:href="#i" transform="matrix(1,0,0,1,585,865.0000000000001) translate(115.74574074074074 26.52777777777778)"/><use xlink:href="#j" transform="matrix(1,0,0,1,585,865.0000000000001) translate(38.21487654320989 53.19444444444445)"/><path d="M810.5 804.02l-.08 1-.24 1-.4.93-.52.87-.66.78-.78.66-.87.53-.94.38-.98.24-1 .08h-88l-.88.07-.84.2-.8.33-.73.45-.66.56-.55.67-.45.73-.33.8-.2.84-.07.88v36.6h-1V816l.08-1 .24-1 .4-.93.52-.87.66-.78.78-.66.87-.53.94-.38.98-.24 1-.08h88l.88-.07.84-.2.8-.33.73-.45.66-.56.55-.67.45-.73.33-.8.2-.84.07-.88v-23.3h1zm0-44.7h-1V581h1z" stroke="#3a414a" stroke-width=".05" fill="#3a414a"/><path d="M810.5 581h-1v-.5h1z" fill="#3a414a"/><path d="M810.52 581.04h-1.04v-.56h1.04zm-1-.5v.45h.96v-.48z" stroke="#3a414a" stroke-width=".05" fill="#3a414a"/><path d="M710 858.52l-7.64-12.9h15.28z" fill="#3a414a"/><path d="M710 859.5l-8.5-14.4h17zm-6.76-13.4l6.76 11.44 6.76-11.43z" stroke="#3a414a" stroke-width=".05" fill="#3a414a"/><use xlink:href="#k" transform="matrix(1,0,0,1,804.074074074074,759.3333333333334) translate(0 14.222222222222223)"/><path d="M704.02 809.5l1 .08 1 .24.93.4.87.52.78.66.66.78.53.87.38.94.24.98.08 1v36.65h-1v-36.6l-.07-.9-.2-.83-.33-.8-.45-.73-.56-.66-.67-.55-.73-.45-.8-.33-.84-.2-.88-.07h-53.16v-1zm-173.45-4.64l.2.84.33.8.45.73.56.66.67.55.73.45.8.33.84.2.88.07h53.16v1h-53.2l-1-.08-1-.24-.93-.4-.87-.52-.78-.66-.66-.78-.53-.87-.38-.94-.24-.98-.08-1V761h1v42.98z" stroke="#3a414a" stroke-width=".05" fill="#3a414a"/><path d="M530.5 761h-1v-.5h1z" fill="#3a414a"/><path d="M530.52 761.04h-1.04v-.56h1.04zm-1-.5v.45h.96v-.48z" stroke="#3a414a" stroke-width=".05" fill="#3a414a"/><path d="M710 858.52l-7.64-12.9h15.28z" fill="#3a414a"/><path d="M710 859.5l-8.5-14.4h17zm-6.76-13.4l6.76 11.44 6.76-11.43z" stroke="#3a414a" stroke-width=".05" fill="#3a414a"/><use xlink:href="#l" transform="matrix(1,0,0,1,589.1851851851852,799.3333333333334) translate(0 14.222222222222223)"/><path d="M740 340c22.1 0 40 17.9 40 40s-17.9 40-40 40H600c-22.1 0-40-17.9-40-40s17.9-40 40-40z" stroke="#3a414a" fill="#fff"/><use xlink:href="#a" transform="matrix(1,0,0,1,565,345) translate(90.22104938271606 26.52777777777778)"/><use xlink:href="#m" transform="matrix(1,0,0,1,565,345) translate(96.3938888888889 26.52777777777778)"/><use xlink:href="#c" transform="matrix(1,0,0,1,565,345) translate(13.955617283950653 53.19444444444445)"/><path d="M596.72 460.5h-57.4l-.87.07-.84.2-.78.33-.74.45-.65.56-.56.67-.46.73-.3.8-.22.84-.06.88v26.6h-1V466l.07-1 .23-1 .4-.93.52-.87.67-.78.77-.66.86-.53.94-.38 1-.24 1-.08h57.42zm73.78-6.48l-.08 1-.24 1-.4.93-.52.87-.66.78-.78.66-.87.53-.94.38-.98.24-1 .08H606.6v-1h57.38l.88-.07.84-.2.8-.33.73-.45.66-.56.55-.67.45-.73.33-.8.2-.84.07-.88V421h1z" stroke="#3a414a" stroke-width=".05" fill="#3a414a"/><path d="M670.5 421h-1v-.5h1z" fill="#3a414a"/><path d="M670.52 421.04h-1.04v-.56h1.04zm-1-.52v.47h.96v-.48z" stroke="#3a414a" stroke-width=".05" fill="#3a414a"/><path d="M533.32 498.52l-7.64-12.9h15.27z" fill="#3a414a"/><path d="M533.32 499.5l-8.52-14.4h17.03zm-6.77-13.4l6.77 11.44 6.75-11.43z" stroke="#3a414a" stroke-width=".05" fill="#3a414a"/><use xlink:href="#n" transform="matrix(1,0,0,1,596.7189847173689,449.3333333333333) translate(0 14.222222222222223)"/><use xlink:href="#o" transform="matrix(1,0,0,1,596.7189847173689,449.3333333333333) translate(0 14.222222222222223)"/><path d="M804.02 459.5l1 .08 1 .24.93.4.87.52.78.66.66.78.53.87.38.94.24.98.08 1v26.65h-1v-26.6l-.07-.9-.2-.83-.33-.8-.45-.73-.56-.66-.67-.55-.73-.45-.8-.33-.84-.2-.88-.07h-59.04v-1zm-133.45-4.64l.2.84.33.8.45.73.56.66.67.55.73.45.8.33.84.2.88.07h59.04v1h-59.08l-1-.08-1-.24-.93-.4-.87-.52-.78-.66-.66-.78-.53-.87-.38-.94-.24-.98-.08-1V421h1v32.98z" stroke="#3a414a" stroke-width=".05" fill="#3a414a"/><path d="M670.5 421h-1v-.5h1z" fill="#3a414a"/><path d="M670.52 421.04h-1.04v-.56h1.04zm-1-.52v.47h.96v-.48z" stroke="#3a414a" stroke-width=".05" fill="#3a414a"/><path d="M810 498.52l-7.64-12.9h15.28z" fill="#3a414a"/><path d="M810 499.5l-8.5-14.4h17zm-6.76-13.4l6.76 11.44 6.76-11.43z" stroke="#3a414a" stroke-width=".05" fill="#3a414a"/><use xlink:href="#o" transform="matrix(1,0,0,1,735.0617283950618,449.3333333333333) translate(0 14.222222222222223)"/><path d="M710.5 1073.13h-1v-34.34h1zm0-55.67h-1V941h1z" stroke="#3a414a" stroke-width=".05" fill="#3a414a"/><path d="M710 1079.02l-7.64-12.9h15.28z" fill="#3a414a"/><path d="M710 1080l-8.5-14.4h17zm-6.76-13.4l6.76 11.44 6.76-11.43z" stroke="#3a414a" stroke-width=".05" fill="#3a414a"/><path d="M710.5 941h-1v-.5h1z" fill="#3a414a"/><path d="M710.52 941.04h-1.04v-.56h1.04zm-1-.5v.45h.96v-.48z" stroke="#3a414a" stroke-width=".05" fill="#3a414a"/><g><use xlink:href="#p" transform="matrix(1,0,0,1,669.8024691358024,1017.461563064648) translate(0 14.222222222222223)"/></g><path d="M670.5 332.63h-1v-19.1h1zm0-40.43h-1v-11.7h1z" stroke="#3a414a" stroke-width=".05" fill="#3a414a"/><path d="M670 338.52l-7.64-12.9h15.28z" fill="#3a414a"/><path d="M670 339.5l-8.5-14.4h17zm-6.76-13.4l6.76 11.44 6.76-11.43zM670.5 280.5h-1v-.5h1z" stroke="#3a414a" stroke-width=".05" fill="#3a414a"/><g><use xlink:href="#o" transform="matrix(1,0,0,1,665.0617283950618,292.2024415542069) translate(0 14.222222222222223)"/></g><defs><path fill="#3a414a" d="M141-36C126-15 110 5 73 4 37 3 15-17 15-53c-1-64 63-63 125-63 3-35-9-54-41-54-24 1-41 7-42 31l-33-3c5-37 33-52 76-52 45 0 72 20 72 64v82c-1 20 7 32 28 27v20c-31 9-61-2-59-35zM48-53c0 20 12 33 32 33 41-3 63-29 60-74-43 2-92-5-92 41" id="q"/><path fill="#3a414a" d="M33-154v-36h34v36H33zM33 0v-36h34V0H33" id="r"/><g id="b"><use transform="matrix(0.06172839506172839,0,0,0.06172839506172839,0,0)" xlink:href="#q"/><use transform="matrix(0.06172839506172839,0,0,0.06172839506172839,12.345679012345679,0)" xlink:href="#r"/></g><path fill="#3a414a" d="M194-70c0 46-34 64-81 66v29H91V-4C42-5 12-27 4-67l30-6c5 28 25 41 57 43v-87c-38-9-76-20-76-67 1-42 33-58 76-59v-23h22v23c45 0 67 20 76 56l-31 6c-5-23-18-35-45-37v78c41 10 81 20 81 70zm-81 41c51 7 71-66 19-77-6-2-12-4-19-6v83zM91-219c-47-6-63 57-18 69 6 2 12 3 18 5v-74" id="s"/><path fill="#3a414a" d="M39-94c74 12-11 154 75 146v23c-44 4-70-10-70-52C44-23 55-84 6-82v-22c81 4-7-162 84-157h24v23c-82-15-2 131-75 144" id="t"/><path fill="#3a414a" d="M26 75v-336h71v23H56V52h41v23H26" id="u"/><path fill="#3a414a" d="M24-231v-30h32v30H24zM24 0v-190h32V0H24" id="v"/><path fill="#3a414a" d="M117-194c89-4 53 116 60 194h-32v-121c0-31-8-49-39-48C34-167 62-67 57 0H25l-1-190h30c1 10-1 24 2 32 11-22 29-35 61-36" id="w"/><path fill="#3a414a" d="M68-38c1 34 0 65-14 84H32c9-13 17-26 17-46H33v-38h35" id="x"/><path fill="#3a414a" d="M3 75V52h41v-290H3v-23h71V75H3" id="y"/><path fill="#3a414a" d="M16-127c37-31 93-2 135 6 18-1 32-8 43-16v26c-50 42-130-35-178 9v-25" id="z"/><path fill="#3a414a" d="M18-27v-27l151-64-151-65v-27l175 74v36" id="A"/><path fill="#3a414a" d="M24-231v-30h32v30H24zM-9 49c24 4 33-6 33-30v-209h32V24c2 40-23 58-65 49V49" id="B"/><path fill="#3a414a" d="M100-194c62-1 85 37 85 99 1 63-27 99-86 99S16-35 15-95c0-66 28-99 85-99zM99-20c44 1 53-31 53-75 0-43-8-75-51-75s-53 32-53 75 10 74 51 75" id="C"/><path fill="#3a414a" d="M87 75C49 33 22-17 22-94c0-76 28-126 65-167h31c-38 41-64 92-64 168S80 34 118 75H87" id="D"/><path fill="#3a414a" d="M47-170H22l-4-78h33" id="E"/><path fill="#3a414a" d="M33-261c38 41 65 92 65 168S71 34 33 75H2C39 34 66-17 66-93S39-220 2-261h31" id="F"/><path fill="#3a414a" d="M76-40C78 24 84 88 6 75V52C86 64 9-79 80-94c-40-6-34-59-34-106 1-29-11-41-40-38v-23c44-4 70 10 70 52 0 47-12 108 38 105v22c-26 1-39 14-38 42" id="G"/><g id="c"><use transform="matrix(0.06172839506172839,0,0,0.06172839506172839,0,0)" xlink:href="#s"/><use transform="matrix(0.06172839506172839,0,0,0.06172839506172839,12.345679012345679,0)" xlink:href="#t"/><use transform="matrix(0.06172839506172839,0,0,0.06172839506172839,19.753086419753085,0)" xlink:href="#u"/><use transform="matrix(0.06172839506172839,0,0,0.06172839506172839,25.925925925925924,0)" xlink:href="#v"/><use transform="matrix(0.06172839506172839,0,0,0.06172839506172839,30.80246913580247,0)" xlink:href="#w"/><use transform="matrix(0.06172839506172839,0,0,0.06172839506172839,43.148148148148145,0)" xlink:href="#x"/><use transform="matrix(0.06172839506172839,0,0,0.06172839506172839,49.32098765432099,0)" xlink:href="#v"/><use transform="matrix(0.06172839506172839,0,0,0.06172839506172839,54.19753086419753,0)" xlink:href="#w"/><use transform="matrix(0.06172839506172839,0,0,0.06172839506172839,66.54320987654322,0)" xlink:href="#y"/><use transform="matrix(0.06172839506172839,0,0,0.06172839506172839,72.71604938271605,0)" xlink:href="#z"/><use transform="matrix(0.06172839506172839,0,0,0.06172839506172839,85.67901234567901,0)" xlink:href="#A"/><use transform="matrix(0.06172839506172839,0,0,0.06172839506172839,98.64197530864197,0)" xlink:href="#s"/><use transform="matrix(0.06172839506172839,0,0,0.06172839506172839,110.98765432098766,0)" xlink:href="#B"/><use transform="matrix(0.06172839506172839,0,0,0.06172839506172839,115.8641975308642,0)" xlink:href="#C"/><use transform="matrix(0.06172839506172839,0,0,0.06172839506172839,128.20987654320987,0)" xlink:href="#v"/><use transform="matrix(0.06172839506172839,0,0,0.06172839506172839,133.0864197530864,0)" xlink:href="#w"/><use transform="matrix(0.06172839506172839,0,0,0.06172839506172839,145.43209876543207,0)" xlink:href="#D"/><use transform="matrix(0.06172839506172839,0,0,0.06172839506172839,152.77777777777774,0)" xlink:href="#E"/><use transform="matrix(0.06172839506172839,0,0,0.06172839506172839,156.97530864197526,0)" xlink:href="#r"/><use transform="matrix(0.06172839506172839,0,0,0.06172839506172839,163.1481481481481,0)" xlink:href="#E"/><use transform="matrix(0.06172839506172839,0,0,0.06172839506172839,167.3456790123456,0)" xlink:href="#F"/><use transform="matrix(0.06172839506172839,0,0,0.06172839506172839,174.69135802469128,0)" xlink:href="#G"/></g><path fill="#3a414a" d="M96-169c-40 0-48 33-48 73s9 75 48 75c24 0 41-14 43-38l32 2c-6 37-31 61-74 61-59 0-76-41-82-99-10-93 101-131 147-64 4 7 5 14 7 22l-32 3c-4-21-16-35-41-35" id="H"/><g id="d"><use transform="matrix(0.06172839506172839,0,0,0.06172839506172839,0,0)" xlink:href="#H"/><use transform="matrix(0.06172839506172839,0,0,0.06172839506172839,11.11111111111111,0)" xlink:href="#r"/></g><path fill="#3a414a" d="M84 4C-5 8 30-112 23-190h32v120c0 31 7 50 39 49 72-2 45-101 50-169h31l1 190h-30c-1-10 1-25-2-33-11 22-28 36-60 37" id="I"/><path fill="#3a414a" d="M115-194c55 1 70 41 70 98S169 2 115 4C84 4 66-9 55-30l1 105H24l-1-265h31l2 30c10-21 28-34 59-34zm-8 174c40 0 45-34 45-75s-6-73-45-74c-42 0-51 32-51 76 0 43 10 73 51 73" id="J"/><path fill="#3a414a" d="M100-194c63 0 86 42 84 106H49c0 40 14 67 53 68 26 1 43-12 49-29l28 8c-11 28-37 45-77 45C44 4 14-33 15-96c1-61 26-98 85-98zm52 81c6-60-76-77-97-28-3 7-6 17-6 28h103" id="K"/><path fill="#3a414a" d="M114-163C36-179 61-72 57 0H25l-1-190h30c1 12-1 29 2 39 6-27 23-49 58-41v29" id="L"/><path fill="#3a414a" d="M135-143c-3-34-86-38-87 0 15 53 115 12 119 90S17 21 10-45l28-5c4 36 97 45 98 0-10-56-113-15-118-90-4-57 82-63 122-42 12 7 21 19 24 35" id="M"/><g id="e"><use transform="matrix(0.06172839506172839,0,0,0.06172839506172839,0,0)" xlink:href="#s"/><use transform="matrix(0.06172839506172839,0,0,0.06172839506172839,12.345679012345679,0)" xlink:href="#t"/><use transform="matrix(0.06172839506172839,0,0,0.06172839506172839,19.753086419753085,0)" xlink:href="#v"/><use transform="matrix(0.06172839506172839,0,0,0.06172839506172839,24.629629629629626,0)" xlink:href="#w"/><use transform="matrix(0.06172839506172839,0,0,0.06172839506172839,36.9753086419753,0)" xlink:href="#z"/><use transform="matrix(0.06172839506172839,0,0,0.06172839506172839,49.938271604938265,0)" xlink:href="#A"/><use transform="matrix(0.06172839506172839,0,0,0.06172839506172839,62.90123456790123,0)" xlink:href="#s"/><use transform="matrix(0.06172839506172839,0,0,0.06172839506172839,75.24691358024691,0)" xlink:href="#I"/><use transform="matrix(0.06172839506172839,0,0,0.06172839506172839,87.5925925925926,0)" xlink:href="#J"/><use transform="matrix(0.06172839506172839,0,0,0.06172839506172839,99.93827160493828,0)" xlink:href="#J"/><use transform="matrix(0.06172839506172839,0,0,0.06172839506172839,112.28395061728396,0)" xlink:href="#K"/><use transform="matrix(0.06172839506172839,0,0,0.06172839506172839,124.62962962962965,0)" xlink:href="#L"/><use transform="matrix(0.06172839506172839,0,0,0.06172839506172839,131.97530864197532,0)" xlink:href="#H"/><use transform="matrix(0.06172839506172839,0,0,0.06172839506172839,143.08641975308643,0)" xlink:href="#q"/><use transform="matrix(0.06172839506172839,0,0,0.06172839506172839,155.4320987654321,0)" xlink:href="#M"/><use transform="matrix(0.06172839506172839,0,0,0.06172839506172839,166.54320987654322,0)" xlink:href="#K"/><use transform="matrix(0.06172839506172839,0,0,0.06172839506172839,178.88888888888889,0)" xlink:href="#G"/></g><path fill="#3a414a" d="M115-194c53 0 69 39 70 98 0 66-23 100-70 100C84 3 66-7 56-30L54 0H23l1-261h32v101c10-23 28-34 59-34zm-8 174c40 0 45-34 45-75 0-40-5-75-45-74-42 0-51 32-51 76 0 43 10 73 51 73" id="N"/><g id="f"><use transform="matrix(0.06172839506172839,0,0,0.06172839506172839,0,0)" xlink:href="#N"/><use transform="matrix(0.06172839506172839,0,0,0.06172839506172839,12.345679012345679,0)" xlink:href="#r"/></g><path fill="#3a414a" d="M118-107v75H92v-75H18v-26h74v-75h26v75h74v26h-74" id="O"/><g id="g"><use transform="matrix(0.06172839506172839,0,0,0.06172839506172839,0,0)" xlink:href="#s"/><use transform="matrix(0.06172839506172839,0,0,0.06172839506172839,12.345679012345679,0)" xlink:href="#t"/><use transform="matrix(0.06172839506172839,0,0,0.06172839506172839,19.753086419753085,0)" xlink:href="#u"/><use transform="matrix(0.06172839506172839,0,0,0.06172839506172839,25.925925925925924,0)" xlink:href="#q"/><use transform="matrix(0.06172839506172839,0,0,0.06172839506172839,38.2716049382716,0)" xlink:href="#x"/><use transform="matrix(0.06172839506172839,0,0,0.06172839506172839,44.44444444444444,0)" xlink:href="#q"/><use transform="matrix(0.06172839506172839,0,0,0.06172839506172839,56.79012345679012,0)" xlink:href="#y"/><use transform="matrix(0.06172839506172839,0,0,0.06172839506172839,62.96296296296296,0)" xlink:href="#z"/><use transform="matrix(0.06172839506172839,0,0,0.06172839506172839,75.92592592592592,0)" xlink:href="#A"/><use transform="matrix(0.06172839506172839,0,0,0.06172839506172839,88.88888888888889,0)" xlink:href="#s"/><use transform="matrix(0.06172839506172839,0,0,0.06172839506172839,101.23456790123457,0)" xlink:href="#B"/><use transform="matrix(0.06172839506172839,0,0,0.06172839506172839,106.11111111111111,0)" xlink:href="#C"/><use transform="matrix(0.06172839506172839,0,0,0.06172839506172839,118.4567901234568,0)" xlink:href="#v"/><use transform="matrix(0.06172839506172839,0,0,0.06172839506172839,123.33333333333334,0)" xlink:href="#w"/><use transform="matrix(0.06172839506172839,0,0,0.06172839506172839,135.679012345679,0)" xlink:href="#D"/><use transform="matrix(0.06172839506172839,0,0,0.06172839506172839,143.02469135802468,0)" xlink:href="#E"/><use transform="matrix(0.06172839506172839,0,0,0.06172839506172839,147.2222222222222,0)" xlink:href="#O"/><use transform="matrix(0.06172839506172839,0,0,0.06172839506172839,160.18518518518516,0)" xlink:href="#E"/><use transform="matrix(0.06172839506172839,0,0,0.06172839506172839,164.38271604938268,0)" xlink:href="#F"/><use transform="matrix(0.06172839506172839,0,0,0.06172839506172839,171.72839506172835,0)" xlink:href="#G"/></g><path fill="#333" d="M123 10C108 53 80 86 19 72V37c35 8 53-11 59-39L3-190h52l48 148c12-52 28-100 44-148h51" id="P"/><path fill="#333" d="M35-132v-50h50v50H35zM35 0v-49h50V0H35" id="Q"/><g id="h"><use transform="matrix(0.04938271604938272,0,0,0.04938271604938272,0,0)" xlink:href="#P"/><use transform="matrix(0.04938271604938272,0,0,0.04938271604938272,9.876543209876544,0)" xlink:href="#Q"/><use transform="matrix(0.04938271604938272,0,0,0.04938271604938272,15.753086419753087,0)" xlink:href="#P"/></g><path fill="#3a414a" d="M85-194c31 0 48 13 60 33l-1-100h32l1 261h-30c-2-10 0-23-3-31C134-8 116 4 85 4 32 4 16-35 15-94c0-66 23-100 70-100zm9 24c-40 0-46 34-46 75 0 40 6 74 45 74 42 0 51-32 51-76 0-42-9-74-50-73" id="R"/><g id="i"><use transform="matrix(0.06172839506172839,0,0,0.06172839506172839,0,0)" xlink:href="#R"/><use transform="matrix(0.06172839506172839,0,0,0.06172839506172839,12.345679012345679,0)" xlink:href="#r"/></g><path fill="#3a414a" d="M80-196l47-18 7 23-49 13 32 44-20 13-27-46-27 45-21-12 33-44-49-13 8-23 47 19-2-53h23" id="S"/><g id="j"><use transform="matrix(0.06172839506172839,0,0,0.06172839506172839,0,0)" xlink:href="#s"/><use transform="matrix(0.06172839506172839,0,0,0.06172839506172839,12.345679012345679,0)" xlink:href="#t"/><use transform="matrix(0.06172839506172839,0,0,0.06172839506172839,19.753086419753085,0)" xlink:href="#u"/><use transform="matrix(0.06172839506172839,0,0,0.06172839506172839,25.925925925925924,0)" xlink:href="#N"/><use transform="matrix(0.06172839506172839,0,0,0.06172839506172839,38.2716049382716,0)" xlink:href="#x"/><use transform="matrix(0.06172839506172839,0,0,0.06172839506172839,44.44444444444444,0)" xlink:href="#H"/><use transform="matrix(0.06172839506172839,0,0,0.06172839506172839,55.55555555555556,0)" xlink:href="#y"/><use transform="matrix(0.06172839506172839,0,0,0.06172839506172839,61.7283950617284,0)" xlink:href="#z"/><use transform="matrix(0.06172839506172839,0,0,0.06172839506172839,74.69135802469137,0)" xlink:href="#A"/><use transform="matrix(0.06172839506172839,0,0,0.06172839506172839,87.65432098765433,0)" xlink:href="#s"/><use transform="matrix(0.06172839506172839,0,0,0.06172839506172839,100.00000000000001,0)" xlink:href="#B"/><use transform="matrix(0.06172839506172839,0,0,0.06172839506172839,104.87654320987656,0)" xlink:href="#C"/><use transform="matrix(0.06172839506172839,0,0,0.06172839506172839,117.22222222222224,0)" xlink:href="#v"/><use transform="matrix(0.06172839506172839,0,0,0.06172839506172839,122.09876543209879,0)" xlink:href="#w"/><use transform="matrix(0.06172839506172839,0,0,0.06172839506172839,134.44444444444446,0)" xlink:href="#D"/><use transform="matrix(0.06172839506172839,0,0,0.06172839506172839,141.79012345679013,0)" xlink:href="#E"/><use transform="matrix(0.06172839506172839,0,0,0.06172839506172839,145.98765432098764,0)" xlink:href="#S"/><use transform="matrix(0.06172839506172839,0,0,0.06172839506172839,154.62962962962962,0)" xlink:href="#E"/><use transform="matrix(0.06172839506172839,0,0,0.06172839506172839,158.82716049382714,0)" xlink:href="#F"/><use transform="matrix(0.06172839506172839,0,0,0.06172839506172839,166.1728395061728,0)" xlink:href="#G"/></g><path fill="#333" d="M146-102V0H94v-102L6-248h54l60 105 60-105h54" id="T"/><use transform="matrix(0.04938271604938272,0,0,0.04938271604938272,0,0)" xlink:href="#T" id="k"/><path fill="#333" d="M144 0l-44-69L55 0H2l70-98-66-92h53l41 62 40-62h54l-67 91 71 99h-54" id="U"/><path fill="#333" d="M125-100v72H85v-72H15v-39h70v-72h40v72h71v39h-71" id="V"/><g id="l"><use transform="matrix(0.04938271604938272,0,0,0.04938271604938272,0,0)" xlink:href="#U"/><use transform="matrix(0.04938271604938272,0,0,0.04938271604938272,9.876543209876544,0)" xlink:href="#Q"/><use transform="matrix(0.04938271604938272,0,0,0.04938271604938272,15.753086419753087,0)" xlink:href="#U"/><use transform="matrix(0.04938271604938272,0,0,0.04938271604938272,25.629629629629633,0)" xlink:href="#V"/><use transform="matrix(0.04938271604938272,0,0,0.04938271604938272,36.00000000000001,0)" xlink:href="#U"/><use transform="matrix(0.04938271604938272,0,0,0.04938271604938272,45.87654320987655,0)" xlink:href="#Q"/><use transform="matrix(0.04938271604938272,0,0,0.04938271604938272,51.75308641975309,0)" xlink:href="#U"/></g><g id="m"><use transform="matrix(0.06172839506172839,0,0,0.06172839506172839,0,0)" xlink:href="#v"/><use transform="matrix(0.06172839506172839,0,0,0.06172839506172839,4.876543209876543,0)" xlink:href="#w"/><use transform="matrix(0.06172839506172839,0,0,0.06172839506172839,17.22222222222222,0)" xlink:href="#r"/></g><use transform="matrix(0.04938271604938272,0,0,0.04938271604938272,0,0)" xlink:href="#U" id="n"/><use transform="matrix(0.04938271604938272,0,0,0.04938271604938272,0,0)" xlink:href="#P" id="o"/><path fill="#333" d="M86-200l42-18 12 35-44 11 32 37-32 21-26-44-26 44-32-21 33-37-44-11 12-35 42 18-3-48h38" id="W"/><g id="p"><use transform="matrix(0.04938271604938272,0,0,0.04938271604938272,0,0)" xlink:href="#U"/><use transform="matrix(0.04938271604938272,0,0,0.04938271604938272,9.876543209876544,0)" xlink:href="#Q"/><use transform="matrix(0.04938271604938272,0,0,0.04938271604938272,15.753086419753087,0)" xlink:href="#U"/><use transform="matrix(0.04938271604938272,0,0,0.04938271604938272,25.629629629629633,0)" xlink:href="#V"/><use transform="matrix(0.04938271604938272,0,0,0.04938271604938272,36.00000000000001,0)" xlink:href="#U"/><use transform="matrix(0.04938271604938272,0,0,0.04938271604938272,45.87654320987655,0)" xlink:href="#Q"/><use transform="matrix(0.04938271604938272,0,0,0.04938271604938272,51.75308641975309,0)" xlink:href="#U"/><use transform="matrix(0.04938271604938272,0,0,0.04938271604938272,61.62962962962963,0)" xlink:href="#W"/><use transform="matrix(0.04938271604938272,0,0,0.04938271604938272,68.54320987654322,0)" xlink:href="#T"/></g></defs></g></svg>