<?xml version="1.0" encoding="UTF-8" standalone="no"?>
<!DOCTYPE svg PUBLIC "-//W3C//DTD SVG 1.1//EN"
 "http://www.w3.org/Graphics/SVG/1.1/DTD/svg11.dtd">
<!-- Generated by graphviz version 9.0.0 (20230911.1827)
 -->
<!-- Title: MetaInfoGraph Pages: 1 -->
<svg width="2588pt" height="577pt"
 viewBox="0.00 0.00 2588.36 576.86" xmlns="http://www.w3.org/2000/svg" xmlns:xlink="http://www.w3.org/1999/xlink">
<g id="graph0" class="graph" transform="scale(1 1) rotate(0) translate(4 572.86)">
<title>MetaInfoGraph</title>
<polygon fill="#282a36" stroke="none" points="-4,4 -4,-572.86 2584.36,-572.86 2584.36,4 -4,4"/>
<!-- /call -->
<g id="node1" class="node">
<title>/call</title>
<ellipse fill="#87c095" stroke="black" cx="1325.24" cy="-160.16" rx="220.26" ry="35.89"/>
<text text-anchor="middle" x="1325.24" y="-170.13" font-family="Arial" font-size="12.00" fill="#f8f8f2">JSONPointer: /call</text>
<text text-anchor="middle" x="1325.24" y="-155.88" font-family="Arial" font-size="12.00" fill="#f8f8f2">Data: &quot;{function:}&quot;</text>
<text text-anchor="middle" x="1325.24" y="-141.63" font-family="Arial" font-size="12.00" fill="#f8f8f2">Expression: ${function($url){$fetch($url) ~&gt; handleRes}}</text>
</g>
<!-- /handleRes -->
<g id="node4" class="node">
<title>/handleRes</title>
<ellipse fill="#87c095" stroke="black" cx="1325.24" cy="-35.89" rx="345.42" ry="35.89"/>
<text text-anchor="middle" x="1325.24" y="-45.86" font-family="Arial" font-size="12.00" fill="#f8f8f2">JSONPointer: /handleRes</text>
<text text-anchor="middle" x="1325.24" y="-31.61" font-family="Arial" font-size="12.00" fill="#f8f8f2">Data: &quot;{function:}&quot;</text>
<text text-anchor="middle" x="1325.24" y="-17.36" font-family="Arial" font-size="12.00" fill="#f8f8f2">Expression: ${ function($res){$res.ok? $res.json():$res.status?{&#39;status&#39;: $res.status}:$res} }</text>
</g>
<!-- /call&#45;&gt;/handleRes -->
<g id="edge1" class="edge">
<title>/call&#45;&gt;/handleRes</title>
<path fill="none" stroke="#bd93f9" d="M1325.24,-123.79C1325.24,-111.24 1325.24,-96.93 1325.24,-83.58"/>
<polygon fill="#bd93f9" stroke="#bd93f9" points="1328.74,-83.69 1325.24,-73.69 1321.74,-83.69 1328.74,-83.69"/>
<text text-anchor="middle" x="1355.99" y="-92.97" font-family="Times,serif" font-size="14.00" fill="#bd93f9">depends on</text>
</g>
<!-- /falcon -->
<g id="node2" class="node">
<title>/falcon</title>
<ellipse fill="#87c095" stroke="black" cx="342.24" cy="-284.43" rx="342.24" ry="35.89"/>
<text text-anchor="middle" x="342.24" y="-294.4" font-family="Arial" font-size="12.00" fill="#f8f8f2">JSONPointer: /falcon</text>
<text text-anchor="middle" x="342.24" y="-280.15" font-family="Arial" font-size="12.00" fill="#f8f8f2">Data: &quot;Millennium Falcon&quot;</text>
<text text-anchor="middle" x="342.24" y="-265.9" font-family="Arial" font-size="12.00" fill="#f8f8f2">Expression: ${ call(&#39;https://swapi.dev/api/starships/?search=Millennium&#39;).results[0].name}</text>
</g>
<!-- /falcon&#45;&gt;/call -->
<g id="edge2" class="edge">
<title>/falcon&#45;&gt;/call</title>
<path fill="none" stroke="#bd93f9" d="M559.79,-256.37C734.06,-234.69 975.85,-204.62 1140.75,-184.11"/>
<polygon fill="#bd93f9" stroke="#bd93f9" points="1141,-187.6 1150.49,-182.89 1140.13,-180.65 1141,-187.6"/>
<text text-anchor="middle" x="923.99" y="-217.24" font-family="Times,serif" font-size="14.00" fill="#bd93f9">depends on</text>
</g>
<!-- /han -->
<g id="node3" class="node">
<title>/han</title>
<ellipse fill="#87c095" stroke="black" cx="1009.24" cy="-284.43" rx="307.24" ry="35.89"/>
<text text-anchor="middle" x="1009.24" y="-294.4" font-family="Arial" font-size="12.00" fill="#f8f8f2">JSONPointer: /han</text>
<text text-anchor="middle" x="1009.24" y="-280.15" font-family="Arial" font-size="12.00" fill="#f8f8f2">Data: &quot;Han Solo&quot;</text>
<text text-anchor="middle" x="1009.24" y="-265.9" font-family="Arial" font-size="12.00" fill="#f8f8f2">Expression: ${ call(&#39;https://swapi.dev/api/people/?search=han&#39;).results[0].name}</text>
</g>
<!-- /han&#45;&gt;/call -->
<g id="edge3" class="edge">
<title>/han&#45;&gt;/call</title>
<path fill="none" stroke="#bd93f9" d="M1096.42,-249.69C1138.02,-233.6 1187.88,-214.31 1230.42,-197.85"/>
<polygon fill="#bd93f9" stroke="#bd93f9" points="1231.59,-201.15 1239.65,-194.27 1229.06,-194.62 1231.59,-201.15"/>
<text text-anchor="middle" x="1216.99" y="-217.24" font-family="Times,serif" font-size="14.00" fill="#bd93f9">depends on</text>
</g>
<!-- /luke -->
<g id="node5" class="node">
<title>/luke</title>
<ellipse fill="#87c095" stroke="black" cx="1643.24" cy="-284.43" rx="308.83" ry="35.89"/>
<text text-anchor="middle" x="1643.24" y="-294.4" font-family="Arial" font-size="12.00" fill="#f8f8f2">JSONPointer: /luke</text>
<text text-anchor="middle" x="1643.24" y="-280.15" font-family="Arial" font-size="12.00" fill="#f8f8f2">Data: &quot;Luke Skywalker&quot;</text>
<text text-anchor="middle" x="1643.24" y="-265.9" font-family="Arial" font-size="12.00" fill="#f8f8f2">Expression: ${ call(&#39;https://swapi.dev/api/people/?search=luke&#39;).results[0].name}</text>
</g>
<!-- /luke&#45;&gt;/call -->
<g id="edge4" class="edge">
<title>/luke&#45;&gt;/call</title>
<path fill="none" stroke="#bd93f9" d="M1555.5,-249.69C1513.64,-233.6 1463.47,-214.31 1420.66,-197.85"/>
<polygon fill="#bd93f9" stroke="#bd93f9" points="1421.95,-194.59 1411.36,-194.27 1419.44,-201.13 1421.95,-194.59"/>
<text text-anchor="middle" x="1534.99" y="-217.24" font-family="Times,serif" font-size="14.00" fill="#bd93f9">depends on</text>
</g>
<!-- /partI -->
<g id="node6" class="node">
<title>/partI</title>
<ellipse fill="#87c095" stroke="black" cx="1009.24" cy="-408.7" rx="205.41" ry="35.89"/>
<text text-anchor="middle" x="1009.24" y="-418.67" font-family="Arial" font-size="12.00" fill="#f8f8f2">JSONPointer: /partI</text>
<text text-anchor="middle" x="1009.24" y="-404.42" font-family="Arial" font-size="12.00" fill="#f8f8f2">Data: &quot;Han Solo piloted the Millennium Falcon&quot;</text>
<text text-anchor="middle" x="1009.24" y="-390.17" font-family="Arial" font-size="12.00" fill="#f8f8f2">Expression: ${ [han, &#39;piloted the&#39;, falcon] ~&gt; $join(&#39; &#39;)}</text>
</g>
<!-- /partI&#45;&gt;/falcon -->
<g id="edge6" class="edge">
<title>/partI&#45;&gt;/falcon</title>
<path fill="none" stroke="#bd93f9" d="M869.41,-382.07C768.04,-363.48 630.12,-338.2 520.78,-318.16"/>
<polygon fill="#bd93f9" stroke="#bd93f9" points="521.57,-314.74 511.1,-316.38 520.31,-321.63 521.57,-314.74"/>
<text text-anchor="middle" x="746.99" y="-341.51" font-family="Times,serif" font-size="14.00" fill="#bd93f9">depends on</text>
</g>
<!-- /partI&#45;&gt;/han -->
<g id="edge5" class="edge">
<title>/partI&#45;&gt;/han</title>
<path fill="none" stroke="#bd93f9" d="M1009.24,-372.33C1009.24,-359.79 1009.24,-345.47 1009.24,-332.12"/>
<polygon fill="#bd93f9" stroke="#bd93f9" points="1012.74,-332.23 1009.24,-322.23 1005.74,-332.23 1012.74,-332.23"/>
<text text-anchor="middle" x="1039.99" y="-341.51" font-family="Times,serif" font-size="14.00" fill="#bd93f9">depends on</text>
</g>
<!-- /partII -->
<g id="node7" class="node">
<title>/partII</title>
<ellipse fill="#87c095" stroke="black" cx="1643.24" cy="-408.7" rx="206.48" ry="35.89"/>
<text text-anchor="middle" x="1643.24" y="-418.67" font-family="Arial" font-size="12.00" fill="#f8f8f2">JSONPointer: /partII</text>
<text text-anchor="middle" x="1643.24" y="-404.42" font-family="Arial" font-size="12.00" fill="#f8f8f2">Data: &quot;Luke Skywalker piloted the X&#45;wing&quot;</text>
<text text-anchor="middle" x="1643.24" y="-390.17" font-family="Arial" font-size="12.00" fill="#f8f8f2">Expression: ${ [luke, &#39;piloted the&#39;, xwing] ~&gt; $join(&#39; &#39;)}</text>
</g>
<!-- /partII&#45;&gt;/luke -->
<g id="edge7" class="edge">
<title>/partII&#45;&gt;/luke</title>
<path fill="none" stroke="#bd93f9" d="M1643.24,-372.33C1643.24,-359.79 1643.24,-345.47 1643.24,-332.12"/>
<polygon fill="#bd93f9" stroke="#bd93f9" points="1646.74,-332.23 1643.24,-322.23 1639.74,-332.23 1646.74,-332.23"/>
<text text-anchor="middle" x="1673.99" y="-341.51" font-family="Times,serif" font-size="14.00" fill="#bd93f9">depends on</text>
</g>
<!-- /xwing -->
<g id="node9" class="node">
<title>/xwing</title>
<ellipse fill="#87c095" stroke="black" cx="2275.24" cy="-284.43" rx="305.12" ry="35.89"/>
<text text-anchor="middle" x="2275.24" y="-294.4" font-family="Arial" font-size="12.00" fill="#f8f8f2">JSONPointer: /xwing</text>
<text text-anchor="middle" x="2275.24" y="-280.15" font-family="Arial" font-size="12.00" fill="#f8f8f2">Data: &quot;X&#45;wing&quot;</text>
<text text-anchor="middle" x="2275.24" y="-265.9" font-family="Arial" font-size="12.00" fill="#f8f8f2">Expression: ${ call(&#39;https://swapi.dev/api/starships/?search=x&#39;).results[0].name}</text>
</g>
<!-- /partII&#45;&gt;/xwing -->
<g id="edge8" class="edge">
<title>/partII&#45;&gt;/xwing</title>
<path fill="none" stroke="#bd93f9" d="M1779.21,-381.39C1875.47,-362.77 2005.17,-337.68 2107.81,-317.82"/>
<polygon fill="#bd93f9" stroke="#bd93f9" points="2108.28,-321.3 2117.43,-315.96 2106.95,-314.42 2108.28,-321.3"/>
<text text-anchor="middle" x="2026.99" y="-341.51" font-family="Times,serif" font-size="14.00" fill="#bd93f9">depends on</text>
</g>
<!-- /story -->
<g id="node8" class="node">
<title>/story</title>
<ellipse fill="#87c095" stroke="black" cx="1325.24" cy="-532.97" rx="339.06" ry="35.89"/>
<text text-anchor="middle" x="1325.24" y="-542.95" font-family="Arial" font-size="12.00" fill="#f8f8f2">JSONPointer: /story</text>
<text text-anchor="middle" x="1325.24" y="-528.7" font-family="Arial" font-size="12.00" fill="#f8f8f2">Data: &quot;Han Solo piloted the Millennium Falcon then Luke Skywalker piloted the X&#45;wing&quot;</text>
<text text-anchor="middle" x="1325.24" y="-514.45" font-family="Arial" font-size="12.00" fill="#f8f8f2">Expression: ${ [partI, &#39;then&#39;, partII]~&gt;$join(&#39; &#39;)}</text>
</g>
<!-- /story&#45;&gt;/partI -->
<g id="edge9" class="edge">
<title>/story&#45;&gt;/partI</title>
<path fill="none" stroke="#bd93f9" d="M1237.22,-497.91C1195.46,-481.76 1145.54,-462.44 1103.07,-446.01"/>
<polygon fill="#bd93f9" stroke="#bd93f9" points="1104.45,-442.79 1093.86,-442.44 1101.92,-449.31 1104.45,-442.79"/>
<text text-anchor="middle" x="1216.99" y="-465.79" font-family="Times,serif" font-size="14.00" fill="#bd93f9">depends on</text>
</g>
<!-- /story&#45;&gt;/partII -->
<g id="edge10" class="edge">
<title>/story&#45;&gt;/partII</title>
<path fill="none" stroke="#bd93f9" d="M1413.82,-497.91C1455.84,-481.76 1506.07,-462.44 1548.81,-446.01"/>
<polygon fill="#bd93f9" stroke="#bd93f9" points="1550.02,-449.29 1558.09,-442.44 1547.5,-442.76 1550.02,-449.29"/>
<text text-anchor="middle" x="1534.99" y="-465.79" font-family="Times,serif" font-size="14.00" fill="#bd93f9">depends on</text>
</g>
<!-- /xwing&#45;&gt;/call -->
<g id="edge11" class="edge">
<title>/xwing&#45;&gt;/call</title>
<path fill="none" stroke="#bd93f9" d="M2072.02,-257.27C1904.32,-235.69 1668.49,-205.34 1506.98,-184.55"/>
<polygon fill="#bd93f9" stroke="#bd93f9" points="1507.83,-181.13 1497.46,-183.32 1506.94,-188.07 1507.83,-181.13"/>
<text text-anchor="middle" x="1886.99" y="-217.24" font-family="Times,serif" font-size="14.00" fill="#bd93f9">depends on</text>
</g>
</g>
</svg>
