<svg xmlns="http://www.w3.org/2000/svg" xmlns:xlink="http://www.w3.org/1999/xlink" xmlns:lucid="lucid" width="863" height="442"><g transform="translate(-318.5 -819.5)" lucid:page-tab-id="0_0"><path d="M0 500h1500v1000H0z" fill="#fff"/><path d="M389.25 877.5a6 6 0 0 1 6-6H1154a6 6 0 0 1 6 6V1234a6 6 0 0 1-6 6H395.25a6 6 0 0 1-6-6z" stroke="#000" stroke-opacity="0" stroke-width="3" fill-opacity="0"/><path d="M786.7 1033.8c16.24 0 29.42 13.18 29.42 29.43s-13.18 29.43-29.43 29.43H648.52c-16.25 0-29.43-13.18-29.43-29.43s13.18-29.43 29.43-29.43z" stroke="#4881b3" stroke-width="3" fill="#f5fbff"/><use xlink:href="#a" transform="matrix(1,0,0,1,624.1044776119404,1038.804152637486) translate(62.51851851851852 30.02777777777778)"/><use xlink:href="#b" transform="matrix(1,0,0,1,624.1044776119404,1038.804152637486) translate(110.66666666666666 30.02777777777778)"/><path d="M786.7 929.1c16.24 0 29.42 13.17 29.42 29.42s-13.18 29.43-29.43 29.43H648.52c-16.25 0-29.43-13.18-29.43-29.43s13.18-29.43 29.43-29.43z" stroke="#4881b3" stroke-width="3" fill="#f5fbff"/><use xlink:href="#a" transform="matrix(1,0,0,1,624.1044776119404,934.090909090909) translate(62.51851851851852 30.02777777777778)"/><use xlink:href="#c" transform="matrix(1,0,0,1,624.1044776119404,934.090909090909) translate(110.66666666666666 30.02777777777778)"/><path d="M786.7 1135.08c16.24 0 29.42 13.18 29.42 29.43 0 16.26-13.18 29.44-29.43 29.44H648.52c-16.25 0-29.43-13.18-29.43-29.43 0-16.24 13.18-29.42 29.43-29.42z" stroke="#4881b3" stroke-width="3" fill="#f5fbff"/><use xlink:href="#a" transform="matrix(1,0,0,1,624.1044776119404,1140.084175084175) translate(61.9320987654321 30.02777777777778)"/><use xlink:href="#d" transform="matrix(1,0,0,1,624.1044776119404,1140.084175084175) translate(110.08024691358025 30.02777777777778)"/><path d="M710.3 1095.16v19.92" stroke="#224c72" stroke-width="2" stroke-linejoin="round" fill="none"/><path d="M711.3 1095.2h-2v-1.04h2z" stroke="#224c72" stroke-width=".05" fill="#224c72"/><path d="M710.3 1130.35l-4.63-14.27h9.27z" stroke="#224c72" stroke-width="2" fill="#224c72"/><path d="M818.62 1164.5l2.72-.07 3.5-.22 3.35-.34 3.18-.47 3.07-.6 2.97-.7 2.88-.8 2.82-.9 2.77-1.04 2.73-1.15 2.72-1.27 2.73-1.43 2.76-1.6 2.8-1.77 2.87-2 3-2.26 3.13-2.6 3.36-3.03 3.7-3.62 4.25-4.55 5.4-6.25 10.9-13.93 14.83-19.1 5.38-6.24 4.27-4.55 3.7-3.62 3.36-3.03 3.13-2.6 2.98-2.26 2.88-2 2.8-1.78 2.75-1.6 2.73-1.42 2.73-1.28 2.73-1.16 2.77-1.03 2.82-.9 2.88-.82 1.45-.33" stroke="#224c72" stroke-width="2" stroke-linejoin="round" fill="none"/><path d="M818.67 1165.5h-1.13l.08-.94-.02-1.05h1.03z" stroke="#224c72" stroke-width=".05" fill="#224c72"/><path d="M975.58 1058.47l-13.66 6.2-1.03-9.2z" stroke="#224c72" stroke-width="2" fill="#224c72"/><path d="M569.85 846a6 6 0 0 1 6-6h283.52a6 6 0 0 1 6 6v65.98a6 6 0 0 1-6 6H575.85a6 6 0 0 1-6-6z" stroke="#000" stroke-opacity="0" fill="#fff" fill-opacity="0"/><use xlink:href="#e" transform="matrix(1,0,0,1,574.8507462686568,845) translate(-224.39312065972132 53.65125868055542)"/><path d="M818.62 958.54l2.97.06 3.72.24 3.53.37 3.37.5 3.22.62 3.1.73 3.03.84 2.95.95 2.9 1.07 2.84 1.2 2.84 1.34 2.85 1.5 2.87 1.64 2.92 1.86 3 2.1 3.16 2.38 3.34 2.77 3.63 3.28 4.1 4.03 5.03 5.37 7.83 9.12 20.6 24.76 5 5.36 4.12 4.03 3.63 3.28 3.34 2.76 3.14 2.38 3 2.1 2.94 1.85 2.87 1.66 2.84 1.47 2.85 1.34 2.86 1.2 2.9 1.1 2.94.94 3.02.85 2.57.6" stroke="#224c72" stroke-width="2" stroke-linejoin="round" fill="none"/><path d="M818.67 957.54l-.04 2-1.1-.02.1-.95-.03-1.05z" stroke="#224c72" stroke-width=".05" fill="#224c72"/><path d="M975.58 1057.78l-14.67 3.12.97-9.22z" stroke="#224c72" stroke-width="2" fill="#224c72"/><path d="M473.48 1060.54l2.18-.18 3.03-.37 2.9-.5 2.82-.6 2.73-.68 2.67-.8 2.62-.9 2.6-1.02 2.56-1.13 2.56-1.27 2.58-1.4 2.62-1.58 2.66-1.76 2.75-1.98 2.86-2.26 3.03-2.6 3.27-3.06 3.62-3.68 4.23-4.68 5.5-6.64 27.56-35.66 4.12-4.56 3.5-3.57 3.15-2.94 2.92-2.5 2.74-2.15 2.63-1.9 2.52-1.67 2.48-1.5 2.44-1.32 2.42-1.2 2.42-1.06 2.42-.95 2.46-.85 2.26-.67" stroke="#224c72" stroke-width="2" stroke-linejoin="round" fill="none"/><path d="M473.6 1061.53l-1.06.1-.12-2 1-.1z" stroke="#224c72" stroke-width=".05" fill="#224c72"/><path d="M614.4 958.94l-13.54 6.48-1.22-9.2z" stroke="#224c72" stroke-width="2" fill="#224c72"/><path d="M473.64 1063.18l34.54-1.37 44.5.3 46.43.8" stroke="#224c72" stroke-width="2" stroke-linejoin="round" fill="none"/><path d="M473.7 1064.18l-1 .04-.12-2 1.05-.04z" stroke="#224c72" stroke-width=".05" fill="#224c72"/><path d="M614.37 1063.17l-14.35 4.4.17-9.28z" stroke="#224c72" stroke-width="2" fill="#224c72"/><path d="M458.2 1032.1c7.26 0 13.14 15.45 13.14 34.53 0 19.08-5.88 34.55-13.13 34.55H353.14c-7.25 0-13.13-15.47-13.13-34.55s5.88-34.54 13.13-34.54z" stroke="#4881b3" stroke-width="3" fill="#f5fbff"/><path d="M458.2 1101.18c-7.25 0-13.13-15.47-13.13-34.55s5.88-34.54 13.14-34.54" stroke="#4881b3" stroke-width="3" fill="none"/><use xlink:href="#f" transform="matrix(1,0,0,1,345,1037.0875420875423) translate(21.65493827160494 23.677777777777777)"/><use xlink:href="#g" transform="matrix(1,0,0,1,345,1037.0875420875423) translate(17.104938271604944 47.94444444444444)"/><path d="M1098.5 1023.57c7.26 0 13.14 15.47 13.14 34.54 0 19.1-5.88 34.56-13.13 34.56H993.44c-7.25 0-13.13-15.47-13.13-34.55 0-19.06 5.88-34.53 13.13-34.53z" stroke="#4881b3" stroke-width="3" fill="#f5fbff"/><path d="M1098.5 1092.66c-7.25 0-13.13-15.47-13.13-34.55 0-19.06 5.88-34.53 13.14-34.53" stroke="#4881b3" stroke-width="3" fill="none"/><g><use xlink:href="#h" transform="matrix(1,0,0,1,985.2985074626865,1028.5684624017958) translate(21.65493827160494 23.677777777777774)"/><use xlink:href="#i" transform="matrix(1,0,0,1,985.2985074626865,1028.5684624017958) translate(17.104938271604944 47.94444444444443)"/></g><defs><path fill="#1d262b" d="M135-143c-3-34-86-38-87 0 15 53 115 12 119 90S17 21 10-45l28-5c4 36 97 45 98 0-10-56-113-15-118-90-4-57 82-63 122-42 12 7 21 19 24 35" id="j"/><path fill="#1d262b" d="M59-47c-2 24 18 29 38 22v24C64 9 27 4 27-40v-127H5v-23h24l9-43h21v43h35v23H59v120" id="k"/><path fill="#1d262b" d="M100-194c63 0 86 42 84 106H49c0 40 14 67 53 68 26 1 43-12 49-29l28 8c-11 28-37 45-77 45C44 4 14-33 15-96c1-61 26-98 85-98zm52 81c6-60-76-77-97-28-3 7-6 17-6 28h103" id="l"/><path fill="#1d262b" d="M115-194c55 1 70 41 70 98S169 2 115 4C84 4 66-9 55-30l1 105H24l-1-265h31l2 30c10-21 28-34 59-34zm-8 174c40 0 45-34 45-75s-6-73-45-74c-42 0-51 32-51 76 0 43 10 73 51 73" id="m"/><g id="a"><use transform="matrix(0.06172839506172839,0,0,0.06172839506172839,0,0)" xlink:href="#j"/><use transform="matrix(0.06172839506172839,0,0,0.06172839506172839,11.11111111111111,0)" xlink:href="#k"/><use transform="matrix(0.06172839506172839,0,0,0.06172839506172839,17.28395061728395,0)" xlink:href="#l"/><use transform="matrix(0.06172839506172839,0,0,0.06172839506172839,29.629629629629626,0)" xlink:href="#m"/></g><path fill="#1d262b" d="M160-131c35 5 61 23 61 61C221 17 115-2 30 0v-248c76 3 177-17 177 60 0 33-19 50-47 57zm-97-11c50-1 110 9 110-42 0-47-63-36-110-37v79zm0 115c55-2 124 14 124-45 0-56-70-42-124-44v89" id="n"/><use transform="matrix(0.06172839506172839,0,0,0.06172839506172839,0,0)" xlink:href="#n" id="b"/><path fill="#1d262b" d="M205 0l-28-72H64L36 0H1l101-248h38L239 0h-34zm-38-99l-47-123c-12 45-31 82-46 123h93" id="o"/><use transform="matrix(0.06172839506172839,0,0,0.06172839506172839,0,0)" xlink:href="#o" id="c"/><path fill="#1d262b" d="M212-179c-10-28-35-45-73-45-59 0-87 40-87 99 0 60 29 101 89 101 43 0 62-24 78-52l27 14C228-24 195 4 139 4 59 4 22-46 18-125c-6-104 99-153 187-111 19 9 31 26 39 46" id="p"/><use transform="matrix(0.06172839506172839,0,0,0.06172839506172839,0,0)" xlink:href="#p" id="d"/><path fill="#4881b3" d="M558-647c-214-53-428-110-428-376 0-239 192-311 428-323v-130h128v130c251 5 384 114 433 321l-174 33c-27-133-107-212-259-221v426c233 57 464 118 464 407 0 258-203 345-464 360v161H558V-20C281-27 115-149 66-379l170-37c31 161 136 250 322 258v-489zm0-568c-146 8-256 54-256 197 0 156 132 181 256 216v-413zM686-156c160-12 292-63 292-227 0-177-151-205-292-244v471" id="q"/><path fill="#4881b3" d="M677 91c1 136 41 195 171 195h213v139H796c-186-8-294-116-294-303v-351c-3-164-120-222-275-232v-137c155-10 275-69 275-231v-352c6-189 106-303 294-303h265v139H848c-126-3-171 67-171 195v346c-5 158-108 234-231 274 128 36 231 115 231 274V91" id="r"/><path fill="#4881b3" d="M873-819c-18-114-119-146-250-146-163 0-245 50-245 151 0 151 170 148 294 185 182 54 388 94 388 320 0 240-189 325-439 329-245 4-410-69-454-268l159-31c24 133 136 168 295 165 144-2 270-31 270-171 0-164-195-160-331-202-167-52-350-87-350-299 0-218 173-315 413-313 220 2 373 77 412 260" id="s"/><path fill="#4881b3" d="M682 16c-209 0-323-80-324-285v-671H190v-142h170l58-282h120v282h432v142H538v652c2 114 60 155 182 155 106 0 209-16 297-34v137C921-4 806 16 682 16" id="t"/><path fill="#4881b3" d="M1000-272c3 95 12 159 101 161 21 0 41-3 59-7V-6c-44 10-86 16-139 16-141 2-191-84-197-217h-6C748-76 648 20 446 20c-207 0-318-120-318-322 0-266 194-348 454-354l236-4c12-191-40-305-222-305-140 0-220 47-232 172l-188-17c33-204 181-292 423-292 255 0 401 118 401 364v466zm-683-27c0 109 63 184 175 182 166-3 259-96 306-217 24-65 20-120 20-200-232 7-501-28-501 235" id="u"/><path fill="#4881b3" d="M617-1102c355 0 481 238 477 599H322c5 222 84 388 301 388 144 0 244-59 284-166l158 45C1002-72 854 20 623 20c-342 0-490-220-490-568 0-346 151-554 484-554zm291 461c-18-192-90-328-289-328-194 0-287 128-295 328h584" id="v"/><path fill="#4881b3" d="M865-914c-3-187-2-380-2-570h180v1261c0 76 1 155 6 223H877c-8-49-9-116-10-174h-5C801-44 708 26 530 26c-135 0-234-46-297-139s-95-232-95-419c0-377 131-566 392-566 176 0 271 63 335 184zm-286-51c-222 0-255 197-255 427 0 229 31 425 253 425 237 0 286-195 286-441 0-238-52-411-284-411" id="w"/><path fill="#4881b3" d="M334-464v-160h560v160H334" id="x"/><path fill="#4881b3" d="M1018 0H814c-67-224-138-444-200-673C552-442 476-224 407 0H204L21-1082h178c43 310 105 601 126 933 54-225 128-425 193-638h193c63 212 134 415 185 638 22-336 90-622 136-933h176" id="y"/><path fill="#4881b3" d="M615-1102c343 0 484 203 482 560-1 347-147 562-488 562-336 0-475-219-479-562-4-349 156-560 485-560zm-8 989c240 0 301-180 301-429 0-245-55-427-290-427-236 0-299 181-299 427 0 243 61 429 288 429" id="z"/><path fill="#4881b3" d="M839-1102c70 0 148 7 206 17v167c-112-18-268-36-363 15-129 69-208 203-208 395V0H294c-10-367 32-789-52-1082h171c21 75 41 161 48 250h5c67-152 152-270 373-270" id="A"/><path fill="#4881b3" d="M914 0L548-499l-132 98V0H236v-1484h180v927l475-525h211L663-617 1125 0H914" id="B"/><path fill="#4881b3" d="M839-1335c-182-6-269 67-259 253h491v142H580V0H400v-940H138v-142h262c-15-293 132-408 418-402 94 2 200 7 281 21v145c-75-10-177-14-260-17" id="C"/><path fill="#4881b3" d="M736-142h380V0H134v-142h422v-1200H267v-142h469v1342" id="D"/><path fill="#4881b3" d="M726 122c-7 187-108 303-294 303H167V286h213c129-2 172-59 172-195v-347c5-160 106-236 230-276-125-36-230-116-230-272v-346c2-128-45-195-172-195H167v-139h265c187 7 294 114 294 303v352c4 162 120 221 275 231v137c-155 10-275 68-275 232v351" id="E"/><g id="e"><use transform="matrix(0.03146701388888881,0,0,0.03146701388888881,0,0)" xlink:href="#q"/><use transform="matrix(0.03146701388888881,0,0,0.03146701388888881,38.67296006944435,0)" xlink:href="#r"/><use transform="matrix(0.03146701388888881,0,0,0.03146701388888881,77.3459201388887,0)" xlink:href="#s"/><use transform="matrix(0.03146701388888881,0,0,0.03146701388888881,116.01888020833306,0)" xlink:href="#t"/><use transform="matrix(0.03146701388888881,0,0,0.03146701388888881,154.6918402777774,0)" xlink:href="#u"/><use transform="matrix(0.03146701388888881,0,0,0.03146701388888881,193.36480034722175,0)" xlink:href="#t"/><use transform="matrix(0.03146701388888881,0,0,0.03146701388888881,232.0377604166661,0)" xlink:href="#v"/><use transform="matrix(0.03146701388888881,0,0,0.03146701388888881,270.71072048611046,0)" xlink:href="#w"/><use transform="matrix(0.03146701388888881,0,0,0.03146701388888881,309.3836805555548,0)" xlink:href="#x"/><use transform="matrix(0.03146701388888881,0,0,0.03146701388888881,348.05664062499915,0)" xlink:href="#y"/><use transform="matrix(0.03146701388888881,0,0,0.03146701388888881,386.7296006944435,0)" xlink:href="#z"/><use transform="matrix(0.03146701388888881,0,0,0.03146701388888881,425.40256076388783,0)" xlink:href="#A"/><use transform="matrix(0.03146701388888881,0,0,0.03146701388888881,464.0755208333322,0)" xlink:href="#B"/><use transform="matrix(0.03146701388888881,0,0,0.03146701388888881,502.7484809027765,0)" xlink:href="#C"/><use transform="matrix(0.03146701388888881,0,0,0.03146701388888881,541.4214409722209,0)" xlink:href="#D"/><use transform="matrix(0.03146701388888881,0,0,0.03146701388888881,580.0944010416653,0)" xlink:href="#z"/><use transform="matrix(0.03146701388888881,0,0,0.03146701388888881,618.7673611111096,0)" xlink:href="#y"/><use transform="matrix(0.03146701388888881,0,0,0.03146701388888881,657.440321180554,0)" xlink:href="#s"/><use transform="matrix(0.03146701388888881,0,0,0.03146701388888881,696.1132812499983,0)" xlink:href="#E"/></g><path fill="#1d262b" d="M24 0v-261h32V0H24" id="F"/><path fill="#1d262b" d="M100-194c62-1 85 37 85 99 1 63-27 99-86 99S16-35 15-95c0-66 28-99 85-99zM99-20c44 1 53-31 53-75 0-43-8-75-51-75s-53 32-53 75 10 74 51 75" id="G"/><path fill="#1d262b" d="M84 4C-5 8 30-112 23-190h32v120c0 31 7 50 39 49 72-2 45-101 50-169h31l1 190h-30c-1-10 1-25-2-33-11 22-28 36-60 37" id="H"/><path fill="#1d262b" d="M85-194c31 0 48 13 60 33l-1-100h32l1 261h-30c-2-10 0-23-3-31C134-8 116 4 85 4 32 4 16-35 15-94c0-66 23-100 70-100zm9 24c-40 0-46 34-46 75 0 40 6 74 45 74 42 0 51-32 51-76 0-42-9-74-50-73" id="I"/><g id="f"><use transform="matrix(0.056172839506172835,0,0,0.056172839506172835,0,0)" xlink:href="#p"/><use transform="matrix(0.056172839506172835,0,0,0.056172839506172835,14.548765432098763,0)" xlink:href="#F"/><use transform="matrix(0.056172839506172835,0,0,0.056172839506172835,18.986419753086416,0)" xlink:href="#G"/><use transform="matrix(0.056172839506172835,0,0,0.056172839506172835,30.220987654320986,0)" xlink:href="#H"/><use transform="matrix(0.056172839506172835,0,0,0.056172839506172835,41.45555555555555,0)" xlink:href="#I"/></g><path fill="#1d262b" d="M30 0v-248h187v28H63v79h144v27H63v87h162V0H30" id="J"/><path fill="#1d262b" d="M108 0H70L1-190h34L89-25l56-165h34" id="K"/><path fill="#1d262b" d="M117-194c89-4 53 116 60 194h-32v-121c0-31-8-49-39-48C34-167 62-67 57 0H25l-1-190h30c1 10-1 24 2 32 11-22 29-35 61-36" id="L"/><g id="g"><use transform="matrix(0.056172839506172835,0,0,0.056172839506172835,0,0)" xlink:href="#J"/><use transform="matrix(0.056172839506172835,0,0,0.056172839506172835,13.481481481481481,0)" xlink:href="#K"/><use transform="matrix(0.056172839506172835,0,0,0.056172839506172835,23.59259259259259,0)" xlink:href="#l"/><use transform="matrix(0.056172839506172835,0,0,0.056172839506172835,34.82716049382716,0)" xlink:href="#L"/><use transform="matrix(0.056172839506172835,0,0,0.056172839506172835,46.06172839506172,0)" xlink:href="#k"/><use transform="matrix(0.056172839506172835,0,0,0.056172839506172835,51.679012345679006,0)" xlink:href="#j"/></g><g id="h"><use transform="matrix(0.05617283950617283,0,0,0.05617283950617283,0,0)" xlink:href="#p"/><use transform="matrix(0.05617283950617283,0,0,0.05617283950617283,14.548765432098762,0)" xlink:href="#F"/><use transform="matrix(0.05617283950617283,0,0,0.05617283950617283,18.986419753086416,0)" xlink:href="#G"/><use transform="matrix(0.05617283950617283,0,0,0.05617283950617283,30.220987654320982,0)" xlink:href="#H"/><use transform="matrix(0.05617283950617283,0,0,0.05617283950617283,41.45555555555555,0)" xlink:href="#I"/></g><g id="i"><use transform="matrix(0.05617283950617283,0,0,0.05617283950617283,0,0)" xlink:href="#J"/><use transform="matrix(0.05617283950617283,0,0,0.05617283950617283,13.48148148148148,0)" xlink:href="#K"/><use transform="matrix(0.05617283950617283,0,0,0.05617283950617283,23.592592592592588,0)" xlink:href="#l"/><use transform="matrix(0.05617283950617283,0,0,0.05617283950617283,34.82716049382715,0)" xlink:href="#L"/><use transform="matrix(0.05617283950617283,0,0,0.05617283950617283,46.06172839506172,0)" xlink:href="#k"/><use transform="matrix(0.05617283950617283,0,0,0.05617283950617283,51.679012345679006,0)" xlink:href="#j"/></g></defs></g></svg>