<svg xmlns="http://www.w3.org/2000/svg" xmlns:xlink="http://www.w3.org/1999/xlink" xmlns:lucid="lucid" width="608.97" height="400"><g transform="translate(-560 -120)" lucid:page-tab-id="0_0"><path d="M700 282.33c22.1 0 40 17.9 40 40s-17.9 40-40 40h-80c-22.1 0-40-17.9-40-40s17.9-40 40-40z" stroke="#4881b3" stroke-width="3" fill="#f5fbff"/><use xlink:href="#a" transform="matrix(1,0,0,1,585,287.3333333333333) translate(7.46913580246914 39.65277777777778)"/><use xlink:href="#b" transform="matrix(1,0,0,1,585,287.3333333333333) translate(89.81481481481481 39.65277777777778)"/><path d="M700 140c22.1 0 40 17.9 40 40s-17.9 40-40 40h-80c-22.1 0-40-17.9-40-40s17.9-40 40-40z" stroke="#4881b3" stroke-width="3" fill="#f5fbff"/><use xlink:href="#c" transform="matrix(1,0,0,1,585,145) translate(33.64197530864198 39.65277777777778)"/><path d="M700 420c22.1 0 40 17.9 40 40s-17.9 40-40 40h-80c-22.1 0-40-17.9-40-40s17.9-40 40-40z" stroke="#4881b3" stroke-width="3" fill="#f5fbff"/><use xlink:href="#d" transform="matrix(1,0,0,1,585,425) translate(34.25925925925927 39.65277777777778)"/><path d="M960 280c22.1 0 40 17.9 40 40s-17.9 40-40 40h-80c-22.1 0-40-17.9-40-40s17.9-40 40-40z" stroke="#4881b3" stroke-width="3" fill="#f5fbff"/><use xlink:href="#e" transform="matrix(1,0,0,1,845,285) translate(33.0246913580247 39.65277777777777)"/><path d="M654.14 364.83V400" stroke="#224c72" stroke-width="2" stroke-linejoin="round" fill="none"/><path d="M655.14 364.86h-2v-1.03h2z" stroke="#224c72" stroke-width=".05" fill="#224c72"/><path d="M654.14 415.26L649.5 401h9.27z" stroke="#224c72" stroke-width="2" fill="#224c72"/><path d="M742.5 459.98h.04l1.02-.07 1-.1.97-.13.97-.2.95-.2.95-.28.95-.32.95-.35.96-.4.97-.46.98-.5 1-.6 1.02-.63 1.05-.73 1.08-.8 1.13-.94 1.16-1.06 1.23-1.2 1.3-1.38 1.37-1.6 1.47-1.85 1.6-2.2 1.76-2.64 1.94-3.2 2.2-4.04 2.6-5.25 3.25-7.3 4.73-12.03 18.57-51.06 3.24-7.3 2.6-5.25 2.2-4.02 1.94-3.2 1.75-2.65 1.6-2.2 1.46-1.86 1.38-1.6 1.3-1.37 1.22-1.2 1.16-1.06.14-.1" stroke="#224c72" stroke-width="2" stroke-linejoin="round" fill="none"/><path d="M742.55 460.98l-1.1.02.05-.98-.03-1.02 1.04-.02z" stroke="#224c72" stroke-width=".05" fill="#224c72"/><path d="M835.5 321.2l-11.6 9.53-3.38-8.63z" stroke="#224c72" stroke-width="2" fill="#224c72"/><path d="M860 166a6 6 0 0 1 6-6h228a6 6 0 0 1 6 6v94a6 6 0 0 1-6 6H866a6 6 0 0 1-6-6z" stroke="#000" stroke-opacity="0" fill="#fff" fill-opacity="0"/><use xlink:href="#f" transform="matrix(1,0,0,1,865,165) translate(-59.028320312499574 65.1495225694444)"/><path d="M742.5 180.02h.04l1.02.07 1 .1.97.14.97.18.95.22.95.27.95.32.95.35.96.4.97.46.98.5 1 .6 1.02.63 1.05.73 1.08.8 1.13.94 1.16 1.06 1.23 1.2 1.3 1.38 1.37 1.6 1.47 1.86 1.6 2.2 1.76 2.63 1.94 3.2 2.2 4.04 2.6 5.25 3.25 7.3 4.73 12.03 18.57 51.07 3.24 7.3 2.6 5.24 2.2 4.02 1.94 3.2 1.75 2.65 1.6 2.2 1.46 1.86 1.38 1.6 1.3 1.37 1.22 1.2 1.16 1.06.14.1" stroke="#224c72" stroke-width="2" stroke-linejoin="round" fill="none"/><path d="M742.55 179.02l-.04 2-1.06-.02.06-.98-.03-1.02z" stroke="#224c72" stroke-width=".05" fill="#224c72"/><path d="M835.5 318.8l-14.98-.9 3.4-8.63z" stroke="#224c72" stroke-width="2" fill="#224c72"/><path d="M660 279.83V240" stroke="#224c72" stroke-width="2" stroke-linejoin="round" fill="none"/><path d="M661 280.83h-2v-1.02h2z" stroke="#224c72" stroke-width=".05" fill="#224c72"/><path d="M660 224.74l4.63 14.26h-9.26z" stroke="#224c72" stroke-width="2" fill="#224c72"/><defs><path fill="#1d262b" d="M141-36C126-15 110 5 73 4 37 3 15-17 15-53c-1-64 63-63 125-63 3-35-9-54-41-54-24 1-41 7-42 31l-33-3c5-37 33-52 76-52 45 0 72 20 72 64v82c-1 20 7 32 28 27v20c-31 9-61-2-59-35zM48-53c0 20 12 33 32 33 41-3 63-29 60-74-43 2-92-5-92 41" id="g"/><path fill="#1d262b" d="M33-154v-36h34v36H33zM33 0v-36h34V0H33" id="h"/><path fill="#1d262b" d="M26 75v-336h71v23H56V52h41v23H26" id="i"/><path fill="#1d262b" d="M109-170H84l-4-78h32zm-65 0H19l-4-78h33" id="j"/><path fill="#1d262b" d="M135-143c-3-34-86-38-87 0 15 53 115 12 119 90S17 21 10-45l28-5c4 36 97 45 98 0-10-56-113-15-118-90-4-57 82-63 122-42 12 7 21 19 24 35" id="k"/><path fill="#1d262b" d="M59-47c-2 24 18 29 38 22v24C64 9 27 4 27-40v-127H5v-23h24l9-43h21v43h35v23H59v120" id="l"/><path fill="#1d262b" d="M68-38c1 34 0 65-14 84H32c9-13 17-26 17-46H33v-38h35" id="m"/><g id="a"><use transform="matrix(0.06172839506172839,0,0,0.06172839506172839,0,0)" xlink:href="#g"/><use transform="matrix(0.06172839506172839,0,0,0.06172839506172839,12.345679012345679,0)" xlink:href="#h"/><use transform="matrix(0.06172839506172839,0,0,0.06172839506172839,18.51851851851852,0)" xlink:href="#i"/><use transform="matrix(0.06172839506172839,0,0,0.06172839506172839,24.691358024691358,0)" xlink:href="#j"/><use transform="matrix(0.06172839506172839,0,0,0.06172839506172839,32.53086419753086,0)" xlink:href="#k"/><use transform="matrix(0.06172839506172839,0,0,0.06172839506172839,43.641975308641975,0)" xlink:href="#l"/><use transform="matrix(0.06172839506172839,0,0,0.06172839506172839,49.81481481481482,0)" xlink:href="#g"/><use transform="matrix(0.06172839506172839,0,0,0.06172839506172839,62.160493827160494,0)" xlink:href="#j"/><use transform="matrix(0.06172839506172839,0,0,0.06172839506172839,70,0)" xlink:href="#m"/></g><path fill="#1d262b" d="M100-194c63 0 86 42 84 106H49c0 40 14 67 53 68 26 1 43-12 49-29l28 8c-11 28-37 45-77 45C44 4 14-33 15-96c1-61 26-98 85-98zm52 81c6-60-76-77-97-28-3 7-6 17-6 28h103" id="n"/><path fill="#1d262b" d="M85-194c31 0 48 13 60 33l-1-100h32l1 261h-30c-2-10 0-23-3-31C134-8 116 4 85 4 32 4 16-35 15-94c0-66 23-100 70-100zm9 24c-40 0-46 34-46 75 0 40 6 74 45 74 42 0 51-32 51-76 0-42-9-74-50-73" id="o"/><path fill="#1d262b" d="M3 75V52h41v-290H3v-23h71V75H3" id="p"/><g id="b"><use transform="matrix(0.06172839506172839,0,0,0.06172839506172839,0,0)" xlink:href="#j"/><use transform="matrix(0.06172839506172839,0,0,0.06172839506172839,7.8395061728395055,0)" xlink:href="#l"/><use transform="matrix(0.06172839506172839,0,0,0.06172839506172839,14.012345679012345,0)" xlink:href="#n"/><use transform="matrix(0.06172839506172839,0,0,0.06172839506172839,26.358024691358025,0)" xlink:href="#o"/><use transform="matrix(0.06172839506172839,0,0,0.06172839506172839,38.7037037037037,0)" xlink:href="#j"/><use transform="matrix(0.06172839506172839,0,0,0.06172839506172839,46.54320987654321,0)" xlink:href="#p"/></g><path fill="#1d262b" d="M115-194c53 0 69 39 70 98 0 66-23 100-70 100C84 3 66-7 56-30L54 0H23l1-261h32v101c10-23 28-34 59-34zm-8 174c40 0 45-34 45-75 0-40-5-75-45-74-42 0-51 32-51 76 0 43 10 73 51 73" id="q"/><path fill="#1d262b" d="M194-70c0 46-34 64-81 66v29H91V-4C42-5 12-27 4-67l30-6c5 28 25 41 57 43v-87c-38-9-76-20-76-67 1-42 33-58 76-59v-23h22v23c45 0 67 20 76 56l-31 6c-5-23-18-35-45-37v78c41 10 81 20 81 70zm-81 41c51 7 71-66 19-77-6-2-12-4-19-6v83zM91-219c-47-6-63 57-18 69 6 2 12 3 18 5v-74" id="r"/><path fill="#1d262b" d="M39-94c74 12-11 154 75 146v23c-44 4-70-10-70-52C44-23 55-84 6-82v-22c81 4-7-162 84-157h24v23c-82-15-2 131-75 144" id="s"/><path fill="#1d262b" d="M101-251c68 0 85 55 85 127S166 4 100 4C33 4 14-52 14-124c0-73 17-127 87-127zm-1 229c47 0 54-49 54-102s-4-102-53-102c-51 0-55 48-55 102 0 53 5 102 54 102" id="t"/><path fill="#1d262b" d="M76-40C78 24 84 88 6 75V52C86 64 9-79 80-94c-40-6-34-59-34-106 1-29-11-41-40-38v-23c44-4 70 10 70 52 0 47-12 108 38 105v22c-26 1-39 14-38 42" id="u"/><g id="c"><use transform="matrix(0.06172839506172839,0,0,0.06172839506172839,0,0)" xlink:href="#q"/><use transform="matrix(0.06172839506172839,0,0,0.06172839506172839,12.345679012345679,0)" xlink:href="#h"/><use transform="matrix(0.06172839506172839,0,0,0.06172839506172839,18.51851851851852,0)" xlink:href="#r"/><use transform="matrix(0.06172839506172839,0,0,0.06172839506172839,30.864197530864196,0)" xlink:href="#s"/><use transform="matrix(0.06172839506172839,0,0,0.06172839506172839,38.2716049382716,0)" xlink:href="#g"/><use transform="matrix(0.06172839506172839,0,0,0.06172839506172839,50.61728395061728,0)" xlink:href="#i"/><use transform="matrix(0.06172839506172839,0,0,0.06172839506172839,56.79012345679012,0)" xlink:href="#t"/><use transform="matrix(0.06172839506172839,0,0,0.06172839506172839,69.1358024691358,0)" xlink:href="#p"/><use transform="matrix(0.06172839506172839,0,0,0.06172839506172839,75.30864197530863,0)" xlink:href="#u"/></g><path fill="#1d262b" d="M96-169c-40 0-48 33-48 73s9 75 48 75c24 0 41-14 43-38l32 2c-6 37-31 61-74 61-59 0-76-41-82-99-10-93 101-131 147-64 4 7 5 14 7 22l-32 3c-4-21-16-35-41-35" id="v"/><path fill="#1d262b" d="M27 0v-27h64v-190l-56 39v-29l58-41h29v221h61V0H27" id="w"/><g id="d"><use transform="matrix(0.06172839506172839,0,0,0.06172839506172839,0,0)" xlink:href="#v"/><use transform="matrix(0.06172839506172839,0,0,0.06172839506172839,11.11111111111111,0)" xlink:href="#h"/><use transform="matrix(0.06172839506172839,0,0,0.06172839506172839,17.28395061728395,0)" xlink:href="#r"/><use transform="matrix(0.06172839506172839,0,0,0.06172839506172839,29.629629629629626,0)" xlink:href="#s"/><use transform="matrix(0.06172839506172839,0,0,0.06172839506172839,37.03703703703703,0)" xlink:href="#g"/><use transform="matrix(0.06172839506172839,0,0,0.06172839506172839,49.38271604938271,0)" xlink:href="#i"/><use transform="matrix(0.06172839506172839,0,0,0.06172839506172839,55.55555555555555,0)" xlink:href="#w"/><use transform="matrix(0.06172839506172839,0,0,0.06172839506172839,67.90123456790123,0)" xlink:href="#p"/><use transform="matrix(0.06172839506172839,0,0,0.06172839506172839,74.07407407407406,0)" xlink:href="#u"/></g><path fill="#1d262b" d="M234-2c-28 10-62 0-77-18C117 19 8 12 13-65c3-43 29-61 60-76-25-40-17-114 47-108 35 3 59 15 59 50 0 44-40 53-71 69 14 26 32 50 51 72 14-21 24-43 30-72l26 8c-9 33-21 57-38 82 13 13 33 22 57 15v23zM97-151c25-10 52-18 56-48-1-18-13-29-33-29-42 0-39 50-23 77zM42-66c-3 51 71 58 98 28-20-24-41-51-56-80-23 10-40 24-42 52" id="x"/><g id="e"><use transform="matrix(0.061728395061728385,0,0,0.061728395061728385,0,0)" xlink:href="#o"/><use transform="matrix(0.061728395061728385,0,0,0.061728395061728385,12.345679012345677,0)" xlink:href="#h"/><use transform="matrix(0.061728395061728385,0,0,0.061728395061728385,18.518518518518515,0)" xlink:href="#r"/><use transform="matrix(0.061728395061728385,0,0,0.061728395061728385,30.864197530864192,0)" xlink:href="#s"/><use transform="matrix(0.061728395061728385,0,0,0.061728395061728385,38.2716049382716,0)" xlink:href="#q"/><use transform="matrix(0.061728395061728385,0,0,0.061728395061728385,50.61728395061728,0)" xlink:href="#x"/><use transform="matrix(0.061728395061728385,0,0,0.061728395061728385,65.43209876543209,0)" xlink:href="#v"/><use transform="matrix(0.061728395061728385,0,0,0.061728395061728385,76.5432098765432,0)" xlink:href="#u"/></g><path fill="#1d262b" d="M558-647c-214-53-428-110-428-376 0-239 192-311 428-323v-130h128v130c251 5 384 114 433 321l-174 33c-27-133-107-212-259-221v426c233 57 464 118 464 407 0 258-203 345-464 360v161H558V-20C281-27 115-149 66-379l170-37c31 161 136 250 322 258v-489zm0-568c-146 8-256 54-256 197 0 156 132 181 256 216v-413zM686-156c160-12 292-63 292-227 0-177-151-205-292-244v471" id="y"/><path fill="#1d262b" d="M677 91c1 136 41 195 171 195h213v139H796c-186-8-294-116-294-303v-351c-3-164-120-222-275-232v-137c155-10 275-69 275-231v-352c6-189 106-303 294-303h265v139H848c-126-3-171 67-171 195v346c-5 158-108 234-231 274 128 36 231 115 231 274V91" id="z"/><path fill="#1d262b" d="M873-819c-18-114-119-146-250-146-163 0-245 50-245 151 0 151 170 148 294 185 182 54 388 94 388 320 0 240-189 325-439 329-245 4-410-69-454-268l159-31c24 133 136 168 295 165 144-2 270-31 270-171 0-164-195-160-331-202-167-52-350-87-350-299 0-218 173-315 413-313 220 2 373 77 412 260" id="A"/><path fill="#1d262b" d="M682 16c-209 0-323-80-324-285v-671H190v-142h170l58-282h120v282h432v142H538v652c2 114 60 155 182 155 106 0 209-16 297-34v137C921-4 806 16 682 16" id="B"/><path fill="#1d262b" d="M1000-272c3 95 12 159 101 161 21 0 41-3 59-7V-6c-44 10-86 16-139 16-141 2-191-84-197-217h-6C748-76 648 20 446 20c-207 0-318-120-318-322 0-266 194-348 454-354l236-4c12-191-40-305-222-305-140 0-220 47-232 172l-188-17c33-204 181-292 423-292 255 0 401 118 401 364v466zm-683-27c0 109 63 184 175 182 166-3 259-96 306-217 24-65 20-120 20-200-232 7-501-28-501 235" id="C"/><path fill="#1d262b" d="M617-1102c355 0 481 238 477 599H322c5 222 84 388 301 388 144 0 244-59 284-166l158 45C1002-72 854 20 623 20c-342 0-490-220-490-568 0-346 151-554 484-554zm291 461c-18-192-90-328-289-328-194 0-287 128-295 328h584" id="D"/><path fill="#1d262b" d="M865-914c-3-187-2-380-2-570h180v1261c0 76 1 155 6 223H877c-8-49-9-116-10-174h-5C801-44 708 26 530 26c-135 0-234-46-297-139s-95-232-95-419c0-377 131-566 392-566 176 0 271 63 335 184zm-286-51c-222 0-255 197-255 427 0 229 31 425 253 425 237 0 286-195 286-441 0-238-52-411-284-411" id="E"/><path fill="#1d262b" d="M726 122c-7 187-108 303-294 303H167V286h213c129-2 172-59 172-195v-347c5-160 106-236 230-276-125-36-230-116-230-272v-346c2-128-45-195-172-195H167v-139h265c187 7 294 114 294 303v352c4 162 120 221 275 231v137c-155 10-275 68-275 232v351" id="F"/><g id="f"><use transform="matrix(0.03146701388888881,0,0,0.03146701388888881,0,0)" xlink:href="#y"/><use transform="matrix(0.03146701388888881,0,0,0.03146701388888881,38.67296006944435,0)" xlink:href="#z"/><use transform="matrix(0.03146701388888881,0,0,0.03146701388888881,77.3459201388887,0)" xlink:href="#A"/><use transform="matrix(0.03146701388888881,0,0,0.03146701388888881,116.01888020833306,0)" xlink:href="#B"/><use transform="matrix(0.03146701388888881,0,0,0.03146701388888881,154.6918402777774,0)" xlink:href="#C"/><use transform="matrix(0.03146701388888881,0,0,0.03146701388888881,193.36480034722175,0)" xlink:href="#B"/><use transform="matrix(0.03146701388888881,0,0,0.03146701388888881,232.0377604166661,0)" xlink:href="#D"/><use transform="matrix(0.03146701388888881,0,0,0.03146701388888881,270.71072048611046,0)" xlink:href="#E"/><use transform="matrix(0.03146701388888881,0,0,0.03146701388888881,309.3836805555548,0)" xlink:href="#F"/></g></defs></g></svg>