<svg xmlns="http://www.w3.org/2000/svg" xmlns:xlink="http://www.w3.org/1999/xlink" xmlns:lucid="lucid" width="1920.43" height="688.94"><g transform="translate(697.5498884912322 -389)" lucid:page-tab-id="psbGqmE.dBSt"><path d="M-1000 0h2500v1500h-2500z" fill="#fff"/><path d="M-32.58 744.02l-.08 1-.23 1-.38.93-.54.87-.66.78-.78.66-.87.53-.94.38-1 .24-1 .08h-62.5v-1h62.47l.88-.07.84-.2.8-.33.73-.45.66-.56.57-.67.45-.73.33-.8.2-.84.07-.88v-46.13h1zM19.54 630.5h-46.6l-.88.07-.84.2-.8.33-.73.45-.66.56-.56.67-.46.73-.33.8-.2.84-.08.88v5.83h-1v-5.87l.08-1 .24-1 .4-.93.52-.87.67-.78.77-.66.87-.53.94-.38 1-.24 1-.08h46.64z" stroke="#3a414a" stroke-width=".05" fill="#3a414a"/><path d="M-101.56 750.5h-.55l.02-.5v-.5h.52z" fill="#3a414a"/><path d="M-101.54 750.52h-.6l.04-.5-.02-.54h.58zm-.53-1l.02.5-.03.46h.5v-.96z" stroke="#3a414a" stroke-width=".05" fill="#3a414a"/><path d="M34.3 630l-14.26 4.63v-9.26z" fill="#fff"/><path d="M35.92 630l-16.38 5.32v-10.64zm-15.38 3.95L32.7 630l-12.16-3.95z" stroke="#3a414a" stroke-width=".05" fill="#3a414a"/><use xlink:href="#a" transform="matrix(1,0,0,1,-46.03948148121988,641.8464343833887) translate(0 37.333333333333314)"/><path d="M257.42 624.02l-.07 1-.24 1-.38.93-.54.87-.66.78-.78.66-.87.53-.94.38-1 .24-1 .08h-52.5v-1h52.47l.88-.07.84-.2.8-.33.74-.45.65-.56.57-.67.45-.73.33-.8.2-.84.07-.88V618h1zm42.12-73.52h-36.6l-.88.07-.84.2-.8.33-.73.45-.66.56-.56.67-.46.73-.33.8-.2.84-.08.88V562h-1v-6.02l.08-1 .24-1 .4-.93.52-.87.67-.78.77-.66.87-.53.94-.38 1-.24 1-.08h36.64z" stroke="#3a414a" stroke-width=".05" fill="#3a414a"/><path d="M198.44 630.5h-.55l.03-.5-.02-.5h.54z" fill="#3a414a"/><path d="M198.46 630.52h-.6l.04-.5-.02-.54h.58zm-.53-1l.02.5-.03.46h.5v-.96z" stroke="#3a414a" stroke-width=".05" fill="#3a414a"/><path d="M314.3 550l-14.26 4.63v-9.26z" fill="#fff"/><path d="M315.92 550l-16.38 5.32v-10.64zm-15.38 3.95L312.7 550l-12.16-3.95z" stroke="#3a414a" stroke-width=".05" fill="#3a414a"/><use xlink:href="#b" transform="matrix(1,0,0,1,243.9605185187801,562) translate(0 37.333333333333314)"/><path d="M300.04 709.5v1h-28.67v-1zm-47.85-79.92l.98.24.94.4.88.52.77.66.66.78.54.87.4.94.23.98.07 1v26.46h-1v-26.42l-.07-.88-.2-.84-.33-.8-.45-.73-.56-.66-.65-.55-.73-.45-.8-.33-.84-.2-.88-.07h-52.73v-1h52.77z" stroke="#3a414a" stroke-width=".05" fill="#3a414a"/><path d="M198.44 630.5h-.55l.03-.5-.02-.5h.54z" fill="#3a414a"/><path d="M198.46 630.52h-.6l.04-.5-.02-.54h.58zm-.53-1l.02.5-.03.46h.5v-.96z" stroke="#3a414a" stroke-width=".05" fill="#3a414a"/><path d="M314.8 710l-14.26 4.63v-9.26z" fill="#fff"/><path d="M316.42 710l-16.38 5.32v-10.64zm-15.38 3.95L313.2 710l-12.16-3.95z" stroke="#3a414a" stroke-width=".05" fill="#3a414a"/><use xlink:href="#c" transform="matrix(1,0,0,1,242.9791929672207,662.4403900637942) translate(0 37.333333333333314)"/><path d="M-32.58 903.98l.07.88.2.84.32.8.46.73.55.66.66.55.73.45.8.33.83.2.88.07h46.6v1H-27.1l-1-.08-1-.24-.93-.4-.87-.52-.77-.66-.67-.78-.53-.87-.4-.94-.23-.98-.08-1v-2.66h1zm-5.48-154.4l1 .24.94.4.86.52.78.66.66.78.54.87.4.94.23.98.07 1v89.38h-1v-89.34l-.07-.88-.2-.84-.33-.8-.45-.73-.56-.66-.64-.55-.74-.45-.8-.33-.84-.2-.88-.07h-62.48v-1h62.52z" stroke="#3a414a" stroke-width=".05" fill="#3a414a"/><path d="M-101.56 750.5h-.55l.02-.5v-.5h.52z" fill="#3a414a"/><path d="M-101.54 750.52h-.6l.04-.5-.02-.54h.58zm-.53-1l.02.5-.03.46h.5v-.96z" stroke="#3a414a" stroke-width=".05" fill="#3a414a"/><path d="M34.3 910l-14.26 4.63v-9.26z" fill="#fff"/><path d="M35.92 910l-16.38 5.32v-10.64zm-15.38 3.95L32.7 910l-12.16-3.95z" stroke="#3a414a" stroke-width=".05" fill="#3a414a"/><use xlink:href="#d" transform="matrix(1,0,0,1,-47.27096296270136,845.3571174084498) translate(0 37.333333333333314)"/><path d="M277.05 904.02l-.08 1-.24 1-.4.93-.52.87-.65.78-.78.66-.87.53-.94.38-1 .24-1 .08h-52.9v-1h52.87l.88-.07.85-.2.8-.33.73-.45.66-.56.56-.67.45-.73.33-.8.2-.84.07-.88V898h1zm42.5-73.52h-36.98l-.88.07-.85.2-.8.33-.73.45-.66.56-.56.67-.45.73-.33.8-.2.84-.07.88V842h-1v-6.02l.08-1 .24-1 .38-.93.54-.87.65-.78.78-.66.87-.53.94-.38 1-.24 1-.08h37z" stroke="#3a414a" stroke-width=".05" fill="#3a414a"/><path d="M217.7 910.5h-.53v-1h.52z" stroke="#3a414a" stroke-width=".05" fill="#3a414a"/><path d="M334.3 830l-14.26 4.63v-9.26z" fill="#fff"/><path d="M335.92 830l-16.38 5.32v-10.64zm-15.38 3.95L332.7 830l-12.16-3.95z" stroke="#3a414a" stroke-width=".05" fill="#3a414a"/><use xlink:href="#e" transform="matrix(1,0,0,1,263.585284623897,842) translate(0 37.333333333333314)"/><path d="M277.05 983.98l.07.88.2.84.33.8.45.73.56.66.66.55.73.45.8.33.84.2.87.07h36.97v1h-37l-1-.08-1-.24-.94-.4-.87-.52-.78-.66-.66-.78-.55-.87-.38-.94-.24-.98-.08-1V978h1zm-5.5-74.4l1 .24.95.4.87.52.78.66.66.78.54.87.4.94.23.98.08 1V922h-1v-5.98l-.07-.88-.2-.84-.33-.8-.45-.73-.56-.66-.66-.55-.74-.45-.8-.33-.83-.2-.87-.07h-52.86v-1h52.9z" stroke="#3a414a" stroke-width=".05" fill="#3a414a"/><path d="M217.7 910.5h-.53v-1h.52z" stroke="#3a414a" stroke-width=".05" fill="#3a414a"/><path d="M334.3 990l-14.26 4.63v-9.26z" fill="#fff"/><path d="M335.92 990l-16.38 5.32v-10.64zm-15.38 3.95L332.7 990l-12.16-3.95z" stroke="#3a414a" stroke-width=".05" fill="#3a414a"/><use xlink:href="#f" transform="matrix(1,0,0,1,268.835284623897,922) translate(0 37.333333333333314)"/><path d="M532.73 550.5h-54.3v-1h54.3zm66.8 0h-38.4v-1h38.4z" stroke="#3a414a" stroke-width=".05" fill="#3a414a"/><path d="M478.44 550.5h-.55l.03-.5-.02-.5h.54z" fill="#3a414a"/><path d="M478.46 550.52h-.6l.04-.5-.02-.54h.58zm-.53-1l.02.5-.03.46h.5v-.96z" stroke="#3a414a" stroke-width=".05" fill="#3a414a"/><path d="M614.3 550l-14.26 4.63v-9.26z" fill="#fff"/><path d="M615.92 550l-16.38 5.32v-10.64zm-15.38 3.95L612.7 550l-12.16-3.95z" stroke="#3a414a" stroke-width=".05" fill="#3a414a"/><use xlink:href="#g" transform="matrix(1,0,0,1,532.7290370372987,522) translate(0 37.333333333333314)"/><path d="M822.73 450.5h-17.8l-.87.07-.83.2-.8.33-.74.45-.66.56-.56.67-.46.73-.32.8-.2.84-.08.88v88l-.07 1-.24 1-.38.93-.54.87-.66.78-.77.66-.87.53-.95.38-1 .24-1 .08h-14.5v-1h14.47l.88-.07.84-.2.8-.33.74-.45.65-.56.57-.67.45-.73.33-.8.2-.84.07-.88v-88l.08-1 .24-1 .4-.93.52-.87.67-.78.77-.66.87-.53.94-.38 1-.24 1-.08h17.83zm156.8 0h-128.4v-1h128.4z" stroke="#3a414a" stroke-width=".05" fill="#3a414a"/><path d="M778.44 550.5h-.55l.02-.5v-.5h.52z" fill="#3a414a"/><path d="M778.46 550.52h-.6l.04-.5-.02-.54h.58zm-.53-1l.02.5-.03.46h.5v-.96z" stroke="#3a414a" stroke-width=".05" fill="#3a414a"/><path d="M994.3 450l-14.26 4.63v-9.26z" fill="#fff"/><path d="M995.92 450l-16.38 5.32v-10.64zm-15.38 3.95L992.7 450l-12.16-3.95z" stroke="#3a414a" stroke-width=".05" fill="#3a414a"/><use xlink:href="#h" transform="matrix(1,0,0,1,822.7290370372987,422) translate(0 37.333333333333314)"/><path d="M798.96 643.98l.06.88.2.84.34.8.45.73.57.66.65.55.74.45.8.33.84.2.88.07h36.23v1h-36.26l-1-.08-1-.24-.94-.4-.87-.52-.77-.66-.66-.78-.54-.87-.4-.94-.23-.98-.07-1V550.5h1zm180.58 5.52v1H853.67v-1zM798.96 550.5h-1v-.5h1z" stroke="#3a414a" stroke-width=".05" fill="#3a414a"/><path d="M994.3 650l-14.26 4.63v-9.26z" fill="#fff"/><path d="M995.92 650l-16.38 5.32v-10.64zm-15.38 3.95L992.7 650l-12.16-3.95z" stroke="#3a414a" stroke-width=".05" fill="#3a414a"/><use xlink:href="#i" transform="matrix(1,0,0,1,840.7077699066933,622) translate(0 37.333333333333314)"/><path d="M-143.08 710c22.1 0 40 17.9 40 40s-17.9 40-40 40h-80c-22.1 0-40-17.9-40-40s17.9-40 40-40z" stroke="#3a414a" stroke-width="2" fill="#fff"/><use xlink:href="#j" transform="matrix(1,0,0,1,-258.07651851825693,715) translate(70.37037037037037 41.97916666666666)"/><path d="M156.92 590c22.1 0 40 17.9 40 40s-17.9 40-40 40h-80c-22.1 0-40-17.9-40-40s17.9-40 40-40z" stroke="#3a414a" stroke-width="2" fill="#fff"/><use xlink:href="#k" transform="matrix(1,0,0,1,41.92348148174307,595) translate(61.111111111111114 41.97916666666666)"/><path d="M156.92 870c22.1 0 40 17.9 40 40s-17.9 40-40 40h-80c-22.1 0-40-17.9-40-40s17.9-40 40-40z" stroke="#3a414a" stroke-width="2" fill="#fff"/><use xlink:href="#l" transform="matrix(1,0,0,1,41.92348148174307,875) translate(60.23148148148149 41.97916666666666)"/><path d="M436.92 670c22.1 0 40 17.9 40 40s-17.9 40-40 40h-80c-22.1 0-40-17.9-40-40s17.9-40 40-40z" stroke="#3a414a" stroke-width="2" fill="#fff"/><use xlink:href="#m" transform="matrix(1,0,0,1,321.92348148174307,675) translate(46.3425925925926 41.97916666666666)"/><path d="M456.92 950c22.1 0 40 17.9 40 40s-17.9 40-40 40h-80c-22.1 0-40-17.9-40-40s17.9-40 40-40z" stroke="#3a414a" stroke-width="2" fill="#fc9432"/><use xlink:href="#n" transform="matrix(1,0,0,1,341.92348148174307,955) translate(50.0925925925926 41.97916666666666)"/><path d="M335.82 990h-.2.2" stroke="#3a414a" stroke-linejoin="round" fill="none"/><path d="M335.92 990l.02.5h-.53v-1h.55z" stroke="#3a414a" stroke-width=".05" fill="#3a414a"/><path d="M335.92 990l.02.5h-.13v-1h.15z" stroke="#3a414a" stroke-width=".05" fill="#3a414a"/><path d="M436.92 510c22.1 0 40 17.9 40 40s-17.9 40-40 40h-80c-22.1 0-40-17.9-40-40s17.9-40 40-40z" stroke="#3a414a" stroke-width="2" fill="#fff"/><use xlink:href="#o" transform="matrix(1,0,0,1,321.92348148174307,515) translate(47.22222222222223 41.97916666666666)"/><path d="M736.92 510c22.1 0 40 17.9 40 40s-17.9 40-40 40h-80c-22.1 0-40-17.9-40-40s17.9-40 40-40z" stroke="#3a414a" stroke-width="2" fill="#fff"/><use xlink:href="#p" transform="matrix(1,0,0,1,621.923481481743,515) translate(32.45370370370372 41.97916666666666)"/><path d="M1116.92 410c22.1 0 40 17.9 40 40s-17.9 40-40 40h-80c-22.1 0-40-17.9-40-40s17.9-40 40-40z" stroke="#3a414a" stroke-width="2" fill="#fff"/><use xlink:href="#q" transform="matrix(1,0,0,1,1001.923481481743,415) translate(17.685185185185205 41.97916666666666)"/><path d="M1116.92 610c22.1 0 40 17.9 40 40s-17.9 40-40 40h-80c-22.1 0-40-17.9-40-40s17.9-40 40-40z" stroke="#3a414a" stroke-width="2" fill="#fc9432"/><use xlink:href="#r" transform="matrix(1,0,0,1,1001.923481481743,615) translate(23.194444444444464 41.97916666666666)"/><path d="M456.92 790c22.1 0 40 17.9 40 40s-17.9 40-40 40h-80c-22.1 0-40-17.9-40-40s17.9-40 40-40z" stroke="#3a414a" stroke-width="2" fill="#fc9432"/><use xlink:href="#s" transform="matrix(1,0,0,1,341.92348148174307,795) translate(46.3425925925926 41.97916666666666)"/><path d="M836.92 790c22.1 0 40 17.9 40 40s-17.9 40-40 40h-80c-22.1 0-40-17.9-40-40s17.9-40 40-40z" stroke="#3a414a" stroke-width="2" fill="#fcfcca"/><use xlink:href="#t" transform="matrix(1,0,0,1,721.923481481743,795) translate(37.08333333333335 41.97916666666666)"/><path d="M633.93 830.5h-135.5v-1h135.5zm65.6 0H646.9v-1h52.64z" stroke="#3a414a" stroke-width=".05" fill="#3a414a"/><path d="M498.44 830.5h-.55l.03-.5-.02-.5h.54z" fill="#3a414a"/><path d="M498.46 830.52h-.6l.04-.5-.02-.54h.58zm-.53-1l.02.5-.03.46h.5v-.96z" stroke="#3a414a" stroke-width=".05" fill="#3a414a"/><path d="M714.3 830l-14.26 4.63v-9.26z" fill="#fff"/><path d="M715.92 830l-16.38 5.32v-10.64zm-15.38 3.95L712.7 830l-12.16-3.95z" stroke="#3a414a" stroke-width=".05" fill="#3a414a"/><use xlink:href="#i" transform="matrix(1,0,0,1,633.9274369032463,802) translate(0 37.333333333333314)"/><path d="M698.57 604.3l-.26 6.27-1.07 12.86-1.6 12.65-2.1 12.37L691 660.5l-3 11.68-3.4 11.26-3.76 10.83-4.1 10.37-4.4 9.9-4.68 9.4-4.9 8.92-5.1 8.44-5.3 7.97-5.46 7.5-5.6 7.06-5.7 6.63-5.84 6.2-5.93 5.82-6.02 5.43-6.13 5.08-6.2 4.7-6.3 4.4-6.4 4.04-6.47 3.75-6.58 3.44-6.68 3.15-6.8 2.86-6.9 2.58-7.06 2.3-7.2 2-7.35 1.72-7.52 1.44-7.72 1.14-7.93.83-8.17.53-6.4.13-.07-4 6.3-.13 8-.5 7.76-.82 7.56-1.1 7.36-1.4 7.2-1.7 7.02-1.96 6.9-2.24 6.75-2.5 6.64-2.8 6.52-3.08 6.43-3.36 6.33-3.66 6.25-3.96 6.16-4.28 6.07-4.62 6-4.96 5.9-5.3 5.8-5.7 5.73-6.1 5.6-6.5 5.5-6.93 5.35-7.37 5.2-7.83 5.02-8.3 4.83-8.77 4.6-9.25 4.32-9.74 4.05-10.22 3.7-10.67 3.36-11.1 2.96-11.5 2.5-11.9 2.08-12.2 1.57-12.5 1.07-12.7.26-6.16z" stroke="#e81313" stroke-width=".05" fill="#e81313"/><path d="M500.02 831.96l-2.22.04.13-2-.08-2 2.1-.04z" fill="#e81313"/><path d="M500.05 831.98l-2.28.05.13-2.02-.07-2.02 2.13-.05zm-2.17-3.95l.07 1.98-.12 1.98 2.17-.05-.1-3.95z" stroke="#e81313" stroke-width=".05" fill="#e81313"/><path d="M704.08 608.05l-15.26-.43 8-12.7z" fill="#e81313"/><path d="M707.53 610.15l-22.28-.63L696.92 591zm-15.15-4.43l8.25.23-3.93-7.1z" stroke="#e81313" stroke-width=".05" fill="#e81313"/><path d="M1159.93 649.96l1.9-.12 1.86-.2 1.8-.27 1.8-.34 1.75-.4 1.72-.5 1.7-.54 1.7-.64 1.66-.7 1.66-.78 1.64-.87 1.65-.94 1.65-1.05 1.66-1.15 1.68-1.26 1.67-1.4 1.7-1.52 1.7-1.68 1.73-1.83 1.74-2.02 1.76-2.23 1.78-2.45 1.8-2.7 1.8-3 1.82-3.3 1.82-3.66 1.8-4.02 1.76-4.46 1.7-4.92 1.63-5.4 1.5-5.87 1.35-6.38 1.16-6.84.92-7.24.64-7.57.32-7.8v-7.83l-.32-7.78-.64-7.58-.9-7.25-1.17-6.84-1.35-6.37-1.5-5.88-1.64-5.4-1.7-4.9-1.77-4.47-1.8-4.02-1.82-3.66-1.82-3.3-1.8-3-1.8-2.7-1.78-2.45-1.76-2.22-1.75-2.02-1.72-1.84-1.7-1.68-1.7-1.52-1.68-1.4-1.67-1.26-1.65-1.15-1.66-1.06-1.66-.95-1.66-.88-1.66-.78-1.67-.7-1.68-.63-1.5-.48" stroke="#e81313" stroke-width="4" stroke-linejoin="round" fill="none"/><path d="M1160.02 651.96l-2.22.04.13-2-.08-2 2.1-.04z" stroke="#e81313" stroke-width=".05" fill="#e81313"/><path d="M1161.8 450.65l14-5.4-2.54 15.07z" stroke="#e81313" stroke-width="4" fill="#e81313"/><path d="M798.27 884.37l-.06.73-.62 4.98-.8 4.68-.93 4.42-1.07 4.18-1.2 3.98-1.33 3.8-1.44 3.65-1.55 3.5-1.7 3.4-1.8 3.28-1.92 3.2-2.07 3.1-2.2 3.04-2.37 2.98-2.54 2.93-2.7 2.88-2.92 2.86-3.14 2.83-3.4 2.8-3.66 2.77-4 2.78-4.36 2.77-4.8 2.77-5.3 2.75-5.9 2.77-6.6 2.77-7.44 2.76-8.5 2.76-9.83 2.74-11.5 2.7-13.78 2.62-16.92 2.48-21.67 2.26-30.15 1.85-108.14.82-.03-4 108.04-.83 29.96-1.84 21.5-2.24 16.75-2.47 13.6-2.6 11.36-2.64 9.68-2.7 8.35-2.72 7.3-2.7 6.44-2.7 5.74-2.7 5.16-2.7 4.65-2.68 4.23-2.68 3.86-2.68 3.53-2.7 3.26-2.68 3-2.7 2.8-2.75 2.6-2.75 2.4-2.8 2.26-2.85 2.1-2.9 2-2.98 1.83-3.04 1.72-3.14 1.6-3.24 1.5-3.36 1.38-3.5 1.27-3.63 1.15-3.8 1.04-4.04.9-4.25.76-4.5.6-4.82.06-.64z" stroke="#e81313" stroke-width=".05" fill="#e81313"/><path d="M500 992h-2.2l.13-2-.08-2h2.1z" fill="#e81313"/><path d="M500.02 992l-2.25.03.13-2.02-.07-2.02 2.16-.02zm-2.14-3.98l.07 2-.12 1.96 2.14-.02-.03-3.95z" stroke="#e81313" stroke-width=".05" fill="#e81313"/><path d="M803.6 888.24l-15.25-.86 8.35-12.46z" fill="#e81313"/><path d="M807 890.44l-22.26-1.26L796.92 871zm-15.03-4.86l8.24.47-3.72-7.2z" stroke="#e81313" stroke-width=".05" fill="#e81313"/><path d="M-677.05 432.5a6 6 0 0 1 6-6h255.95a6 6 0 0 1 6 6V1004a6 6 0 0 1-6 6h-255.95a6 6 0 0 1-6-6z" stroke="#3a414a" fill="#fff"/><use xlink:href="#u" transform="matrix(1,0,0,1,-665.0498884912322,438.5000000171892) translate(84.96296296296296 17.77777777777778)"/><path d="M-503.08 590c22.1 0 40 17.9 40 40s-17.9 40-40 40h-80c-22.1 0-40-17.9-40-40s17.9-40 40-40z" stroke="#3a414a" stroke-width="2" fill="#fff"/><use xlink:href="#v" transform="matrix(1,0,0,1,-618.076518518257,595) translate(19.592592592592617 41.02083333333333)"/><path d="M-585.78 532h-35.3v-4h35.3zm127.52 0h-24.06v-4h24.06z" stroke="#e81313" stroke-width=".05" fill="#e81313"/><path d="M-621.02 532h-2.06v-4h2.06z" stroke="#e81313" stroke-width=".05" fill="#e81313"/><path d="M-448.96 530l-12.9 7.64v-15.28z" fill="#e81313"/><path d="M-445.03 530l-18.84 11.14v-22.28zm-14.84 4.13l6.98-4.13-6.97-4.13z" stroke="#e81313" stroke-width=".05" fill="#e81313"/><use xlink:href="#w" transform="matrix(1,0,0,1,-585.7817219495184,519.3333333333335) translate(0 14.222222222222223)"/><path d="M-503.08 730c22.1 0 40 17.9 40 40s-17.9 40-40 40h-80c-22.1 0-40-17.9-40-40s17.9-40 40-40z" stroke="#3a414a" stroke-width="2" fill="#fcfcca"/><use xlink:href="#x" transform="matrix(1,0,0,1,-618.076518518257,735) translate(-4.2777777777777 39)"/><path d="M-503.08 870c22.1 0 40 17.9 40 40s-17.9 40-40 40h-80c-22.1 0-40-17.9-40-40s17.9-40 40-40z" stroke="#3a414a" stroke-width="2" fill="#fc9432"/><use xlink:href="#y" transform="matrix(1,0,0,1,-618.076518518257,875) translate(2.3333333333333997 40.062499999999986)"/><use xlink:href="#z" transform="matrix(1,0,0,1,-618.076518518257,875) translate(42.27777777777781 40.062499999999986)"/><path d="M485.95 1025.76l3.16 3.82 3.28 3.62 3.38 3.44 3.5 3.27 3.6 3.1 3.73 2.97 3.86 2.8 4.02 2.67 4.18 2.52 4.35 2.38 4.54 2.24 4.73 2.1 4.95 1.95 5.18 1.8 5.44 1.63 5.7 1.46 6 1.27 6.33 1.05 6.65.83 7.02.58 7.4.3h7.8l8.22-.37 8.63-.75 9.06-1.15 9.48-1.62 9.88-2.12 10.24-2.64 10.55-3.2 10.8-3.78 10.7-4.25v2.14l-10 3.98-10.87 3.8-10.63 3.22-10.32 2.67-9.96 2.14-9.57 1.63-9.14 1.17-8.72.75-8.3.35h-7.88l-7.48-.3-7.1-.58-6.74-.84-6.4-1.08-6.1-1.28-5.78-1.48-5.5-1.67-5.27-1.82-5.03-1.97-4.8-2.13-4.62-2.3-4.42-2.4-4.25-2.57-4.07-2.7-3.94-2.87-3.82-3-3.67-3.16-3.54-3.33-3.43-3.5-3.33-3.68-3.22-3.9-2.5-3.28 1.6-1.22zm344.58-145.72l-.13 2.16-.6 5.76-.85 5.83-1.12 5.9-1.4 6-1.7 6.1-2 6.22-2.36 6.34-2.7 6.47-3.1 6.6-3.52 6.74-3.96 6.88-4.46 7.03-4.96 7.15-5.5 7.27-6.1 7.37-6.67 7.43-7.3 7.48-7.9 7.45-8.55 7.4-9.12 7.24-9.67 7.04-10.14 6.76-10.53 6.4-7.98 4.4v-2.3l6.97-3.84 10.45-6.35 10.07-6.7 9.6-7 9.05-7.2 8.48-7.32 7.86-7.4 7.25-7.4 6.63-7.4 6.03-7.3 5.46-7.2 4.9-7.08 4.4-6.95 3.93-6.8 3.47-6.68 3.06-6.52 2.68-6.4 2.33-6.25 2-6.14 1.66-6.02 1.37-5.9 1.1-5.84.85-5.75.6-5.67.12-2.1z" stroke="#3a414a" stroke-width=".05" fill="#3a414a"/><path d="M483.5 1022.52l-1.6 1.22-.64-.84 1.6-1.18z" fill="#3a414a"/><path d="M483.52 1022.53l-1.63 1.24-.67-.87 1.65-1.22zm-2.22.38l.6.8 1.55-1.18-.58-.77z" stroke="#3a414a" stroke-width=".05" fill="#3a414a"/><path d="M836.63 886.3l-15.24-.9 8.35-12.44z" fill="#3a414a"/><path d="M838.33 887.4l-18.75-1.1 10.3-15.3zm-15.13-2.88l11.74.67-5.3-10.28z" stroke="#3a414a" stroke-width=".05" fill="#3a414a"/><use xlink:href="#A" transform="matrix(1,0,0,1,682.2988544619526,1018.9382464153218) translate(0 37.333333333333314)"/><path d="M722.73 853.45l-8.13 5.68-8.25 5.25-7.98 4.62-7.76 4.07-7.55 3.57-7.4 3.12-7.28 2.72-7.18 2.34-7.1 2-7.07 1.66-7.03 1.35-7.03 1.05-7.06.75-5.6.36v-1l5.53-.37 7-.75 7-1.04 7-1.34 7-1.65 7.07-1.98 7.13-2.33 7.24-2.7 7.37-3.1 7.52-3.57 7.72-4.05 7.95-4.6 8.2-5.23 8.13-5.67zm-215.44 8.3l11.07 5.78 10.42 4.9 9.84 4.12 9.35 3.47 8.92 2.9 8.56 2.37 8.25 1.9 7.97 1.52 7.74 1.14 4.92.5v1.02l-5.05-.53-7.77-1.14-8-1.5-8.3-1.94-8.6-2.4-8.97-2.9-9.4-3.48-9.88-4.15-10.45-4.9-11.12-5.8-10.2-5.9.5-.86z" stroke="#3a414a" stroke-width=".05" fill="#3a414a"/><path d="M723.16 853.16l-.44.3-.57-.82.4-.3z" fill="#3a414a"/><path d="M723.2 853.16l-.48.34-.6-.87.45-.3zm-1-.5l.53.76.4-.27-.57-.76z" stroke="#3a414a" stroke-width=".05" fill="#3a414a"/><path d="M499.06 866.38l-7.25-13.13 15-.03z" fill="#3a414a"/><path d="M499.05 867.4l-8.1-14.64 16.73-.04zm-6.4-13.65l6.42 11.62 6.86-11.65z" stroke="#3a414a" stroke-width=".05" fill="#3a414a"/><use xlink:href="#B" transform="matrix(1,0,0,1,594.3653156700562,863.6573630023385) translate(0 37.333333333333314)"/><path d="M596.35 731.5l-2.3 1.9-103.3 72.68-.58-.82 103.28-72.65 2.9-2.4zm73.7-133.6l-.23 5.48-.64 7.72-.9 7.25-1.15 6.87-1.4 6.55-1.6 6.28-1.8 6.06-2.05 5.9-2.27 5.74-2.5 5.66-2.77 5.6-3.06 5.58-3.4 5.6-3.74 5.67-4.2 5.78-4.73 5.98-5.38 6.26-5.95 6.34v-1.46l5.2-5.55 5.36-6.23 4.7-5.94 4.17-5.75 3.74-5.64 3.36-5.56 3.04-5.55 2.75-5.56 2.5-5.6 2.24-5.73 2.03-5.84 1.8-6.02 1.6-6.24 1.37-6.5 1.15-6.83.9-7.2.62-7.68.22-5.47z" stroke="#3a414a" stroke-width=".05" fill="#3a414a"/><path d="M490.76 806.08l-.42.3-.6-.82.44-.3z" fill="#3a414a"/><path d="M490.8 806.08l-.46.32-.63-.85.5-.33zm-1-.5l.55.75.37-.26-.55-.78z" stroke="#3a414a" stroke-width=".05" fill="#3a414a"/><path d="M676.78 605.18l-15.26-.6 8.14-12.6z" fill="#3a414a"/><path d="M677.63 605.72l-17-.67L669.7 591zm-15.22-1.6l13.52.53-6.3-11.7z" stroke="#3a414a" stroke-width=".05" fill="#3a414a"/><use xlink:href="#C" transform="matrix(1,0,0,1,596.3487338771342,691.8395670702495) translate(0 37.333333333333336)"/><path d="M1014.37 692.23l-1.38 2.4-1.88 2.93-1.96 2.82-2.05 2.7-2.14 2.6-2.26 2.52-2.37 2.4-2.5 2.35-2.6 2.25-2.74 2.18-2.9 2.1-3.04 2.02-3.2 1.94-3.4 1.87-3.6 1.8-3.82 1.7-4.04 1.6-4.3 1.5-4.6 1.37-4.88 1.25-5.22 1.1-5.57.96-5.95.75-6.36.53-6.78.28h-7.23l-7.66-.32-8.13-.7-8.54-1.07-8.95-1.5-9.28-2-9.55-2.44-4.56-1.37v-1.04l4.84 1.44 9.5 2.45 9.26 1.95 8.9 1.5 8.52 1.1 8.08.67 7.63.32h7.2l6.73-.28 6.32-.53 5.9-.75 5.54-.93 5.17-1.1 4.84-1.24 4.54-1.36 4.27-1.5 4-1.57 3.78-1.68 3.56-1.78 3.35-1.84 3.17-1.93 3-2 2.87-2.07 2.7-2.15 2.57-2.22 2.46-2.3 2.34-2.4 2.23-2.47 2.13-2.57 2.02-2.67 1.94-2.8 1.83-2.9 1.37-2.37zM728 594.9l.26 3.9.4 3.92.6 3.94.75 3.97.95 4.02 1.14 4.06 1.33 4.14 1.56 4.2 1.8 4.27 2.04 4.36 2.33 4.45 2.62 4.56 2.95 4.65 3.3 4.77 3.7 4.86 4.1 4.97 4.58 5.07 5.05 5.16 5.57 5.23 6.12 5.27 6.67 5.3 7.24 5.25 7.8 5.18 8.32 5.03 8.8 4.82 9.17 4.56 7.8 3.48v1.1l-8.22-3.67-9.23-4.6-8.82-4.84-8.36-5.06-7.83-5.2-7.26-5.28-6.7-5.32-6.16-5.3-5.6-5.26-5.08-5.2-4.6-5.1-4.14-5-3.72-4.9-3.33-4.78-2.96-4.68-2.65-4.58-2.36-4.5-2.07-4.38-1.8-4.32-1.58-4.23-1.37-4.17-1.14-4.1-.97-4.06-.76-4.02-.6-3.98-.4-3.96-.26-3.94-.06-3.43h1z" stroke="#3a414a" stroke-width=".05" fill="#3a414a"/><path d="M727.94 591.5l-1 .03V591h1z" fill="#3a414a"/><path d="M727.97 591.53l-1.05.02v-.57h1.04zm-1-.5v.47l.95-.02v-.46z" stroke="#3a414a" stroke-width=".05" fill="#3a414a"/><path d="M1016.77 701.7l-13.24-7.6 13.05-7.38z" fill="#3a414a"/><path d="M1017.3 702.58l-14.78-8.47 14.55-8.24zm-12.76-8.46l11.72 6.72-.17-13.27z" stroke="#3a414a" stroke-width=".05" fill="#3a414a"/><use xlink:href="#D" transform="matrix(1,0,0,1,834.9818630935631,695.9254336230886) translate(0 37.333333333333336)"/><defs><path fill="#333" d="M133-34C117-15 103 5 69 4 32 3 11-16 11-54c-1-60 55-63 116-61 1-26-3-47-28-47-18 1-26 9-28 27l-52-2c7-38 36-58 82-57s74 22 75 68l1 82c-1 14 12 18 25 15v27c-30 8-71 5-69-32zm-48 3c29 0 43-24 42-57-32 0-66-3-65 30 0 17 8 27 23 27" id="E"/><use transform="matrix(0.12962962962962957,0,0,0.12962962962962957,0,0)" xlink:href="#E" id="a"/><path fill="#333" d="M190-63c-7 42-38 67-86 67-59 0-84-38-90-98-12-110 154-137 174-36l-49 2c-2-19-15-32-35-32-30 0-35 28-38 64-6 74 65 87 74 30" id="F"/><use transform="matrix(0.12962962962962957,0,0,0.12962962962962957,0,0)" xlink:href="#F" id="b"/><path fill="#333" d="M88-194c31-1 46 15 58 34l-1-101h50l1 261h-48c-2-10 0-23-3-31C134-8 116 4 84 4 32 4 16-41 15-95c0-56 19-97 73-99zm17 164c33 0 40-30 41-66 1-37-9-64-41-64s-38 30-39 65c0 43 13 65 39 65" id="G"/><use transform="matrix(0.12962962962962957,0,0,0.12962962962962957,0,0)" xlink:href="#G" id="c"/><path fill="#333" d="M135-194c52 0 70 43 70 98 0 56-19 99-73 100-30 1-46-15-58-35L72 0H24l1-261h50v104c11-23 29-37 60-37zM114-30c31 0 40-27 40-66 0-37-7-63-39-63s-41 28-41 65c0 36 8 64 40 64" id="H"/><use transform="matrix(0.12962962962962957,0,0,0.12962962962962957,0,0)" xlink:href="#H" id="d"/><path fill="#333" d="M185-48c-13 30-37 53-82 52C43 2 14-33 14-96s30-98 90-98c62 0 83 45 84 108H66c0 31 8 55 39 56 18 0 30-7 34-22zm-45-69c5-46-57-63-70-21-2 6-4 13-4 21h74" id="I"/><use transform="matrix(0.12962962962962957,0,0,0.12962962962962957,0,0)" xlink:href="#I" id="e"/><path fill="#333" d="M121-226c-27-7-43 5-38 36h38v33H83V0H34v-157H6v-33h28c-9-59 32-81 87-68v32" id="J"/><use transform="matrix(0.12962962962962957,0,0,0.12962962962962957,0,0)" xlink:href="#J" id="f"/><path fill="#333" d="M195-6C206 82 75 100 31 46c-4-6-6-13-8-21l49-6c3 16 16 24 34 25 40 0 42-37 40-79-11 22-30 35-61 35-53 0-70-43-70-97 0-56 18-96 73-97 30 0 46 14 59 34l2-30h47zm-90-29c32 0 41-27 41-63 0-35-9-62-40-62-32 0-39 29-40 63 0 36 9 62 39 62" id="K"/><use transform="matrix(0.12962962962962957,0,0,0.12962962962962957,0,0)" xlink:href="#K" id="g"/><path fill="#333" d="M114-157C55-157 80-60 75 0H25v-261h50l-1 109c12-26 28-41 61-42 86-1 58 113 63 194h-50c-7-57 23-157-34-157" id="L"/><use transform="matrix(0.12962962962962957,0,0,0.12962962962962957,0,0)" xlink:href="#L" id="h"/><path fill="#333" d="M25-224v-37h50v37H25zM25 0v-190h50V0H25" id="M"/><use transform="matrix(0.12962962962962957,0,0,0.12962962962962957,0,0)" xlink:href="#M" id="i"/><path fill="#3a414a" d="M4 7l51-268h42L46 7H4" id="N"/><use transform="matrix(0.09259259259259256,0,0,0.09259259259259256,0,0)" xlink:href="#N" id="j"/><path fill="#3a414a" d="M133-34C117-15 103 5 69 4 32 3 11-16 11-54c-1-60 55-63 116-61 1-26-3-47-28-47-18 1-26 9-28 27l-52-2c7-38 36-58 82-57s74 22 75 68l1 82c-1 14 12 18 25 15v27c-30 8-71 5-69-32zm-48 3c29 0 43-24 42-57-32 0-66-3-65 30 0 17 8 27 23 27" id="O"/><g id="k"><use transform="matrix(0.09259259259259256,0,0,0.09259259259259256,0,0)" xlink:href="#N"/><use transform="matrix(0.09259259259259256,0,0,0.09259259259259256,9.259259259259256,0)" xlink:href="#O"/></g><path fill="#3a414a" d="M135-194c52 0 70 43 70 98 0 56-19 99-73 100-30 1-46-15-58-35L72 0H24l1-261h50v104c11-23 29-37 60-37zM114-30c31 0 40-27 40-66 0-37-7-63-39-63s-41 28-41 65c0 36 8 64 40 64" id="P"/><g id="l"><use transform="matrix(0.09259259259259256,0,0,0.09259259259259256,0,0)" xlink:href="#N"/><use transform="matrix(0.09259259259259256,0,0,0.09259259259259256,9.259259259259256,0)" xlink:href="#P"/></g><path fill="#3a414a" d="M88-194c31-1 46 15 58 34l-1-101h50l1 261h-48c-2-10 0-23-3-31C134-8 116 4 84 4 32 4 16-41 15-95c0-56 19-97 73-99zm17 164c33 0 40-30 41-66 1-37-9-64-41-64s-38 30-39 65c0 43 13 65 39 65" id="Q"/><g id="m"><use transform="matrix(0.09259259259259256,0,0,0.09259259259259256,0,0)" xlink:href="#N"/><use transform="matrix(0.09259259259259256,0,0,0.09259259259259256,9.259259259259256,0)" xlink:href="#O"/><use transform="matrix(0.09259259259259256,0,0,0.09259259259259256,27.777777777777768,0)" xlink:href="#N"/><use transform="matrix(0.09259259259259256,0,0,0.09259259259259256,37.037037037037024,0)" xlink:href="#Q"/></g><path fill="#3a414a" d="M121-226c-27-7-43 5-38 36h38v33H83V0H34v-157H6v-33h28c-9-59 32-81 87-68v32" id="R"/><g id="n"><use transform="matrix(0.09259259259259256,0,0,0.09259259259259256,0,0)" xlink:href="#N"/><use transform="matrix(0.09259259259259256,0,0,0.09259259259259256,9.259259259259256,0)" xlink:href="#P"/><use transform="matrix(0.09259259259259256,0,0,0.09259259259259256,29.537037037037027,0)" xlink:href="#N"/><use transform="matrix(0.09259259259259256,0,0,0.09259259259259256,38.79629629629628,0)" xlink:href="#R"/></g><path fill="#3a414a" d="M190-63c-7 42-38 67-86 67-59 0-84-38-90-98-12-110 154-137 174-36l-49 2c-2-19-15-32-35-32-30 0-35 28-38 64-6 74 65 87 74 30" id="S"/><g id="o"><use transform="matrix(0.09259259259259256,0,0,0.09259259259259256,0,0)" xlink:href="#N"/><use transform="matrix(0.09259259259259256,0,0,0.09259259259259256,9.259259259259256,0)" xlink:href="#O"/><use transform="matrix(0.09259259259259256,0,0,0.09259259259259256,27.777777777777768,0)" xlink:href="#N"/><use transform="matrix(0.09259259259259256,0,0,0.09259259259259256,37.037037037037024,0)" xlink:href="#S"/></g><path fill="#3a414a" d="M195-6C206 82 75 100 31 46c-4-6-6-13-8-21l49-6c3 16 16 24 34 25 40 0 42-37 40-79-11 22-30 35-61 35-53 0-70-43-70-97 0-56 18-96 73-97 30 0 46 14 59 34l2-30h47zm-90-29c32 0 41-27 41-63 0-35-9-62-40-62-32 0-39 29-40 63 0 36 9 62 39 62" id="T"/><g id="p"><use transform="matrix(0.09259259259259256,0,0,0.09259259259259256,0,0)" xlink:href="#N"/><use transform="matrix(0.09259259259259256,0,0,0.09259259259259256,9.259259259259256,0)" xlink:href="#O"/><use transform="matrix(0.09259259259259256,0,0,0.09259259259259256,27.777777777777768,0)" xlink:href="#N"/><use transform="matrix(0.09259259259259256,0,0,0.09259259259259256,37.037037037037024,0)" xlink:href="#S"/><use transform="matrix(0.09259259259259256,0,0,0.09259259259259256,55.555555555555536,0)" xlink:href="#N"/><use transform="matrix(0.09259259259259256,0,0,0.09259259259259256,64.8148148148148,0)" xlink:href="#T"/></g><path fill="#3a414a" d="M114-157C55-157 80-60 75 0H25v-261h50l-1 109c12-26 28-41 61-42 86-1 58 113 63 194h-50c-7-57 23-157-34-157" id="U"/><g id="q"><use transform="matrix(0.09259259259259256,0,0,0.09259259259259256,0,0)" xlink:href="#N"/><use transform="matrix(0.09259259259259256,0,0,0.09259259259259256,9.259259259259256,0)" xlink:href="#O"/><use transform="matrix(0.09259259259259256,0,0,0.09259259259259256,27.777777777777768,0)" xlink:href="#N"/><use transform="matrix(0.09259259259259256,0,0,0.09259259259259256,37.037037037037024,0)" xlink:href="#S"/><use transform="matrix(0.09259259259259256,0,0,0.09259259259259256,55.555555555555536,0)" xlink:href="#N"/><use transform="matrix(0.09259259259259256,0,0,0.09259259259259256,64.8148148148148,0)" xlink:href="#T"/><use transform="matrix(0.09259259259259256,0,0,0.09259259259259256,85.09259259259257,0)" xlink:href="#N"/><use transform="matrix(0.09259259259259256,0,0,0.09259259259259256,94.35185185185182,0)" xlink:href="#U"/></g><path fill="#3a414a" d="M25-224v-37h50v37H25zM25 0v-190h50V0H25" id="V"/><g id="r"><use transform="matrix(0.09259259259259256,0,0,0.09259259259259256,0,0)" xlink:href="#N"/><use transform="matrix(0.09259259259259256,0,0,0.09259259259259256,9.259259259259256,0)" xlink:href="#O"/><use transform="matrix(0.09259259259259256,0,0,0.09259259259259256,27.777777777777768,0)" xlink:href="#N"/><use transform="matrix(0.09259259259259256,0,0,0.09259259259259256,37.037037037037024,0)" xlink:href="#S"/><use transform="matrix(0.09259259259259256,0,0,0.09259259259259256,55.555555555555536,0)" xlink:href="#N"/><use transform="matrix(0.09259259259259256,0,0,0.09259259259259256,64.8148148148148,0)" xlink:href="#T"/><use transform="matrix(0.09259259259259256,0,0,0.09259259259259256,85.09259259259257,0)" xlink:href="#N"/><use transform="matrix(0.09259259259259256,0,0,0.09259259259259256,94.35185185185182,0)" xlink:href="#V"/></g><path fill="#3a414a" d="M185-48c-13 30-37 53-82 52C43 2 14-33 14-96s30-98 90-98c62 0 83 45 84 108H66c0 31 8 55 39 56 18 0 30-7 34-22zm-45-69c5-46-57-63-70-21-2 6-4 13-4 21h74" id="W"/><g id="s"><use transform="matrix(0.09259259259259256,0,0,0.09259259259259256,0,0)" xlink:href="#N"/><use transform="matrix(0.09259259259259256,0,0,0.09259259259259256,9.259259259259256,0)" xlink:href="#P"/><use transform="matrix(0.09259259259259256,0,0,0.09259259259259256,29.537037037037027,0)" xlink:href="#N"/><use transform="matrix(0.09259259259259256,0,0,0.09259259259259256,38.79629629629628,0)" xlink:href="#W"/></g><g id="t"><use transform="matrix(0.09259259259259256,0,0,0.09259259259259256,0,0)" xlink:href="#N"/><use transform="matrix(0.09259259259259256,0,0,0.09259259259259256,9.259259259259256,0)" xlink:href="#P"/><use transform="matrix(0.09259259259259256,0,0,0.09259259259259256,29.537037037037027,0)" xlink:href="#N"/><use transform="matrix(0.09259259259259256,0,0,0.09259259259259256,38.79629629629628,0)" xlink:href="#W"/><use transform="matrix(0.09259259259259256,0,0,0.09259259259259256,57.314814814814795,0)" xlink:href="#N"/><use transform="matrix(0.09259259259259256,0,0,0.09259259259259256,66.57407407407405,0)" xlink:href="#V"/></g><path fill="#3a414a" d="M30 0v-248h33v221h125V0H30" id="X"/><path fill="#3a414a" d="M100-194c63 0 86 42 84 106H49c0 40 14 67 53 68 26 1 43-12 49-29l28 8c-11 28-37 45-77 45C44 4 14-33 15-96c1-61 26-98 85-98zm52 81c6-60-76-77-97-28-3 7-6 17-6 28h103" id="Y"/><path fill="#3a414a" d="M177-190C167-65 218 103 67 71c-23-6-38-20-44-43l32-5c15 47 100 32 89-28v-30C133-14 115 1 83 1 29 1 15-40 15-95c0-56 16-97 71-98 29-1 48 16 59 35 1-10 0-23 2-32h30zM94-22c36 0 50-32 50-73 0-42-14-75-50-75-39 0-46 34-46 75s6 73 46 73" id="Z"/><path fill="#3a414a" d="M117-194c89-4 53 116 60 194h-32v-121c0-31-8-49-39-48C34-167 62-67 57 0H25l-1-190h30c1 10-1 24 2 32 11-22 29-35 61-36" id="aa"/><path fill="#3a414a" d="M85-194c31 0 48 13 60 33l-1-100h32l1 261h-30c-2-10 0-23-3-31C134-8 116 4 85 4 32 4 16-35 15-94c0-66 23-100 70-100zm9 24c-40 0-46 34-46 75 0 40 6 74 45 74 42 0 51-32 51-76 0-42-9-74-50-73" id="ab"/><g id="u"><use transform="matrix(0.06172839506172839,0,0,0.06172839506172839,0,0)" xlink:href="#X"/><use transform="matrix(0.06172839506172839,0,0,0.06172839506172839,12.345679012345679,0)" xlink:href="#Y"/><use transform="matrix(0.06172839506172839,0,0,0.06172839506172839,24.691358024691358,0)" xlink:href="#Z"/><use transform="matrix(0.06172839506172839,0,0,0.06172839506172839,37.03703703703704,0)" xlink:href="#Y"/><use transform="matrix(0.06172839506172839,0,0,0.06172839506172839,49.382716049382715,0)" xlink:href="#aa"/><use transform="matrix(0.06172839506172839,0,0,0.06172839506172839,61.72839506172839,0)" xlink:href="#ab"/></g><path fill="#3a414a" d="M220-157c-53 9-28 100-34 157h-49v-107c1-27-5-49-29-50C55-147 81-57 75 0H25l-1-190h47c2 12-1 28 3 38 10-53 101-56 108 0 13-22 24-43 59-42 82 1 51 116 57 194h-49v-107c-1-25-5-48-29-50" id="ac"/><path fill="#3a414a" d="M115-3C79 11 28 4 28-45v-112H4v-33h27l15-45h31v45h36v33H77v99c-1 23 16 31 38 25v30" id="ad"/><path fill="#3a414a" d="M24 0v-248h52V0H24" id="ae"/><path fill="#3a414a" d="M135-194c87-1 58 113 63 194h-50c-7-57 23-157-34-157-59 0-34 97-39 157H25l-1-190h47c2 12-1 28 3 38 12-26 28-41 61-42" id="af"/><path fill="#3a414a" d="M110-194c64 0 96 36 96 99 0 64-35 99-97 99-61 0-95-36-95-99 0-62 34-99 96-99zm-1 164c35 0 45-28 45-65 0-40-10-65-43-65-34 0-45 26-45 65 0 36 10 65 43 65" id="ag"/><g id="v"><use transform="matrix(0.07407407407407404,0,0,0.07407407407407404,0,0)" xlink:href="#ac"/><use transform="matrix(0.07407407407407404,0,0,0.07407407407407404,23.703703703703695,0)" xlink:href="#W"/><use transform="matrix(0.07407407407407404,0,0,0.07407407407407404,38.518518518518505,0)" xlink:href="#ad"/><use transform="matrix(0.07407407407407404,0,0,0.07407407407407404,47.333333333333314,0)" xlink:href="#O"/><use transform="matrix(0.07407407407407404,0,0,0.07407407407407404,62.148148148148124,0)" xlink:href="#ae"/><use transform="matrix(0.07407407407407404,0,0,0.07407407407407404,69.55555555555553,0)" xlink:href="#af"/><use transform="matrix(0.07407407407407404,0,0,0.07407407407407404,85.77777777777774,0)" xlink:href="#R"/><use transform="matrix(0.07407407407407404,0,0,0.07407407407407404,94.59259259259255,0)" xlink:href="#ag"/></g><path fill="#333" d="M135-194c53 0 70 44 70 98 0 56-19 98-73 100-31 1-45-17-59-34 3 33 2 69 2 105H25l-1-265h48c2 10 0 23 3 31 11-24 29-35 60-35zM114-30c33 0 39-31 40-66 0-38-9-64-40-64-56 0-55 130 0 130" id="ah"/><path fill="#333" d="M135-194c87-1 58 113 63 194h-50c-7-57 23-157-34-157-59 0-34 97-39 157H25l-1-190h47c2 12-1 28 3 38 12-26 28-41 61-42" id="ai"/><path fill="#333" d="M123 10C108 53 80 86 19 72V37c35 8 53-11 59-39L3-190h52l48 148c12-52 28-100 44-148h51" id="aj"/><g id="w"><use transform="matrix(0.04938271604938272,0,0,0.04938271604938272,0,0)" xlink:href="#G"/><use transform="matrix(0.04938271604938272,0,0,0.04938271604938272,10.814814814814815,0)" xlink:href="#I"/><use transform="matrix(0.04938271604938272,0,0,0.04938271604938272,20.69135802469136,0)" xlink:href="#ah"/><use transform="matrix(0.04938271604938272,0,0,0.04938271604938272,31.506172839506174,0)" xlink:href="#I"/><use transform="matrix(0.04938271604938272,0,0,0.04938271604938272,41.38271604938272,0)" xlink:href="#ai"/><use transform="matrix(0.04938271604938272,0,0,0.04938271604938272,52.19753086419754,0)" xlink:href="#G"/><use transform="matrix(0.04938271604938272,0,0,0.04938271604938272,63.01234567901235,0)" xlink:href="#I"/><use transform="matrix(0.04938271604938272,0,0,0.04938271604938272,72.8888888888889,0)" xlink:href="#ai"/><use transform="matrix(0.04938271604938272,0,0,0.04938271604938272,83.70370370370371,0)" xlink:href="#F"/><use transform="matrix(0.04938271604938272,0,0,0.04938271604938272,93.58024691358025,0)" xlink:href="#aj"/></g><path fill="#3a414a" d="M14-72v-43h91v43H14" id="ak"/><path fill="#3a414a" d="M135-150c-39-12-60 13-60 57V0H25l-1-190h47c2 13-1 29 3 40 6-28 27-53 61-41v41" id="al"/><path fill="#3a414a" d="M25 0v-261h50V0H25" id="am"/><path fill="#3a414a" d="M12 0v-35l95-120H19v-35h142v35L67-36h103V0H12" id="an"/><g id="x"><use transform="matrix(0.055555555555555504,0,0,0.055555555555555504,0,0)" xlink:href="#af"/><use transform="matrix(0.055555555555555504,0,0,0.055555555555555504,12.166666666666655,0)" xlink:href="#ag"/><use transform="matrix(0.055555555555555504,0,0,0.055555555555555504,24.33333333333331,0)" xlink:href="#af"/><use transform="matrix(0.055555555555555504,0,0,0.055555555555555504,36.499999999999964,0)" xlink:href="#ak"/><use transform="matrix(0.055555555555555504,0,0,0.055555555555555504,43.11111111111107,0)" xlink:href="#ac"/><use transform="matrix(0.055555555555555504,0,0,0.055555555555555504,60.88888888888883,0)" xlink:href="#O"/><use transform="matrix(0.055555555555555504,0,0,0.055555555555555504,71.99999999999993,0)" xlink:href="#ad"/><use transform="matrix(0.055555555555555504,0,0,0.055555555555555504,78.61111111111103,0)" xlink:href="#W"/><use transform="matrix(0.055555555555555504,0,0,0.055555555555555504,89.72222222222213,0)" xlink:href="#al"/><use transform="matrix(0.055555555555555504,0,0,0.055555555555555504,97.4999999999999,0)" xlink:href="#V"/><use transform="matrix(0.055555555555555504,0,0,0.055555555555555504,103.05555555555546,0)" xlink:href="#O"/><use transform="matrix(0.055555555555555504,0,0,0.055555555555555504,114.16666666666656,0)" xlink:href="#am"/><use transform="matrix(0.055555555555555504,0,0,0.055555555555555504,119.72222222222211,0)" xlink:href="#V"/><use transform="matrix(0.055555555555555504,0,0,0.055555555555555504,125.27777777777766,0)" xlink:href="#an"/><use transform="matrix(0.055555555555555504,0,0,0.055555555555555504,135.27777777777766,0)" xlink:href="#W"/><use transform="matrix(0.055555555555555504,0,0,0.055555555555555504,146.38888888888874,0)" xlink:href="#Q"/></g><path fill="#3a414a" d="M137-138c1-29-70-34-71-4 15 46 118 7 119 86 1 83-164 76-172 9l43-7c4 19 20 25 44 25 33 8 57-30 24-41C81-84 22-81 20-136c-2-80 154-74 161-7" id="ao"/><g id="y"><use transform="matrix(0.055555555555555504,0,0,0.055555555555555504,0,0)" xlink:href="#U"/><use transform="matrix(0.055555555555555504,0,0,0.055555555555555504,12.166666666666655,0)" xlink:href="#O"/><use transform="matrix(0.055555555555555504,0,0,0.055555555555555504,23.277777777777757,0)" xlink:href="#ao"/></g><path fill="#3a414a" d="M144 0l-44-69L55 0H2l70-98-66-92h53l41 62 40-62h54l-67 91 71 99h-54" id="ap"/><path fill="#3a414a" d="M135-194c53 0 70 44 70 98 0 56-19 98-73 100-31 1-45-17-59-34 3 33 2 69 2 105H25l-1-265h48c2 10 0 23 3 31 11-24 29-35 60-35zM114-30c33 0 39-31 40-66 0-38-9-64-40-64-56 0-55 130 0 130" id="aq"/><g id="z"><use transform="matrix(0.055555555555555504,0,0,0.055555555555555504,0,0)" xlink:href="#W"/><use transform="matrix(0.055555555555555504,0,0,0.055555555555555504,11.1111111111111,0)" xlink:href="#ap"/><use transform="matrix(0.055555555555555504,0,0,0.055555555555555504,22.2222222222222,0)" xlink:href="#aq"/><use transform="matrix(0.055555555555555504,0,0,0.055555555555555504,34.38888888888886,0)" xlink:href="#al"/><use transform="matrix(0.055555555555555504,0,0,0.055555555555555504,42.16666666666663,0)" xlink:href="#W"/><use transform="matrix(0.055555555555555504,0,0,0.055555555555555504,53.27777777777773,0)" xlink:href="#ao"/><use transform="matrix(0.055555555555555504,0,0,0.055555555555555504,64.38888888888883,0)" xlink:href="#ao"/><use transform="matrix(0.055555555555555504,0,0,0.055555555555555504,75.49999999999993,0)" xlink:href="#V"/><use transform="matrix(0.055555555555555504,0,0,0.055555555555555504,81.05555555555549,0)" xlink:href="#ag"/><use transform="matrix(0.055555555555555504,0,0,0.055555555555555504,93.22222222222214,0)" xlink:href="#af"/></g><path fill="#333" d="M23 0v-37h61v-169l-59 37v-38l62-41h46v211h57V0H23" id="ar"/><use transform="matrix(0.12962962962962957,0,0,0.12962962962962957,0,0)" xlink:href="#ar" id="A"/><path fill="#333" d="M182-182c0 78-84 86-111 141h115V0H12c-6-101 99-100 120-180 1-22-12-31-33-32-23 0-32 14-35 34l-49-3c5-45 32-70 84-70 51 0 83 22 83 69" id="as"/><use transform="matrix(0.12962962962962957,0,0,0.12962962962962957,0,0)" xlink:href="#as" id="B"/><path fill="#333" d="M128-127c34 4 56 21 59 58 7 91-148 94-172 28-4-9-6-17-7-26l51-5c1 24 16 35 40 36 23 0 39-12 38-36-1-31-31-36-65-34v-40c32 2 59-3 59-33 0-20-13-33-34-33s-33 13-35 32l-50-3c6-44 37-68 86-68 50 0 83 20 83 66 0 35-22 52-53 58" id="at"/><use transform="matrix(0.12962962962962965,0,0,0.12962962962962965,0,0)" xlink:href="#at" id="C"/><path fill="#333" d="M165-50V0h-47v-50H5v-38l105-160h55v161h33v37h-33zm-47-37l2-116L46-87h72" id="au"/><use transform="matrix(0.12962962962962965,0,0,0.12962962962962965,0,0)" xlink:href="#au" id="D"/></defs></g></svg>