<svg xmlns="http://www.w3.org/2000/svg" xmlns:xlink="http://www.w3.org/1999/xlink" xmlns:lucid="lucid" width="500" height="400"><g transform="translate(-560 -120)" lucid:page-tab-id="0_0"><path d="M700 282.33c22.1 0 40 17.9 40 40s-17.9 40-40 40h-80c-22.1 0-40-17.9-40-40s17.9-40 40-40z" stroke="#3a414a" fill="#f4d9ff"/><use xlink:href="#a" transform="matrix(1,0,0,1,585,287.3333333333333) translate(7.46913580246914 39.65277777777778)"/><use xlink:href="#b" transform="matrix(1,0,0,1,585,287.3333333333333) translate(89.81481481481481 39.65277777777778)"/><path d="M700 140c22.1 0 40 17.9 40 40s-17.9 40-40 40h-80c-22.1 0-40-17.9-40-40s17.9-40 40-40z" stroke="#3a414a" fill="#f4d9ff"/><use xlink:href="#c" transform="matrix(1,0,0,1,585,145) translate(33.64197530864198 39.65277777777778)"/><path d="M700 420c22.1 0 40 17.9 40 40s-17.9 40-40 40h-80c-22.1 0-40-17.9-40-40s17.9-40 40-40z" stroke="#3a414a" fill="#f4d9ff"/><use xlink:href="#d" transform="matrix(1,0,0,1,585,425) translate(33.64197530864198 39.65277777777778)"/><path d="M960 280c22.1 0 40 17.9 40 40s-17.9 40-40 40h-80c-22.1 0-40-17.9-40-40s17.9-40 40-40z" stroke="#3a414a" fill="#f4d9ff"/><use xlink:href="#e" transform="matrix(1,0,0,1,845,285) translate(17.716049382716065 39.65277777777777)"/><use xlink:href="#f" transform="matrix(1,0,0,1,845,285) translate(93.51851851851852 39.65277777777777)"/><path d="M654.28 364.33v34.55" stroke="#3a414a" stroke-width="3" stroke-linejoin="round" fill="none"/><path d="M655.78 364.37h-3v-1.54h3z" stroke="#3a414a" stroke-width=".05" fill="#3a414a"/><path d="M654.28 414.65l-4.64-14.27h9.27z" stroke="#3a414a" stroke-width="3" fill="#3a414a"/><path d="M742 459.95l.64-.04 1.04-.1 1-.15 1.02-.2 1-.22.98-.28.98-.32 1-.37.98-.4 1-.48 1.02-.53 1.03-.6 1.04-.67 1.1-.76 1.1-.85 1.17-.96 1.22-1.07 1.26-1.25 1.34-1.42 1.42-1.65 1.53-1.92 1.65-2.27 1.8-2.72 2.02-3.33 2.3-4.2 2.7-5.47 3.44-7.73 5.28-13.43 17.16-46.47 3.43-7.73 2.7-5.48 2.3-4.2 2.02-3.32 1.8-2.73 1.66-2.28 1.53-1.93 1.42-1.66 1.33-1.42 1.28-1.25.28-.25" stroke="#3a414a" stroke-width="3" stroke-linejoin="round" fill="none"/><path d="M742.07 461.47l-1.66.03.1-1.5-.05-1.5 1.56-.03z" stroke="#3a414a" stroke-width=".05" fill="#3a414a"/><path d="M835.03 321.9l-11.34 9.8-3.62-8.54z" stroke="#3a414a" stroke-width="3" fill="#3a414a"/><path d="M800 186a6 6 0 0 1 6-6h228a6 6 0 0 1 6 6v94a6 6 0 0 1-6 6H806a6 6 0 0 1-6-6z" stroke="#000" stroke-opacity="0" fill="#fff" fill-opacity="0"/><use xlink:href="#g" transform="matrix(1,0,0,1,805,185) translate(5.802469135802724 60.55555555555543)"/><path d="M742 180.05l.64.04 1.04.1 1 .15 1.02.2 1 .22.98.28.98.32 1 .37.98.4 1 .48 1.02.53 1.03.6 1.04.67 1.1.76 1.1.85 1.17.96 1.22 1.07 1.26 1.25 1.34 1.42 1.42 1.65 1.53 1.92 1.65 2.27 1.8 2.72 2.02 3.33 2.3 4.2 2.7 5.47 3.44 7.73 5.28 13.43 17.16 46.47 3.43 7.73 2.7 5.48 2.3 4.2 2.02 3.32 1.8 2.73 1.66 2.28 1.53 1.93 1.42 1.66 1.33 1.42 1.28 1.25.28.25" stroke="#3a414a" stroke-width="3" stroke-linejoin="round" fill="none"/><path d="M742.07 178.53l-.06 3-1.6-.03.1-1.5-.05-1.5z" stroke="#3a414a" stroke-width=".05" fill="#3a414a"/><path d="M835.03 318.1l-14.95-1.26 3.6-8.54z" stroke="#3a414a" stroke-width="3" fill="#3a414a"/><path d="M660 280.33v-39.2" stroke="#3a414a" stroke-width="3" stroke-linejoin="round" fill="none"/><path d="M661.5 281.83h-3v-1.54h3z" stroke="#3a414a" stroke-width=".05" fill="#3a414a"/><path d="M660 225.35l4.63 14.27h-9.26z" stroke="#3a414a" stroke-width="3" fill="#3a414a"/><path d="M741 322.33h62.62" stroke="#3a414a" stroke-linejoin="round" fill="none"/><path d="M741 322.83h-.53l.03-.5-.02-.5h.53z" stroke="#3a414a" stroke-width=".05" fill="#3a414a"/><path d="M818.38 322.33l-14.26 4.64v-9.27z" stroke="#3a414a" fill="#3a414a"/><defs><path fill="#3a414a" d="M141-36C126-15 110 5 73 4 37 3 15-17 15-53c-1-64 63-63 125-63 3-35-9-54-41-54-24 1-41 7-42 31l-33-3c5-37 33-52 76-52 45 0 72 20 72 64v82c-1 20 7 32 28 27v20c-31 9-61-2-59-35zM48-53c0 20 12 33 32 33 41-3 63-29 60-74-43 2-92-5-92 41" id="h"/><path fill="#3a414a" d="M33-154v-36h34v36H33zM33 0v-36h34V0H33" id="i"/><path fill="#3a414a" d="M26 75v-336h71v23H56V52h41v23H26" id="j"/><path fill="#3a414a" d="M109-170H84l-4-78h32zm-65 0H19l-4-78h33" id="k"/><path fill="#3a414a" d="M135-143c-3-34-86-38-87 0 15 53 115 12 119 90S17 21 10-45l28-5c4 36 97 45 98 0-10-56-113-15-118-90-4-57 82-63 122-42 12 7 21 19 24 35" id="l"/><path fill="#3a414a" d="M59-47c-2 24 18 29 38 22v24C64 9 27 4 27-40v-127H5v-23h24l9-43h21v43h35v23H59v120" id="m"/><path fill="#3a414a" d="M68-38c1 34 0 65-14 84H32c9-13 17-26 17-46H33v-38h35" id="n"/><g id="a"><use transform="matrix(0.06172839506172839,0,0,0.06172839506172839,0,0)" xlink:href="#h"/><use transform="matrix(0.06172839506172839,0,0,0.06172839506172839,12.345679012345679,0)" xlink:href="#i"/><use transform="matrix(0.06172839506172839,0,0,0.06172839506172839,18.51851851851852,0)" xlink:href="#j"/><use transform="matrix(0.06172839506172839,0,0,0.06172839506172839,24.691358024691358,0)" xlink:href="#k"/><use transform="matrix(0.06172839506172839,0,0,0.06172839506172839,32.53086419753086,0)" xlink:href="#l"/><use transform="matrix(0.06172839506172839,0,0,0.06172839506172839,43.641975308641975,0)" xlink:href="#m"/><use transform="matrix(0.06172839506172839,0,0,0.06172839506172839,49.81481481481482,0)" xlink:href="#h"/><use transform="matrix(0.06172839506172839,0,0,0.06172839506172839,62.160493827160494,0)" xlink:href="#k"/><use transform="matrix(0.06172839506172839,0,0,0.06172839506172839,70,0)" xlink:href="#n"/></g><path fill="#3a414a" d="M100-194c63 0 86 42 84 106H49c0 40 14 67 53 68 26 1 43-12 49-29l28 8c-11 28-37 45-77 45C44 4 14-33 15-96c1-61 26-98 85-98zm52 81c6-60-76-77-97-28-3 7-6 17-6 28h103" id="o"/><path fill="#3a414a" d="M85-194c31 0 48 13 60 33l-1-100h32l1 261h-30c-2-10 0-23-3-31C134-8 116 4 85 4 32 4 16-35 15-94c0-66 23-100 70-100zm9 24c-40 0-46 34-46 75 0 40 6 74 45 74 42 0 51-32 51-76 0-42-9-74-50-73" id="p"/><path fill="#3a414a" d="M3 75V52h41v-290H3v-23h71V75H3" id="q"/><g id="b"><use transform="matrix(0.06172839506172839,0,0,0.06172839506172839,0,0)" xlink:href="#k"/><use transform="matrix(0.06172839506172839,0,0,0.06172839506172839,7.8395061728395055,0)" xlink:href="#m"/><use transform="matrix(0.06172839506172839,0,0,0.06172839506172839,14.012345679012345,0)" xlink:href="#o"/><use transform="matrix(0.06172839506172839,0,0,0.06172839506172839,26.358024691358025,0)" xlink:href="#p"/><use transform="matrix(0.06172839506172839,0,0,0.06172839506172839,38.7037037037037,0)" xlink:href="#k"/><use transform="matrix(0.06172839506172839,0,0,0.06172839506172839,46.54320987654321,0)" xlink:href="#q"/></g><path fill="#3a414a" d="M115-194c53 0 69 39 70 98 0 66-23 100-70 100C84 3 66-7 56-30L54 0H23l1-261h32v101c10-23 28-34 59-34zm-8 174c40 0 45-34 45-75 0-40-5-75-45-74-42 0-51 32-51 76 0 43 10 73 51 73" id="r"/><path fill="#3a414a" d="M194-70c0 46-34 64-81 66v29H91V-4C42-5 12-27 4-67l30-6c5 28 25 41 57 43v-87c-38-9-76-20-76-67 1-42 33-58 76-59v-23h22v23c45 0 67 20 76 56l-31 6c-5-23-18-35-45-37v78c41 10 81 20 81 70zm-81 41c51 7 71-66 19-77-6-2-12-4-19-6v83zM91-219c-47-6-63 57-18 69 6 2 12 3 18 5v-74" id="s"/><path fill="#3a414a" d="M39-94c74 12-11 154 75 146v23c-44 4-70-10-70-52C44-23 55-84 6-82v-22c81 4-7-162 84-157h24v23c-82-15-2 131-75 144" id="t"/><path fill="#3a414a" d="M101-251c68 0 85 55 85 127S166 4 100 4C33 4 14-52 14-124c0-73 17-127 87-127zm-1 229c47 0 54-49 54-102s-4-102-53-102c-51 0-55 48-55 102 0 53 5 102 54 102" id="u"/><path fill="#3a414a" d="M76-40C78 24 84 88 6 75V52C86 64 9-79 80-94c-40-6-34-59-34-106 1-29-11-41-40-38v-23c44-4 70 10 70 52 0 47-12 108 38 105v22c-26 1-39 14-38 42" id="v"/><g id="c"><use transform="matrix(0.06172839506172839,0,0,0.06172839506172839,0,0)" xlink:href="#r"/><use transform="matrix(0.06172839506172839,0,0,0.06172839506172839,12.345679012345679,0)" xlink:href="#i"/><use transform="matrix(0.06172839506172839,0,0,0.06172839506172839,18.51851851851852,0)" xlink:href="#s"/><use transform="matrix(0.06172839506172839,0,0,0.06172839506172839,30.864197530864196,0)" xlink:href="#t"/><use transform="matrix(0.06172839506172839,0,0,0.06172839506172839,38.2716049382716,0)" xlink:href="#h"/><use transform="matrix(0.06172839506172839,0,0,0.06172839506172839,50.61728395061728,0)" xlink:href="#j"/><use transform="matrix(0.06172839506172839,0,0,0.06172839506172839,56.79012345679012,0)" xlink:href="#u"/><use transform="matrix(0.06172839506172839,0,0,0.06172839506172839,69.1358024691358,0)" xlink:href="#q"/><use transform="matrix(0.06172839506172839,0,0,0.06172839506172839,75.30864197530863,0)" xlink:href="#v"/></g><path fill="#3a414a" d="M27 0v-27h64v-190l-56 39v-29l58-41h29v221h61V0H27" id="w"/><g id="d"><use transform="matrix(0.06172839506172839,0,0,0.06172839506172839,0,0)" xlink:href="#r"/><use transform="matrix(0.06172839506172839,0,0,0.06172839506172839,12.345679012345679,0)" xlink:href="#i"/><use transform="matrix(0.06172839506172839,0,0,0.06172839506172839,18.51851851851852,0)" xlink:href="#s"/><use transform="matrix(0.06172839506172839,0,0,0.06172839506172839,30.864197530864196,0)" xlink:href="#t"/><use transform="matrix(0.06172839506172839,0,0,0.06172839506172839,38.2716049382716,0)" xlink:href="#h"/><use transform="matrix(0.06172839506172839,0,0,0.06172839506172839,50.61728395061728,0)" xlink:href="#j"/><use transform="matrix(0.06172839506172839,0,0,0.06172839506172839,56.79012345679012,0)" xlink:href="#w"/><use transform="matrix(0.06172839506172839,0,0,0.06172839506172839,69.1358024691358,0)" xlink:href="#q"/><use transform="matrix(0.06172839506172839,0,0,0.06172839506172839,75.30864197530863,0)" xlink:href="#v"/></g><path fill="#3a414a" d="M234-2c-28 10-62 0-77-18C117 19 8 12 13-65c3-43 29-61 60-76-25-40-17-114 47-108 35 3 59 15 59 50 0 44-40 53-71 69 14 26 32 50 51 72 14-21 24-43 30-72l26 8c-9 33-21 57-38 82 13 13 33 22 57 15v23zM97-151c25-10 52-18 56-48-1-18-13-29-33-29-42 0-39 50-23 77zM42-66c-3 51 71 58 98 28-20-24-41-51-56-80-23 10-40 24-42 52" id="x"/><path fill="#3a414a" d="M47-170H22l-4-78h33" id="y"/><g id="e"><use transform="matrix(0.061728395061728385,0,0,0.061728395061728385,0,0)" xlink:href="#p"/><use transform="matrix(0.061728395061728385,0,0,0.061728395061728385,12.345679012345677,0)" xlink:href="#i"/><use transform="matrix(0.061728395061728385,0,0,0.061728395061728385,18.518518518518515,0)" xlink:href="#s"/><use transform="matrix(0.061728395061728385,0,0,0.061728395061728385,30.864197530864192,0)" xlink:href="#t"/><use transform="matrix(0.061728395061728385,0,0,0.061728395061728385,38.2716049382716,0)" xlink:href="#h"/><use transform="matrix(0.061728395061728385,0,0,0.061728395061728385,50.61728395061728,0)" xlink:href="#x"/><use transform="matrix(0.061728395061728385,0,0,0.061728395061728385,65.43209876543209,0)" xlink:href="#y"/></g><g id="f"><use transform="matrix(0.061728395061728385,0,0,0.061728395061728385,0,0)" xlink:href="#y"/><use transform="matrix(0.061728395061728385,0,0,0.061728395061728385,4.19753086419753,0)" xlink:href="#x"/><use transform="matrix(0.061728395061728385,0,0,0.061728395061728385,19.01234567901234,0)" xlink:href="#r"/><use transform="matrix(0.061728395061728385,0,0,0.061728395061728385,31.35802469135802,0)" xlink:href="#v"/></g><g id="g"><use transform="matrix(0.17901234567901192,0,0,0.17901234567901192,0,0)" xlink:href="#t"/><use transform="matrix(0.17901234567901192,0,0,0.17901234567901192,21.48148148148143,0)" xlink:href="#l"/><use transform="matrix(0.17901234567901192,0,0,0.17901234567901192,53.703703703703574,0)" xlink:href="#m"/><use transform="matrix(0.17901234567901192,0,0,0.17901234567901192,71.60493827160477,0)" xlink:href="#h"/><use transform="matrix(0.17901234567901192,0,0,0.17901234567901192,107.40740740740715,0)" xlink:href="#m"/><use transform="matrix(0.17901234567901192,0,0,0.17901234567901192,125.30864197530835,0)" xlink:href="#o"/><use transform="matrix(0.17901234567901192,0,0,0.17901234567901192,161.11111111111074,0)" xlink:href="#p"/><use transform="matrix(0.17901234567901192,0,0,0.17901234567901192,196.9135802469131,0)" xlink:href="#v"/></g></defs></g></svg>